%TF.GenerationSoftware,KiCad,Pcbnew,(5.1.10)-1*%
%TF.CreationDate,2021-06-06T00:22:09+02:00*%
%TF.ProjectId,LakeTemp,4c616b65-5465-46d7-902e-6b696361645f,2.0*%
%TF.SameCoordinates,Original*%
%TF.FileFunction,Copper,L2,Bot*%
%TF.FilePolarity,Positive*%
%FSLAX46Y46*%
G04 Gerber Fmt 4.6, Leading zero omitted, Abs format (unit mm)*
G04 Created by KiCad (PCBNEW (5.1.10)-1) date 2021-06-06 00:22:09*
%MOMM*%
%LPD*%
G01*
G04 APERTURE LIST*
%TA.AperFunction,ComponentPad*%
%ADD10O,1.700000X1.700000*%
%TD*%
%TA.AperFunction,ComponentPad*%
%ADD11R,1.700000X1.700000*%
%TD*%
%TA.AperFunction,ComponentPad*%
%ADD12C,1.550000*%
%TD*%
%TA.AperFunction,ComponentPad*%
%ADD13R,1.550000X1.550000*%
%TD*%
%TA.AperFunction,ComponentPad*%
%ADD14R,1.500000X1.050000*%
%TD*%
%TA.AperFunction,ComponentPad*%
%ADD15O,1.500000X1.050000*%
%TD*%
%TA.AperFunction,ComponentPad*%
%ADD16O,1.200000X1.750000*%
%TD*%
%TA.AperFunction,ComponentPad*%
%ADD17C,2.000000*%
%TD*%
%TA.AperFunction,ComponentPad*%
%ADD18C,1.500000*%
%TD*%
%TA.AperFunction,ComponentPad*%
%ADD19O,1.750000X1.200000*%
%TD*%
%TA.AperFunction,ComponentPad*%
%ADD20C,2.600000*%
%TD*%
%TA.AperFunction,ComponentPad*%
%ADD21R,2.600000X2.600000*%
%TD*%
%TA.AperFunction,SMDPad,CuDef*%
%ADD22R,1.500000X1.000000*%
%TD*%
%TA.AperFunction,ViaPad*%
%ADD23C,0.800000*%
%TD*%
%TA.AperFunction,ViaPad*%
%ADD24C,1.000000*%
%TD*%
%TA.AperFunction,Conductor*%
%ADD25C,0.500000*%
%TD*%
%TA.AperFunction,Conductor*%
%ADD26C,0.250000*%
%TD*%
%TA.AperFunction,Conductor*%
%ADD27C,0.254000*%
%TD*%
%TA.AperFunction,Conductor*%
%ADD28C,0.100000*%
%TD*%
G04 APERTURE END LIST*
D10*
%TO.P,J11,4*%
%TO.N,SDA*%
X128080000Y-89432000D03*
%TO.P,J11,3*%
%TO.N,SCL*%
X128080000Y-91972000D03*
%TO.P,J11,2*%
%TO.N,GND*%
X128080000Y-94512000D03*
D11*
%TO.P,J11,1*%
%TO.N,+3V3*%
X128080000Y-97052000D03*
%TD*%
D12*
%TO.P,RV1,2*%
%TO.N,LCD_CONTRAST*%
X189263000Y-76998000D03*
D13*
%TO.P,RV1,1*%
%TO.N,Net-(C4-Pad1)*%
X194263000Y-74498000D03*
D12*
%TO.P,RV1,3*%
%TO.N,GND*%
X194263000Y-79498000D03*
%TD*%
D14*
%TO.P,U5,1*%
%TO.N,GND*%
X181510000Y-94368000D03*
D15*
%TO.P,U5,3*%
%TO.N,ONEWIRE_PWR*%
X181510000Y-96908000D03*
%TO.P,U5,2*%
%TO.N,ONEWIRE_BUS*%
X181510000Y-95638000D03*
%TD*%
D16*
%TO.P,J2,6*%
%TO.N,WATER_LEVEL*%
X175010000Y-94074000D03*
%TO.P,J2,5*%
%TO.N,ONEWIRE_BUS*%
X173010000Y-94074000D03*
%TO.P,J2,4*%
%TO.N,ONEWIRE_PWR*%
X171010000Y-94074000D03*
%TO.P,J2,3*%
%TO.N,+3V3*%
X169010000Y-94074000D03*
%TO.P,J2,2*%
%TO.N,+5V*%
X167010000Y-94074000D03*
%TO.P,J2,1*%
%TO.N,GND*%
%TA.AperFunction,ComponentPad*%
G36*
G01*
X164410000Y-94699001D02*
X164410000Y-93448999D01*
G75*
G02*
X164659999Y-93199000I249999J0D01*
G01*
X165360001Y-93199000D01*
G75*
G02*
X165610000Y-93448999I0J-249999D01*
G01*
X165610000Y-94699001D01*
G75*
G02*
X165360001Y-94949000I-249999J0D01*
G01*
X164659999Y-94949000D01*
G75*
G02*
X164410000Y-94699001I0J249999D01*
G01*
G37*
%TD.AperFunction*%
%TD*%
D17*
%TO.P,SW2,1*%
%TO.N,GND*%
X171265000Y-73230000D03*
%TO.P,SW2,2*%
%TO.N,Net-(R7-Pad1)*%
X166765000Y-73230000D03*
%TO.P,SW2,1*%
%TO.N,GND*%
X171265000Y-66730000D03*
%TO.P,SW2,2*%
%TO.N,Net-(R7-Pad1)*%
X166765000Y-66730000D03*
%TD*%
%TO.P,SW1,1*%
%TO.N,GND*%
X158515000Y-66730000D03*
%TO.P,SW1,2*%
%TO.N,Net-(R5-Pad1)*%
X163015000Y-66730000D03*
%TO.P,SW1,1*%
%TO.N,GND*%
X158515000Y-73230000D03*
%TO.P,SW1,2*%
%TO.N,Net-(R5-Pad1)*%
X163015000Y-73230000D03*
%TD*%
D10*
%TO.P,JP2,3*%
%TO.N,Net-(JP2-Pad3)*%
X118590000Y-81628000D03*
%TO.P,JP2,2*%
%TO.N,Net-(J6-Pad2)*%
X116050000Y-81628000D03*
D11*
%TO.P,JP2,1*%
%TO.N,GND*%
X113510000Y-81628000D03*
%TD*%
D16*
%TO.P,J3,6*%
%TO.N,Net-(J3-Pad6)*%
X174510000Y-109274000D03*
%TO.P,J3,5*%
%TO.N,Net-(J3-Pad5)*%
X172510000Y-109274000D03*
%TO.P,J3,4*%
%TO.N,Net-(J3-Pad4)*%
X170510000Y-109274000D03*
%TO.P,J3,3*%
%TO.N,Net-(J3-Pad3)*%
X168510000Y-109274000D03*
%TO.P,J3,2*%
%TO.N,Net-(J1-Pad2)*%
X166510000Y-109274000D03*
%TO.P,J3,1*%
%TO.N,GND1*%
%TA.AperFunction,ComponentPad*%
G36*
G01*
X163910000Y-109899001D02*
X163910000Y-108648999D01*
G75*
G02*
X164159999Y-108399000I249999J0D01*
G01*
X164860001Y-108399000D01*
G75*
G02*
X165110000Y-108648999I0J-249999D01*
G01*
X165110000Y-109899001D01*
G75*
G02*
X164860001Y-110149000I-249999J0D01*
G01*
X164159999Y-110149000D01*
G75*
G02*
X163910000Y-109899001I0J249999D01*
G01*
G37*
%TD.AperFunction*%
%TD*%
D10*
%TO.P,J9,4*%
%TO.N,SDA*%
X124143000Y-89432000D03*
%TO.P,J9,3*%
%TO.N,SCL*%
X124143000Y-91972000D03*
%TO.P,J9,2*%
%TO.N,GND*%
X124143000Y-94512000D03*
D11*
%TO.P,J9,1*%
%TO.N,+3V3*%
X124143000Y-97052000D03*
%TD*%
D18*
%TO.P,R14,2*%
%TO.N,LDR*%
X114054000Y-55064000D03*
%TO.P,R14,1*%
%TO.N,+3V3*%
X110654000Y-55064000D03*
%TD*%
D19*
%TO.P,J10,3*%
%TO.N,TOUCH_IO*%
X113967000Y-63000000D03*
%TO.P,J10,2*%
%TO.N,+3V3*%
X113967000Y-65000000D03*
%TO.P,J10,1*%
%TO.N,GND*%
%TA.AperFunction,ComponentPad*%
G36*
G01*
X114592001Y-67600000D02*
X113341999Y-67600000D01*
G75*
G02*
X113092000Y-67350001I0J249999D01*
G01*
X113092000Y-66649999D01*
G75*
G02*
X113341999Y-66400000I249999J0D01*
G01*
X114592001Y-66400000D01*
G75*
G02*
X114842000Y-66649999I0J-249999D01*
G01*
X114842000Y-67350001D01*
G75*
G02*
X114592001Y-67600000I-249999J0D01*
G01*
G37*
%TD.AperFunction*%
%TD*%
D10*
%TO.P,J8,14*%
%TO.N,LCD_DB7*%
X161490000Y-61750000D03*
%TO.P,J8,13*%
%TO.N,LCD_DB6*%
X164030000Y-61750000D03*
%TO.P,J8,12*%
%TO.N,LCD_DB5*%
X166570000Y-61750000D03*
%TO.P,J8,11*%
%TO.N,LCD_DB4*%
X169110000Y-61750000D03*
%TO.P,J8,10*%
%TO.N,GND*%
X171650000Y-61750000D03*
%TO.P,J8,9*%
X174190000Y-61750000D03*
%TO.P,J8,8*%
X176730000Y-61750000D03*
%TO.P,J8,7*%
X179270000Y-61750000D03*
%TO.P,J8,6*%
%TO.N,LCD_E*%
X181810000Y-61750000D03*
%TO.P,J8,5*%
%TO.N,LCD_RW*%
X184350000Y-61750000D03*
%TO.P,J8,4*%
%TO.N,LCD_RS*%
X186890000Y-61750000D03*
%TO.P,J8,3*%
%TO.N,LCD_CONTRAST*%
X189430000Y-61750000D03*
%TO.P,J8,2*%
%TO.N,+5V*%
X191970000Y-61750000D03*
D11*
%TO.P,J8,1*%
%TO.N,GND*%
X194510000Y-61750000D03*
%TD*%
D10*
%TO.P,J7,4*%
%TO.N,+3V3*%
X143330000Y-86182000D03*
%TO.P,J7,3*%
%TO.N,GND*%
X140790000Y-86182000D03*
%TO.P,J7,2*%
%TO.N,ESP_RX*%
X138250000Y-86182000D03*
D11*
%TO.P,J7,1*%
%TO.N,ESP_TX*%
X135710000Y-86182000D03*
%TD*%
D19*
%TO.P,J6,2*%
%TO.N,Net-(J6-Pad2)*%
X114010000Y-74000000D03*
%TO.P,J6,1*%
%TO.N,+5V*%
%TA.AperFunction,ComponentPad*%
G36*
G01*
X114635001Y-76600000D02*
X113384999Y-76600000D01*
G75*
G02*
X113135000Y-76350001I0J249999D01*
G01*
X113135000Y-75649999D01*
G75*
G02*
X113384999Y-75400000I249999J0D01*
G01*
X114635001Y-75400000D01*
G75*
G02*
X114885000Y-75649999I0J-249999D01*
G01*
X114885000Y-76350001D01*
G75*
G02*
X114635001Y-76600000I-249999J0D01*
G01*
G37*
%TD.AperFunction*%
%TD*%
D20*
%TO.P,J5,2*%
%TO.N,Net-(J3-Pad6)*%
X184745000Y-124480000D03*
D21*
%TO.P,J5,1*%
%TO.N,Net-(J3-Pad3)*%
X179665000Y-124480000D03*
%TD*%
%TO.P,J4,1*%
%TO.N,Net-(J3-Pad4)*%
X164425000Y-124480000D03*
D20*
%TO.P,J4,2*%
%TO.N,Net-(J3-Pad5)*%
X169505000Y-124480000D03*
%TO.P,J4,3*%
%TO.N,GND1*%
X174585000Y-124480000D03*
%TD*%
%TO.P,J1,2*%
%TO.N,Net-(J1-Pad2)*%
X159345000Y-124480000D03*
D21*
%TO.P,J1,1*%
%TO.N,GND1*%
X154265000Y-124480000D03*
%TD*%
D22*
%TO.P,D5,1*%
%TO.N,+5V*%
X118110000Y-56850000D03*
%TO.P,D5,2*%
%TO.N,Net-(D5-Pad2)*%
X118110000Y-53650000D03*
%TO.P,D5,4*%
%TO.N,WS2812B*%
X123010000Y-56850000D03*
%TO.P,D5,3*%
%TO.N,GND*%
X123010000Y-53650000D03*
%TD*%
D23*
%TO.N,GND*%
X129874000Y-62814000D03*
X133160000Y-90702000D03*
X130620000Y-90702000D03*
X135446000Y-81610000D03*
X139510000Y-70434000D03*
X124778000Y-76530000D03*
X134430000Y-76022000D03*
X142558000Y-70434000D03*
X186493000Y-86746000D03*
X186747000Y-83848000D03*
X182946000Y-63634000D03*
X145606000Y-84658000D03*
X164125000Y-88070000D03*
X120560000Y-53726000D03*
X120560000Y-56774000D03*
X118020000Y-55250000D03*
X123100000Y-55250000D03*
X149930000Y-84662000D03*
X157595000Y-70050000D03*
X172665000Y-79070000D03*
X188660000Y-63528000D03*
X129874000Y-76403000D03*
X189272000Y-67894000D03*
X197215500Y-66624000D03*
X144784000Y-67888000D03*
%TO.N,+5V*%
X188033000Y-98961000D03*
X187367000Y-67005000D03*
X122508000Y-63830000D03*
X125302000Y-78054000D03*
X146622000Y-94818000D03*
D24*
X170224000Y-81964000D03*
D23*
%TO.N,+3V3*%
X185928000Y-94488000D03*
%TO.N,SDA*%
X148654000Y-84658000D03*
X155258000Y-68656000D03*
X155258000Y-75641000D03*
X161608000Y-71196000D03*
X144388000Y-89432000D03*
X148654000Y-88722000D03*
%TO.N,SCL*%
X153988000Y-66116000D03*
X147130000Y-84658000D03*
X153988000Y-75641000D03*
X161608000Y-69926000D03*
%TO.N,LCD_LED*%
X128560000Y-81050000D03*
X180840000Y-66548000D03*
X128560000Y-79070000D03*
X166688000Y-79070000D03*
X168720000Y-77038000D03*
%TO.N,TOUCH_IO*%
X134112000Y-68834000D03*
X124841000Y-68834000D03*
%TO.N,ONEWIRE_BUS*%
X175510000Y-88074000D03*
X168010000Y-92574000D03*
X137478000Y-80594000D03*
X161860000Y-88082000D03*
%TO.N,WS2812B*%
X129921000Y-74879000D03*
%TO.N,WATER_LEVEL*%
X139510000Y-81610000D03*
X160844000Y-88082000D03*
%TO.N,ESP_RX*%
X143574000Y-83642000D03*
%TO.N,ESP_TX*%
X141542000Y-82626000D03*
%TO.N,Net-(R5-Pad1)*%
X134112000Y-62865000D03*
X129874000Y-66675000D03*
%TO.N,Net-(R7-Pad1)*%
X144590000Y-70942000D03*
%TO.N,Net-(C4-Pad1)*%
X192425500Y-66624000D03*
%TO.N,GND1*%
X171510000Y-111074000D03*
X180512000Y-110036000D03*
%TD*%
D25*
%TO.N,+5V*%
X122492000Y-63830000D02*
X122492000Y-75978000D01*
X122492000Y-61232000D02*
X118110000Y-56850000D01*
X122492000Y-63830000D02*
X122492000Y-61232000D01*
X167010000Y-94074000D02*
X167010000Y-89534000D01*
X170224000Y-86320000D02*
X170224000Y-81964000D01*
X167010000Y-89534000D02*
X170224000Y-86320000D01*
X171756000Y-81964000D02*
X170224000Y-81964000D01*
X167010000Y-94074000D02*
X167010000Y-97474000D01*
X122470000Y-76000000D02*
X114010000Y-76000000D01*
X170224000Y-81964000D02*
X170224000Y-80704000D01*
D26*
X151906000Y-89534000D02*
X146622000Y-94818000D01*
X167010000Y-89534000D02*
X151906000Y-89534000D01*
D25*
X122470000Y-76000000D02*
X122470000Y-76254000D01*
X122470000Y-76254000D02*
X124270000Y-78054000D01*
X167574000Y-78054000D02*
X170224000Y-80704000D01*
X124270000Y-78054000D02*
X167574000Y-78054000D01*
X168497000Y-98961000D02*
X167010000Y-97474000D01*
X188033000Y-98961000D02*
X168497000Y-98961000D01*
X191970000Y-61750000D02*
X191970000Y-63799000D01*
X173805000Y-81964000D02*
X171756000Y-81964000D01*
X187367000Y-67005000D02*
X188065500Y-67703500D01*
X188065500Y-67703500D02*
X173805000Y-81964000D01*
X191970000Y-63799000D02*
X188065500Y-67703500D01*
%TO.N,+3V3*%
X169010000Y-94074000D02*
X169010000Y-96374000D01*
X169010000Y-96374000D02*
X169010000Y-97382000D01*
X169010000Y-97382000D02*
X169672000Y-98044000D01*
X169672000Y-98044000D02*
X182372000Y-98044000D01*
X182372000Y-98044000D02*
X185928000Y-94488000D01*
X185928000Y-94488000D02*
X185928000Y-94488000D01*
D26*
%TO.N,SDA*%
X155258000Y-71196000D02*
X161608000Y-71196000D01*
X155258000Y-68656000D02*
X155258000Y-71196000D01*
X155258000Y-71196000D02*
X155258000Y-75641000D01*
X161608000Y-71196000D02*
X161608000Y-71196000D01*
X124143000Y-89432000D02*
X144388000Y-89432000D01*
X144388000Y-89432000D02*
X144388000Y-89432000D01*
X148654000Y-88722000D02*
X148654000Y-84658000D01*
%TO.N,SCL*%
X153988000Y-67386000D02*
X156528000Y-67386000D01*
X156528000Y-67386000D02*
X159068000Y-69926000D01*
X159068000Y-69926000D02*
X161608000Y-69926000D01*
X161608000Y-69926000D02*
X161608000Y-69926000D01*
X124143000Y-91972000D02*
X143880000Y-91972000D01*
X147130000Y-88722000D02*
X147130000Y-84658000D01*
X143880000Y-91972000D02*
X147130000Y-88722000D01*
X153988000Y-75641000D02*
X153988000Y-66116000D01*
%TO.N,LCD_LED*%
X128588000Y-79070000D02*
X166688000Y-79070000D01*
X175324000Y-77038000D02*
X168720000Y-77038000D01*
X180840000Y-71522000D02*
X175324000Y-77038000D01*
X180840000Y-66548000D02*
X180840000Y-71522000D01*
X128560000Y-79098000D02*
X128588000Y-79070000D01*
X128560000Y-79070000D02*
X128560000Y-81050000D01*
%TO.N,TOUCH_IO*%
X134112000Y-68834000D02*
X124841000Y-68834000D01*
%TO.N,ONEWIRE_BUS*%
X168010000Y-92574000D02*
X173010000Y-92574000D01*
X173010000Y-92574000D02*
X173010000Y-94074000D01*
X173010000Y-94074000D02*
X173010000Y-95074000D01*
X173574000Y-95638000D02*
X181510000Y-95638000D01*
X173010000Y-95074000D02*
X173574000Y-95638000D01*
X175510000Y-90074000D02*
X173010000Y-92574000D01*
X175510000Y-88074000D02*
X175510000Y-90074000D01*
X159322000Y-80594000D02*
X137478000Y-80594000D01*
X160338000Y-80594000D02*
X159322000Y-80594000D01*
X161860000Y-82116000D02*
X160338000Y-80594000D01*
X161860000Y-88082000D02*
X161860000Y-82116000D01*
%TO.N,WS2812B*%
X123734999Y-57574999D02*
X123010000Y-56850000D01*
X123734999Y-72426999D02*
X123734999Y-57574999D01*
X126187000Y-74879000D02*
X123734999Y-72426999D01*
X129921000Y-74879000D02*
X126187000Y-74879000D01*
%TO.N,WATER_LEVEL*%
X154370410Y-81610000D02*
X139510000Y-81610000D01*
X159830000Y-81610000D02*
X154370410Y-81610000D01*
X160844000Y-82624000D02*
X159830000Y-81610000D01*
X160844000Y-88082000D02*
X160844000Y-82624000D01*
D25*
%TO.N,ONEWIRE_PWR*%
X181510000Y-96908000D02*
X172080000Y-96908000D01*
X171010000Y-95838000D02*
X171010000Y-94074000D01*
X172080000Y-96908000D02*
X171010000Y-95838000D01*
D26*
%TO.N,ESP_RX*%
X140790000Y-83642000D02*
X143574000Y-83642000D01*
X138250000Y-86182000D02*
X140790000Y-83642000D01*
%TO.N,ESP_TX*%
X139266000Y-82626000D02*
X135710000Y-86182000D01*
X141542000Y-82626000D02*
X139266000Y-82626000D01*
%TO.N,Net-(R5-Pad1)*%
X163015000Y-73230000D02*
X163015000Y-66730000D01*
X163015000Y-66730000D02*
X160623000Y-64338000D01*
X160623000Y-64338000D02*
X134176000Y-64338000D01*
X134176000Y-62929000D02*
X134112000Y-62865000D01*
X134112000Y-64402000D02*
X131839000Y-66675000D01*
X134112000Y-62865000D02*
X134112000Y-64402000D01*
X131839000Y-66675000D02*
X129874000Y-66675000D01*
%TO.N,Net-(R7-Pad1)*%
X166765000Y-73230000D02*
X166765000Y-66730000D01*
X144590000Y-70942000D02*
X144590000Y-72466000D01*
X144590000Y-72466000D02*
X149162000Y-77038000D01*
X162957000Y-77038000D02*
X166765000Y-73230000D01*
X149162000Y-77038000D02*
X162957000Y-77038000D01*
%TO.N,Net-(C4-Pad1)*%
X193515000Y-67713500D02*
X192425500Y-66624000D01*
X194263000Y-68461500D02*
X194106250Y-68304750D01*
X194263000Y-74498000D02*
X194263000Y-68461500D01*
X194106250Y-68304750D02*
X193515000Y-67713500D01*
X194272000Y-68470500D02*
X194106250Y-68304750D01*
D25*
%TO.N,Net-(J3-Pad5)*%
X172510000Y-121475000D02*
X169505000Y-124480000D01*
X172510000Y-109274000D02*
X172510000Y-121475000D01*
%TO.N,Net-(J3-Pad4)*%
X170510000Y-118395000D02*
X164425000Y-124480000D01*
X170510000Y-109274000D02*
X170510000Y-118395000D01*
%TD*%
D27*
%TO.N,GND*%
X123463893Y-51457670D02*
X123900498Y-51589489D01*
X124303185Y-51803600D01*
X124656612Y-52091848D01*
X124947327Y-52443261D01*
X125164242Y-52844439D01*
X125299106Y-53280113D01*
X125350001Y-53764353D01*
X125350000Y-57282418D01*
X125352818Y-57311027D01*
X125352753Y-57320288D01*
X125353652Y-57329460D01*
X125384252Y-57620605D01*
X125396283Y-57679217D01*
X125407489Y-57737963D01*
X125410153Y-57746784D01*
X125496721Y-58026440D01*
X125519899Y-58081578D01*
X125542311Y-58137050D01*
X125546638Y-58145186D01*
X125685877Y-58402702D01*
X125719304Y-58452259D01*
X125752080Y-58502347D01*
X125757905Y-58509488D01*
X125944510Y-58735056D01*
X125986965Y-58777215D01*
X126028809Y-58819945D01*
X126035909Y-58825819D01*
X126262773Y-59010845D01*
X126312566Y-59043927D01*
X126361955Y-59077745D01*
X126370061Y-59082127D01*
X126628542Y-59219564D01*
X126683836Y-59242355D01*
X126738829Y-59265925D01*
X126747632Y-59268650D01*
X127027887Y-59353264D01*
X127086564Y-59364882D01*
X127145079Y-59377320D01*
X127154242Y-59378283D01*
X127154244Y-59378283D01*
X127445596Y-59406850D01*
X127672540Y-59429102D01*
X127828894Y-59476308D01*
X127973096Y-59552982D01*
X128099663Y-59656207D01*
X128203769Y-59782051D01*
X128281447Y-59925711D01*
X128329742Y-60081729D01*
X128352882Y-60301890D01*
X128352753Y-60320288D01*
X128353652Y-60329460D01*
X128384252Y-60620605D01*
X128396283Y-60679217D01*
X128407489Y-60737963D01*
X128410153Y-60746784D01*
X128496721Y-61026440D01*
X128519899Y-61081578D01*
X128542311Y-61137050D01*
X128546638Y-61145186D01*
X128685877Y-61402702D01*
X128719304Y-61452259D01*
X128752080Y-61502347D01*
X128757905Y-61509488D01*
X128944510Y-61735056D01*
X128986965Y-61777215D01*
X129028809Y-61819945D01*
X129035909Y-61825819D01*
X129262773Y-62010845D01*
X129312566Y-62043927D01*
X129361955Y-62077745D01*
X129370061Y-62082127D01*
X129628542Y-62219564D01*
X129683836Y-62242355D01*
X129738829Y-62265925D01*
X129747632Y-62268650D01*
X130027887Y-62353264D01*
X130086564Y-62364882D01*
X130145079Y-62377320D01*
X130154242Y-62378283D01*
X130154244Y-62378283D01*
X130445596Y-62406850D01*
X130445598Y-62406850D01*
X130477581Y-62410000D01*
X133180191Y-62410000D01*
X133116774Y-62563102D01*
X133077000Y-62763061D01*
X133077000Y-62966939D01*
X133116774Y-63166898D01*
X133194795Y-63355256D01*
X133308063Y-63524774D01*
X133352000Y-63568711D01*
X133352001Y-64087196D01*
X131524199Y-65915000D01*
X130577711Y-65915000D01*
X130533774Y-65871063D01*
X130364256Y-65757795D01*
X130175898Y-65679774D01*
X129975939Y-65640000D01*
X129772061Y-65640000D01*
X129572102Y-65679774D01*
X129383744Y-65757795D01*
X129214226Y-65871063D01*
X129070063Y-66015226D01*
X128956795Y-66184744D01*
X128878774Y-66373102D01*
X128839000Y-66573061D01*
X128839000Y-66776939D01*
X128878774Y-66976898D01*
X128956795Y-67165256D01*
X129070063Y-67334774D01*
X129214226Y-67478937D01*
X129383744Y-67592205D01*
X129572102Y-67670226D01*
X129772061Y-67710000D01*
X129975939Y-67710000D01*
X130175898Y-67670226D01*
X130364256Y-67592205D01*
X130533774Y-67478937D01*
X130577711Y-67435000D01*
X131801678Y-67435000D01*
X131839000Y-67438676D01*
X131876322Y-67435000D01*
X131876333Y-67435000D01*
X131987986Y-67424003D01*
X132131247Y-67380546D01*
X132263276Y-67309974D01*
X132379001Y-67215001D01*
X132402804Y-67185998D01*
X134490803Y-65098000D01*
X153800596Y-65098000D01*
X153686102Y-65120774D01*
X153497744Y-65198795D01*
X153328226Y-65312063D01*
X153184063Y-65456226D01*
X153070795Y-65625744D01*
X152992774Y-65814102D01*
X152953000Y-66014061D01*
X152953000Y-66217939D01*
X152992774Y-66417898D01*
X153070795Y-66606256D01*
X153184063Y-66775774D01*
X153228001Y-66819712D01*
X153228001Y-67348658D01*
X153224323Y-67386000D01*
X153228001Y-67423342D01*
X153228000Y-74937289D01*
X153184063Y-74981226D01*
X153070795Y-75150744D01*
X152992774Y-75339102D01*
X152953000Y-75539061D01*
X152953000Y-75742939D01*
X152992774Y-75942898D01*
X153070795Y-76131256D01*
X153168846Y-76278000D01*
X149476803Y-76278000D01*
X145350000Y-72151199D01*
X145350000Y-71645711D01*
X145393937Y-71601774D01*
X145507205Y-71432256D01*
X145585226Y-71243898D01*
X145625000Y-71043939D01*
X145625000Y-70840061D01*
X145585226Y-70640102D01*
X145507205Y-70451744D01*
X145393937Y-70282226D01*
X145249774Y-70138063D01*
X145080256Y-70024795D01*
X144891898Y-69946774D01*
X144691939Y-69907000D01*
X144488061Y-69907000D01*
X144288102Y-69946774D01*
X144099744Y-70024795D01*
X143930226Y-70138063D01*
X143786063Y-70282226D01*
X143672795Y-70451744D01*
X143594774Y-70640102D01*
X143555000Y-70840061D01*
X143555000Y-71043939D01*
X143594774Y-71243898D01*
X143672795Y-71432256D01*
X143786063Y-71601774D01*
X143830000Y-71645711D01*
X143830001Y-72428668D01*
X143826324Y-72466000D01*
X143840998Y-72614985D01*
X143884454Y-72758246D01*
X143955026Y-72890276D01*
X144018950Y-72968167D01*
X144050000Y-73006001D01*
X144078998Y-73029799D01*
X148218197Y-77169000D01*
X125840454Y-77169000D01*
X125792256Y-77136795D01*
X125603898Y-77058774D01*
X125403939Y-77019000D01*
X125200061Y-77019000D01*
X125000102Y-77058774D01*
X124811744Y-77136795D01*
X124763546Y-77169000D01*
X124636579Y-77169000D01*
X123377000Y-75909422D01*
X123377000Y-73143801D01*
X125623201Y-75390003D01*
X125646999Y-75419001D01*
X125675997Y-75442799D01*
X125762723Y-75513974D01*
X125894753Y-75584546D01*
X126038014Y-75628003D01*
X126149667Y-75639000D01*
X126149676Y-75639000D01*
X126186999Y-75642676D01*
X126224322Y-75639000D01*
X129217289Y-75639000D01*
X129261226Y-75682937D01*
X129430744Y-75796205D01*
X129619102Y-75874226D01*
X129819061Y-75914000D01*
X130022939Y-75914000D01*
X130222898Y-75874226D01*
X130411256Y-75796205D01*
X130580774Y-75682937D01*
X130724937Y-75538774D01*
X130838205Y-75369256D01*
X130916226Y-75180898D01*
X130956000Y-74980939D01*
X130956000Y-74777061D01*
X130916226Y-74577102D01*
X130838205Y-74388744D01*
X130724937Y-74219226D01*
X130580774Y-74075063D01*
X130411256Y-73961795D01*
X130222898Y-73883774D01*
X130022939Y-73844000D01*
X129819061Y-73844000D01*
X129619102Y-73883774D01*
X129430744Y-73961795D01*
X129261226Y-74075063D01*
X129217289Y-74119000D01*
X126501802Y-74119000D01*
X124494999Y-72112198D01*
X124494999Y-69810958D01*
X124539102Y-69829226D01*
X124739061Y-69869000D01*
X124942939Y-69869000D01*
X125142898Y-69829226D01*
X125331256Y-69751205D01*
X125500774Y-69637937D01*
X125544711Y-69594000D01*
X133408289Y-69594000D01*
X133452226Y-69637937D01*
X133621744Y-69751205D01*
X133810102Y-69829226D01*
X134010061Y-69869000D01*
X134213939Y-69869000D01*
X134413898Y-69829226D01*
X134602256Y-69751205D01*
X134771774Y-69637937D01*
X134915937Y-69493774D01*
X135029205Y-69324256D01*
X135107226Y-69135898D01*
X135147000Y-68935939D01*
X135147000Y-68732061D01*
X135107226Y-68532102D01*
X135029205Y-68343744D01*
X134915937Y-68174226D01*
X134771774Y-68030063D01*
X134602256Y-67916795D01*
X134413898Y-67838774D01*
X134213939Y-67799000D01*
X134010061Y-67799000D01*
X133810102Y-67838774D01*
X133621744Y-67916795D01*
X133452226Y-68030063D01*
X133408289Y-68074000D01*
X125544711Y-68074000D01*
X125500774Y-68030063D01*
X125331256Y-67916795D01*
X125142898Y-67838774D01*
X124942939Y-67799000D01*
X124739061Y-67799000D01*
X124539102Y-67838774D01*
X124494999Y-67857042D01*
X124494999Y-57612321D01*
X124498675Y-57574998D01*
X124494999Y-57537675D01*
X124494999Y-57537666D01*
X124484002Y-57426013D01*
X124440545Y-57282752D01*
X124398072Y-57203292D01*
X124398072Y-56350000D01*
X124385812Y-56225518D01*
X124349502Y-56105820D01*
X124290537Y-55995506D01*
X124211185Y-55898815D01*
X124114494Y-55819463D01*
X124004180Y-55760498D01*
X123884482Y-55724188D01*
X123760000Y-55711928D01*
X122260000Y-55711928D01*
X122135518Y-55724188D01*
X122015820Y-55760498D01*
X121905506Y-55819463D01*
X121808815Y-55898815D01*
X121729463Y-55995506D01*
X121670498Y-56105820D01*
X121634188Y-56225518D01*
X121621928Y-56350000D01*
X121621928Y-57350000D01*
X121634188Y-57474482D01*
X121670498Y-57594180D01*
X121729463Y-57704494D01*
X121808815Y-57801185D01*
X121905506Y-57880537D01*
X122015820Y-57939502D01*
X122135518Y-57975812D01*
X122260000Y-57988072D01*
X122975000Y-57988072D01*
X122975000Y-60463421D01*
X119498072Y-56986494D01*
X119498072Y-56350000D01*
X119485812Y-56225518D01*
X119449502Y-56105820D01*
X119390537Y-55995506D01*
X119311185Y-55898815D01*
X119214494Y-55819463D01*
X119104180Y-55760498D01*
X118984482Y-55724188D01*
X118860000Y-55711928D01*
X117360000Y-55711928D01*
X117235518Y-55724188D01*
X117115820Y-55760498D01*
X117005506Y-55819463D01*
X116908815Y-55898815D01*
X116829463Y-55995506D01*
X116770498Y-56105820D01*
X116734188Y-56225518D01*
X116721928Y-56350000D01*
X116721928Y-57350000D01*
X116734188Y-57474482D01*
X116770498Y-57594180D01*
X116829463Y-57704494D01*
X116908815Y-57801185D01*
X117005506Y-57880537D01*
X117115820Y-57939502D01*
X117235518Y-57975812D01*
X117360000Y-57988072D01*
X117996494Y-57988072D01*
X121607001Y-61598580D01*
X121607000Y-63315491D01*
X121590795Y-63339744D01*
X121512774Y-63528102D01*
X121473000Y-63728061D01*
X121473000Y-63931939D01*
X121512774Y-64131898D01*
X121590795Y-64320256D01*
X121607000Y-64344509D01*
X121607001Y-75115000D01*
X115339254Y-75115000D01*
X115262962Y-75022038D01*
X115128387Y-74911595D01*
X115123889Y-74909191D01*
X115162502Y-74877502D01*
X115316833Y-74689449D01*
X115431511Y-74474901D01*
X115502130Y-74242102D01*
X115525975Y-74000000D01*
X115502130Y-73757898D01*
X115431511Y-73525099D01*
X115316833Y-73310551D01*
X115162502Y-73122498D01*
X114974449Y-72968167D01*
X114759901Y-72853489D01*
X114527102Y-72782870D01*
X114345665Y-72765000D01*
X113674335Y-72765000D01*
X113492898Y-72782870D01*
X113260099Y-72853489D01*
X113045551Y-72968167D01*
X112857498Y-73122498D01*
X112703167Y-73310551D01*
X112588489Y-73525099D01*
X112517870Y-73757898D01*
X112494025Y-74000000D01*
X112517870Y-74242102D01*
X112588489Y-74474901D01*
X112703167Y-74689449D01*
X112857498Y-74877502D01*
X112896111Y-74909191D01*
X112891613Y-74911595D01*
X112757038Y-75022038D01*
X112646595Y-75156613D01*
X112564528Y-75310149D01*
X112513992Y-75476745D01*
X112496928Y-75649999D01*
X112496928Y-76350001D01*
X112513992Y-76523255D01*
X112564528Y-76689851D01*
X112646595Y-76843387D01*
X112757038Y-76977962D01*
X112891613Y-77088405D01*
X113045149Y-77170472D01*
X113211745Y-77221008D01*
X113384999Y-77238072D01*
X114635001Y-77238072D01*
X114808255Y-77221008D01*
X114974851Y-77170472D01*
X115128387Y-77088405D01*
X115262962Y-76977962D01*
X115339254Y-76885000D01*
X121843843Y-76885000D01*
X121874955Y-76910533D01*
X123613470Y-78649049D01*
X123641183Y-78682817D01*
X123674951Y-78710530D01*
X123674953Y-78710532D01*
X123745102Y-78768102D01*
X123775941Y-78793411D01*
X123929687Y-78875589D01*
X124096510Y-78926195D01*
X124226523Y-78939000D01*
X124226533Y-78939000D01*
X124269999Y-78943281D01*
X124313465Y-78939000D01*
X124763546Y-78939000D01*
X124811744Y-78971205D01*
X125000102Y-79049226D01*
X125200061Y-79089000D01*
X125403939Y-79089000D01*
X125603898Y-79049226D01*
X125792256Y-78971205D01*
X125840454Y-78939000D01*
X127530781Y-78939000D01*
X127525000Y-78968061D01*
X127525000Y-79171939D01*
X127564774Y-79371898D01*
X127642795Y-79560256D01*
X127756063Y-79729774D01*
X127800000Y-79773711D01*
X127800001Y-80346288D01*
X127756063Y-80390226D01*
X127642795Y-80559744D01*
X127564774Y-80748102D01*
X127525000Y-80948061D01*
X127525000Y-81151939D01*
X127564774Y-81351898D01*
X127642795Y-81540256D01*
X127756063Y-81709774D01*
X127900226Y-81853937D01*
X128069744Y-81967205D01*
X128258102Y-82045226D01*
X128458061Y-82085000D01*
X128661939Y-82085000D01*
X128861898Y-82045226D01*
X129050256Y-81967205D01*
X129219774Y-81853937D01*
X129363937Y-81709774D01*
X129477205Y-81540256D01*
X129555226Y-81351898D01*
X129595000Y-81151939D01*
X129595000Y-80948061D01*
X129555226Y-80748102D01*
X129477205Y-80559744D01*
X129363937Y-80390226D01*
X129320000Y-80346289D01*
X129320000Y-79830000D01*
X136778289Y-79830000D01*
X136674063Y-79934226D01*
X136560795Y-80103744D01*
X136482774Y-80292102D01*
X136443000Y-80492061D01*
X136443000Y-80695939D01*
X136482774Y-80895898D01*
X136560795Y-81084256D01*
X136674063Y-81253774D01*
X136818226Y-81397937D01*
X136987744Y-81511205D01*
X137176102Y-81589226D01*
X137376061Y-81629000D01*
X137579939Y-81629000D01*
X137779898Y-81589226D01*
X137968256Y-81511205D01*
X138137774Y-81397937D01*
X138181711Y-81354000D01*
X138505644Y-81354000D01*
X138475000Y-81508061D01*
X138475000Y-81711939D01*
X138514774Y-81911898D01*
X138592795Y-82100256D01*
X138642521Y-82174676D01*
X136123270Y-84693928D01*
X134860000Y-84693928D01*
X134735518Y-84706188D01*
X134615820Y-84742498D01*
X134505506Y-84801463D01*
X134408815Y-84880815D01*
X134329463Y-84977506D01*
X134270498Y-85087820D01*
X134234188Y-85207518D01*
X134221928Y-85332000D01*
X134221928Y-87032000D01*
X134234188Y-87156482D01*
X134270498Y-87276180D01*
X134329463Y-87386494D01*
X134408815Y-87483185D01*
X134505506Y-87562537D01*
X134615820Y-87621502D01*
X134735518Y-87657812D01*
X134860000Y-87670072D01*
X136560000Y-87670072D01*
X136684482Y-87657812D01*
X136804180Y-87621502D01*
X136914494Y-87562537D01*
X137011185Y-87483185D01*
X137090537Y-87386494D01*
X137149502Y-87276180D01*
X137171513Y-87203620D01*
X137303368Y-87335475D01*
X137546589Y-87497990D01*
X137816842Y-87609932D01*
X138103740Y-87667000D01*
X138396260Y-87667000D01*
X138683158Y-87609932D01*
X138953411Y-87497990D01*
X139196632Y-87335475D01*
X139403475Y-87128632D01*
X139525195Y-86946466D01*
X139594822Y-87063355D01*
X139789731Y-87279588D01*
X140023080Y-87453641D01*
X140285901Y-87578825D01*
X140433110Y-87623476D01*
X140663000Y-87502155D01*
X140663000Y-86309000D01*
X140643000Y-86309000D01*
X140643000Y-86055000D01*
X140663000Y-86055000D01*
X140663000Y-86035000D01*
X140917000Y-86035000D01*
X140917000Y-86055000D01*
X140937000Y-86055000D01*
X140937000Y-86309000D01*
X140917000Y-86309000D01*
X140917000Y-87502155D01*
X141146890Y-87623476D01*
X141294099Y-87578825D01*
X141556920Y-87453641D01*
X141790269Y-87279588D01*
X141985178Y-87063355D01*
X142054805Y-86946466D01*
X142176525Y-87128632D01*
X142383368Y-87335475D01*
X142626589Y-87497990D01*
X142896842Y-87609932D01*
X143183740Y-87667000D01*
X143476260Y-87667000D01*
X143763158Y-87609932D01*
X144033411Y-87497990D01*
X144276632Y-87335475D01*
X144483475Y-87128632D01*
X144645990Y-86885411D01*
X144757932Y-86615158D01*
X144815000Y-86328260D01*
X144815000Y-86035740D01*
X144757932Y-85748842D01*
X144645990Y-85478589D01*
X144483475Y-85235368D01*
X144276632Y-85028525D01*
X144033411Y-84866010D01*
X143763158Y-84754068D01*
X143476260Y-84697000D01*
X143183740Y-84697000D01*
X142896842Y-84754068D01*
X142626589Y-84866010D01*
X142383368Y-85028525D01*
X142176525Y-85235368D01*
X142054805Y-85417534D01*
X141985178Y-85300645D01*
X141790269Y-85084412D01*
X141556920Y-84910359D01*
X141294099Y-84785175D01*
X141146890Y-84740524D01*
X140917002Y-84861844D01*
X140917002Y-84697000D01*
X140809802Y-84697000D01*
X141104803Y-84402000D01*
X142870289Y-84402000D01*
X142914226Y-84445937D01*
X143083744Y-84559205D01*
X143272102Y-84637226D01*
X143472061Y-84677000D01*
X143675939Y-84677000D01*
X143875898Y-84637226D01*
X144064256Y-84559205D01*
X144233774Y-84445937D01*
X144377937Y-84301774D01*
X144491205Y-84132256D01*
X144569226Y-83943898D01*
X144609000Y-83743939D01*
X144609000Y-83540061D01*
X144569226Y-83340102D01*
X144491205Y-83151744D01*
X144377937Y-82982226D01*
X144233774Y-82838063D01*
X144064256Y-82724795D01*
X143875898Y-82646774D01*
X143675939Y-82607000D01*
X143472061Y-82607000D01*
X143272102Y-82646774D01*
X143083744Y-82724795D01*
X142914226Y-82838063D01*
X142870289Y-82882000D01*
X142546356Y-82882000D01*
X142577000Y-82727939D01*
X142577000Y-82524061D01*
X142546356Y-82370000D01*
X159515199Y-82370000D01*
X160084001Y-82938803D01*
X160084000Y-87378289D01*
X160040063Y-87422226D01*
X159926795Y-87591744D01*
X159848774Y-87780102D01*
X159809000Y-87980061D01*
X159809000Y-88183939D01*
X159848774Y-88383898D01*
X159926795Y-88572256D01*
X160040063Y-88741774D01*
X160072289Y-88774000D01*
X151943322Y-88774000D01*
X151905999Y-88770324D01*
X151868676Y-88774000D01*
X151868667Y-88774000D01*
X151757014Y-88784997D01*
X151613753Y-88828454D01*
X151481724Y-88899026D01*
X151481722Y-88899027D01*
X151481723Y-88899027D01*
X151394996Y-88970201D01*
X151394992Y-88970205D01*
X151365999Y-88993999D01*
X151342205Y-89022992D01*
X146582199Y-93783000D01*
X146520061Y-93783000D01*
X146320102Y-93822774D01*
X146131744Y-93900795D01*
X145962226Y-94014063D01*
X145818063Y-94158226D01*
X145704795Y-94327744D01*
X145626774Y-94516102D01*
X145587000Y-94716061D01*
X145587000Y-94919939D01*
X145626774Y-95119898D01*
X145704795Y-95308256D01*
X145818063Y-95477774D01*
X145962226Y-95621937D01*
X146131744Y-95735205D01*
X146320102Y-95813226D01*
X146520061Y-95853000D01*
X146723939Y-95853000D01*
X146923898Y-95813226D01*
X147112256Y-95735205D01*
X147281774Y-95621937D01*
X147425937Y-95477774D01*
X147539205Y-95308256D01*
X147617226Y-95119898D01*
X147651219Y-94949000D01*
X163771928Y-94949000D01*
X163784188Y-95073482D01*
X163820498Y-95193180D01*
X163879463Y-95303494D01*
X163958815Y-95400185D01*
X164055506Y-95479537D01*
X164165820Y-95538502D01*
X164285518Y-95574812D01*
X164410000Y-95587072D01*
X164724250Y-95584000D01*
X164883000Y-95425250D01*
X164883000Y-94201000D01*
X163933750Y-94201000D01*
X163775000Y-94359750D01*
X163771928Y-94949000D01*
X147651219Y-94949000D01*
X147657000Y-94919939D01*
X147657000Y-94857801D01*
X149315801Y-93199000D01*
X163771928Y-93199000D01*
X163775000Y-93788250D01*
X163933750Y-93947000D01*
X164883000Y-93947000D01*
X164883000Y-92722750D01*
X164724250Y-92564000D01*
X164410000Y-92560928D01*
X164285518Y-92573188D01*
X164165820Y-92609498D01*
X164055506Y-92668463D01*
X163958815Y-92747815D01*
X163879463Y-92844506D01*
X163820498Y-92954820D01*
X163784188Y-93074518D01*
X163771928Y-93199000D01*
X149315801Y-93199000D01*
X152220803Y-90294000D01*
X166125001Y-90294000D01*
X166125000Y-92825574D01*
X166061185Y-92747815D01*
X165964494Y-92668463D01*
X165854180Y-92609498D01*
X165734482Y-92573188D01*
X165610000Y-92560928D01*
X165295750Y-92564000D01*
X165137000Y-92722750D01*
X165137000Y-93947000D01*
X165157000Y-93947000D01*
X165157000Y-94201000D01*
X165137000Y-94201000D01*
X165137000Y-95425250D01*
X165295750Y-95584000D01*
X165610000Y-95587072D01*
X165734482Y-95574812D01*
X165854180Y-95538502D01*
X165964494Y-95479537D01*
X166061185Y-95400185D01*
X166125000Y-95322425D01*
X166125001Y-97430521D01*
X166120719Y-97474000D01*
X166137805Y-97647490D01*
X166188412Y-97814313D01*
X166270590Y-97968059D01*
X166353468Y-98069046D01*
X166353471Y-98069049D01*
X166381184Y-98102817D01*
X166414951Y-98130529D01*
X167840470Y-99556049D01*
X167868183Y-99589817D01*
X167901951Y-99617530D01*
X167901953Y-99617532D01*
X168002941Y-99700411D01*
X168156686Y-99782589D01*
X168290495Y-99823180D01*
X168323510Y-99833195D01*
X168453523Y-99846000D01*
X168453531Y-99846000D01*
X168497000Y-99850281D01*
X168540469Y-99846000D01*
X187494546Y-99846000D01*
X187542744Y-99878205D01*
X187731102Y-99956226D01*
X187931061Y-99996000D01*
X188134939Y-99996000D01*
X188334898Y-99956226D01*
X188523256Y-99878205D01*
X188692774Y-99764937D01*
X188836937Y-99620774D01*
X188950205Y-99451256D01*
X189028226Y-99262898D01*
X189068000Y-99062939D01*
X189068000Y-98859061D01*
X189028226Y-98659102D01*
X188950205Y-98470744D01*
X188836937Y-98301226D01*
X188692774Y-98157063D01*
X188523256Y-98043795D01*
X188334898Y-97965774D01*
X188134939Y-97926000D01*
X187931061Y-97926000D01*
X187731102Y-97965774D01*
X187542744Y-98043795D01*
X187494546Y-98076000D01*
X183591578Y-98076000D01*
X186173044Y-95494535D01*
X186229898Y-95483226D01*
X186418256Y-95405205D01*
X186587774Y-95291937D01*
X186731937Y-95147774D01*
X186845205Y-94978256D01*
X186923226Y-94789898D01*
X186963000Y-94589939D01*
X186963000Y-94386061D01*
X186923226Y-94186102D01*
X186845205Y-93997744D01*
X186731937Y-93828226D01*
X186587774Y-93684063D01*
X186418256Y-93570795D01*
X186229898Y-93492774D01*
X186029939Y-93453000D01*
X185826061Y-93453000D01*
X185626102Y-93492774D01*
X185437744Y-93570795D01*
X185268226Y-93684063D01*
X185124063Y-93828226D01*
X185010795Y-93997744D01*
X184932774Y-94186102D01*
X184921465Y-94242956D01*
X182773777Y-96390645D01*
X182710895Y-96273000D01*
X182811885Y-96084060D01*
X182878215Y-95865400D01*
X182900612Y-95638000D01*
X182878215Y-95410600D01*
X182814907Y-95201902D01*
X182849502Y-95137180D01*
X182885812Y-95017482D01*
X182898072Y-94893000D01*
X182895000Y-94653750D01*
X182736250Y-94495000D01*
X181963109Y-94495000D01*
X181962400Y-94494785D01*
X181791979Y-94478000D01*
X181228021Y-94478000D01*
X181057600Y-94494785D01*
X181056891Y-94495000D01*
X180283750Y-94495000D01*
X180125000Y-94653750D01*
X180122121Y-94878000D01*
X176127594Y-94878000D01*
X176156511Y-94823900D01*
X176227130Y-94591101D01*
X176245000Y-94409664D01*
X176245000Y-93843000D01*
X180121928Y-93843000D01*
X180125000Y-94082250D01*
X180283750Y-94241000D01*
X181383000Y-94241000D01*
X181383000Y-93366750D01*
X181637000Y-93366750D01*
X181637000Y-94241000D01*
X182736250Y-94241000D01*
X182895000Y-94082250D01*
X182898072Y-93843000D01*
X182885812Y-93718518D01*
X182849502Y-93598820D01*
X182790537Y-93488506D01*
X182711185Y-93391815D01*
X182614494Y-93312463D01*
X182504180Y-93253498D01*
X182384482Y-93217188D01*
X182260000Y-93204928D01*
X181795750Y-93208000D01*
X181637000Y-93366750D01*
X181383000Y-93366750D01*
X181224250Y-93208000D01*
X180760000Y-93204928D01*
X180635518Y-93217188D01*
X180515820Y-93253498D01*
X180405506Y-93312463D01*
X180308815Y-93391815D01*
X180229463Y-93488506D01*
X180170498Y-93598820D01*
X180134188Y-93718518D01*
X180121928Y-93843000D01*
X176245000Y-93843000D01*
X176245000Y-93738335D01*
X176227130Y-93556898D01*
X176156511Y-93324099D01*
X176041833Y-93109551D01*
X175887502Y-92921498D01*
X175699448Y-92767167D01*
X175484900Y-92652489D01*
X175252101Y-92581870D01*
X175010000Y-92558025D01*
X174767898Y-92581870D01*
X174535099Y-92652489D01*
X174320551Y-92767167D01*
X174132498Y-92921498D01*
X174010000Y-93070763D01*
X173887502Y-92921498D01*
X173805006Y-92853795D01*
X176021003Y-90637799D01*
X176050001Y-90614001D01*
X176076332Y-90581917D01*
X176144974Y-90498277D01*
X176215546Y-90366247D01*
X176218779Y-90355588D01*
X176259003Y-90222986D01*
X176270000Y-90111333D01*
X176270000Y-90111323D01*
X176273676Y-90074000D01*
X176270000Y-90036677D01*
X176270000Y-88777711D01*
X176313937Y-88733774D01*
X176427205Y-88564256D01*
X176505226Y-88375898D01*
X176545000Y-88175939D01*
X176545000Y-87972061D01*
X176505226Y-87772102D01*
X176427205Y-87583744D01*
X176313937Y-87414226D01*
X176169774Y-87270063D01*
X176000256Y-87156795D01*
X175811898Y-87078774D01*
X175611939Y-87039000D01*
X175408061Y-87039000D01*
X175208102Y-87078774D01*
X175019744Y-87156795D01*
X174850226Y-87270063D01*
X174706063Y-87414226D01*
X174592795Y-87583744D01*
X174514774Y-87772102D01*
X174475000Y-87972061D01*
X174475000Y-88175939D01*
X174514774Y-88375898D01*
X174592795Y-88564256D01*
X174706063Y-88733774D01*
X174750000Y-88777711D01*
X174750001Y-89759197D01*
X172695199Y-91814000D01*
X168713711Y-91814000D01*
X168669774Y-91770063D01*
X168500256Y-91656795D01*
X168311898Y-91578774D01*
X168111939Y-91539000D01*
X167908061Y-91539000D01*
X167895000Y-91541598D01*
X167895000Y-89900578D01*
X170819050Y-86976529D01*
X170852817Y-86948817D01*
X170903102Y-86887546D01*
X170963410Y-86814060D01*
X170963411Y-86814059D01*
X171045589Y-86660313D01*
X171096195Y-86493490D01*
X171109000Y-86363477D01*
X171109000Y-86363467D01*
X171113281Y-86320001D01*
X171109000Y-86276535D01*
X171109000Y-82849000D01*
X173761531Y-82849000D01*
X173805000Y-82853281D01*
X173848469Y-82849000D01*
X173848477Y-82849000D01*
X173978490Y-82836195D01*
X174145313Y-82785589D01*
X174299059Y-82703411D01*
X174433817Y-82592817D01*
X174461534Y-82559044D01*
X176547729Y-80472849D01*
X193467756Y-80472849D01*
X193536310Y-80714268D01*
X193787556Y-80832668D01*
X194057071Y-80899778D01*
X194334502Y-80913018D01*
X194609184Y-80871879D01*
X194870562Y-80777943D01*
X194989690Y-80714268D01*
X195058244Y-80472849D01*
X194263000Y-79677605D01*
X193467756Y-80472849D01*
X176547729Y-80472849D01*
X177451076Y-79569502D01*
X192847982Y-79569502D01*
X192889121Y-79844184D01*
X192983057Y-80105562D01*
X193046732Y-80224690D01*
X193288151Y-80293244D01*
X194083395Y-79498000D01*
X194442605Y-79498000D01*
X195237849Y-80293244D01*
X195479268Y-80224690D01*
X195597668Y-79973444D01*
X195664778Y-79703929D01*
X195678018Y-79426498D01*
X195636879Y-79151816D01*
X195542943Y-78890438D01*
X195479268Y-78771310D01*
X195237849Y-78702756D01*
X194442605Y-79498000D01*
X194083395Y-79498000D01*
X193288151Y-78702756D01*
X193046732Y-78771310D01*
X192928332Y-79022556D01*
X192861222Y-79292071D01*
X192847982Y-79569502D01*
X177451076Y-79569502D01*
X178497427Y-78523151D01*
X193467756Y-78523151D01*
X194263000Y-79318395D01*
X195058244Y-78523151D01*
X194989690Y-78281732D01*
X194738444Y-78163332D01*
X194468929Y-78096222D01*
X194191498Y-78082982D01*
X193916816Y-78124121D01*
X193655438Y-78218057D01*
X193536310Y-78281732D01*
X193467756Y-78523151D01*
X178497427Y-78523151D01*
X180161451Y-76859127D01*
X187853000Y-76859127D01*
X187853000Y-77136873D01*
X187907186Y-77409282D01*
X188013475Y-77665885D01*
X188167782Y-77896822D01*
X188364178Y-78093218D01*
X188595115Y-78247525D01*
X188851718Y-78353814D01*
X189124127Y-78408000D01*
X189401873Y-78408000D01*
X189674282Y-78353814D01*
X189930885Y-78247525D01*
X190161822Y-78093218D01*
X190358218Y-77896822D01*
X190512525Y-77665885D01*
X190618814Y-77409282D01*
X190673000Y-77136873D01*
X190673000Y-76859127D01*
X190618814Y-76586718D01*
X190512525Y-76330115D01*
X190358218Y-76099178D01*
X190161822Y-75902782D01*
X189930885Y-75748475D01*
X189674282Y-75642186D01*
X189401873Y-75588000D01*
X189124127Y-75588000D01*
X188851718Y-75642186D01*
X188595115Y-75748475D01*
X188364178Y-75902782D01*
X188167782Y-76099178D01*
X188013475Y-76330115D01*
X187907186Y-76586718D01*
X187853000Y-76859127D01*
X180161451Y-76859127D01*
X188660552Y-68360027D01*
X188694317Y-68332317D01*
X188722027Y-68298552D01*
X190498518Y-66522061D01*
X191390500Y-66522061D01*
X191390500Y-66725939D01*
X191430274Y-66925898D01*
X191508295Y-67114256D01*
X191621563Y-67283774D01*
X191765726Y-67427937D01*
X191935244Y-67541205D01*
X192123602Y-67619226D01*
X192323561Y-67659000D01*
X192385699Y-67659000D01*
X193003997Y-68277299D01*
X193004002Y-68277303D01*
X193503001Y-68776303D01*
X193503000Y-73084928D01*
X193488000Y-73084928D01*
X193363518Y-73097188D01*
X193243820Y-73133498D01*
X193133506Y-73192463D01*
X193036815Y-73271815D01*
X192957463Y-73368506D01*
X192898498Y-73478820D01*
X192862188Y-73598518D01*
X192849928Y-73723000D01*
X192849928Y-75273000D01*
X192862188Y-75397482D01*
X192898498Y-75517180D01*
X192957463Y-75627494D01*
X193036815Y-75724185D01*
X193133506Y-75803537D01*
X193243820Y-75862502D01*
X193363518Y-75898812D01*
X193488000Y-75911072D01*
X195038000Y-75911072D01*
X195162482Y-75898812D01*
X195282180Y-75862502D01*
X195392494Y-75803537D01*
X195489185Y-75724185D01*
X195568537Y-75627494D01*
X195627502Y-75517180D01*
X195663812Y-75397482D01*
X195676072Y-75273000D01*
X195676072Y-73723000D01*
X195663812Y-73598518D01*
X195627502Y-73478820D01*
X195568537Y-73368506D01*
X195489185Y-73271815D01*
X195392494Y-73192463D01*
X195282180Y-73133498D01*
X195162482Y-73097188D01*
X195038000Y-73084928D01*
X195023000Y-73084928D01*
X195023000Y-68599200D01*
X195035676Y-68470500D01*
X195021002Y-68321514D01*
X194977546Y-68178254D01*
X194906974Y-68046224D01*
X194835799Y-67959498D01*
X194826804Y-67950503D01*
X194803001Y-67921499D01*
X194773997Y-67897696D01*
X194670054Y-67793753D01*
X194670049Y-67793747D01*
X194078803Y-67202502D01*
X194078799Y-67202497D01*
X193460500Y-66584199D01*
X193460500Y-66522061D01*
X193420726Y-66322102D01*
X193342705Y-66133744D01*
X193229437Y-65964226D01*
X193085274Y-65820063D01*
X192915756Y-65706795D01*
X192727398Y-65628774D01*
X192527439Y-65589000D01*
X192323561Y-65589000D01*
X192123602Y-65628774D01*
X191935244Y-65706795D01*
X191765726Y-65820063D01*
X191621563Y-65964226D01*
X191508295Y-66133744D01*
X191430274Y-66322102D01*
X191390500Y-66522061D01*
X190498518Y-66522061D01*
X192565049Y-64455530D01*
X192598817Y-64427817D01*
X192709411Y-64293059D01*
X192791589Y-64139313D01*
X192842195Y-63972490D01*
X192855000Y-63842477D01*
X192855000Y-63842469D01*
X192859281Y-63799000D01*
X192855000Y-63755531D01*
X192855000Y-62944656D01*
X192916632Y-62903475D01*
X193048487Y-62771620D01*
X193070498Y-62844180D01*
X193129463Y-62954494D01*
X193208815Y-63051185D01*
X193305506Y-63130537D01*
X193415820Y-63189502D01*
X193535518Y-63225812D01*
X193660000Y-63238072D01*
X194224250Y-63235000D01*
X194383000Y-63076250D01*
X194383000Y-61877000D01*
X194637000Y-61877000D01*
X194637000Y-63076250D01*
X194795750Y-63235000D01*
X195360000Y-63238072D01*
X195484482Y-63225812D01*
X195604180Y-63189502D01*
X195714494Y-63130537D01*
X195811185Y-63051185D01*
X195890537Y-62954494D01*
X195949502Y-62844180D01*
X195985812Y-62724482D01*
X195998072Y-62600000D01*
X195995000Y-62035750D01*
X195836250Y-61877000D01*
X194637000Y-61877000D01*
X194383000Y-61877000D01*
X194363000Y-61877000D01*
X194363000Y-61623000D01*
X194383000Y-61623000D01*
X194383000Y-60423750D01*
X194637000Y-60423750D01*
X194637000Y-61623000D01*
X195836250Y-61623000D01*
X195995000Y-61464250D01*
X195998072Y-60900000D01*
X195985812Y-60775518D01*
X195949502Y-60655820D01*
X195890537Y-60545506D01*
X195811185Y-60448815D01*
X195714494Y-60369463D01*
X195604180Y-60310498D01*
X195484482Y-60274188D01*
X195360000Y-60261928D01*
X194795750Y-60265000D01*
X194637000Y-60423750D01*
X194383000Y-60423750D01*
X194224250Y-60265000D01*
X193660000Y-60261928D01*
X193535518Y-60274188D01*
X193415820Y-60310498D01*
X193305506Y-60369463D01*
X193208815Y-60448815D01*
X193129463Y-60545506D01*
X193070498Y-60655820D01*
X193048487Y-60728380D01*
X192916632Y-60596525D01*
X192673411Y-60434010D01*
X192403158Y-60322068D01*
X192116260Y-60265000D01*
X191823740Y-60265000D01*
X191536842Y-60322068D01*
X191266589Y-60434010D01*
X191023368Y-60596525D01*
X190816525Y-60803368D01*
X190700000Y-60977760D01*
X190583475Y-60803368D01*
X190376632Y-60596525D01*
X190133411Y-60434010D01*
X189863158Y-60322068D01*
X189576260Y-60265000D01*
X189283740Y-60265000D01*
X188996842Y-60322068D01*
X188726589Y-60434010D01*
X188483368Y-60596525D01*
X188276525Y-60803368D01*
X188160000Y-60977760D01*
X188043475Y-60803368D01*
X187836632Y-60596525D01*
X187593411Y-60434010D01*
X187323158Y-60322068D01*
X187036260Y-60265000D01*
X186743740Y-60265000D01*
X186456842Y-60322068D01*
X186186589Y-60434010D01*
X185943368Y-60596525D01*
X185736525Y-60803368D01*
X185620000Y-60977760D01*
X185503475Y-60803368D01*
X185296632Y-60596525D01*
X185053411Y-60434010D01*
X184783158Y-60322068D01*
X184496260Y-60265000D01*
X184203740Y-60265000D01*
X183916842Y-60322068D01*
X183646589Y-60434010D01*
X183403368Y-60596525D01*
X183196525Y-60803368D01*
X183080000Y-60977760D01*
X182963475Y-60803368D01*
X182756632Y-60596525D01*
X182513411Y-60434010D01*
X182243158Y-60322068D01*
X181956260Y-60265000D01*
X181663740Y-60265000D01*
X181376842Y-60322068D01*
X181106589Y-60434010D01*
X180863368Y-60596525D01*
X180656525Y-60803368D01*
X180534805Y-60985534D01*
X180465178Y-60868645D01*
X180270269Y-60652412D01*
X180036920Y-60478359D01*
X179774099Y-60353175D01*
X179626890Y-60308524D01*
X179397000Y-60429845D01*
X179397000Y-61623000D01*
X179417000Y-61623000D01*
X179417000Y-61877000D01*
X179397000Y-61877000D01*
X179397000Y-63070155D01*
X179626890Y-63191476D01*
X179774099Y-63146825D01*
X180036920Y-63021641D01*
X180270269Y-62847588D01*
X180465178Y-62631355D01*
X180534805Y-62514466D01*
X180656525Y-62696632D01*
X180863368Y-62903475D01*
X181106589Y-63065990D01*
X181376842Y-63177932D01*
X181663740Y-63235000D01*
X181956260Y-63235000D01*
X182243158Y-63177932D01*
X182513411Y-63065990D01*
X182756632Y-62903475D01*
X182963475Y-62696632D01*
X183080000Y-62522240D01*
X183196525Y-62696632D01*
X183403368Y-62903475D01*
X183646589Y-63065990D01*
X183916842Y-63177932D01*
X184203740Y-63235000D01*
X184496260Y-63235000D01*
X184783158Y-63177932D01*
X185053411Y-63065990D01*
X185296632Y-62903475D01*
X185503475Y-62696632D01*
X185620000Y-62522240D01*
X185736525Y-62696632D01*
X185943368Y-62903475D01*
X186186589Y-63065990D01*
X186456842Y-63177932D01*
X186743740Y-63235000D01*
X187036260Y-63235000D01*
X187323158Y-63177932D01*
X187593411Y-63065990D01*
X187836632Y-62903475D01*
X188043475Y-62696632D01*
X188160000Y-62522240D01*
X188276525Y-62696632D01*
X188483368Y-62903475D01*
X188726589Y-63065990D01*
X188996842Y-63177932D01*
X189283740Y-63235000D01*
X189576260Y-63235000D01*
X189863158Y-63177932D01*
X190133411Y-63065990D01*
X190376632Y-62903475D01*
X190583475Y-62696632D01*
X190700000Y-62522240D01*
X190816525Y-62696632D01*
X191023368Y-62903475D01*
X191085001Y-62944657D01*
X191085001Y-63432420D01*
X188171441Y-66345981D01*
X188170937Y-66345226D01*
X188026774Y-66201063D01*
X187857256Y-66087795D01*
X187668898Y-66009774D01*
X187468939Y-65970000D01*
X187265061Y-65970000D01*
X187065102Y-66009774D01*
X186876744Y-66087795D01*
X186707226Y-66201063D01*
X186563063Y-66345226D01*
X186449795Y-66514744D01*
X186371774Y-66703102D01*
X186332000Y-66903061D01*
X186332000Y-67106939D01*
X186371774Y-67306898D01*
X186449795Y-67495256D01*
X186563063Y-67664774D01*
X186707226Y-67808937D01*
X186707980Y-67809441D01*
X173438422Y-81079000D01*
X171109000Y-81079000D01*
X171109000Y-80747469D01*
X171113281Y-80704000D01*
X171109000Y-80660531D01*
X171109000Y-80660523D01*
X171096195Y-80530510D01*
X171084532Y-80492061D01*
X171070260Y-80445015D01*
X171045589Y-80363687D01*
X170963411Y-80209941D01*
X170939210Y-80180452D01*
X170880532Y-80108953D01*
X170880530Y-80108951D01*
X170852817Y-80075183D01*
X170819049Y-80047470D01*
X168840822Y-78069244D01*
X169021898Y-78033226D01*
X169210256Y-77955205D01*
X169379774Y-77841937D01*
X169423711Y-77798000D01*
X175286678Y-77798000D01*
X175324000Y-77801676D01*
X175361322Y-77798000D01*
X175361333Y-77798000D01*
X175472986Y-77787003D01*
X175616247Y-77743546D01*
X175748276Y-77672974D01*
X175864001Y-77578001D01*
X175887804Y-77548997D01*
X181351003Y-72085799D01*
X181380001Y-72062001D01*
X181430936Y-71999937D01*
X181474974Y-71946277D01*
X181545546Y-71814247D01*
X181555606Y-71781082D01*
X181589003Y-71670986D01*
X181600000Y-71559333D01*
X181600000Y-71559323D01*
X181603676Y-71522001D01*
X181600000Y-71484678D01*
X181600000Y-67251711D01*
X181643937Y-67207774D01*
X181757205Y-67038256D01*
X181835226Y-66849898D01*
X181875000Y-66649939D01*
X181875000Y-66446061D01*
X181835226Y-66246102D01*
X181757205Y-66057744D01*
X181643937Y-65888226D01*
X181499774Y-65744063D01*
X181330256Y-65630795D01*
X181141898Y-65552774D01*
X180941939Y-65513000D01*
X180738061Y-65513000D01*
X180538102Y-65552774D01*
X180349744Y-65630795D01*
X180180226Y-65744063D01*
X180036063Y-65888226D01*
X179922795Y-66057744D01*
X179844774Y-66246102D01*
X179805000Y-66446061D01*
X179805000Y-66649939D01*
X179844774Y-66849898D01*
X179922795Y-67038256D01*
X180036063Y-67207774D01*
X180080000Y-67251711D01*
X180080001Y-71207197D01*
X175009199Y-76278000D01*
X169423711Y-76278000D01*
X169379774Y-76234063D01*
X169210256Y-76120795D01*
X169021898Y-76042774D01*
X168821939Y-76003000D01*
X168618061Y-76003000D01*
X168418102Y-76042774D01*
X168229744Y-76120795D01*
X168060226Y-76234063D01*
X167916063Y-76378226D01*
X167802795Y-76547744D01*
X167724774Y-76736102D01*
X167685000Y-76936061D01*
X167685000Y-77139939D01*
X167692245Y-77176364D01*
X167617477Y-77169000D01*
X167617469Y-77169000D01*
X167574000Y-77164719D01*
X167530531Y-77169000D01*
X163900801Y-77169000D01*
X166273625Y-74796177D01*
X166288088Y-74802168D01*
X166603967Y-74865000D01*
X166926033Y-74865000D01*
X167241912Y-74802168D01*
X167539463Y-74678918D01*
X167807252Y-74499987D01*
X167941826Y-74365413D01*
X170309192Y-74365413D01*
X170404956Y-74629814D01*
X170694571Y-74770704D01*
X171006108Y-74852384D01*
X171327595Y-74871718D01*
X171646675Y-74827961D01*
X171951088Y-74722795D01*
X172125044Y-74629814D01*
X172220808Y-74365413D01*
X171265000Y-73409605D01*
X170309192Y-74365413D01*
X167941826Y-74365413D01*
X168034987Y-74272252D01*
X168213918Y-74004463D01*
X168337168Y-73706912D01*
X168400000Y-73391033D01*
X168400000Y-73292595D01*
X169623282Y-73292595D01*
X169667039Y-73611675D01*
X169772205Y-73916088D01*
X169865186Y-74090044D01*
X170129587Y-74185808D01*
X171085395Y-73230000D01*
X171444605Y-73230000D01*
X172400413Y-74185808D01*
X172664814Y-74090044D01*
X172805704Y-73800429D01*
X172887384Y-73488892D01*
X172906718Y-73167405D01*
X172862961Y-72848325D01*
X172757795Y-72543912D01*
X172664814Y-72369956D01*
X172400413Y-72274192D01*
X171444605Y-73230000D01*
X171085395Y-73230000D01*
X170129587Y-72274192D01*
X169865186Y-72369956D01*
X169724296Y-72659571D01*
X169642616Y-72971108D01*
X169623282Y-73292595D01*
X168400000Y-73292595D01*
X168400000Y-73068967D01*
X168337168Y-72753088D01*
X168213918Y-72455537D01*
X168034987Y-72187748D01*
X167941826Y-72094587D01*
X170309192Y-72094587D01*
X171265000Y-73050395D01*
X172220808Y-72094587D01*
X172125044Y-71830186D01*
X171835429Y-71689296D01*
X171523892Y-71607616D01*
X171202405Y-71588282D01*
X170883325Y-71632039D01*
X170578912Y-71737205D01*
X170404956Y-71830186D01*
X170309192Y-72094587D01*
X167941826Y-72094587D01*
X167807252Y-71960013D01*
X167539463Y-71781082D01*
X167525000Y-71775091D01*
X167525000Y-68184909D01*
X167539463Y-68178918D01*
X167807252Y-67999987D01*
X167941826Y-67865413D01*
X170309192Y-67865413D01*
X170404956Y-68129814D01*
X170694571Y-68270704D01*
X171006108Y-68352384D01*
X171327595Y-68371718D01*
X171646675Y-68327961D01*
X171951088Y-68222795D01*
X172125044Y-68129814D01*
X172220808Y-67865413D01*
X171265000Y-66909605D01*
X170309192Y-67865413D01*
X167941826Y-67865413D01*
X168034987Y-67772252D01*
X168213918Y-67504463D01*
X168337168Y-67206912D01*
X168400000Y-66891033D01*
X168400000Y-66792595D01*
X169623282Y-66792595D01*
X169667039Y-67111675D01*
X169772205Y-67416088D01*
X169865186Y-67590044D01*
X170129587Y-67685808D01*
X171085395Y-66730000D01*
X171444605Y-66730000D01*
X172400413Y-67685808D01*
X172664814Y-67590044D01*
X172805704Y-67300429D01*
X172887384Y-66988892D01*
X172906718Y-66667405D01*
X172862961Y-66348325D01*
X172757795Y-66043912D01*
X172664814Y-65869956D01*
X172400413Y-65774192D01*
X171444605Y-66730000D01*
X171085395Y-66730000D01*
X170129587Y-65774192D01*
X169865186Y-65869956D01*
X169724296Y-66159571D01*
X169642616Y-66471108D01*
X169623282Y-66792595D01*
X168400000Y-66792595D01*
X168400000Y-66568967D01*
X168337168Y-66253088D01*
X168213918Y-65955537D01*
X168034987Y-65687748D01*
X167941826Y-65594587D01*
X170309192Y-65594587D01*
X171265000Y-66550395D01*
X172220808Y-65594587D01*
X172125044Y-65330186D01*
X171835429Y-65189296D01*
X171523892Y-65107616D01*
X171202405Y-65088282D01*
X170883325Y-65132039D01*
X170578912Y-65237205D01*
X170404956Y-65330186D01*
X170309192Y-65594587D01*
X167941826Y-65594587D01*
X167807252Y-65460013D01*
X167539463Y-65281082D01*
X167241912Y-65157832D01*
X166926033Y-65095000D01*
X166603967Y-65095000D01*
X166288088Y-65157832D01*
X165990537Y-65281082D01*
X165722748Y-65460013D01*
X165495013Y-65687748D01*
X165316082Y-65955537D01*
X165192832Y-66253088D01*
X165130000Y-66568967D01*
X165130000Y-66891033D01*
X165192832Y-67206912D01*
X165316082Y-67504463D01*
X165495013Y-67772252D01*
X165722748Y-67999987D01*
X165990537Y-68178918D01*
X166005001Y-68184909D01*
X166005000Y-71775091D01*
X165990537Y-71781082D01*
X165722748Y-71960013D01*
X165495013Y-72187748D01*
X165316082Y-72455537D01*
X165192832Y-72753088D01*
X165130000Y-73068967D01*
X165130000Y-73391033D01*
X165192832Y-73706912D01*
X165198823Y-73721375D01*
X162642199Y-76278000D01*
X156077154Y-76278000D01*
X156175205Y-76131256D01*
X156253226Y-75942898D01*
X156293000Y-75742939D01*
X156293000Y-75539061D01*
X156253226Y-75339102D01*
X156175205Y-75150744D01*
X156061937Y-74981226D01*
X156018000Y-74937289D01*
X156018000Y-74365413D01*
X157559192Y-74365413D01*
X157654956Y-74629814D01*
X157944571Y-74770704D01*
X158256108Y-74852384D01*
X158577595Y-74871718D01*
X158896675Y-74827961D01*
X159201088Y-74722795D01*
X159375044Y-74629814D01*
X159470808Y-74365413D01*
X158515000Y-73409605D01*
X157559192Y-74365413D01*
X156018000Y-74365413D01*
X156018000Y-73292595D01*
X156873282Y-73292595D01*
X156917039Y-73611675D01*
X157022205Y-73916088D01*
X157115186Y-74090044D01*
X157379587Y-74185808D01*
X158335395Y-73230000D01*
X158694605Y-73230000D01*
X159650413Y-74185808D01*
X159914814Y-74090044D01*
X160055704Y-73800429D01*
X160137384Y-73488892D01*
X160156718Y-73167405D01*
X160112961Y-72848325D01*
X160007795Y-72543912D01*
X159914814Y-72369956D01*
X159650413Y-72274192D01*
X158694605Y-73230000D01*
X158335395Y-73230000D01*
X157379587Y-72274192D01*
X157115186Y-72369956D01*
X156974296Y-72659571D01*
X156892616Y-72971108D01*
X156873282Y-73292595D01*
X156018000Y-73292595D01*
X156018000Y-71956000D01*
X157609387Y-71956000D01*
X157559192Y-72094587D01*
X158515000Y-73050395D01*
X159470808Y-72094587D01*
X159420613Y-71956000D01*
X160904289Y-71956000D01*
X160948226Y-71999937D01*
X161117744Y-72113205D01*
X161306102Y-72191226D01*
X161506061Y-72231000D01*
X161709939Y-72231000D01*
X161717059Y-72229584D01*
X161566082Y-72455537D01*
X161442832Y-72753088D01*
X161380000Y-73068967D01*
X161380000Y-73391033D01*
X161442832Y-73706912D01*
X161566082Y-74004463D01*
X161745013Y-74272252D01*
X161972748Y-74499987D01*
X162240537Y-74678918D01*
X162538088Y-74802168D01*
X162853967Y-74865000D01*
X163176033Y-74865000D01*
X163491912Y-74802168D01*
X163789463Y-74678918D01*
X164057252Y-74499987D01*
X164284987Y-74272252D01*
X164463918Y-74004463D01*
X164587168Y-73706912D01*
X164650000Y-73391033D01*
X164650000Y-73068967D01*
X164587168Y-72753088D01*
X164463918Y-72455537D01*
X164284987Y-72187748D01*
X164057252Y-71960013D01*
X163789463Y-71781082D01*
X163775000Y-71775091D01*
X163775000Y-68184909D01*
X163789463Y-68178918D01*
X164057252Y-67999987D01*
X164284987Y-67772252D01*
X164463918Y-67504463D01*
X164587168Y-67206912D01*
X164650000Y-66891033D01*
X164650000Y-66568967D01*
X164587168Y-66253088D01*
X164463918Y-65955537D01*
X164284987Y-65687748D01*
X164057252Y-65460013D01*
X163789463Y-65281082D01*
X163491912Y-65157832D01*
X163176033Y-65095000D01*
X162853967Y-65095000D01*
X162538088Y-65157832D01*
X162523625Y-65163823D01*
X161186804Y-63827003D01*
X161163001Y-63797999D01*
X161047276Y-63703026D01*
X160915247Y-63632454D01*
X160771986Y-63588997D01*
X160660333Y-63578000D01*
X160660322Y-63578000D01*
X160623000Y-63574324D01*
X160585678Y-63578000D01*
X134872000Y-63578000D01*
X134872000Y-63568711D01*
X134915937Y-63524774D01*
X135029205Y-63355256D01*
X135107226Y-63166898D01*
X135147000Y-62966939D01*
X135147000Y-62763061D01*
X135107226Y-62563102D01*
X135043809Y-62410000D01*
X148542419Y-62410000D01*
X148571028Y-62407182D01*
X148580288Y-62407247D01*
X148589460Y-62406348D01*
X148880605Y-62375748D01*
X148939217Y-62363717D01*
X148997963Y-62352511D01*
X149006784Y-62349847D01*
X149286440Y-62263279D01*
X149341578Y-62240101D01*
X149397050Y-62217689D01*
X149405181Y-62213365D01*
X149405185Y-62213363D01*
X149405188Y-62213361D01*
X149662702Y-62074123D01*
X149712259Y-62040696D01*
X149762347Y-62007920D01*
X149769488Y-62002095D01*
X149995056Y-61815490D01*
X150037215Y-61773035D01*
X150079945Y-61731191D01*
X150085819Y-61724091D01*
X150183975Y-61603740D01*
X160005000Y-61603740D01*
X160005000Y-61896260D01*
X160062068Y-62183158D01*
X160174010Y-62453411D01*
X160336525Y-62696632D01*
X160543368Y-62903475D01*
X160786589Y-63065990D01*
X161056842Y-63177932D01*
X161343740Y-63235000D01*
X161636260Y-63235000D01*
X161923158Y-63177932D01*
X162193411Y-63065990D01*
X162436632Y-62903475D01*
X162643475Y-62696632D01*
X162760000Y-62522240D01*
X162876525Y-62696632D01*
X163083368Y-62903475D01*
X163326589Y-63065990D01*
X163596842Y-63177932D01*
X163883740Y-63235000D01*
X164176260Y-63235000D01*
X164463158Y-63177932D01*
X164733411Y-63065990D01*
X164976632Y-62903475D01*
X165183475Y-62696632D01*
X165300000Y-62522240D01*
X165416525Y-62696632D01*
X165623368Y-62903475D01*
X165866589Y-63065990D01*
X166136842Y-63177932D01*
X166423740Y-63235000D01*
X166716260Y-63235000D01*
X167003158Y-63177932D01*
X167273411Y-63065990D01*
X167516632Y-62903475D01*
X167723475Y-62696632D01*
X167840000Y-62522240D01*
X167956525Y-62696632D01*
X168163368Y-62903475D01*
X168406589Y-63065990D01*
X168676842Y-63177932D01*
X168963740Y-63235000D01*
X169256260Y-63235000D01*
X169543158Y-63177932D01*
X169813411Y-63065990D01*
X170056632Y-62903475D01*
X170263475Y-62696632D01*
X170385195Y-62514466D01*
X170454822Y-62631355D01*
X170649731Y-62847588D01*
X170883080Y-63021641D01*
X171145901Y-63146825D01*
X171293110Y-63191476D01*
X171523000Y-63070155D01*
X171523000Y-61877000D01*
X171777000Y-61877000D01*
X171777000Y-63070155D01*
X172006890Y-63191476D01*
X172154099Y-63146825D01*
X172416920Y-63021641D01*
X172650269Y-62847588D01*
X172845178Y-62631355D01*
X172920000Y-62505745D01*
X172994822Y-62631355D01*
X173189731Y-62847588D01*
X173423080Y-63021641D01*
X173685901Y-63146825D01*
X173833110Y-63191476D01*
X174063000Y-63070155D01*
X174063000Y-61877000D01*
X174317000Y-61877000D01*
X174317000Y-63070155D01*
X174546890Y-63191476D01*
X174694099Y-63146825D01*
X174956920Y-63021641D01*
X175190269Y-62847588D01*
X175385178Y-62631355D01*
X175460000Y-62505745D01*
X175534822Y-62631355D01*
X175729731Y-62847588D01*
X175963080Y-63021641D01*
X176225901Y-63146825D01*
X176373110Y-63191476D01*
X176603000Y-63070155D01*
X176603000Y-61877000D01*
X176857000Y-61877000D01*
X176857000Y-63070155D01*
X177086890Y-63191476D01*
X177234099Y-63146825D01*
X177496920Y-63021641D01*
X177730269Y-62847588D01*
X177925178Y-62631355D01*
X178000000Y-62505745D01*
X178074822Y-62631355D01*
X178269731Y-62847588D01*
X178503080Y-63021641D01*
X178765901Y-63146825D01*
X178913110Y-63191476D01*
X179143000Y-63070155D01*
X179143000Y-61877000D01*
X176857000Y-61877000D01*
X176603000Y-61877000D01*
X174317000Y-61877000D01*
X174063000Y-61877000D01*
X171777000Y-61877000D01*
X171523000Y-61877000D01*
X171503000Y-61877000D01*
X171503000Y-61623000D01*
X171523000Y-61623000D01*
X171523000Y-60429845D01*
X171777000Y-60429845D01*
X171777000Y-61623000D01*
X174063000Y-61623000D01*
X174063000Y-60429845D01*
X174317000Y-60429845D01*
X174317000Y-61623000D01*
X176603000Y-61623000D01*
X176603000Y-60429845D01*
X176857000Y-60429845D01*
X176857000Y-61623000D01*
X179143000Y-61623000D01*
X179143000Y-60429845D01*
X178913110Y-60308524D01*
X178765901Y-60353175D01*
X178503080Y-60478359D01*
X178269731Y-60652412D01*
X178074822Y-60868645D01*
X178000000Y-60994255D01*
X177925178Y-60868645D01*
X177730269Y-60652412D01*
X177496920Y-60478359D01*
X177234099Y-60353175D01*
X177086890Y-60308524D01*
X176857000Y-60429845D01*
X176603000Y-60429845D01*
X176373110Y-60308524D01*
X176225901Y-60353175D01*
X175963080Y-60478359D01*
X175729731Y-60652412D01*
X175534822Y-60868645D01*
X175460000Y-60994255D01*
X175385178Y-60868645D01*
X175190269Y-60652412D01*
X174956920Y-60478359D01*
X174694099Y-60353175D01*
X174546890Y-60308524D01*
X174317000Y-60429845D01*
X174063000Y-60429845D01*
X173833110Y-60308524D01*
X173685901Y-60353175D01*
X173423080Y-60478359D01*
X173189731Y-60652412D01*
X172994822Y-60868645D01*
X172920000Y-60994255D01*
X172845178Y-60868645D01*
X172650269Y-60652412D01*
X172416920Y-60478359D01*
X172154099Y-60353175D01*
X172006890Y-60308524D01*
X171777000Y-60429845D01*
X171523000Y-60429845D01*
X171293110Y-60308524D01*
X171145901Y-60353175D01*
X170883080Y-60478359D01*
X170649731Y-60652412D01*
X170454822Y-60868645D01*
X170385195Y-60985534D01*
X170263475Y-60803368D01*
X170056632Y-60596525D01*
X169813411Y-60434010D01*
X169543158Y-60322068D01*
X169256260Y-60265000D01*
X168963740Y-60265000D01*
X168676842Y-60322068D01*
X168406589Y-60434010D01*
X168163368Y-60596525D01*
X167956525Y-60803368D01*
X167840000Y-60977760D01*
X167723475Y-60803368D01*
X167516632Y-60596525D01*
X167273411Y-60434010D01*
X167003158Y-60322068D01*
X166716260Y-60265000D01*
X166423740Y-60265000D01*
X166136842Y-60322068D01*
X165866589Y-60434010D01*
X165623368Y-60596525D01*
X165416525Y-60803368D01*
X165300000Y-60977760D01*
X165183475Y-60803368D01*
X164976632Y-60596525D01*
X164733411Y-60434010D01*
X164463158Y-60322068D01*
X164176260Y-60265000D01*
X163883740Y-60265000D01*
X163596842Y-60322068D01*
X163326589Y-60434010D01*
X163083368Y-60596525D01*
X162876525Y-60803368D01*
X162760000Y-60977760D01*
X162643475Y-60803368D01*
X162436632Y-60596525D01*
X162193411Y-60434010D01*
X161923158Y-60322068D01*
X161636260Y-60265000D01*
X161343740Y-60265000D01*
X161056842Y-60322068D01*
X160786589Y-60434010D01*
X160543368Y-60596525D01*
X160336525Y-60803368D01*
X160174010Y-61046589D01*
X160062068Y-61316842D01*
X160005000Y-61603740D01*
X150183975Y-61603740D01*
X150270845Y-61497227D01*
X150303927Y-61447434D01*
X150337745Y-61398045D01*
X150342127Y-61389939D01*
X150479564Y-61131458D01*
X150502355Y-61076164D01*
X150525925Y-61021171D01*
X150528650Y-61012368D01*
X150613264Y-60732113D01*
X150624882Y-60673436D01*
X150637320Y-60614921D01*
X150638283Y-60605756D01*
X150666850Y-60314404D01*
X150689102Y-60087460D01*
X150736308Y-59931106D01*
X150812982Y-59786904D01*
X150916207Y-59660337D01*
X151042051Y-59556231D01*
X151185711Y-59478553D01*
X151341729Y-59430258D01*
X151534473Y-59410000D01*
X197477721Y-59410000D01*
X197769659Y-59438625D01*
X198019429Y-59514035D01*
X198249792Y-59636522D01*
X198451980Y-59801422D01*
X198618286Y-60002450D01*
X198742378Y-60231954D01*
X198819531Y-60481195D01*
X198850000Y-60771089D01*
X198850001Y-98717711D01*
X198821375Y-99009660D01*
X198745965Y-99259429D01*
X198623477Y-99489794D01*
X198458579Y-99691979D01*
X198257546Y-99858288D01*
X198028046Y-99982378D01*
X197778805Y-100059531D01*
X197488911Y-100090000D01*
X184477581Y-100090000D01*
X184444613Y-100093247D01*
X184431633Y-100093247D01*
X184422468Y-100094210D01*
X184228518Y-100115965D01*
X184170019Y-100128400D01*
X184111325Y-100140022D01*
X184102522Y-100142747D01*
X183916491Y-100201760D01*
X183861509Y-100225326D01*
X183806206Y-100248120D01*
X183798100Y-100252503D01*
X183763071Y-100271761D01*
X183679205Y-100215723D01*
X183518145Y-100149010D01*
X183347165Y-100115000D01*
X183172835Y-100115000D01*
X183001855Y-100149010D01*
X182885000Y-100197413D01*
X182768145Y-100149010D01*
X182597165Y-100115000D01*
X182422835Y-100115000D01*
X182251855Y-100149010D01*
X182135000Y-100197413D01*
X182018145Y-100149010D01*
X181847165Y-100115000D01*
X181672835Y-100115000D01*
X181501855Y-100149010D01*
X181340795Y-100215723D01*
X181256323Y-100272166D01*
X181200921Y-100242708D01*
X181145606Y-100219909D01*
X181090634Y-100196348D01*
X181081831Y-100193623D01*
X180894995Y-100137214D01*
X180836307Y-100125594D01*
X180777804Y-100113158D01*
X180768639Y-100112195D01*
X180574405Y-100093150D01*
X180574402Y-100093150D01*
X180542419Y-100090000D01*
X158477581Y-100090000D01*
X158444613Y-100093247D01*
X158431633Y-100093247D01*
X158422468Y-100094210D01*
X158228518Y-100115965D01*
X158170019Y-100128400D01*
X158111325Y-100140022D01*
X158102522Y-100142747D01*
X157916491Y-100201760D01*
X157861509Y-100225326D01*
X157806206Y-100248120D01*
X157798100Y-100252503D01*
X157763071Y-100271761D01*
X157679205Y-100215723D01*
X157518145Y-100149010D01*
X157347165Y-100115000D01*
X157172835Y-100115000D01*
X157001855Y-100149010D01*
X156885000Y-100197413D01*
X156768145Y-100149010D01*
X156597165Y-100115000D01*
X156422835Y-100115000D01*
X156251855Y-100149010D01*
X156135000Y-100197413D01*
X156018145Y-100149010D01*
X155847165Y-100115000D01*
X155672835Y-100115000D01*
X155501855Y-100149010D01*
X155340795Y-100215723D01*
X155256323Y-100272166D01*
X155200921Y-100242708D01*
X155145606Y-100219909D01*
X155090634Y-100196348D01*
X155081831Y-100193623D01*
X154894995Y-100137214D01*
X154836307Y-100125594D01*
X154777804Y-100113158D01*
X154768639Y-100112195D01*
X154574405Y-100093150D01*
X154574402Y-100093150D01*
X154542419Y-100090000D01*
X109542279Y-100090000D01*
X109250340Y-100061375D01*
X109000571Y-99985965D01*
X108770206Y-99863477D01*
X108568021Y-99698579D01*
X108401712Y-99497546D01*
X108277622Y-99268046D01*
X108200469Y-99018805D01*
X108170000Y-98728911D01*
X108170000Y-96202000D01*
X122654928Y-96202000D01*
X122654928Y-97902000D01*
X122667188Y-98026482D01*
X122703498Y-98146180D01*
X122762463Y-98256494D01*
X122841815Y-98353185D01*
X122938506Y-98432537D01*
X123048820Y-98491502D01*
X123168518Y-98527812D01*
X123293000Y-98540072D01*
X124993000Y-98540072D01*
X125117482Y-98527812D01*
X125237180Y-98491502D01*
X125347494Y-98432537D01*
X125444185Y-98353185D01*
X125523537Y-98256494D01*
X125582502Y-98146180D01*
X125618812Y-98026482D01*
X125631072Y-97902000D01*
X125631072Y-96202000D01*
X126591928Y-96202000D01*
X126591928Y-97902000D01*
X126604188Y-98026482D01*
X126640498Y-98146180D01*
X126699463Y-98256494D01*
X126778815Y-98353185D01*
X126875506Y-98432537D01*
X126985820Y-98491502D01*
X127105518Y-98527812D01*
X127230000Y-98540072D01*
X128930000Y-98540072D01*
X129054482Y-98527812D01*
X129174180Y-98491502D01*
X129284494Y-98432537D01*
X129381185Y-98353185D01*
X129460537Y-98256494D01*
X129519502Y-98146180D01*
X129555812Y-98026482D01*
X129568072Y-97902000D01*
X129568072Y-96202000D01*
X129555812Y-96077518D01*
X129519502Y-95957820D01*
X129460537Y-95847506D01*
X129381185Y-95750815D01*
X129284494Y-95671463D01*
X129174180Y-95612498D01*
X129093534Y-95588034D01*
X129177588Y-95512269D01*
X129351641Y-95278920D01*
X129476825Y-95016099D01*
X129521476Y-94868890D01*
X129400155Y-94639000D01*
X128207000Y-94639000D01*
X128207000Y-94659000D01*
X127953000Y-94659000D01*
X127953000Y-94639000D01*
X126759845Y-94639000D01*
X126638524Y-94868890D01*
X126683175Y-95016099D01*
X126808359Y-95278920D01*
X126982412Y-95512269D01*
X127066466Y-95588034D01*
X126985820Y-95612498D01*
X126875506Y-95671463D01*
X126778815Y-95750815D01*
X126699463Y-95847506D01*
X126640498Y-95957820D01*
X126604188Y-96077518D01*
X126591928Y-96202000D01*
X125631072Y-96202000D01*
X125618812Y-96077518D01*
X125582502Y-95957820D01*
X125523537Y-95847506D01*
X125444185Y-95750815D01*
X125347494Y-95671463D01*
X125237180Y-95612498D01*
X125156534Y-95588034D01*
X125240588Y-95512269D01*
X125414641Y-95278920D01*
X125539825Y-95016099D01*
X125584476Y-94868890D01*
X125463155Y-94639000D01*
X124270000Y-94639000D01*
X124270000Y-94659000D01*
X124016000Y-94659000D01*
X124016000Y-94639000D01*
X122822845Y-94639000D01*
X122701524Y-94868890D01*
X122746175Y-95016099D01*
X122871359Y-95278920D01*
X123045412Y-95512269D01*
X123129466Y-95588034D01*
X123048820Y-95612498D01*
X122938506Y-95671463D01*
X122841815Y-95750815D01*
X122762463Y-95847506D01*
X122703498Y-95957820D01*
X122667188Y-96077518D01*
X122654928Y-96202000D01*
X108170000Y-96202000D01*
X108170000Y-89285740D01*
X122658000Y-89285740D01*
X122658000Y-89578260D01*
X122715068Y-89865158D01*
X122827010Y-90135411D01*
X122989525Y-90378632D01*
X123196368Y-90585475D01*
X123370760Y-90702000D01*
X123196368Y-90818525D01*
X122989525Y-91025368D01*
X122827010Y-91268589D01*
X122715068Y-91538842D01*
X122658000Y-91825740D01*
X122658000Y-92118260D01*
X122715068Y-92405158D01*
X122827010Y-92675411D01*
X122989525Y-92918632D01*
X123196368Y-93125475D01*
X123378534Y-93247195D01*
X123261645Y-93316822D01*
X123045412Y-93511731D01*
X122871359Y-93745080D01*
X122746175Y-94007901D01*
X122701524Y-94155110D01*
X122822845Y-94385000D01*
X124016000Y-94385000D01*
X124016000Y-94365000D01*
X124270000Y-94365000D01*
X124270000Y-94385000D01*
X125463155Y-94385000D01*
X125584476Y-94155110D01*
X125539825Y-94007901D01*
X125414641Y-93745080D01*
X125240588Y-93511731D01*
X125024355Y-93316822D01*
X124907466Y-93247195D01*
X125089632Y-93125475D01*
X125296475Y-92918632D01*
X125421178Y-92732000D01*
X126801822Y-92732000D01*
X126926525Y-92918632D01*
X127133368Y-93125475D01*
X127315534Y-93247195D01*
X127198645Y-93316822D01*
X126982412Y-93511731D01*
X126808359Y-93745080D01*
X126683175Y-94007901D01*
X126638524Y-94155110D01*
X126759845Y-94385000D01*
X127953000Y-94385000D01*
X127953000Y-94365000D01*
X128207000Y-94365000D01*
X128207000Y-94385000D01*
X129400155Y-94385000D01*
X129521476Y-94155110D01*
X129476825Y-94007901D01*
X129351641Y-93745080D01*
X129177588Y-93511731D01*
X128961355Y-93316822D01*
X128844466Y-93247195D01*
X129026632Y-93125475D01*
X129233475Y-92918632D01*
X129358178Y-92732000D01*
X143842678Y-92732000D01*
X143880000Y-92735676D01*
X143917322Y-92732000D01*
X143917333Y-92732000D01*
X144028986Y-92721003D01*
X144172247Y-92677546D01*
X144304276Y-92606974D01*
X144420001Y-92512001D01*
X144443804Y-92482997D01*
X147641004Y-89285798D01*
X147670001Y-89262001D01*
X147726065Y-89193687D01*
X147728084Y-89191227D01*
X147736795Y-89212256D01*
X147850063Y-89381774D01*
X147994226Y-89525937D01*
X148163744Y-89639205D01*
X148352102Y-89717226D01*
X148552061Y-89757000D01*
X148755939Y-89757000D01*
X148955898Y-89717226D01*
X149144256Y-89639205D01*
X149313774Y-89525937D01*
X149457937Y-89381774D01*
X149571205Y-89212256D01*
X149649226Y-89023898D01*
X149689000Y-88823939D01*
X149689000Y-88620061D01*
X149649226Y-88420102D01*
X149571205Y-88231744D01*
X149457937Y-88062226D01*
X149414000Y-88018289D01*
X149414000Y-85361711D01*
X149457937Y-85317774D01*
X149571205Y-85148256D01*
X149649226Y-84959898D01*
X149689000Y-84759939D01*
X149689000Y-84556061D01*
X149649226Y-84356102D01*
X149571205Y-84167744D01*
X149457937Y-83998226D01*
X149313774Y-83854063D01*
X149144256Y-83740795D01*
X148955898Y-83662774D01*
X148755939Y-83623000D01*
X148552061Y-83623000D01*
X148352102Y-83662774D01*
X148163744Y-83740795D01*
X147994226Y-83854063D01*
X147892000Y-83956289D01*
X147789774Y-83854063D01*
X147620256Y-83740795D01*
X147431898Y-83662774D01*
X147231939Y-83623000D01*
X147028061Y-83623000D01*
X146828102Y-83662774D01*
X146639744Y-83740795D01*
X146470226Y-83854063D01*
X146326063Y-83998226D01*
X146212795Y-84167744D01*
X146134774Y-84356102D01*
X146095000Y-84556061D01*
X146095000Y-84759939D01*
X146134774Y-84959898D01*
X146212795Y-85148256D01*
X146326063Y-85317774D01*
X146370001Y-85361712D01*
X146370000Y-88407198D01*
X145423000Y-89354198D01*
X145423000Y-89330061D01*
X145383226Y-89130102D01*
X145305205Y-88941744D01*
X145191937Y-88772226D01*
X145047774Y-88628063D01*
X144878256Y-88514795D01*
X144689898Y-88436774D01*
X144489939Y-88397000D01*
X144286061Y-88397000D01*
X144086102Y-88436774D01*
X143897744Y-88514795D01*
X143728226Y-88628063D01*
X143684289Y-88672000D01*
X129358178Y-88672000D01*
X129233475Y-88485368D01*
X129026632Y-88278525D01*
X128783411Y-88116010D01*
X128513158Y-88004068D01*
X128226260Y-87947000D01*
X127933740Y-87947000D01*
X127646842Y-88004068D01*
X127376589Y-88116010D01*
X127133368Y-88278525D01*
X126926525Y-88485368D01*
X126801822Y-88672000D01*
X125421178Y-88672000D01*
X125296475Y-88485368D01*
X125089632Y-88278525D01*
X124846411Y-88116010D01*
X124576158Y-88004068D01*
X124289260Y-87947000D01*
X123996740Y-87947000D01*
X123709842Y-88004068D01*
X123439589Y-88116010D01*
X123196368Y-88278525D01*
X122989525Y-88485368D01*
X122827010Y-88728589D01*
X122715068Y-88998842D01*
X122658000Y-89285740D01*
X108170000Y-89285740D01*
X108170000Y-82478000D01*
X112021928Y-82478000D01*
X112034188Y-82602482D01*
X112070498Y-82722180D01*
X112129463Y-82832494D01*
X112208815Y-82929185D01*
X112305506Y-83008537D01*
X112415820Y-83067502D01*
X112535518Y-83103812D01*
X112660000Y-83116072D01*
X113224250Y-83113000D01*
X113383000Y-82954250D01*
X113383000Y-81755000D01*
X112183750Y-81755000D01*
X112025000Y-81913750D01*
X112021928Y-82478000D01*
X108170000Y-82478000D01*
X108170000Y-80778000D01*
X112021928Y-80778000D01*
X112025000Y-81342250D01*
X112183750Y-81501000D01*
X113383000Y-81501000D01*
X113383000Y-80301750D01*
X113637000Y-80301750D01*
X113637000Y-81501000D01*
X113657000Y-81501000D01*
X113657000Y-81755000D01*
X113637000Y-81755000D01*
X113637000Y-82954250D01*
X113795750Y-83113000D01*
X114360000Y-83116072D01*
X114484482Y-83103812D01*
X114604180Y-83067502D01*
X114714494Y-83008537D01*
X114811185Y-82929185D01*
X114890537Y-82832494D01*
X114949502Y-82722180D01*
X114971513Y-82649620D01*
X115103368Y-82781475D01*
X115346589Y-82943990D01*
X115616842Y-83055932D01*
X115903740Y-83113000D01*
X116196260Y-83113000D01*
X116483158Y-83055932D01*
X116753411Y-82943990D01*
X116996632Y-82781475D01*
X117203475Y-82574632D01*
X117320000Y-82400240D01*
X117436525Y-82574632D01*
X117643368Y-82781475D01*
X117886589Y-82943990D01*
X118156842Y-83055932D01*
X118443740Y-83113000D01*
X118736260Y-83113000D01*
X119023158Y-83055932D01*
X119293411Y-82943990D01*
X119536632Y-82781475D01*
X119743475Y-82574632D01*
X119905990Y-82331411D01*
X120017932Y-82061158D01*
X120075000Y-81774260D01*
X120075000Y-81481740D01*
X120017932Y-81194842D01*
X119905990Y-80924589D01*
X119743475Y-80681368D01*
X119536632Y-80474525D01*
X119293411Y-80312010D01*
X119023158Y-80200068D01*
X118736260Y-80143000D01*
X118443740Y-80143000D01*
X118156842Y-80200068D01*
X117886589Y-80312010D01*
X117643368Y-80474525D01*
X117436525Y-80681368D01*
X117320000Y-80855760D01*
X117203475Y-80681368D01*
X116996632Y-80474525D01*
X116753411Y-80312010D01*
X116483158Y-80200068D01*
X116196260Y-80143000D01*
X115903740Y-80143000D01*
X115616842Y-80200068D01*
X115346589Y-80312010D01*
X115103368Y-80474525D01*
X114971513Y-80606380D01*
X114949502Y-80533820D01*
X114890537Y-80423506D01*
X114811185Y-80326815D01*
X114714494Y-80247463D01*
X114604180Y-80188498D01*
X114484482Y-80152188D01*
X114360000Y-80139928D01*
X113795750Y-80143000D01*
X113637000Y-80301750D01*
X113383000Y-80301750D01*
X113224250Y-80143000D01*
X112660000Y-80139928D01*
X112535518Y-80152188D01*
X112415820Y-80188498D01*
X112305506Y-80247463D01*
X112208815Y-80326815D01*
X112129463Y-80423506D01*
X112070498Y-80533820D01*
X112034188Y-80653518D01*
X112021928Y-80778000D01*
X108170000Y-80778000D01*
X108170000Y-67600000D01*
X112453928Y-67600000D01*
X112466188Y-67724482D01*
X112502498Y-67844180D01*
X112561463Y-67954494D01*
X112640815Y-68051185D01*
X112737506Y-68130537D01*
X112847820Y-68189502D01*
X112967518Y-68225812D01*
X113092000Y-68238072D01*
X113681250Y-68235000D01*
X113840000Y-68076250D01*
X113840000Y-67127000D01*
X114094000Y-67127000D01*
X114094000Y-68076250D01*
X114252750Y-68235000D01*
X114842000Y-68238072D01*
X114966482Y-68225812D01*
X115086180Y-68189502D01*
X115196494Y-68130537D01*
X115293185Y-68051185D01*
X115372537Y-67954494D01*
X115431502Y-67844180D01*
X115467812Y-67724482D01*
X115480072Y-67600000D01*
X115477000Y-67285750D01*
X115318250Y-67127000D01*
X114094000Y-67127000D01*
X113840000Y-67127000D01*
X112615750Y-67127000D01*
X112457000Y-67285750D01*
X112453928Y-67600000D01*
X108170000Y-67600000D01*
X108170000Y-63000000D01*
X112451025Y-63000000D01*
X112474870Y-63242102D01*
X112545489Y-63474901D01*
X112660167Y-63689449D01*
X112814498Y-63877502D01*
X112963762Y-64000000D01*
X112814498Y-64122498D01*
X112660167Y-64310551D01*
X112545489Y-64525099D01*
X112474870Y-64757898D01*
X112451025Y-65000000D01*
X112474870Y-65242102D01*
X112545489Y-65474901D01*
X112660167Y-65689449D01*
X112786436Y-65843309D01*
X112737506Y-65869463D01*
X112640815Y-65948815D01*
X112561463Y-66045506D01*
X112502498Y-66155820D01*
X112466188Y-66275518D01*
X112453928Y-66400000D01*
X112457000Y-66714250D01*
X112615750Y-66873000D01*
X113840000Y-66873000D01*
X113840000Y-66853000D01*
X114094000Y-66853000D01*
X114094000Y-66873000D01*
X115318250Y-66873000D01*
X115477000Y-66714250D01*
X115480072Y-66400000D01*
X115467812Y-66275518D01*
X115431502Y-66155820D01*
X115372537Y-66045506D01*
X115293185Y-65948815D01*
X115196494Y-65869463D01*
X115147564Y-65843309D01*
X115273833Y-65689449D01*
X115388511Y-65474901D01*
X115459130Y-65242102D01*
X115482975Y-65000000D01*
X115459130Y-64757898D01*
X115388511Y-64525099D01*
X115273833Y-64310551D01*
X115119502Y-64122498D01*
X114970238Y-64000000D01*
X115119502Y-63877502D01*
X115273833Y-63689449D01*
X115388511Y-63474901D01*
X115459130Y-63242102D01*
X115482975Y-63000000D01*
X115459130Y-62757898D01*
X115388511Y-62525099D01*
X115273833Y-62310551D01*
X115119502Y-62122498D01*
X114931449Y-61968167D01*
X114716901Y-61853489D01*
X114484102Y-61782870D01*
X114302665Y-61765000D01*
X113631335Y-61765000D01*
X113449898Y-61782870D01*
X113217099Y-61853489D01*
X113002551Y-61968167D01*
X112814498Y-62122498D01*
X112660167Y-62310551D01*
X112545489Y-62525099D01*
X112474870Y-62757898D01*
X112451025Y-63000000D01*
X108170000Y-63000000D01*
X108170000Y-54927589D01*
X109269000Y-54927589D01*
X109269000Y-55200411D01*
X109322225Y-55467989D01*
X109426629Y-55720043D01*
X109578201Y-55946886D01*
X109771114Y-56139799D01*
X109997957Y-56291371D01*
X110250011Y-56395775D01*
X110517589Y-56449000D01*
X110790411Y-56449000D01*
X111057989Y-56395775D01*
X111310043Y-56291371D01*
X111536886Y-56139799D01*
X111729799Y-55946886D01*
X111881371Y-55720043D01*
X111985775Y-55467989D01*
X112039000Y-55200411D01*
X112039000Y-54927589D01*
X112669000Y-54927589D01*
X112669000Y-55200411D01*
X112722225Y-55467989D01*
X112826629Y-55720043D01*
X112978201Y-55946886D01*
X113171114Y-56139799D01*
X113397957Y-56291371D01*
X113650011Y-56395775D01*
X113917589Y-56449000D01*
X114190411Y-56449000D01*
X114457989Y-56395775D01*
X114710043Y-56291371D01*
X114936886Y-56139799D01*
X115129799Y-55946886D01*
X115281371Y-55720043D01*
X115385775Y-55467989D01*
X115439000Y-55200411D01*
X115439000Y-54927589D01*
X115385775Y-54660011D01*
X115281371Y-54407957D01*
X115129799Y-54181114D01*
X114936886Y-53988201D01*
X114710043Y-53836629D01*
X114457989Y-53732225D01*
X114190411Y-53679000D01*
X113917589Y-53679000D01*
X113650011Y-53732225D01*
X113397957Y-53836629D01*
X113171114Y-53988201D01*
X112978201Y-54181114D01*
X112826629Y-54407957D01*
X112722225Y-54660011D01*
X112669000Y-54927589D01*
X112039000Y-54927589D01*
X111985775Y-54660011D01*
X111881371Y-54407957D01*
X111729799Y-54181114D01*
X111536886Y-53988201D01*
X111310043Y-53836629D01*
X111057989Y-53732225D01*
X110790411Y-53679000D01*
X110517589Y-53679000D01*
X110250011Y-53732225D01*
X109997957Y-53836629D01*
X109771114Y-53988201D01*
X109578201Y-54181114D01*
X109426629Y-54407957D01*
X109322225Y-54660011D01*
X109269000Y-54927589D01*
X108170000Y-54927589D01*
X108170000Y-53782279D01*
X108217670Y-53296107D01*
X108261782Y-53150000D01*
X116721928Y-53150000D01*
X116721928Y-54150000D01*
X116734188Y-54274482D01*
X116770498Y-54394180D01*
X116829463Y-54504494D01*
X116908815Y-54601185D01*
X117005506Y-54680537D01*
X117115820Y-54739502D01*
X117235518Y-54775812D01*
X117360000Y-54788072D01*
X118860000Y-54788072D01*
X118984482Y-54775812D01*
X119104180Y-54739502D01*
X119214494Y-54680537D01*
X119311185Y-54601185D01*
X119390537Y-54504494D01*
X119449502Y-54394180D01*
X119485812Y-54274482D01*
X119498072Y-54150000D01*
X121621928Y-54150000D01*
X121634188Y-54274482D01*
X121670498Y-54394180D01*
X121729463Y-54504494D01*
X121808815Y-54601185D01*
X121905506Y-54680537D01*
X122015820Y-54739502D01*
X122135518Y-54775812D01*
X122260000Y-54788072D01*
X122724250Y-54785000D01*
X122883000Y-54626250D01*
X122883000Y-53777000D01*
X123137000Y-53777000D01*
X123137000Y-54626250D01*
X123295750Y-54785000D01*
X123760000Y-54788072D01*
X123884482Y-54775812D01*
X124004180Y-54739502D01*
X124114494Y-54680537D01*
X124211185Y-54601185D01*
X124290537Y-54504494D01*
X124349502Y-54394180D01*
X124385812Y-54274482D01*
X124398072Y-54150000D01*
X124395000Y-53935750D01*
X124236250Y-53777000D01*
X123137000Y-53777000D01*
X122883000Y-53777000D01*
X121783750Y-53777000D01*
X121625000Y-53935750D01*
X121621928Y-54150000D01*
X119498072Y-54150000D01*
X119498072Y-53150000D01*
X121621928Y-53150000D01*
X121625000Y-53364250D01*
X121783750Y-53523000D01*
X122883000Y-53523000D01*
X122883000Y-52673750D01*
X123137000Y-52673750D01*
X123137000Y-53523000D01*
X124236250Y-53523000D01*
X124395000Y-53364250D01*
X124398072Y-53150000D01*
X124385812Y-53025518D01*
X124349502Y-52905820D01*
X124290537Y-52795506D01*
X124211185Y-52698815D01*
X124114494Y-52619463D01*
X124004180Y-52560498D01*
X123884482Y-52524188D01*
X123760000Y-52511928D01*
X123295750Y-52515000D01*
X123137000Y-52673750D01*
X122883000Y-52673750D01*
X122724250Y-52515000D01*
X122260000Y-52511928D01*
X122135518Y-52524188D01*
X122015820Y-52560498D01*
X121905506Y-52619463D01*
X121808815Y-52698815D01*
X121729463Y-52795506D01*
X121670498Y-52905820D01*
X121634188Y-53025518D01*
X121621928Y-53150000D01*
X119498072Y-53150000D01*
X119485812Y-53025518D01*
X119449502Y-52905820D01*
X119390537Y-52795506D01*
X119311185Y-52698815D01*
X119214494Y-52619463D01*
X119104180Y-52560498D01*
X118984482Y-52524188D01*
X118860000Y-52511928D01*
X117360000Y-52511928D01*
X117235518Y-52524188D01*
X117115820Y-52560498D01*
X117005506Y-52619463D01*
X116908815Y-52698815D01*
X116829463Y-52795506D01*
X116770498Y-52905820D01*
X116734188Y-53025518D01*
X116721928Y-53150000D01*
X108261782Y-53150000D01*
X108349489Y-52859502D01*
X108563600Y-52456815D01*
X108851848Y-52103388D01*
X109203261Y-51812673D01*
X109604439Y-51595758D01*
X110040113Y-51460894D01*
X110524344Y-51410000D01*
X122977721Y-51410000D01*
X123463893Y-51457670D01*
%TA.AperFunction,Conductor*%
D28*
G36*
X123463893Y-51457670D02*
G01*
X123900498Y-51589489D01*
X124303185Y-51803600D01*
X124656612Y-52091848D01*
X124947327Y-52443261D01*
X125164242Y-52844439D01*
X125299106Y-53280113D01*
X125350001Y-53764353D01*
X125350000Y-57282418D01*
X125352818Y-57311027D01*
X125352753Y-57320288D01*
X125353652Y-57329460D01*
X125384252Y-57620605D01*
X125396283Y-57679217D01*
X125407489Y-57737963D01*
X125410153Y-57746784D01*
X125496721Y-58026440D01*
X125519899Y-58081578D01*
X125542311Y-58137050D01*
X125546638Y-58145186D01*
X125685877Y-58402702D01*
X125719304Y-58452259D01*
X125752080Y-58502347D01*
X125757905Y-58509488D01*
X125944510Y-58735056D01*
X125986965Y-58777215D01*
X126028809Y-58819945D01*
X126035909Y-58825819D01*
X126262773Y-59010845D01*
X126312566Y-59043927D01*
X126361955Y-59077745D01*
X126370061Y-59082127D01*
X126628542Y-59219564D01*
X126683836Y-59242355D01*
X126738829Y-59265925D01*
X126747632Y-59268650D01*
X127027887Y-59353264D01*
X127086564Y-59364882D01*
X127145079Y-59377320D01*
X127154242Y-59378283D01*
X127154244Y-59378283D01*
X127445596Y-59406850D01*
X127672540Y-59429102D01*
X127828894Y-59476308D01*
X127973096Y-59552982D01*
X128099663Y-59656207D01*
X128203769Y-59782051D01*
X128281447Y-59925711D01*
X128329742Y-60081729D01*
X128352882Y-60301890D01*
X128352753Y-60320288D01*
X128353652Y-60329460D01*
X128384252Y-60620605D01*
X128396283Y-60679217D01*
X128407489Y-60737963D01*
X128410153Y-60746784D01*
X128496721Y-61026440D01*
X128519899Y-61081578D01*
X128542311Y-61137050D01*
X128546638Y-61145186D01*
X128685877Y-61402702D01*
X128719304Y-61452259D01*
X128752080Y-61502347D01*
X128757905Y-61509488D01*
X128944510Y-61735056D01*
X128986965Y-61777215D01*
X129028809Y-61819945D01*
X129035909Y-61825819D01*
X129262773Y-62010845D01*
X129312566Y-62043927D01*
X129361955Y-62077745D01*
X129370061Y-62082127D01*
X129628542Y-62219564D01*
X129683836Y-62242355D01*
X129738829Y-62265925D01*
X129747632Y-62268650D01*
X130027887Y-62353264D01*
X130086564Y-62364882D01*
X130145079Y-62377320D01*
X130154242Y-62378283D01*
X130154244Y-62378283D01*
X130445596Y-62406850D01*
X130445598Y-62406850D01*
X130477581Y-62410000D01*
X133180191Y-62410000D01*
X133116774Y-62563102D01*
X133077000Y-62763061D01*
X133077000Y-62966939D01*
X133116774Y-63166898D01*
X133194795Y-63355256D01*
X133308063Y-63524774D01*
X133352000Y-63568711D01*
X133352001Y-64087196D01*
X131524199Y-65915000D01*
X130577711Y-65915000D01*
X130533774Y-65871063D01*
X130364256Y-65757795D01*
X130175898Y-65679774D01*
X129975939Y-65640000D01*
X129772061Y-65640000D01*
X129572102Y-65679774D01*
X129383744Y-65757795D01*
X129214226Y-65871063D01*
X129070063Y-66015226D01*
X128956795Y-66184744D01*
X128878774Y-66373102D01*
X128839000Y-66573061D01*
X128839000Y-66776939D01*
X128878774Y-66976898D01*
X128956795Y-67165256D01*
X129070063Y-67334774D01*
X129214226Y-67478937D01*
X129383744Y-67592205D01*
X129572102Y-67670226D01*
X129772061Y-67710000D01*
X129975939Y-67710000D01*
X130175898Y-67670226D01*
X130364256Y-67592205D01*
X130533774Y-67478937D01*
X130577711Y-67435000D01*
X131801678Y-67435000D01*
X131839000Y-67438676D01*
X131876322Y-67435000D01*
X131876333Y-67435000D01*
X131987986Y-67424003D01*
X132131247Y-67380546D01*
X132263276Y-67309974D01*
X132379001Y-67215001D01*
X132402804Y-67185998D01*
X134490803Y-65098000D01*
X153800596Y-65098000D01*
X153686102Y-65120774D01*
X153497744Y-65198795D01*
X153328226Y-65312063D01*
X153184063Y-65456226D01*
X153070795Y-65625744D01*
X152992774Y-65814102D01*
X152953000Y-66014061D01*
X152953000Y-66217939D01*
X152992774Y-66417898D01*
X153070795Y-66606256D01*
X153184063Y-66775774D01*
X153228001Y-66819712D01*
X153228001Y-67348658D01*
X153224323Y-67386000D01*
X153228001Y-67423342D01*
X153228000Y-74937289D01*
X153184063Y-74981226D01*
X153070795Y-75150744D01*
X152992774Y-75339102D01*
X152953000Y-75539061D01*
X152953000Y-75742939D01*
X152992774Y-75942898D01*
X153070795Y-76131256D01*
X153168846Y-76278000D01*
X149476803Y-76278000D01*
X145350000Y-72151199D01*
X145350000Y-71645711D01*
X145393937Y-71601774D01*
X145507205Y-71432256D01*
X145585226Y-71243898D01*
X145625000Y-71043939D01*
X145625000Y-70840061D01*
X145585226Y-70640102D01*
X145507205Y-70451744D01*
X145393937Y-70282226D01*
X145249774Y-70138063D01*
X145080256Y-70024795D01*
X144891898Y-69946774D01*
X144691939Y-69907000D01*
X144488061Y-69907000D01*
X144288102Y-69946774D01*
X144099744Y-70024795D01*
X143930226Y-70138063D01*
X143786063Y-70282226D01*
X143672795Y-70451744D01*
X143594774Y-70640102D01*
X143555000Y-70840061D01*
X143555000Y-71043939D01*
X143594774Y-71243898D01*
X143672795Y-71432256D01*
X143786063Y-71601774D01*
X143830000Y-71645711D01*
X143830001Y-72428668D01*
X143826324Y-72466000D01*
X143840998Y-72614985D01*
X143884454Y-72758246D01*
X143955026Y-72890276D01*
X144018950Y-72968167D01*
X144050000Y-73006001D01*
X144078998Y-73029799D01*
X148218197Y-77169000D01*
X125840454Y-77169000D01*
X125792256Y-77136795D01*
X125603898Y-77058774D01*
X125403939Y-77019000D01*
X125200061Y-77019000D01*
X125000102Y-77058774D01*
X124811744Y-77136795D01*
X124763546Y-77169000D01*
X124636579Y-77169000D01*
X123377000Y-75909422D01*
X123377000Y-73143801D01*
X125623201Y-75390003D01*
X125646999Y-75419001D01*
X125675997Y-75442799D01*
X125762723Y-75513974D01*
X125894753Y-75584546D01*
X126038014Y-75628003D01*
X126149667Y-75639000D01*
X126149676Y-75639000D01*
X126186999Y-75642676D01*
X126224322Y-75639000D01*
X129217289Y-75639000D01*
X129261226Y-75682937D01*
X129430744Y-75796205D01*
X129619102Y-75874226D01*
X129819061Y-75914000D01*
X130022939Y-75914000D01*
X130222898Y-75874226D01*
X130411256Y-75796205D01*
X130580774Y-75682937D01*
X130724937Y-75538774D01*
X130838205Y-75369256D01*
X130916226Y-75180898D01*
X130956000Y-74980939D01*
X130956000Y-74777061D01*
X130916226Y-74577102D01*
X130838205Y-74388744D01*
X130724937Y-74219226D01*
X130580774Y-74075063D01*
X130411256Y-73961795D01*
X130222898Y-73883774D01*
X130022939Y-73844000D01*
X129819061Y-73844000D01*
X129619102Y-73883774D01*
X129430744Y-73961795D01*
X129261226Y-74075063D01*
X129217289Y-74119000D01*
X126501802Y-74119000D01*
X124494999Y-72112198D01*
X124494999Y-69810958D01*
X124539102Y-69829226D01*
X124739061Y-69869000D01*
X124942939Y-69869000D01*
X125142898Y-69829226D01*
X125331256Y-69751205D01*
X125500774Y-69637937D01*
X125544711Y-69594000D01*
X133408289Y-69594000D01*
X133452226Y-69637937D01*
X133621744Y-69751205D01*
X133810102Y-69829226D01*
X134010061Y-69869000D01*
X134213939Y-69869000D01*
X134413898Y-69829226D01*
X134602256Y-69751205D01*
X134771774Y-69637937D01*
X134915937Y-69493774D01*
X135029205Y-69324256D01*
X135107226Y-69135898D01*
X135147000Y-68935939D01*
X135147000Y-68732061D01*
X135107226Y-68532102D01*
X135029205Y-68343744D01*
X134915937Y-68174226D01*
X134771774Y-68030063D01*
X134602256Y-67916795D01*
X134413898Y-67838774D01*
X134213939Y-67799000D01*
X134010061Y-67799000D01*
X133810102Y-67838774D01*
X133621744Y-67916795D01*
X133452226Y-68030063D01*
X133408289Y-68074000D01*
X125544711Y-68074000D01*
X125500774Y-68030063D01*
X125331256Y-67916795D01*
X125142898Y-67838774D01*
X124942939Y-67799000D01*
X124739061Y-67799000D01*
X124539102Y-67838774D01*
X124494999Y-67857042D01*
X124494999Y-57612321D01*
X124498675Y-57574998D01*
X124494999Y-57537675D01*
X124494999Y-57537666D01*
X124484002Y-57426013D01*
X124440545Y-57282752D01*
X124398072Y-57203292D01*
X124398072Y-56350000D01*
X124385812Y-56225518D01*
X124349502Y-56105820D01*
X124290537Y-55995506D01*
X124211185Y-55898815D01*
X124114494Y-55819463D01*
X124004180Y-55760498D01*
X123884482Y-55724188D01*
X123760000Y-55711928D01*
X122260000Y-55711928D01*
X122135518Y-55724188D01*
X122015820Y-55760498D01*
X121905506Y-55819463D01*
X121808815Y-55898815D01*
X121729463Y-55995506D01*
X121670498Y-56105820D01*
X121634188Y-56225518D01*
X121621928Y-56350000D01*
X121621928Y-57350000D01*
X121634188Y-57474482D01*
X121670498Y-57594180D01*
X121729463Y-57704494D01*
X121808815Y-57801185D01*
X121905506Y-57880537D01*
X122015820Y-57939502D01*
X122135518Y-57975812D01*
X122260000Y-57988072D01*
X122975000Y-57988072D01*
X122975000Y-60463421D01*
X119498072Y-56986494D01*
X119498072Y-56350000D01*
X119485812Y-56225518D01*
X119449502Y-56105820D01*
X119390537Y-55995506D01*
X119311185Y-55898815D01*
X119214494Y-55819463D01*
X119104180Y-55760498D01*
X118984482Y-55724188D01*
X118860000Y-55711928D01*
X117360000Y-55711928D01*
X117235518Y-55724188D01*
X117115820Y-55760498D01*
X117005506Y-55819463D01*
X116908815Y-55898815D01*
X116829463Y-55995506D01*
X116770498Y-56105820D01*
X116734188Y-56225518D01*
X116721928Y-56350000D01*
X116721928Y-57350000D01*
X116734188Y-57474482D01*
X116770498Y-57594180D01*
X116829463Y-57704494D01*
X116908815Y-57801185D01*
X117005506Y-57880537D01*
X117115820Y-57939502D01*
X117235518Y-57975812D01*
X117360000Y-57988072D01*
X117996494Y-57988072D01*
X121607001Y-61598580D01*
X121607000Y-63315491D01*
X121590795Y-63339744D01*
X121512774Y-63528102D01*
X121473000Y-63728061D01*
X121473000Y-63931939D01*
X121512774Y-64131898D01*
X121590795Y-64320256D01*
X121607000Y-64344509D01*
X121607001Y-75115000D01*
X115339254Y-75115000D01*
X115262962Y-75022038D01*
X115128387Y-74911595D01*
X115123889Y-74909191D01*
X115162502Y-74877502D01*
X115316833Y-74689449D01*
X115431511Y-74474901D01*
X115502130Y-74242102D01*
X115525975Y-74000000D01*
X115502130Y-73757898D01*
X115431511Y-73525099D01*
X115316833Y-73310551D01*
X115162502Y-73122498D01*
X114974449Y-72968167D01*
X114759901Y-72853489D01*
X114527102Y-72782870D01*
X114345665Y-72765000D01*
X113674335Y-72765000D01*
X113492898Y-72782870D01*
X113260099Y-72853489D01*
X113045551Y-72968167D01*
X112857498Y-73122498D01*
X112703167Y-73310551D01*
X112588489Y-73525099D01*
X112517870Y-73757898D01*
X112494025Y-74000000D01*
X112517870Y-74242102D01*
X112588489Y-74474901D01*
X112703167Y-74689449D01*
X112857498Y-74877502D01*
X112896111Y-74909191D01*
X112891613Y-74911595D01*
X112757038Y-75022038D01*
X112646595Y-75156613D01*
X112564528Y-75310149D01*
X112513992Y-75476745D01*
X112496928Y-75649999D01*
X112496928Y-76350001D01*
X112513992Y-76523255D01*
X112564528Y-76689851D01*
X112646595Y-76843387D01*
X112757038Y-76977962D01*
X112891613Y-77088405D01*
X113045149Y-77170472D01*
X113211745Y-77221008D01*
X113384999Y-77238072D01*
X114635001Y-77238072D01*
X114808255Y-77221008D01*
X114974851Y-77170472D01*
X115128387Y-77088405D01*
X115262962Y-76977962D01*
X115339254Y-76885000D01*
X121843843Y-76885000D01*
X121874955Y-76910533D01*
X123613470Y-78649049D01*
X123641183Y-78682817D01*
X123674951Y-78710530D01*
X123674953Y-78710532D01*
X123745102Y-78768102D01*
X123775941Y-78793411D01*
X123929687Y-78875589D01*
X124096510Y-78926195D01*
X124226523Y-78939000D01*
X124226533Y-78939000D01*
X124269999Y-78943281D01*
X124313465Y-78939000D01*
X124763546Y-78939000D01*
X124811744Y-78971205D01*
X125000102Y-79049226D01*
X125200061Y-79089000D01*
X125403939Y-79089000D01*
X125603898Y-79049226D01*
X125792256Y-78971205D01*
X125840454Y-78939000D01*
X127530781Y-78939000D01*
X127525000Y-78968061D01*
X127525000Y-79171939D01*
X127564774Y-79371898D01*
X127642795Y-79560256D01*
X127756063Y-79729774D01*
X127800000Y-79773711D01*
X127800001Y-80346288D01*
X127756063Y-80390226D01*
X127642795Y-80559744D01*
X127564774Y-80748102D01*
X127525000Y-80948061D01*
X127525000Y-81151939D01*
X127564774Y-81351898D01*
X127642795Y-81540256D01*
X127756063Y-81709774D01*
X127900226Y-81853937D01*
X128069744Y-81967205D01*
X128258102Y-82045226D01*
X128458061Y-82085000D01*
X128661939Y-82085000D01*
X128861898Y-82045226D01*
X129050256Y-81967205D01*
X129219774Y-81853937D01*
X129363937Y-81709774D01*
X129477205Y-81540256D01*
X129555226Y-81351898D01*
X129595000Y-81151939D01*
X129595000Y-80948061D01*
X129555226Y-80748102D01*
X129477205Y-80559744D01*
X129363937Y-80390226D01*
X129320000Y-80346289D01*
X129320000Y-79830000D01*
X136778289Y-79830000D01*
X136674063Y-79934226D01*
X136560795Y-80103744D01*
X136482774Y-80292102D01*
X136443000Y-80492061D01*
X136443000Y-80695939D01*
X136482774Y-80895898D01*
X136560795Y-81084256D01*
X136674063Y-81253774D01*
X136818226Y-81397937D01*
X136987744Y-81511205D01*
X137176102Y-81589226D01*
X137376061Y-81629000D01*
X137579939Y-81629000D01*
X137779898Y-81589226D01*
X137968256Y-81511205D01*
X138137774Y-81397937D01*
X138181711Y-81354000D01*
X138505644Y-81354000D01*
X138475000Y-81508061D01*
X138475000Y-81711939D01*
X138514774Y-81911898D01*
X138592795Y-82100256D01*
X138642521Y-82174676D01*
X136123270Y-84693928D01*
X134860000Y-84693928D01*
X134735518Y-84706188D01*
X134615820Y-84742498D01*
X134505506Y-84801463D01*
X134408815Y-84880815D01*
X134329463Y-84977506D01*
X134270498Y-85087820D01*
X134234188Y-85207518D01*
X134221928Y-85332000D01*
X134221928Y-87032000D01*
X134234188Y-87156482D01*
X134270498Y-87276180D01*
X134329463Y-87386494D01*
X134408815Y-87483185D01*
X134505506Y-87562537D01*
X134615820Y-87621502D01*
X134735518Y-87657812D01*
X134860000Y-87670072D01*
X136560000Y-87670072D01*
X136684482Y-87657812D01*
X136804180Y-87621502D01*
X136914494Y-87562537D01*
X137011185Y-87483185D01*
X137090537Y-87386494D01*
X137149502Y-87276180D01*
X137171513Y-87203620D01*
X137303368Y-87335475D01*
X137546589Y-87497990D01*
X137816842Y-87609932D01*
X138103740Y-87667000D01*
X138396260Y-87667000D01*
X138683158Y-87609932D01*
X138953411Y-87497990D01*
X139196632Y-87335475D01*
X139403475Y-87128632D01*
X139525195Y-86946466D01*
X139594822Y-87063355D01*
X139789731Y-87279588D01*
X140023080Y-87453641D01*
X140285901Y-87578825D01*
X140433110Y-87623476D01*
X140663000Y-87502155D01*
X140663000Y-86309000D01*
X140643000Y-86309000D01*
X140643000Y-86055000D01*
X140663000Y-86055000D01*
X140663000Y-86035000D01*
X140917000Y-86035000D01*
X140917000Y-86055000D01*
X140937000Y-86055000D01*
X140937000Y-86309000D01*
X140917000Y-86309000D01*
X140917000Y-87502155D01*
X141146890Y-87623476D01*
X141294099Y-87578825D01*
X141556920Y-87453641D01*
X141790269Y-87279588D01*
X141985178Y-87063355D01*
X142054805Y-86946466D01*
X142176525Y-87128632D01*
X142383368Y-87335475D01*
X142626589Y-87497990D01*
X142896842Y-87609932D01*
X143183740Y-87667000D01*
X143476260Y-87667000D01*
X143763158Y-87609932D01*
X144033411Y-87497990D01*
X144276632Y-87335475D01*
X144483475Y-87128632D01*
X144645990Y-86885411D01*
X144757932Y-86615158D01*
X144815000Y-86328260D01*
X144815000Y-86035740D01*
X144757932Y-85748842D01*
X144645990Y-85478589D01*
X144483475Y-85235368D01*
X144276632Y-85028525D01*
X144033411Y-84866010D01*
X143763158Y-84754068D01*
X143476260Y-84697000D01*
X143183740Y-84697000D01*
X142896842Y-84754068D01*
X142626589Y-84866010D01*
X142383368Y-85028525D01*
X142176525Y-85235368D01*
X142054805Y-85417534D01*
X141985178Y-85300645D01*
X141790269Y-85084412D01*
X141556920Y-84910359D01*
X141294099Y-84785175D01*
X141146890Y-84740524D01*
X140917002Y-84861844D01*
X140917002Y-84697000D01*
X140809802Y-84697000D01*
X141104803Y-84402000D01*
X142870289Y-84402000D01*
X142914226Y-84445937D01*
X143083744Y-84559205D01*
X143272102Y-84637226D01*
X143472061Y-84677000D01*
X143675939Y-84677000D01*
X143875898Y-84637226D01*
X144064256Y-84559205D01*
X144233774Y-84445937D01*
X144377937Y-84301774D01*
X144491205Y-84132256D01*
X144569226Y-83943898D01*
X144609000Y-83743939D01*
X144609000Y-83540061D01*
X144569226Y-83340102D01*
X144491205Y-83151744D01*
X144377937Y-82982226D01*
X144233774Y-82838063D01*
X144064256Y-82724795D01*
X143875898Y-82646774D01*
X143675939Y-82607000D01*
X143472061Y-82607000D01*
X143272102Y-82646774D01*
X143083744Y-82724795D01*
X142914226Y-82838063D01*
X142870289Y-82882000D01*
X142546356Y-82882000D01*
X142577000Y-82727939D01*
X142577000Y-82524061D01*
X142546356Y-82370000D01*
X159515199Y-82370000D01*
X160084001Y-82938803D01*
X160084000Y-87378289D01*
X160040063Y-87422226D01*
X159926795Y-87591744D01*
X159848774Y-87780102D01*
X159809000Y-87980061D01*
X159809000Y-88183939D01*
X159848774Y-88383898D01*
X159926795Y-88572256D01*
X160040063Y-88741774D01*
X160072289Y-88774000D01*
X151943322Y-88774000D01*
X151905999Y-88770324D01*
X151868676Y-88774000D01*
X151868667Y-88774000D01*
X151757014Y-88784997D01*
X151613753Y-88828454D01*
X151481724Y-88899026D01*
X151481722Y-88899027D01*
X151481723Y-88899027D01*
X151394996Y-88970201D01*
X151394992Y-88970205D01*
X151365999Y-88993999D01*
X151342205Y-89022992D01*
X146582199Y-93783000D01*
X146520061Y-93783000D01*
X146320102Y-93822774D01*
X146131744Y-93900795D01*
X145962226Y-94014063D01*
X145818063Y-94158226D01*
X145704795Y-94327744D01*
X145626774Y-94516102D01*
X145587000Y-94716061D01*
X145587000Y-94919939D01*
X145626774Y-95119898D01*
X145704795Y-95308256D01*
X145818063Y-95477774D01*
X145962226Y-95621937D01*
X146131744Y-95735205D01*
X146320102Y-95813226D01*
X146520061Y-95853000D01*
X146723939Y-95853000D01*
X146923898Y-95813226D01*
X147112256Y-95735205D01*
X147281774Y-95621937D01*
X147425937Y-95477774D01*
X147539205Y-95308256D01*
X147617226Y-95119898D01*
X147651219Y-94949000D01*
X163771928Y-94949000D01*
X163784188Y-95073482D01*
X163820498Y-95193180D01*
X163879463Y-95303494D01*
X163958815Y-95400185D01*
X164055506Y-95479537D01*
X164165820Y-95538502D01*
X164285518Y-95574812D01*
X164410000Y-95587072D01*
X164724250Y-95584000D01*
X164883000Y-95425250D01*
X164883000Y-94201000D01*
X163933750Y-94201000D01*
X163775000Y-94359750D01*
X163771928Y-94949000D01*
X147651219Y-94949000D01*
X147657000Y-94919939D01*
X147657000Y-94857801D01*
X149315801Y-93199000D01*
X163771928Y-93199000D01*
X163775000Y-93788250D01*
X163933750Y-93947000D01*
X164883000Y-93947000D01*
X164883000Y-92722750D01*
X164724250Y-92564000D01*
X164410000Y-92560928D01*
X164285518Y-92573188D01*
X164165820Y-92609498D01*
X164055506Y-92668463D01*
X163958815Y-92747815D01*
X163879463Y-92844506D01*
X163820498Y-92954820D01*
X163784188Y-93074518D01*
X163771928Y-93199000D01*
X149315801Y-93199000D01*
X152220803Y-90294000D01*
X166125001Y-90294000D01*
X166125000Y-92825574D01*
X166061185Y-92747815D01*
X165964494Y-92668463D01*
X165854180Y-92609498D01*
X165734482Y-92573188D01*
X165610000Y-92560928D01*
X165295750Y-92564000D01*
X165137000Y-92722750D01*
X165137000Y-93947000D01*
X165157000Y-93947000D01*
X165157000Y-94201000D01*
X165137000Y-94201000D01*
X165137000Y-95425250D01*
X165295750Y-95584000D01*
X165610000Y-95587072D01*
X165734482Y-95574812D01*
X165854180Y-95538502D01*
X165964494Y-95479537D01*
X166061185Y-95400185D01*
X166125000Y-95322425D01*
X166125001Y-97430521D01*
X166120719Y-97474000D01*
X166137805Y-97647490D01*
X166188412Y-97814313D01*
X166270590Y-97968059D01*
X166353468Y-98069046D01*
X166353471Y-98069049D01*
X166381184Y-98102817D01*
X166414951Y-98130529D01*
X167840470Y-99556049D01*
X167868183Y-99589817D01*
X167901951Y-99617530D01*
X167901953Y-99617532D01*
X168002941Y-99700411D01*
X168156686Y-99782589D01*
X168290495Y-99823180D01*
X168323510Y-99833195D01*
X168453523Y-99846000D01*
X168453531Y-99846000D01*
X168497000Y-99850281D01*
X168540469Y-99846000D01*
X187494546Y-99846000D01*
X187542744Y-99878205D01*
X187731102Y-99956226D01*
X187931061Y-99996000D01*
X188134939Y-99996000D01*
X188334898Y-99956226D01*
X188523256Y-99878205D01*
X188692774Y-99764937D01*
X188836937Y-99620774D01*
X188950205Y-99451256D01*
X189028226Y-99262898D01*
X189068000Y-99062939D01*
X189068000Y-98859061D01*
X189028226Y-98659102D01*
X188950205Y-98470744D01*
X188836937Y-98301226D01*
X188692774Y-98157063D01*
X188523256Y-98043795D01*
X188334898Y-97965774D01*
X188134939Y-97926000D01*
X187931061Y-97926000D01*
X187731102Y-97965774D01*
X187542744Y-98043795D01*
X187494546Y-98076000D01*
X183591578Y-98076000D01*
X186173044Y-95494535D01*
X186229898Y-95483226D01*
X186418256Y-95405205D01*
X186587774Y-95291937D01*
X186731937Y-95147774D01*
X186845205Y-94978256D01*
X186923226Y-94789898D01*
X186963000Y-94589939D01*
X186963000Y-94386061D01*
X186923226Y-94186102D01*
X186845205Y-93997744D01*
X186731937Y-93828226D01*
X186587774Y-93684063D01*
X186418256Y-93570795D01*
X186229898Y-93492774D01*
X186029939Y-93453000D01*
X185826061Y-93453000D01*
X185626102Y-93492774D01*
X185437744Y-93570795D01*
X185268226Y-93684063D01*
X185124063Y-93828226D01*
X185010795Y-93997744D01*
X184932774Y-94186102D01*
X184921465Y-94242956D01*
X182773777Y-96390645D01*
X182710895Y-96273000D01*
X182811885Y-96084060D01*
X182878215Y-95865400D01*
X182900612Y-95638000D01*
X182878215Y-95410600D01*
X182814907Y-95201902D01*
X182849502Y-95137180D01*
X182885812Y-95017482D01*
X182898072Y-94893000D01*
X182895000Y-94653750D01*
X182736250Y-94495000D01*
X181963109Y-94495000D01*
X181962400Y-94494785D01*
X181791979Y-94478000D01*
X181228021Y-94478000D01*
X181057600Y-94494785D01*
X181056891Y-94495000D01*
X180283750Y-94495000D01*
X180125000Y-94653750D01*
X180122121Y-94878000D01*
X176127594Y-94878000D01*
X176156511Y-94823900D01*
X176227130Y-94591101D01*
X176245000Y-94409664D01*
X176245000Y-93843000D01*
X180121928Y-93843000D01*
X180125000Y-94082250D01*
X180283750Y-94241000D01*
X181383000Y-94241000D01*
X181383000Y-93366750D01*
X181637000Y-93366750D01*
X181637000Y-94241000D01*
X182736250Y-94241000D01*
X182895000Y-94082250D01*
X182898072Y-93843000D01*
X182885812Y-93718518D01*
X182849502Y-93598820D01*
X182790537Y-93488506D01*
X182711185Y-93391815D01*
X182614494Y-93312463D01*
X182504180Y-93253498D01*
X182384482Y-93217188D01*
X182260000Y-93204928D01*
X181795750Y-93208000D01*
X181637000Y-93366750D01*
X181383000Y-93366750D01*
X181224250Y-93208000D01*
X180760000Y-93204928D01*
X180635518Y-93217188D01*
X180515820Y-93253498D01*
X180405506Y-93312463D01*
X180308815Y-93391815D01*
X180229463Y-93488506D01*
X180170498Y-93598820D01*
X180134188Y-93718518D01*
X180121928Y-93843000D01*
X176245000Y-93843000D01*
X176245000Y-93738335D01*
X176227130Y-93556898D01*
X176156511Y-93324099D01*
X176041833Y-93109551D01*
X175887502Y-92921498D01*
X175699448Y-92767167D01*
X175484900Y-92652489D01*
X175252101Y-92581870D01*
X175010000Y-92558025D01*
X174767898Y-92581870D01*
X174535099Y-92652489D01*
X174320551Y-92767167D01*
X174132498Y-92921498D01*
X174010000Y-93070763D01*
X173887502Y-92921498D01*
X173805006Y-92853795D01*
X176021003Y-90637799D01*
X176050001Y-90614001D01*
X176076332Y-90581917D01*
X176144974Y-90498277D01*
X176215546Y-90366247D01*
X176218779Y-90355588D01*
X176259003Y-90222986D01*
X176270000Y-90111333D01*
X176270000Y-90111323D01*
X176273676Y-90074000D01*
X176270000Y-90036677D01*
X176270000Y-88777711D01*
X176313937Y-88733774D01*
X176427205Y-88564256D01*
X176505226Y-88375898D01*
X176545000Y-88175939D01*
X176545000Y-87972061D01*
X176505226Y-87772102D01*
X176427205Y-87583744D01*
X176313937Y-87414226D01*
X176169774Y-87270063D01*
X176000256Y-87156795D01*
X175811898Y-87078774D01*
X175611939Y-87039000D01*
X175408061Y-87039000D01*
X175208102Y-87078774D01*
X175019744Y-87156795D01*
X174850226Y-87270063D01*
X174706063Y-87414226D01*
X174592795Y-87583744D01*
X174514774Y-87772102D01*
X174475000Y-87972061D01*
X174475000Y-88175939D01*
X174514774Y-88375898D01*
X174592795Y-88564256D01*
X174706063Y-88733774D01*
X174750000Y-88777711D01*
X174750001Y-89759197D01*
X172695199Y-91814000D01*
X168713711Y-91814000D01*
X168669774Y-91770063D01*
X168500256Y-91656795D01*
X168311898Y-91578774D01*
X168111939Y-91539000D01*
X167908061Y-91539000D01*
X167895000Y-91541598D01*
X167895000Y-89900578D01*
X170819050Y-86976529D01*
X170852817Y-86948817D01*
X170903102Y-86887546D01*
X170963410Y-86814060D01*
X170963411Y-86814059D01*
X171045589Y-86660313D01*
X171096195Y-86493490D01*
X171109000Y-86363477D01*
X171109000Y-86363467D01*
X171113281Y-86320001D01*
X171109000Y-86276535D01*
X171109000Y-82849000D01*
X173761531Y-82849000D01*
X173805000Y-82853281D01*
X173848469Y-82849000D01*
X173848477Y-82849000D01*
X173978490Y-82836195D01*
X174145313Y-82785589D01*
X174299059Y-82703411D01*
X174433817Y-82592817D01*
X174461534Y-82559044D01*
X176547729Y-80472849D01*
X193467756Y-80472849D01*
X193536310Y-80714268D01*
X193787556Y-80832668D01*
X194057071Y-80899778D01*
X194334502Y-80913018D01*
X194609184Y-80871879D01*
X194870562Y-80777943D01*
X194989690Y-80714268D01*
X195058244Y-80472849D01*
X194263000Y-79677605D01*
X193467756Y-80472849D01*
X176547729Y-80472849D01*
X177451076Y-79569502D01*
X192847982Y-79569502D01*
X192889121Y-79844184D01*
X192983057Y-80105562D01*
X193046732Y-80224690D01*
X193288151Y-80293244D01*
X194083395Y-79498000D01*
X194442605Y-79498000D01*
X195237849Y-80293244D01*
X195479268Y-80224690D01*
X195597668Y-79973444D01*
X195664778Y-79703929D01*
X195678018Y-79426498D01*
X195636879Y-79151816D01*
X195542943Y-78890438D01*
X195479268Y-78771310D01*
X195237849Y-78702756D01*
X194442605Y-79498000D01*
X194083395Y-79498000D01*
X193288151Y-78702756D01*
X193046732Y-78771310D01*
X192928332Y-79022556D01*
X192861222Y-79292071D01*
X192847982Y-79569502D01*
X177451076Y-79569502D01*
X178497427Y-78523151D01*
X193467756Y-78523151D01*
X194263000Y-79318395D01*
X195058244Y-78523151D01*
X194989690Y-78281732D01*
X194738444Y-78163332D01*
X194468929Y-78096222D01*
X194191498Y-78082982D01*
X193916816Y-78124121D01*
X193655438Y-78218057D01*
X193536310Y-78281732D01*
X193467756Y-78523151D01*
X178497427Y-78523151D01*
X180161451Y-76859127D01*
X187853000Y-76859127D01*
X187853000Y-77136873D01*
X187907186Y-77409282D01*
X188013475Y-77665885D01*
X188167782Y-77896822D01*
X188364178Y-78093218D01*
X188595115Y-78247525D01*
X188851718Y-78353814D01*
X189124127Y-78408000D01*
X189401873Y-78408000D01*
X189674282Y-78353814D01*
X189930885Y-78247525D01*
X190161822Y-78093218D01*
X190358218Y-77896822D01*
X190512525Y-77665885D01*
X190618814Y-77409282D01*
X190673000Y-77136873D01*
X190673000Y-76859127D01*
X190618814Y-76586718D01*
X190512525Y-76330115D01*
X190358218Y-76099178D01*
X190161822Y-75902782D01*
X189930885Y-75748475D01*
X189674282Y-75642186D01*
X189401873Y-75588000D01*
X189124127Y-75588000D01*
X188851718Y-75642186D01*
X188595115Y-75748475D01*
X188364178Y-75902782D01*
X188167782Y-76099178D01*
X188013475Y-76330115D01*
X187907186Y-76586718D01*
X187853000Y-76859127D01*
X180161451Y-76859127D01*
X188660552Y-68360027D01*
X188694317Y-68332317D01*
X188722027Y-68298552D01*
X190498518Y-66522061D01*
X191390500Y-66522061D01*
X191390500Y-66725939D01*
X191430274Y-66925898D01*
X191508295Y-67114256D01*
X191621563Y-67283774D01*
X191765726Y-67427937D01*
X191935244Y-67541205D01*
X192123602Y-67619226D01*
X192323561Y-67659000D01*
X192385699Y-67659000D01*
X193003997Y-68277299D01*
X193004002Y-68277303D01*
X193503001Y-68776303D01*
X193503000Y-73084928D01*
X193488000Y-73084928D01*
X193363518Y-73097188D01*
X193243820Y-73133498D01*
X193133506Y-73192463D01*
X193036815Y-73271815D01*
X192957463Y-73368506D01*
X192898498Y-73478820D01*
X192862188Y-73598518D01*
X192849928Y-73723000D01*
X192849928Y-75273000D01*
X192862188Y-75397482D01*
X192898498Y-75517180D01*
X192957463Y-75627494D01*
X193036815Y-75724185D01*
X193133506Y-75803537D01*
X193243820Y-75862502D01*
X193363518Y-75898812D01*
X193488000Y-75911072D01*
X195038000Y-75911072D01*
X195162482Y-75898812D01*
X195282180Y-75862502D01*
X195392494Y-75803537D01*
X195489185Y-75724185D01*
X195568537Y-75627494D01*
X195627502Y-75517180D01*
X195663812Y-75397482D01*
X195676072Y-75273000D01*
X195676072Y-73723000D01*
X195663812Y-73598518D01*
X195627502Y-73478820D01*
X195568537Y-73368506D01*
X195489185Y-73271815D01*
X195392494Y-73192463D01*
X195282180Y-73133498D01*
X195162482Y-73097188D01*
X195038000Y-73084928D01*
X195023000Y-73084928D01*
X195023000Y-68599200D01*
X195035676Y-68470500D01*
X195021002Y-68321514D01*
X194977546Y-68178254D01*
X194906974Y-68046224D01*
X194835799Y-67959498D01*
X194826804Y-67950503D01*
X194803001Y-67921499D01*
X194773997Y-67897696D01*
X194670054Y-67793753D01*
X194670049Y-67793747D01*
X194078803Y-67202502D01*
X194078799Y-67202497D01*
X193460500Y-66584199D01*
X193460500Y-66522061D01*
X193420726Y-66322102D01*
X193342705Y-66133744D01*
X193229437Y-65964226D01*
X193085274Y-65820063D01*
X192915756Y-65706795D01*
X192727398Y-65628774D01*
X192527439Y-65589000D01*
X192323561Y-65589000D01*
X192123602Y-65628774D01*
X191935244Y-65706795D01*
X191765726Y-65820063D01*
X191621563Y-65964226D01*
X191508295Y-66133744D01*
X191430274Y-66322102D01*
X191390500Y-66522061D01*
X190498518Y-66522061D01*
X192565049Y-64455530D01*
X192598817Y-64427817D01*
X192709411Y-64293059D01*
X192791589Y-64139313D01*
X192842195Y-63972490D01*
X192855000Y-63842477D01*
X192855000Y-63842469D01*
X192859281Y-63799000D01*
X192855000Y-63755531D01*
X192855000Y-62944656D01*
X192916632Y-62903475D01*
X193048487Y-62771620D01*
X193070498Y-62844180D01*
X193129463Y-62954494D01*
X193208815Y-63051185D01*
X193305506Y-63130537D01*
X193415820Y-63189502D01*
X193535518Y-63225812D01*
X193660000Y-63238072D01*
X194224250Y-63235000D01*
X194383000Y-63076250D01*
X194383000Y-61877000D01*
X194637000Y-61877000D01*
X194637000Y-63076250D01*
X194795750Y-63235000D01*
X195360000Y-63238072D01*
X195484482Y-63225812D01*
X195604180Y-63189502D01*
X195714494Y-63130537D01*
X195811185Y-63051185D01*
X195890537Y-62954494D01*
X195949502Y-62844180D01*
X195985812Y-62724482D01*
X195998072Y-62600000D01*
X195995000Y-62035750D01*
X195836250Y-61877000D01*
X194637000Y-61877000D01*
X194383000Y-61877000D01*
X194363000Y-61877000D01*
X194363000Y-61623000D01*
X194383000Y-61623000D01*
X194383000Y-60423750D01*
X194637000Y-60423750D01*
X194637000Y-61623000D01*
X195836250Y-61623000D01*
X195995000Y-61464250D01*
X195998072Y-60900000D01*
X195985812Y-60775518D01*
X195949502Y-60655820D01*
X195890537Y-60545506D01*
X195811185Y-60448815D01*
X195714494Y-60369463D01*
X195604180Y-60310498D01*
X195484482Y-60274188D01*
X195360000Y-60261928D01*
X194795750Y-60265000D01*
X194637000Y-60423750D01*
X194383000Y-60423750D01*
X194224250Y-60265000D01*
X193660000Y-60261928D01*
X193535518Y-60274188D01*
X193415820Y-60310498D01*
X193305506Y-60369463D01*
X193208815Y-60448815D01*
X193129463Y-60545506D01*
X193070498Y-60655820D01*
X193048487Y-60728380D01*
X192916632Y-60596525D01*
X192673411Y-60434010D01*
X192403158Y-60322068D01*
X192116260Y-60265000D01*
X191823740Y-60265000D01*
X191536842Y-60322068D01*
X191266589Y-60434010D01*
X191023368Y-60596525D01*
X190816525Y-60803368D01*
X190700000Y-60977760D01*
X190583475Y-60803368D01*
X190376632Y-60596525D01*
X190133411Y-60434010D01*
X189863158Y-60322068D01*
X189576260Y-60265000D01*
X189283740Y-60265000D01*
X188996842Y-60322068D01*
X188726589Y-60434010D01*
X188483368Y-60596525D01*
X188276525Y-60803368D01*
X188160000Y-60977760D01*
X188043475Y-60803368D01*
X187836632Y-60596525D01*
X187593411Y-60434010D01*
X187323158Y-60322068D01*
X187036260Y-60265000D01*
X186743740Y-60265000D01*
X186456842Y-60322068D01*
X186186589Y-60434010D01*
X185943368Y-60596525D01*
X185736525Y-60803368D01*
X185620000Y-60977760D01*
X185503475Y-60803368D01*
X185296632Y-60596525D01*
X185053411Y-60434010D01*
X184783158Y-60322068D01*
X184496260Y-60265000D01*
X184203740Y-60265000D01*
X183916842Y-60322068D01*
X183646589Y-60434010D01*
X183403368Y-60596525D01*
X183196525Y-60803368D01*
X183080000Y-60977760D01*
X182963475Y-60803368D01*
X182756632Y-60596525D01*
X182513411Y-60434010D01*
X182243158Y-60322068D01*
X181956260Y-60265000D01*
X181663740Y-60265000D01*
X181376842Y-60322068D01*
X181106589Y-60434010D01*
X180863368Y-60596525D01*
X180656525Y-60803368D01*
X180534805Y-60985534D01*
X180465178Y-60868645D01*
X180270269Y-60652412D01*
X180036920Y-60478359D01*
X179774099Y-60353175D01*
X179626890Y-60308524D01*
X179397000Y-60429845D01*
X179397000Y-61623000D01*
X179417000Y-61623000D01*
X179417000Y-61877000D01*
X179397000Y-61877000D01*
X179397000Y-63070155D01*
X179626890Y-63191476D01*
X179774099Y-63146825D01*
X180036920Y-63021641D01*
X180270269Y-62847588D01*
X180465178Y-62631355D01*
X180534805Y-62514466D01*
X180656525Y-62696632D01*
X180863368Y-62903475D01*
X181106589Y-63065990D01*
X181376842Y-63177932D01*
X181663740Y-63235000D01*
X181956260Y-63235000D01*
X182243158Y-63177932D01*
X182513411Y-63065990D01*
X182756632Y-62903475D01*
X182963475Y-62696632D01*
X183080000Y-62522240D01*
X183196525Y-62696632D01*
X183403368Y-62903475D01*
X183646589Y-63065990D01*
X183916842Y-63177932D01*
X184203740Y-63235000D01*
X184496260Y-63235000D01*
X184783158Y-63177932D01*
X185053411Y-63065990D01*
X185296632Y-62903475D01*
X185503475Y-62696632D01*
X185620000Y-62522240D01*
X185736525Y-62696632D01*
X185943368Y-62903475D01*
X186186589Y-63065990D01*
X186456842Y-63177932D01*
X186743740Y-63235000D01*
X187036260Y-63235000D01*
X187323158Y-63177932D01*
X187593411Y-63065990D01*
X187836632Y-62903475D01*
X188043475Y-62696632D01*
X188160000Y-62522240D01*
X188276525Y-62696632D01*
X188483368Y-62903475D01*
X188726589Y-63065990D01*
X188996842Y-63177932D01*
X189283740Y-63235000D01*
X189576260Y-63235000D01*
X189863158Y-63177932D01*
X190133411Y-63065990D01*
X190376632Y-62903475D01*
X190583475Y-62696632D01*
X190700000Y-62522240D01*
X190816525Y-62696632D01*
X191023368Y-62903475D01*
X191085001Y-62944657D01*
X191085001Y-63432420D01*
X188171441Y-66345981D01*
X188170937Y-66345226D01*
X188026774Y-66201063D01*
X187857256Y-66087795D01*
X187668898Y-66009774D01*
X187468939Y-65970000D01*
X187265061Y-65970000D01*
X187065102Y-66009774D01*
X186876744Y-66087795D01*
X186707226Y-66201063D01*
X186563063Y-66345226D01*
X186449795Y-66514744D01*
X186371774Y-66703102D01*
X186332000Y-66903061D01*
X186332000Y-67106939D01*
X186371774Y-67306898D01*
X186449795Y-67495256D01*
X186563063Y-67664774D01*
X186707226Y-67808937D01*
X186707980Y-67809441D01*
X173438422Y-81079000D01*
X171109000Y-81079000D01*
X171109000Y-80747469D01*
X171113281Y-80704000D01*
X171109000Y-80660531D01*
X171109000Y-80660523D01*
X171096195Y-80530510D01*
X171084532Y-80492061D01*
X171070260Y-80445015D01*
X171045589Y-80363687D01*
X170963411Y-80209941D01*
X170939210Y-80180452D01*
X170880532Y-80108953D01*
X170880530Y-80108951D01*
X170852817Y-80075183D01*
X170819049Y-80047470D01*
X168840822Y-78069244D01*
X169021898Y-78033226D01*
X169210256Y-77955205D01*
X169379774Y-77841937D01*
X169423711Y-77798000D01*
X175286678Y-77798000D01*
X175324000Y-77801676D01*
X175361322Y-77798000D01*
X175361333Y-77798000D01*
X175472986Y-77787003D01*
X175616247Y-77743546D01*
X175748276Y-77672974D01*
X175864001Y-77578001D01*
X175887804Y-77548997D01*
X181351003Y-72085799D01*
X181380001Y-72062001D01*
X181430936Y-71999937D01*
X181474974Y-71946277D01*
X181545546Y-71814247D01*
X181555606Y-71781082D01*
X181589003Y-71670986D01*
X181600000Y-71559333D01*
X181600000Y-71559323D01*
X181603676Y-71522001D01*
X181600000Y-71484678D01*
X181600000Y-67251711D01*
X181643937Y-67207774D01*
X181757205Y-67038256D01*
X181835226Y-66849898D01*
X181875000Y-66649939D01*
X181875000Y-66446061D01*
X181835226Y-66246102D01*
X181757205Y-66057744D01*
X181643937Y-65888226D01*
X181499774Y-65744063D01*
X181330256Y-65630795D01*
X181141898Y-65552774D01*
X180941939Y-65513000D01*
X180738061Y-65513000D01*
X180538102Y-65552774D01*
X180349744Y-65630795D01*
X180180226Y-65744063D01*
X180036063Y-65888226D01*
X179922795Y-66057744D01*
X179844774Y-66246102D01*
X179805000Y-66446061D01*
X179805000Y-66649939D01*
X179844774Y-66849898D01*
X179922795Y-67038256D01*
X180036063Y-67207774D01*
X180080000Y-67251711D01*
X180080001Y-71207197D01*
X175009199Y-76278000D01*
X169423711Y-76278000D01*
X169379774Y-76234063D01*
X169210256Y-76120795D01*
X169021898Y-76042774D01*
X168821939Y-76003000D01*
X168618061Y-76003000D01*
X168418102Y-76042774D01*
X168229744Y-76120795D01*
X168060226Y-76234063D01*
X167916063Y-76378226D01*
X167802795Y-76547744D01*
X167724774Y-76736102D01*
X167685000Y-76936061D01*
X167685000Y-77139939D01*
X167692245Y-77176364D01*
X167617477Y-77169000D01*
X167617469Y-77169000D01*
X167574000Y-77164719D01*
X167530531Y-77169000D01*
X163900801Y-77169000D01*
X166273625Y-74796177D01*
X166288088Y-74802168D01*
X166603967Y-74865000D01*
X166926033Y-74865000D01*
X167241912Y-74802168D01*
X167539463Y-74678918D01*
X167807252Y-74499987D01*
X167941826Y-74365413D01*
X170309192Y-74365413D01*
X170404956Y-74629814D01*
X170694571Y-74770704D01*
X171006108Y-74852384D01*
X171327595Y-74871718D01*
X171646675Y-74827961D01*
X171951088Y-74722795D01*
X172125044Y-74629814D01*
X172220808Y-74365413D01*
X171265000Y-73409605D01*
X170309192Y-74365413D01*
X167941826Y-74365413D01*
X168034987Y-74272252D01*
X168213918Y-74004463D01*
X168337168Y-73706912D01*
X168400000Y-73391033D01*
X168400000Y-73292595D01*
X169623282Y-73292595D01*
X169667039Y-73611675D01*
X169772205Y-73916088D01*
X169865186Y-74090044D01*
X170129587Y-74185808D01*
X171085395Y-73230000D01*
X171444605Y-73230000D01*
X172400413Y-74185808D01*
X172664814Y-74090044D01*
X172805704Y-73800429D01*
X172887384Y-73488892D01*
X172906718Y-73167405D01*
X172862961Y-72848325D01*
X172757795Y-72543912D01*
X172664814Y-72369956D01*
X172400413Y-72274192D01*
X171444605Y-73230000D01*
X171085395Y-73230000D01*
X170129587Y-72274192D01*
X169865186Y-72369956D01*
X169724296Y-72659571D01*
X169642616Y-72971108D01*
X169623282Y-73292595D01*
X168400000Y-73292595D01*
X168400000Y-73068967D01*
X168337168Y-72753088D01*
X168213918Y-72455537D01*
X168034987Y-72187748D01*
X167941826Y-72094587D01*
X170309192Y-72094587D01*
X171265000Y-73050395D01*
X172220808Y-72094587D01*
X172125044Y-71830186D01*
X171835429Y-71689296D01*
X171523892Y-71607616D01*
X171202405Y-71588282D01*
X170883325Y-71632039D01*
X170578912Y-71737205D01*
X170404956Y-71830186D01*
X170309192Y-72094587D01*
X167941826Y-72094587D01*
X167807252Y-71960013D01*
X167539463Y-71781082D01*
X167525000Y-71775091D01*
X167525000Y-68184909D01*
X167539463Y-68178918D01*
X167807252Y-67999987D01*
X167941826Y-67865413D01*
X170309192Y-67865413D01*
X170404956Y-68129814D01*
X170694571Y-68270704D01*
X171006108Y-68352384D01*
X171327595Y-68371718D01*
X171646675Y-68327961D01*
X171951088Y-68222795D01*
X172125044Y-68129814D01*
X172220808Y-67865413D01*
X171265000Y-66909605D01*
X170309192Y-67865413D01*
X167941826Y-67865413D01*
X168034987Y-67772252D01*
X168213918Y-67504463D01*
X168337168Y-67206912D01*
X168400000Y-66891033D01*
X168400000Y-66792595D01*
X169623282Y-66792595D01*
X169667039Y-67111675D01*
X169772205Y-67416088D01*
X169865186Y-67590044D01*
X170129587Y-67685808D01*
X171085395Y-66730000D01*
X171444605Y-66730000D01*
X172400413Y-67685808D01*
X172664814Y-67590044D01*
X172805704Y-67300429D01*
X172887384Y-66988892D01*
X172906718Y-66667405D01*
X172862961Y-66348325D01*
X172757795Y-66043912D01*
X172664814Y-65869956D01*
X172400413Y-65774192D01*
X171444605Y-66730000D01*
X171085395Y-66730000D01*
X170129587Y-65774192D01*
X169865186Y-65869956D01*
X169724296Y-66159571D01*
X169642616Y-66471108D01*
X169623282Y-66792595D01*
X168400000Y-66792595D01*
X168400000Y-66568967D01*
X168337168Y-66253088D01*
X168213918Y-65955537D01*
X168034987Y-65687748D01*
X167941826Y-65594587D01*
X170309192Y-65594587D01*
X171265000Y-66550395D01*
X172220808Y-65594587D01*
X172125044Y-65330186D01*
X171835429Y-65189296D01*
X171523892Y-65107616D01*
X171202405Y-65088282D01*
X170883325Y-65132039D01*
X170578912Y-65237205D01*
X170404956Y-65330186D01*
X170309192Y-65594587D01*
X167941826Y-65594587D01*
X167807252Y-65460013D01*
X167539463Y-65281082D01*
X167241912Y-65157832D01*
X166926033Y-65095000D01*
X166603967Y-65095000D01*
X166288088Y-65157832D01*
X165990537Y-65281082D01*
X165722748Y-65460013D01*
X165495013Y-65687748D01*
X165316082Y-65955537D01*
X165192832Y-66253088D01*
X165130000Y-66568967D01*
X165130000Y-66891033D01*
X165192832Y-67206912D01*
X165316082Y-67504463D01*
X165495013Y-67772252D01*
X165722748Y-67999987D01*
X165990537Y-68178918D01*
X166005001Y-68184909D01*
X166005000Y-71775091D01*
X165990537Y-71781082D01*
X165722748Y-71960013D01*
X165495013Y-72187748D01*
X165316082Y-72455537D01*
X165192832Y-72753088D01*
X165130000Y-73068967D01*
X165130000Y-73391033D01*
X165192832Y-73706912D01*
X165198823Y-73721375D01*
X162642199Y-76278000D01*
X156077154Y-76278000D01*
X156175205Y-76131256D01*
X156253226Y-75942898D01*
X156293000Y-75742939D01*
X156293000Y-75539061D01*
X156253226Y-75339102D01*
X156175205Y-75150744D01*
X156061937Y-74981226D01*
X156018000Y-74937289D01*
X156018000Y-74365413D01*
X157559192Y-74365413D01*
X157654956Y-74629814D01*
X157944571Y-74770704D01*
X158256108Y-74852384D01*
X158577595Y-74871718D01*
X158896675Y-74827961D01*
X159201088Y-74722795D01*
X159375044Y-74629814D01*
X159470808Y-74365413D01*
X158515000Y-73409605D01*
X157559192Y-74365413D01*
X156018000Y-74365413D01*
X156018000Y-73292595D01*
X156873282Y-73292595D01*
X156917039Y-73611675D01*
X157022205Y-73916088D01*
X157115186Y-74090044D01*
X157379587Y-74185808D01*
X158335395Y-73230000D01*
X158694605Y-73230000D01*
X159650413Y-74185808D01*
X159914814Y-74090044D01*
X160055704Y-73800429D01*
X160137384Y-73488892D01*
X160156718Y-73167405D01*
X160112961Y-72848325D01*
X160007795Y-72543912D01*
X159914814Y-72369956D01*
X159650413Y-72274192D01*
X158694605Y-73230000D01*
X158335395Y-73230000D01*
X157379587Y-72274192D01*
X157115186Y-72369956D01*
X156974296Y-72659571D01*
X156892616Y-72971108D01*
X156873282Y-73292595D01*
X156018000Y-73292595D01*
X156018000Y-71956000D01*
X157609387Y-71956000D01*
X157559192Y-72094587D01*
X158515000Y-73050395D01*
X159470808Y-72094587D01*
X159420613Y-71956000D01*
X160904289Y-71956000D01*
X160948226Y-71999937D01*
X161117744Y-72113205D01*
X161306102Y-72191226D01*
X161506061Y-72231000D01*
X161709939Y-72231000D01*
X161717059Y-72229584D01*
X161566082Y-72455537D01*
X161442832Y-72753088D01*
X161380000Y-73068967D01*
X161380000Y-73391033D01*
X161442832Y-73706912D01*
X161566082Y-74004463D01*
X161745013Y-74272252D01*
X161972748Y-74499987D01*
X162240537Y-74678918D01*
X162538088Y-74802168D01*
X162853967Y-74865000D01*
X163176033Y-74865000D01*
X163491912Y-74802168D01*
X163789463Y-74678918D01*
X164057252Y-74499987D01*
X164284987Y-74272252D01*
X164463918Y-74004463D01*
X164587168Y-73706912D01*
X164650000Y-73391033D01*
X164650000Y-73068967D01*
X164587168Y-72753088D01*
X164463918Y-72455537D01*
X164284987Y-72187748D01*
X164057252Y-71960013D01*
X163789463Y-71781082D01*
X163775000Y-71775091D01*
X163775000Y-68184909D01*
X163789463Y-68178918D01*
X164057252Y-67999987D01*
X164284987Y-67772252D01*
X164463918Y-67504463D01*
X164587168Y-67206912D01*
X164650000Y-66891033D01*
X164650000Y-66568967D01*
X164587168Y-66253088D01*
X164463918Y-65955537D01*
X164284987Y-65687748D01*
X164057252Y-65460013D01*
X163789463Y-65281082D01*
X163491912Y-65157832D01*
X163176033Y-65095000D01*
X162853967Y-65095000D01*
X162538088Y-65157832D01*
X162523625Y-65163823D01*
X161186804Y-63827003D01*
X161163001Y-63797999D01*
X161047276Y-63703026D01*
X160915247Y-63632454D01*
X160771986Y-63588997D01*
X160660333Y-63578000D01*
X160660322Y-63578000D01*
X160623000Y-63574324D01*
X160585678Y-63578000D01*
X134872000Y-63578000D01*
X134872000Y-63568711D01*
X134915937Y-63524774D01*
X135029205Y-63355256D01*
X135107226Y-63166898D01*
X135147000Y-62966939D01*
X135147000Y-62763061D01*
X135107226Y-62563102D01*
X135043809Y-62410000D01*
X148542419Y-62410000D01*
X148571028Y-62407182D01*
X148580288Y-62407247D01*
X148589460Y-62406348D01*
X148880605Y-62375748D01*
X148939217Y-62363717D01*
X148997963Y-62352511D01*
X149006784Y-62349847D01*
X149286440Y-62263279D01*
X149341578Y-62240101D01*
X149397050Y-62217689D01*
X149405181Y-62213365D01*
X149405185Y-62213363D01*
X149405188Y-62213361D01*
X149662702Y-62074123D01*
X149712259Y-62040696D01*
X149762347Y-62007920D01*
X149769488Y-62002095D01*
X149995056Y-61815490D01*
X150037215Y-61773035D01*
X150079945Y-61731191D01*
X150085819Y-61724091D01*
X150183975Y-61603740D01*
X160005000Y-61603740D01*
X160005000Y-61896260D01*
X160062068Y-62183158D01*
X160174010Y-62453411D01*
X160336525Y-62696632D01*
X160543368Y-62903475D01*
X160786589Y-63065990D01*
X161056842Y-63177932D01*
X161343740Y-63235000D01*
X161636260Y-63235000D01*
X161923158Y-63177932D01*
X162193411Y-63065990D01*
X162436632Y-62903475D01*
X162643475Y-62696632D01*
X162760000Y-62522240D01*
X162876525Y-62696632D01*
X163083368Y-62903475D01*
X163326589Y-63065990D01*
X163596842Y-63177932D01*
X163883740Y-63235000D01*
X164176260Y-63235000D01*
X164463158Y-63177932D01*
X164733411Y-63065990D01*
X164976632Y-62903475D01*
X165183475Y-62696632D01*
X165300000Y-62522240D01*
X165416525Y-62696632D01*
X165623368Y-62903475D01*
X165866589Y-63065990D01*
X166136842Y-63177932D01*
X166423740Y-63235000D01*
X166716260Y-63235000D01*
X167003158Y-63177932D01*
X167273411Y-63065990D01*
X167516632Y-62903475D01*
X167723475Y-62696632D01*
X167840000Y-62522240D01*
X167956525Y-62696632D01*
X168163368Y-62903475D01*
X168406589Y-63065990D01*
X168676842Y-63177932D01*
X168963740Y-63235000D01*
X169256260Y-63235000D01*
X169543158Y-63177932D01*
X169813411Y-63065990D01*
X170056632Y-62903475D01*
X170263475Y-62696632D01*
X170385195Y-62514466D01*
X170454822Y-62631355D01*
X170649731Y-62847588D01*
X170883080Y-63021641D01*
X171145901Y-63146825D01*
X171293110Y-63191476D01*
X171523000Y-63070155D01*
X171523000Y-61877000D01*
X171777000Y-61877000D01*
X171777000Y-63070155D01*
X172006890Y-63191476D01*
X172154099Y-63146825D01*
X172416920Y-63021641D01*
X172650269Y-62847588D01*
X172845178Y-62631355D01*
X172920000Y-62505745D01*
X172994822Y-62631355D01*
X173189731Y-62847588D01*
X173423080Y-63021641D01*
X173685901Y-63146825D01*
X173833110Y-63191476D01*
X174063000Y-63070155D01*
X174063000Y-61877000D01*
X174317000Y-61877000D01*
X174317000Y-63070155D01*
X174546890Y-63191476D01*
X174694099Y-63146825D01*
X174956920Y-63021641D01*
X175190269Y-62847588D01*
X175385178Y-62631355D01*
X175460000Y-62505745D01*
X175534822Y-62631355D01*
X175729731Y-62847588D01*
X175963080Y-63021641D01*
X176225901Y-63146825D01*
X176373110Y-63191476D01*
X176603000Y-63070155D01*
X176603000Y-61877000D01*
X176857000Y-61877000D01*
X176857000Y-63070155D01*
X177086890Y-63191476D01*
X177234099Y-63146825D01*
X177496920Y-63021641D01*
X177730269Y-62847588D01*
X177925178Y-62631355D01*
X178000000Y-62505745D01*
X178074822Y-62631355D01*
X178269731Y-62847588D01*
X178503080Y-63021641D01*
X178765901Y-63146825D01*
X178913110Y-63191476D01*
X179143000Y-63070155D01*
X179143000Y-61877000D01*
X176857000Y-61877000D01*
X176603000Y-61877000D01*
X174317000Y-61877000D01*
X174063000Y-61877000D01*
X171777000Y-61877000D01*
X171523000Y-61877000D01*
X171503000Y-61877000D01*
X171503000Y-61623000D01*
X171523000Y-61623000D01*
X171523000Y-60429845D01*
X171777000Y-60429845D01*
X171777000Y-61623000D01*
X174063000Y-61623000D01*
X174063000Y-60429845D01*
X174317000Y-60429845D01*
X174317000Y-61623000D01*
X176603000Y-61623000D01*
X176603000Y-60429845D01*
X176857000Y-60429845D01*
X176857000Y-61623000D01*
X179143000Y-61623000D01*
X179143000Y-60429845D01*
X178913110Y-60308524D01*
X178765901Y-60353175D01*
X178503080Y-60478359D01*
X178269731Y-60652412D01*
X178074822Y-60868645D01*
X178000000Y-60994255D01*
X177925178Y-60868645D01*
X177730269Y-60652412D01*
X177496920Y-60478359D01*
X177234099Y-60353175D01*
X177086890Y-60308524D01*
X176857000Y-60429845D01*
X176603000Y-60429845D01*
X176373110Y-60308524D01*
X176225901Y-60353175D01*
X175963080Y-60478359D01*
X175729731Y-60652412D01*
X175534822Y-60868645D01*
X175460000Y-60994255D01*
X175385178Y-60868645D01*
X175190269Y-60652412D01*
X174956920Y-60478359D01*
X174694099Y-60353175D01*
X174546890Y-60308524D01*
X174317000Y-60429845D01*
X174063000Y-60429845D01*
X173833110Y-60308524D01*
X173685901Y-60353175D01*
X173423080Y-60478359D01*
X173189731Y-60652412D01*
X172994822Y-60868645D01*
X172920000Y-60994255D01*
X172845178Y-60868645D01*
X172650269Y-60652412D01*
X172416920Y-60478359D01*
X172154099Y-60353175D01*
X172006890Y-60308524D01*
X171777000Y-60429845D01*
X171523000Y-60429845D01*
X171293110Y-60308524D01*
X171145901Y-60353175D01*
X170883080Y-60478359D01*
X170649731Y-60652412D01*
X170454822Y-60868645D01*
X170385195Y-60985534D01*
X170263475Y-60803368D01*
X170056632Y-60596525D01*
X169813411Y-60434010D01*
X169543158Y-60322068D01*
X169256260Y-60265000D01*
X168963740Y-60265000D01*
X168676842Y-60322068D01*
X168406589Y-60434010D01*
X168163368Y-60596525D01*
X167956525Y-60803368D01*
X167840000Y-60977760D01*
X167723475Y-60803368D01*
X167516632Y-60596525D01*
X167273411Y-60434010D01*
X167003158Y-60322068D01*
X166716260Y-60265000D01*
X166423740Y-60265000D01*
X166136842Y-60322068D01*
X165866589Y-60434010D01*
X165623368Y-60596525D01*
X165416525Y-60803368D01*
X165300000Y-60977760D01*
X165183475Y-60803368D01*
X164976632Y-60596525D01*
X164733411Y-60434010D01*
X164463158Y-60322068D01*
X164176260Y-60265000D01*
X163883740Y-60265000D01*
X163596842Y-60322068D01*
X163326589Y-60434010D01*
X163083368Y-60596525D01*
X162876525Y-60803368D01*
X162760000Y-60977760D01*
X162643475Y-60803368D01*
X162436632Y-60596525D01*
X162193411Y-60434010D01*
X161923158Y-60322068D01*
X161636260Y-60265000D01*
X161343740Y-60265000D01*
X161056842Y-60322068D01*
X160786589Y-60434010D01*
X160543368Y-60596525D01*
X160336525Y-60803368D01*
X160174010Y-61046589D01*
X160062068Y-61316842D01*
X160005000Y-61603740D01*
X150183975Y-61603740D01*
X150270845Y-61497227D01*
X150303927Y-61447434D01*
X150337745Y-61398045D01*
X150342127Y-61389939D01*
X150479564Y-61131458D01*
X150502355Y-61076164D01*
X150525925Y-61021171D01*
X150528650Y-61012368D01*
X150613264Y-60732113D01*
X150624882Y-60673436D01*
X150637320Y-60614921D01*
X150638283Y-60605756D01*
X150666850Y-60314404D01*
X150689102Y-60087460D01*
X150736308Y-59931106D01*
X150812982Y-59786904D01*
X150916207Y-59660337D01*
X151042051Y-59556231D01*
X151185711Y-59478553D01*
X151341729Y-59430258D01*
X151534473Y-59410000D01*
X197477721Y-59410000D01*
X197769659Y-59438625D01*
X198019429Y-59514035D01*
X198249792Y-59636522D01*
X198451980Y-59801422D01*
X198618286Y-60002450D01*
X198742378Y-60231954D01*
X198819531Y-60481195D01*
X198850000Y-60771089D01*
X198850001Y-98717711D01*
X198821375Y-99009660D01*
X198745965Y-99259429D01*
X198623477Y-99489794D01*
X198458579Y-99691979D01*
X198257546Y-99858288D01*
X198028046Y-99982378D01*
X197778805Y-100059531D01*
X197488911Y-100090000D01*
X184477581Y-100090000D01*
X184444613Y-100093247D01*
X184431633Y-100093247D01*
X184422468Y-100094210D01*
X184228518Y-100115965D01*
X184170019Y-100128400D01*
X184111325Y-100140022D01*
X184102522Y-100142747D01*
X183916491Y-100201760D01*
X183861509Y-100225326D01*
X183806206Y-100248120D01*
X183798100Y-100252503D01*
X183763071Y-100271761D01*
X183679205Y-100215723D01*
X183518145Y-100149010D01*
X183347165Y-100115000D01*
X183172835Y-100115000D01*
X183001855Y-100149010D01*
X182885000Y-100197413D01*
X182768145Y-100149010D01*
X182597165Y-100115000D01*
X182422835Y-100115000D01*
X182251855Y-100149010D01*
X182135000Y-100197413D01*
X182018145Y-100149010D01*
X181847165Y-100115000D01*
X181672835Y-100115000D01*
X181501855Y-100149010D01*
X181340795Y-100215723D01*
X181256323Y-100272166D01*
X181200921Y-100242708D01*
X181145606Y-100219909D01*
X181090634Y-100196348D01*
X181081831Y-100193623D01*
X180894995Y-100137214D01*
X180836307Y-100125594D01*
X180777804Y-100113158D01*
X180768639Y-100112195D01*
X180574405Y-100093150D01*
X180574402Y-100093150D01*
X180542419Y-100090000D01*
X158477581Y-100090000D01*
X158444613Y-100093247D01*
X158431633Y-100093247D01*
X158422468Y-100094210D01*
X158228518Y-100115965D01*
X158170019Y-100128400D01*
X158111325Y-100140022D01*
X158102522Y-100142747D01*
X157916491Y-100201760D01*
X157861509Y-100225326D01*
X157806206Y-100248120D01*
X157798100Y-100252503D01*
X157763071Y-100271761D01*
X157679205Y-100215723D01*
X157518145Y-100149010D01*
X157347165Y-100115000D01*
X157172835Y-100115000D01*
X157001855Y-100149010D01*
X156885000Y-100197413D01*
X156768145Y-100149010D01*
X156597165Y-100115000D01*
X156422835Y-100115000D01*
X156251855Y-100149010D01*
X156135000Y-100197413D01*
X156018145Y-100149010D01*
X155847165Y-100115000D01*
X155672835Y-100115000D01*
X155501855Y-100149010D01*
X155340795Y-100215723D01*
X155256323Y-100272166D01*
X155200921Y-100242708D01*
X155145606Y-100219909D01*
X155090634Y-100196348D01*
X155081831Y-100193623D01*
X154894995Y-100137214D01*
X154836307Y-100125594D01*
X154777804Y-100113158D01*
X154768639Y-100112195D01*
X154574405Y-100093150D01*
X154574402Y-100093150D01*
X154542419Y-100090000D01*
X109542279Y-100090000D01*
X109250340Y-100061375D01*
X109000571Y-99985965D01*
X108770206Y-99863477D01*
X108568021Y-99698579D01*
X108401712Y-99497546D01*
X108277622Y-99268046D01*
X108200469Y-99018805D01*
X108170000Y-98728911D01*
X108170000Y-96202000D01*
X122654928Y-96202000D01*
X122654928Y-97902000D01*
X122667188Y-98026482D01*
X122703498Y-98146180D01*
X122762463Y-98256494D01*
X122841815Y-98353185D01*
X122938506Y-98432537D01*
X123048820Y-98491502D01*
X123168518Y-98527812D01*
X123293000Y-98540072D01*
X124993000Y-98540072D01*
X125117482Y-98527812D01*
X125237180Y-98491502D01*
X125347494Y-98432537D01*
X125444185Y-98353185D01*
X125523537Y-98256494D01*
X125582502Y-98146180D01*
X125618812Y-98026482D01*
X125631072Y-97902000D01*
X125631072Y-96202000D01*
X126591928Y-96202000D01*
X126591928Y-97902000D01*
X126604188Y-98026482D01*
X126640498Y-98146180D01*
X126699463Y-98256494D01*
X126778815Y-98353185D01*
X126875506Y-98432537D01*
X126985820Y-98491502D01*
X127105518Y-98527812D01*
X127230000Y-98540072D01*
X128930000Y-98540072D01*
X129054482Y-98527812D01*
X129174180Y-98491502D01*
X129284494Y-98432537D01*
X129381185Y-98353185D01*
X129460537Y-98256494D01*
X129519502Y-98146180D01*
X129555812Y-98026482D01*
X129568072Y-97902000D01*
X129568072Y-96202000D01*
X129555812Y-96077518D01*
X129519502Y-95957820D01*
X129460537Y-95847506D01*
X129381185Y-95750815D01*
X129284494Y-95671463D01*
X129174180Y-95612498D01*
X129093534Y-95588034D01*
X129177588Y-95512269D01*
X129351641Y-95278920D01*
X129476825Y-95016099D01*
X129521476Y-94868890D01*
X129400155Y-94639000D01*
X128207000Y-94639000D01*
X128207000Y-94659000D01*
X127953000Y-94659000D01*
X127953000Y-94639000D01*
X126759845Y-94639000D01*
X126638524Y-94868890D01*
X126683175Y-95016099D01*
X126808359Y-95278920D01*
X126982412Y-95512269D01*
X127066466Y-95588034D01*
X126985820Y-95612498D01*
X126875506Y-95671463D01*
X126778815Y-95750815D01*
X126699463Y-95847506D01*
X126640498Y-95957820D01*
X126604188Y-96077518D01*
X126591928Y-96202000D01*
X125631072Y-96202000D01*
X125618812Y-96077518D01*
X125582502Y-95957820D01*
X125523537Y-95847506D01*
X125444185Y-95750815D01*
X125347494Y-95671463D01*
X125237180Y-95612498D01*
X125156534Y-95588034D01*
X125240588Y-95512269D01*
X125414641Y-95278920D01*
X125539825Y-95016099D01*
X125584476Y-94868890D01*
X125463155Y-94639000D01*
X124270000Y-94639000D01*
X124270000Y-94659000D01*
X124016000Y-94659000D01*
X124016000Y-94639000D01*
X122822845Y-94639000D01*
X122701524Y-94868890D01*
X122746175Y-95016099D01*
X122871359Y-95278920D01*
X123045412Y-95512269D01*
X123129466Y-95588034D01*
X123048820Y-95612498D01*
X122938506Y-95671463D01*
X122841815Y-95750815D01*
X122762463Y-95847506D01*
X122703498Y-95957820D01*
X122667188Y-96077518D01*
X122654928Y-96202000D01*
X108170000Y-96202000D01*
X108170000Y-89285740D01*
X122658000Y-89285740D01*
X122658000Y-89578260D01*
X122715068Y-89865158D01*
X122827010Y-90135411D01*
X122989525Y-90378632D01*
X123196368Y-90585475D01*
X123370760Y-90702000D01*
X123196368Y-90818525D01*
X122989525Y-91025368D01*
X122827010Y-91268589D01*
X122715068Y-91538842D01*
X122658000Y-91825740D01*
X122658000Y-92118260D01*
X122715068Y-92405158D01*
X122827010Y-92675411D01*
X122989525Y-92918632D01*
X123196368Y-93125475D01*
X123378534Y-93247195D01*
X123261645Y-93316822D01*
X123045412Y-93511731D01*
X122871359Y-93745080D01*
X122746175Y-94007901D01*
X122701524Y-94155110D01*
X122822845Y-94385000D01*
X124016000Y-94385000D01*
X124016000Y-94365000D01*
X124270000Y-94365000D01*
X124270000Y-94385000D01*
X125463155Y-94385000D01*
X125584476Y-94155110D01*
X125539825Y-94007901D01*
X125414641Y-93745080D01*
X125240588Y-93511731D01*
X125024355Y-93316822D01*
X124907466Y-93247195D01*
X125089632Y-93125475D01*
X125296475Y-92918632D01*
X125421178Y-92732000D01*
X126801822Y-92732000D01*
X126926525Y-92918632D01*
X127133368Y-93125475D01*
X127315534Y-93247195D01*
X127198645Y-93316822D01*
X126982412Y-93511731D01*
X126808359Y-93745080D01*
X126683175Y-94007901D01*
X126638524Y-94155110D01*
X126759845Y-94385000D01*
X127953000Y-94385000D01*
X127953000Y-94365000D01*
X128207000Y-94365000D01*
X128207000Y-94385000D01*
X129400155Y-94385000D01*
X129521476Y-94155110D01*
X129476825Y-94007901D01*
X129351641Y-93745080D01*
X129177588Y-93511731D01*
X128961355Y-93316822D01*
X128844466Y-93247195D01*
X129026632Y-93125475D01*
X129233475Y-92918632D01*
X129358178Y-92732000D01*
X143842678Y-92732000D01*
X143880000Y-92735676D01*
X143917322Y-92732000D01*
X143917333Y-92732000D01*
X144028986Y-92721003D01*
X144172247Y-92677546D01*
X144304276Y-92606974D01*
X144420001Y-92512001D01*
X144443804Y-92482997D01*
X147641004Y-89285798D01*
X147670001Y-89262001D01*
X147726065Y-89193687D01*
X147728084Y-89191227D01*
X147736795Y-89212256D01*
X147850063Y-89381774D01*
X147994226Y-89525937D01*
X148163744Y-89639205D01*
X148352102Y-89717226D01*
X148552061Y-89757000D01*
X148755939Y-89757000D01*
X148955898Y-89717226D01*
X149144256Y-89639205D01*
X149313774Y-89525937D01*
X149457937Y-89381774D01*
X149571205Y-89212256D01*
X149649226Y-89023898D01*
X149689000Y-88823939D01*
X149689000Y-88620061D01*
X149649226Y-88420102D01*
X149571205Y-88231744D01*
X149457937Y-88062226D01*
X149414000Y-88018289D01*
X149414000Y-85361711D01*
X149457937Y-85317774D01*
X149571205Y-85148256D01*
X149649226Y-84959898D01*
X149689000Y-84759939D01*
X149689000Y-84556061D01*
X149649226Y-84356102D01*
X149571205Y-84167744D01*
X149457937Y-83998226D01*
X149313774Y-83854063D01*
X149144256Y-83740795D01*
X148955898Y-83662774D01*
X148755939Y-83623000D01*
X148552061Y-83623000D01*
X148352102Y-83662774D01*
X148163744Y-83740795D01*
X147994226Y-83854063D01*
X147892000Y-83956289D01*
X147789774Y-83854063D01*
X147620256Y-83740795D01*
X147431898Y-83662774D01*
X147231939Y-83623000D01*
X147028061Y-83623000D01*
X146828102Y-83662774D01*
X146639744Y-83740795D01*
X146470226Y-83854063D01*
X146326063Y-83998226D01*
X146212795Y-84167744D01*
X146134774Y-84356102D01*
X146095000Y-84556061D01*
X146095000Y-84759939D01*
X146134774Y-84959898D01*
X146212795Y-85148256D01*
X146326063Y-85317774D01*
X146370001Y-85361712D01*
X146370000Y-88407198D01*
X145423000Y-89354198D01*
X145423000Y-89330061D01*
X145383226Y-89130102D01*
X145305205Y-88941744D01*
X145191937Y-88772226D01*
X145047774Y-88628063D01*
X144878256Y-88514795D01*
X144689898Y-88436774D01*
X144489939Y-88397000D01*
X144286061Y-88397000D01*
X144086102Y-88436774D01*
X143897744Y-88514795D01*
X143728226Y-88628063D01*
X143684289Y-88672000D01*
X129358178Y-88672000D01*
X129233475Y-88485368D01*
X129026632Y-88278525D01*
X128783411Y-88116010D01*
X128513158Y-88004068D01*
X128226260Y-87947000D01*
X127933740Y-87947000D01*
X127646842Y-88004068D01*
X127376589Y-88116010D01*
X127133368Y-88278525D01*
X126926525Y-88485368D01*
X126801822Y-88672000D01*
X125421178Y-88672000D01*
X125296475Y-88485368D01*
X125089632Y-88278525D01*
X124846411Y-88116010D01*
X124576158Y-88004068D01*
X124289260Y-87947000D01*
X123996740Y-87947000D01*
X123709842Y-88004068D01*
X123439589Y-88116010D01*
X123196368Y-88278525D01*
X122989525Y-88485368D01*
X122827010Y-88728589D01*
X122715068Y-88998842D01*
X122658000Y-89285740D01*
X108170000Y-89285740D01*
X108170000Y-82478000D01*
X112021928Y-82478000D01*
X112034188Y-82602482D01*
X112070498Y-82722180D01*
X112129463Y-82832494D01*
X112208815Y-82929185D01*
X112305506Y-83008537D01*
X112415820Y-83067502D01*
X112535518Y-83103812D01*
X112660000Y-83116072D01*
X113224250Y-83113000D01*
X113383000Y-82954250D01*
X113383000Y-81755000D01*
X112183750Y-81755000D01*
X112025000Y-81913750D01*
X112021928Y-82478000D01*
X108170000Y-82478000D01*
X108170000Y-80778000D01*
X112021928Y-80778000D01*
X112025000Y-81342250D01*
X112183750Y-81501000D01*
X113383000Y-81501000D01*
X113383000Y-80301750D01*
X113637000Y-80301750D01*
X113637000Y-81501000D01*
X113657000Y-81501000D01*
X113657000Y-81755000D01*
X113637000Y-81755000D01*
X113637000Y-82954250D01*
X113795750Y-83113000D01*
X114360000Y-83116072D01*
X114484482Y-83103812D01*
X114604180Y-83067502D01*
X114714494Y-83008537D01*
X114811185Y-82929185D01*
X114890537Y-82832494D01*
X114949502Y-82722180D01*
X114971513Y-82649620D01*
X115103368Y-82781475D01*
X115346589Y-82943990D01*
X115616842Y-83055932D01*
X115903740Y-83113000D01*
X116196260Y-83113000D01*
X116483158Y-83055932D01*
X116753411Y-82943990D01*
X116996632Y-82781475D01*
X117203475Y-82574632D01*
X117320000Y-82400240D01*
X117436525Y-82574632D01*
X117643368Y-82781475D01*
X117886589Y-82943990D01*
X118156842Y-83055932D01*
X118443740Y-83113000D01*
X118736260Y-83113000D01*
X119023158Y-83055932D01*
X119293411Y-82943990D01*
X119536632Y-82781475D01*
X119743475Y-82574632D01*
X119905990Y-82331411D01*
X120017932Y-82061158D01*
X120075000Y-81774260D01*
X120075000Y-81481740D01*
X120017932Y-81194842D01*
X119905990Y-80924589D01*
X119743475Y-80681368D01*
X119536632Y-80474525D01*
X119293411Y-80312010D01*
X119023158Y-80200068D01*
X118736260Y-80143000D01*
X118443740Y-80143000D01*
X118156842Y-80200068D01*
X117886589Y-80312010D01*
X117643368Y-80474525D01*
X117436525Y-80681368D01*
X117320000Y-80855760D01*
X117203475Y-80681368D01*
X116996632Y-80474525D01*
X116753411Y-80312010D01*
X116483158Y-80200068D01*
X116196260Y-80143000D01*
X115903740Y-80143000D01*
X115616842Y-80200068D01*
X115346589Y-80312010D01*
X115103368Y-80474525D01*
X114971513Y-80606380D01*
X114949502Y-80533820D01*
X114890537Y-80423506D01*
X114811185Y-80326815D01*
X114714494Y-80247463D01*
X114604180Y-80188498D01*
X114484482Y-80152188D01*
X114360000Y-80139928D01*
X113795750Y-80143000D01*
X113637000Y-80301750D01*
X113383000Y-80301750D01*
X113224250Y-80143000D01*
X112660000Y-80139928D01*
X112535518Y-80152188D01*
X112415820Y-80188498D01*
X112305506Y-80247463D01*
X112208815Y-80326815D01*
X112129463Y-80423506D01*
X112070498Y-80533820D01*
X112034188Y-80653518D01*
X112021928Y-80778000D01*
X108170000Y-80778000D01*
X108170000Y-67600000D01*
X112453928Y-67600000D01*
X112466188Y-67724482D01*
X112502498Y-67844180D01*
X112561463Y-67954494D01*
X112640815Y-68051185D01*
X112737506Y-68130537D01*
X112847820Y-68189502D01*
X112967518Y-68225812D01*
X113092000Y-68238072D01*
X113681250Y-68235000D01*
X113840000Y-68076250D01*
X113840000Y-67127000D01*
X114094000Y-67127000D01*
X114094000Y-68076250D01*
X114252750Y-68235000D01*
X114842000Y-68238072D01*
X114966482Y-68225812D01*
X115086180Y-68189502D01*
X115196494Y-68130537D01*
X115293185Y-68051185D01*
X115372537Y-67954494D01*
X115431502Y-67844180D01*
X115467812Y-67724482D01*
X115480072Y-67600000D01*
X115477000Y-67285750D01*
X115318250Y-67127000D01*
X114094000Y-67127000D01*
X113840000Y-67127000D01*
X112615750Y-67127000D01*
X112457000Y-67285750D01*
X112453928Y-67600000D01*
X108170000Y-67600000D01*
X108170000Y-63000000D01*
X112451025Y-63000000D01*
X112474870Y-63242102D01*
X112545489Y-63474901D01*
X112660167Y-63689449D01*
X112814498Y-63877502D01*
X112963762Y-64000000D01*
X112814498Y-64122498D01*
X112660167Y-64310551D01*
X112545489Y-64525099D01*
X112474870Y-64757898D01*
X112451025Y-65000000D01*
X112474870Y-65242102D01*
X112545489Y-65474901D01*
X112660167Y-65689449D01*
X112786436Y-65843309D01*
X112737506Y-65869463D01*
X112640815Y-65948815D01*
X112561463Y-66045506D01*
X112502498Y-66155820D01*
X112466188Y-66275518D01*
X112453928Y-66400000D01*
X112457000Y-66714250D01*
X112615750Y-66873000D01*
X113840000Y-66873000D01*
X113840000Y-66853000D01*
X114094000Y-66853000D01*
X114094000Y-66873000D01*
X115318250Y-66873000D01*
X115477000Y-66714250D01*
X115480072Y-66400000D01*
X115467812Y-66275518D01*
X115431502Y-66155820D01*
X115372537Y-66045506D01*
X115293185Y-65948815D01*
X115196494Y-65869463D01*
X115147564Y-65843309D01*
X115273833Y-65689449D01*
X115388511Y-65474901D01*
X115459130Y-65242102D01*
X115482975Y-65000000D01*
X115459130Y-64757898D01*
X115388511Y-64525099D01*
X115273833Y-64310551D01*
X115119502Y-64122498D01*
X114970238Y-64000000D01*
X115119502Y-63877502D01*
X115273833Y-63689449D01*
X115388511Y-63474901D01*
X115459130Y-63242102D01*
X115482975Y-63000000D01*
X115459130Y-62757898D01*
X115388511Y-62525099D01*
X115273833Y-62310551D01*
X115119502Y-62122498D01*
X114931449Y-61968167D01*
X114716901Y-61853489D01*
X114484102Y-61782870D01*
X114302665Y-61765000D01*
X113631335Y-61765000D01*
X113449898Y-61782870D01*
X113217099Y-61853489D01*
X113002551Y-61968167D01*
X112814498Y-62122498D01*
X112660167Y-62310551D01*
X112545489Y-62525099D01*
X112474870Y-62757898D01*
X112451025Y-63000000D01*
X108170000Y-63000000D01*
X108170000Y-54927589D01*
X109269000Y-54927589D01*
X109269000Y-55200411D01*
X109322225Y-55467989D01*
X109426629Y-55720043D01*
X109578201Y-55946886D01*
X109771114Y-56139799D01*
X109997957Y-56291371D01*
X110250011Y-56395775D01*
X110517589Y-56449000D01*
X110790411Y-56449000D01*
X111057989Y-56395775D01*
X111310043Y-56291371D01*
X111536886Y-56139799D01*
X111729799Y-55946886D01*
X111881371Y-55720043D01*
X111985775Y-55467989D01*
X112039000Y-55200411D01*
X112039000Y-54927589D01*
X112669000Y-54927589D01*
X112669000Y-55200411D01*
X112722225Y-55467989D01*
X112826629Y-55720043D01*
X112978201Y-55946886D01*
X113171114Y-56139799D01*
X113397957Y-56291371D01*
X113650011Y-56395775D01*
X113917589Y-56449000D01*
X114190411Y-56449000D01*
X114457989Y-56395775D01*
X114710043Y-56291371D01*
X114936886Y-56139799D01*
X115129799Y-55946886D01*
X115281371Y-55720043D01*
X115385775Y-55467989D01*
X115439000Y-55200411D01*
X115439000Y-54927589D01*
X115385775Y-54660011D01*
X115281371Y-54407957D01*
X115129799Y-54181114D01*
X114936886Y-53988201D01*
X114710043Y-53836629D01*
X114457989Y-53732225D01*
X114190411Y-53679000D01*
X113917589Y-53679000D01*
X113650011Y-53732225D01*
X113397957Y-53836629D01*
X113171114Y-53988201D01*
X112978201Y-54181114D01*
X112826629Y-54407957D01*
X112722225Y-54660011D01*
X112669000Y-54927589D01*
X112039000Y-54927589D01*
X111985775Y-54660011D01*
X111881371Y-54407957D01*
X111729799Y-54181114D01*
X111536886Y-53988201D01*
X111310043Y-53836629D01*
X111057989Y-53732225D01*
X110790411Y-53679000D01*
X110517589Y-53679000D01*
X110250011Y-53732225D01*
X109997957Y-53836629D01*
X109771114Y-53988201D01*
X109578201Y-54181114D01*
X109426629Y-54407957D01*
X109322225Y-54660011D01*
X109269000Y-54927589D01*
X108170000Y-54927589D01*
X108170000Y-53782279D01*
X108217670Y-53296107D01*
X108261782Y-53150000D01*
X116721928Y-53150000D01*
X116721928Y-54150000D01*
X116734188Y-54274482D01*
X116770498Y-54394180D01*
X116829463Y-54504494D01*
X116908815Y-54601185D01*
X117005506Y-54680537D01*
X117115820Y-54739502D01*
X117235518Y-54775812D01*
X117360000Y-54788072D01*
X118860000Y-54788072D01*
X118984482Y-54775812D01*
X119104180Y-54739502D01*
X119214494Y-54680537D01*
X119311185Y-54601185D01*
X119390537Y-54504494D01*
X119449502Y-54394180D01*
X119485812Y-54274482D01*
X119498072Y-54150000D01*
X121621928Y-54150000D01*
X121634188Y-54274482D01*
X121670498Y-54394180D01*
X121729463Y-54504494D01*
X121808815Y-54601185D01*
X121905506Y-54680537D01*
X122015820Y-54739502D01*
X122135518Y-54775812D01*
X122260000Y-54788072D01*
X122724250Y-54785000D01*
X122883000Y-54626250D01*
X122883000Y-53777000D01*
X123137000Y-53777000D01*
X123137000Y-54626250D01*
X123295750Y-54785000D01*
X123760000Y-54788072D01*
X123884482Y-54775812D01*
X124004180Y-54739502D01*
X124114494Y-54680537D01*
X124211185Y-54601185D01*
X124290537Y-54504494D01*
X124349502Y-54394180D01*
X124385812Y-54274482D01*
X124398072Y-54150000D01*
X124395000Y-53935750D01*
X124236250Y-53777000D01*
X123137000Y-53777000D01*
X122883000Y-53777000D01*
X121783750Y-53777000D01*
X121625000Y-53935750D01*
X121621928Y-54150000D01*
X119498072Y-54150000D01*
X119498072Y-53150000D01*
X121621928Y-53150000D01*
X121625000Y-53364250D01*
X121783750Y-53523000D01*
X122883000Y-53523000D01*
X122883000Y-52673750D01*
X123137000Y-52673750D01*
X123137000Y-53523000D01*
X124236250Y-53523000D01*
X124395000Y-53364250D01*
X124398072Y-53150000D01*
X124385812Y-53025518D01*
X124349502Y-52905820D01*
X124290537Y-52795506D01*
X124211185Y-52698815D01*
X124114494Y-52619463D01*
X124004180Y-52560498D01*
X123884482Y-52524188D01*
X123760000Y-52511928D01*
X123295750Y-52515000D01*
X123137000Y-52673750D01*
X122883000Y-52673750D01*
X122724250Y-52515000D01*
X122260000Y-52511928D01*
X122135518Y-52524188D01*
X122015820Y-52560498D01*
X121905506Y-52619463D01*
X121808815Y-52698815D01*
X121729463Y-52795506D01*
X121670498Y-52905820D01*
X121634188Y-53025518D01*
X121621928Y-53150000D01*
X119498072Y-53150000D01*
X119485812Y-53025518D01*
X119449502Y-52905820D01*
X119390537Y-52795506D01*
X119311185Y-52698815D01*
X119214494Y-52619463D01*
X119104180Y-52560498D01*
X118984482Y-52524188D01*
X118860000Y-52511928D01*
X117360000Y-52511928D01*
X117235518Y-52524188D01*
X117115820Y-52560498D01*
X117005506Y-52619463D01*
X116908815Y-52698815D01*
X116829463Y-52795506D01*
X116770498Y-52905820D01*
X116734188Y-53025518D01*
X116721928Y-53150000D01*
X108261782Y-53150000D01*
X108349489Y-52859502D01*
X108563600Y-52456815D01*
X108851848Y-52103388D01*
X109203261Y-51812673D01*
X109604439Y-51595758D01*
X110040113Y-51460894D01*
X110524344Y-51410000D01*
X122977721Y-51410000D01*
X123463893Y-51457670D01*
G37*
%TD.AperFunction*%
D27*
X143728226Y-90235937D02*
X143897744Y-90349205D01*
X144086102Y-90427226D01*
X144286061Y-90467000D01*
X144310199Y-90467000D01*
X143565199Y-91212000D01*
X129358178Y-91212000D01*
X129233475Y-91025368D01*
X129026632Y-90818525D01*
X128852240Y-90702000D01*
X129026632Y-90585475D01*
X129233475Y-90378632D01*
X129358178Y-90192000D01*
X143684289Y-90192000D01*
X143728226Y-90235937D01*
%TA.AperFunction,Conductor*%
D28*
G36*
X143728226Y-90235937D02*
G01*
X143897744Y-90349205D01*
X144086102Y-90427226D01*
X144286061Y-90467000D01*
X144310199Y-90467000D01*
X143565199Y-91212000D01*
X129358178Y-91212000D01*
X129233475Y-91025368D01*
X129026632Y-90818525D01*
X128852240Y-90702000D01*
X129026632Y-90585475D01*
X129233475Y-90378632D01*
X129358178Y-90192000D01*
X143684289Y-90192000D01*
X143728226Y-90235937D01*
G37*
%TD.AperFunction*%
D27*
X169339001Y-81070580D02*
X169339001Y-81245550D01*
X169218176Y-81426376D01*
X169132617Y-81632933D01*
X169089000Y-81852212D01*
X169089000Y-82075788D01*
X169132617Y-82295067D01*
X169218176Y-82501624D01*
X169339001Y-82682451D01*
X169339000Y-85953421D01*
X166518422Y-88774000D01*
X162631711Y-88774000D01*
X162663937Y-88741774D01*
X162777205Y-88572256D01*
X162855226Y-88383898D01*
X162895000Y-88183939D01*
X162895000Y-87980061D01*
X162855226Y-87780102D01*
X162777205Y-87591744D01*
X162663937Y-87422226D01*
X162620000Y-87378289D01*
X162620000Y-82153322D01*
X162623676Y-82115999D01*
X162620000Y-82078676D01*
X162620000Y-82078667D01*
X162609003Y-81967014D01*
X162565546Y-81823753D01*
X162530927Y-81758986D01*
X162494974Y-81691723D01*
X162423799Y-81604997D01*
X162400001Y-81575999D01*
X162371003Y-81552201D01*
X160901804Y-80083003D01*
X160878001Y-80053999D01*
X160762276Y-79959026D01*
X160630247Y-79888454D01*
X160486986Y-79844997D01*
X160375333Y-79834000D01*
X160375322Y-79834000D01*
X160338000Y-79830324D01*
X160300678Y-79834000D01*
X138181711Y-79834000D01*
X138177711Y-79830000D01*
X165984289Y-79830000D01*
X166028226Y-79873937D01*
X166197744Y-79987205D01*
X166386102Y-80065226D01*
X166586061Y-80105000D01*
X166789939Y-80105000D01*
X166989898Y-80065226D01*
X167178256Y-79987205D01*
X167347774Y-79873937D01*
X167491937Y-79729774D01*
X167605205Y-79560256D01*
X167670659Y-79402237D01*
X169339001Y-81070580D01*
%TA.AperFunction,Conductor*%
D28*
G36*
X169339001Y-81070580D02*
G01*
X169339001Y-81245550D01*
X169218176Y-81426376D01*
X169132617Y-81632933D01*
X169089000Y-81852212D01*
X169089000Y-82075788D01*
X169132617Y-82295067D01*
X169218176Y-82501624D01*
X169339001Y-82682451D01*
X169339000Y-85953421D01*
X166518422Y-88774000D01*
X162631711Y-88774000D01*
X162663937Y-88741774D01*
X162777205Y-88572256D01*
X162855226Y-88383898D01*
X162895000Y-88183939D01*
X162895000Y-87980061D01*
X162855226Y-87780102D01*
X162777205Y-87591744D01*
X162663937Y-87422226D01*
X162620000Y-87378289D01*
X162620000Y-82153322D01*
X162623676Y-82115999D01*
X162620000Y-82078676D01*
X162620000Y-82078667D01*
X162609003Y-81967014D01*
X162565546Y-81823753D01*
X162530927Y-81758986D01*
X162494974Y-81691723D01*
X162423799Y-81604997D01*
X162400001Y-81575999D01*
X162371003Y-81552201D01*
X160901804Y-80083003D01*
X160878001Y-80053999D01*
X160762276Y-79959026D01*
X160630247Y-79888454D01*
X160486986Y-79844997D01*
X160375333Y-79834000D01*
X160375322Y-79834000D01*
X160338000Y-79830324D01*
X160300678Y-79834000D01*
X138181711Y-79834000D01*
X138177711Y-79830000D01*
X165984289Y-79830000D01*
X166028226Y-79873937D01*
X166197744Y-79987205D01*
X166386102Y-80065226D01*
X166586061Y-80105000D01*
X166789939Y-80105000D01*
X166989898Y-80065226D01*
X167178256Y-79987205D01*
X167347774Y-79873937D01*
X167491937Y-79729774D01*
X167605205Y-79560256D01*
X167670659Y-79402237D01*
X169339001Y-81070580D01*
G37*
%TD.AperFunction*%
D27*
X158503197Y-70436000D02*
X156018000Y-70436000D01*
X156018000Y-69359711D01*
X156061937Y-69315774D01*
X156175205Y-69146256D01*
X156253226Y-68957898D01*
X156293000Y-68757939D01*
X156293000Y-68554061D01*
X156253226Y-68354102D01*
X156175205Y-68165744D01*
X156162013Y-68146000D01*
X156213199Y-68146000D01*
X158503197Y-70436000D01*
%TA.AperFunction,Conductor*%
D28*
G36*
X158503197Y-70436000D02*
G01*
X156018000Y-70436000D01*
X156018000Y-69359711D01*
X156061937Y-69315774D01*
X156175205Y-69146256D01*
X156253226Y-68957898D01*
X156293000Y-68757939D01*
X156293000Y-68554061D01*
X156253226Y-68354102D01*
X156175205Y-68165744D01*
X156162013Y-68146000D01*
X156213199Y-68146000D01*
X158503197Y-70436000D01*
G37*
%TD.AperFunction*%
D27*
X158133325Y-65132039D02*
X157828912Y-65237205D01*
X157654956Y-65330186D01*
X157559192Y-65594587D01*
X158515000Y-66550395D01*
X159470808Y-65594587D01*
X159375044Y-65330186D01*
X159085429Y-65189296D01*
X158773892Y-65107616D01*
X158613997Y-65098000D01*
X160308199Y-65098000D01*
X161448823Y-66238625D01*
X161442832Y-66253088D01*
X161380000Y-66568967D01*
X161380000Y-66891033D01*
X161442832Y-67206912D01*
X161566082Y-67504463D01*
X161745013Y-67772252D01*
X161972748Y-67999987D01*
X162240537Y-68178918D01*
X162255001Y-68184909D01*
X162255001Y-69113528D01*
X162098256Y-69008795D01*
X161909898Y-68930774D01*
X161709939Y-68891000D01*
X161506061Y-68891000D01*
X161306102Y-68930774D01*
X161117744Y-69008795D01*
X160948226Y-69122063D01*
X160904289Y-69166000D01*
X159382803Y-69166000D01*
X158587203Y-68370400D01*
X158896675Y-68327961D01*
X159201088Y-68222795D01*
X159375044Y-68129814D01*
X159470808Y-67865413D01*
X158515000Y-66909605D01*
X158500858Y-66923748D01*
X158321253Y-66744143D01*
X158335395Y-66730000D01*
X158694605Y-66730000D01*
X159650413Y-67685808D01*
X159914814Y-67590044D01*
X160055704Y-67300429D01*
X160137384Y-66988892D01*
X160156718Y-66667405D01*
X160112961Y-66348325D01*
X160007795Y-66043912D01*
X159914814Y-65869956D01*
X159650413Y-65774192D01*
X158694605Y-66730000D01*
X158335395Y-66730000D01*
X157379587Y-65774192D01*
X157115186Y-65869956D01*
X156974296Y-66159571D01*
X156892616Y-66471108D01*
X156878164Y-66711412D01*
X156820247Y-66680454D01*
X156676986Y-66636997D01*
X156565333Y-66626000D01*
X156565322Y-66626000D01*
X156528000Y-66622324D01*
X156490678Y-66626000D01*
X154892013Y-66626000D01*
X154905205Y-66606256D01*
X154983226Y-66417898D01*
X155023000Y-66217939D01*
X155023000Y-66014061D01*
X154983226Y-65814102D01*
X154905205Y-65625744D01*
X154791937Y-65456226D01*
X154647774Y-65312063D01*
X154478256Y-65198795D01*
X154289898Y-65120774D01*
X154175404Y-65098000D01*
X158381540Y-65098000D01*
X158133325Y-65132039D01*
%TA.AperFunction,Conductor*%
D28*
G36*
X158133325Y-65132039D02*
G01*
X157828912Y-65237205D01*
X157654956Y-65330186D01*
X157559192Y-65594587D01*
X158515000Y-66550395D01*
X159470808Y-65594587D01*
X159375044Y-65330186D01*
X159085429Y-65189296D01*
X158773892Y-65107616D01*
X158613997Y-65098000D01*
X160308199Y-65098000D01*
X161448823Y-66238625D01*
X161442832Y-66253088D01*
X161380000Y-66568967D01*
X161380000Y-66891033D01*
X161442832Y-67206912D01*
X161566082Y-67504463D01*
X161745013Y-67772252D01*
X161972748Y-67999987D01*
X162240537Y-68178918D01*
X162255001Y-68184909D01*
X162255001Y-69113528D01*
X162098256Y-69008795D01*
X161909898Y-68930774D01*
X161709939Y-68891000D01*
X161506061Y-68891000D01*
X161306102Y-68930774D01*
X161117744Y-69008795D01*
X160948226Y-69122063D01*
X160904289Y-69166000D01*
X159382803Y-69166000D01*
X158587203Y-68370400D01*
X158896675Y-68327961D01*
X159201088Y-68222795D01*
X159375044Y-68129814D01*
X159470808Y-67865413D01*
X158515000Y-66909605D01*
X158500858Y-66923748D01*
X158321253Y-66744143D01*
X158335395Y-66730000D01*
X158694605Y-66730000D01*
X159650413Y-67685808D01*
X159914814Y-67590044D01*
X160055704Y-67300429D01*
X160137384Y-66988892D01*
X160156718Y-66667405D01*
X160112961Y-66348325D01*
X160007795Y-66043912D01*
X159914814Y-65869956D01*
X159650413Y-65774192D01*
X158694605Y-66730000D01*
X158335395Y-66730000D01*
X157379587Y-65774192D01*
X157115186Y-65869956D01*
X156974296Y-66159571D01*
X156892616Y-66471108D01*
X156878164Y-66711412D01*
X156820247Y-66680454D01*
X156676986Y-66636997D01*
X156565333Y-66626000D01*
X156565322Y-66626000D01*
X156528000Y-66622324D01*
X156490678Y-66626000D01*
X154892013Y-66626000D01*
X154905205Y-66606256D01*
X154983226Y-66417898D01*
X155023000Y-66217939D01*
X155023000Y-66014061D01*
X154983226Y-65814102D01*
X154905205Y-65625744D01*
X154791937Y-65456226D01*
X154647774Y-65312063D01*
X154478256Y-65198795D01*
X154289898Y-65120774D01*
X154175404Y-65098000D01*
X158381540Y-65098000D01*
X158133325Y-65132039D01*
G37*
%TD.AperFunction*%
%TD*%
D27*
%TO.N,GND1*%
X183819080Y-103257292D02*
X183874392Y-103280090D01*
X183929366Y-103303652D01*
X183938169Y-103306377D01*
X184125006Y-103362786D01*
X184183686Y-103374405D01*
X184242196Y-103386842D01*
X184251361Y-103387805D01*
X184445594Y-103406850D01*
X184445598Y-103406850D01*
X184477581Y-103410000D01*
X197477721Y-103410000D01*
X197769659Y-103438625D01*
X198019429Y-103514035D01*
X198249792Y-103636522D01*
X198451980Y-103801422D01*
X198618286Y-104002450D01*
X198742378Y-104231954D01*
X198819531Y-104481195D01*
X198850000Y-104771089D01*
X198850001Y-130717711D01*
X198821375Y-131009660D01*
X198745965Y-131259429D01*
X198623477Y-131489794D01*
X198458579Y-131691979D01*
X198257546Y-131858288D01*
X198028046Y-131982378D01*
X197778805Y-132059531D01*
X197488911Y-132090000D01*
X141542279Y-132090000D01*
X141250340Y-132061375D01*
X141000571Y-131985965D01*
X140770206Y-131863477D01*
X140568021Y-131698579D01*
X140401712Y-131497546D01*
X140277622Y-131268046D01*
X140200469Y-131018805D01*
X140170000Y-130728911D01*
X140170000Y-127529872D01*
X142275000Y-127529872D01*
X142275000Y-127970128D01*
X142360890Y-128401925D01*
X142529369Y-128808669D01*
X142773962Y-129174729D01*
X143085271Y-129486038D01*
X143451331Y-129730631D01*
X143858075Y-129899110D01*
X144289872Y-129985000D01*
X144730128Y-129985000D01*
X145161925Y-129899110D01*
X145568669Y-129730631D01*
X145934729Y-129486038D01*
X146246038Y-129174729D01*
X146490631Y-128808669D01*
X146659110Y-128401925D01*
X146745000Y-127970128D01*
X146745000Y-127529872D01*
X192275000Y-127529872D01*
X192275000Y-127970128D01*
X192360890Y-128401925D01*
X192529369Y-128808669D01*
X192773962Y-129174729D01*
X193085271Y-129486038D01*
X193451331Y-129730631D01*
X193858075Y-129899110D01*
X194289872Y-129985000D01*
X194730128Y-129985000D01*
X195161925Y-129899110D01*
X195568669Y-129730631D01*
X195934729Y-129486038D01*
X196246038Y-129174729D01*
X196490631Y-128808669D01*
X196659110Y-128401925D01*
X196745000Y-127970128D01*
X196745000Y-127529872D01*
X196659110Y-127098075D01*
X196490631Y-126691331D01*
X196246038Y-126325271D01*
X195934729Y-126013962D01*
X195568669Y-125769369D01*
X195161925Y-125600890D01*
X194730128Y-125515000D01*
X194289872Y-125515000D01*
X193858075Y-125600890D01*
X193451331Y-125769369D01*
X193085271Y-126013962D01*
X192773962Y-126325271D01*
X192529369Y-126691331D01*
X192360890Y-127098075D01*
X192275000Y-127529872D01*
X146745000Y-127529872D01*
X146659110Y-127098075D01*
X146490631Y-126691331D01*
X146246038Y-126325271D01*
X145934729Y-126013962D01*
X145584580Y-125780000D01*
X152326928Y-125780000D01*
X152339188Y-125904482D01*
X152375498Y-126024180D01*
X152434463Y-126134494D01*
X152513815Y-126231185D01*
X152610506Y-126310537D01*
X152720820Y-126369502D01*
X152840518Y-126405812D01*
X152965000Y-126418072D01*
X153979250Y-126415000D01*
X154138000Y-126256250D01*
X154138000Y-124607000D01*
X154392000Y-124607000D01*
X154392000Y-126256250D01*
X154550750Y-126415000D01*
X155565000Y-126418072D01*
X155689482Y-126405812D01*
X155809180Y-126369502D01*
X155919494Y-126310537D01*
X156016185Y-126231185D01*
X156095537Y-126134494D01*
X156154502Y-126024180D01*
X156190812Y-125904482D01*
X156203072Y-125780000D01*
X156200000Y-124765750D01*
X156041250Y-124607000D01*
X154392000Y-124607000D01*
X154138000Y-124607000D01*
X152488750Y-124607000D01*
X152330000Y-124765750D01*
X152326928Y-125780000D01*
X145584580Y-125780000D01*
X145568669Y-125769369D01*
X145161925Y-125600890D01*
X144730128Y-125515000D01*
X144289872Y-125515000D01*
X143858075Y-125600890D01*
X143451331Y-125769369D01*
X143085271Y-126013962D01*
X142773962Y-126325271D01*
X142529369Y-126691331D01*
X142360890Y-127098075D01*
X142275000Y-127529872D01*
X140170000Y-127529872D01*
X140170000Y-123180000D01*
X152326928Y-123180000D01*
X152330000Y-124194250D01*
X152488750Y-124353000D01*
X154138000Y-124353000D01*
X154138000Y-122703750D01*
X154392000Y-122703750D01*
X154392000Y-124353000D01*
X156041250Y-124353000D01*
X156104831Y-124289419D01*
X157410000Y-124289419D01*
X157410000Y-124670581D01*
X157484361Y-125044419D01*
X157630225Y-125396566D01*
X157841987Y-125713491D01*
X158111509Y-125983013D01*
X158428434Y-126194775D01*
X158780581Y-126340639D01*
X159154419Y-126415000D01*
X159535581Y-126415000D01*
X159909419Y-126340639D01*
X160261566Y-126194775D01*
X160578491Y-125983013D01*
X160848013Y-125713491D01*
X161059775Y-125396566D01*
X161205639Y-125044419D01*
X161280000Y-124670581D01*
X161280000Y-124289419D01*
X161205639Y-123915581D01*
X161059775Y-123563434D01*
X160848013Y-123246509D01*
X160781504Y-123180000D01*
X162486928Y-123180000D01*
X162486928Y-125780000D01*
X162499188Y-125904482D01*
X162535498Y-126024180D01*
X162594463Y-126134494D01*
X162673815Y-126231185D01*
X162770506Y-126310537D01*
X162880820Y-126369502D01*
X163000518Y-126405812D01*
X163125000Y-126418072D01*
X165725000Y-126418072D01*
X165849482Y-126405812D01*
X165969180Y-126369502D01*
X166079494Y-126310537D01*
X166176185Y-126231185D01*
X166255537Y-126134494D01*
X166314502Y-126024180D01*
X166350812Y-125904482D01*
X166363072Y-125780000D01*
X166363072Y-123793506D01*
X171105049Y-119051530D01*
X171138817Y-119023817D01*
X171249411Y-118889059D01*
X171331589Y-118735314D01*
X171382195Y-118568490D01*
X171395000Y-118438477D01*
X171395000Y-118438469D01*
X171399281Y-118395000D01*
X171395000Y-118351531D01*
X171395000Y-110417366D01*
X171510001Y-110277237D01*
X171625000Y-110417365D01*
X171625001Y-121108420D01*
X170100985Y-122632436D01*
X170069419Y-122619361D01*
X169695581Y-122545000D01*
X169314419Y-122545000D01*
X168940581Y-122619361D01*
X168588434Y-122765225D01*
X168271509Y-122976987D01*
X168001987Y-123246509D01*
X167790225Y-123563434D01*
X167644361Y-123915581D01*
X167570000Y-124289419D01*
X167570000Y-124670581D01*
X167644361Y-125044419D01*
X167790225Y-125396566D01*
X168001987Y-125713491D01*
X168271509Y-125983013D01*
X168588434Y-126194775D01*
X168940581Y-126340639D01*
X169314419Y-126415000D01*
X169695581Y-126415000D01*
X170069419Y-126340639D01*
X170421566Y-126194775D01*
X170738491Y-125983013D01*
X170892280Y-125829224D01*
X173415381Y-125829224D01*
X173547317Y-126124312D01*
X173888045Y-126295159D01*
X174255557Y-126396250D01*
X174635729Y-126423701D01*
X175013951Y-126376457D01*
X175375690Y-126256333D01*
X175622683Y-126124312D01*
X175754619Y-125829224D01*
X174585000Y-124659605D01*
X173415381Y-125829224D01*
X170892280Y-125829224D01*
X171008013Y-125713491D01*
X171219775Y-125396566D01*
X171365639Y-125044419D01*
X171440000Y-124670581D01*
X171440000Y-124530729D01*
X172641299Y-124530729D01*
X172688543Y-124908951D01*
X172808667Y-125270690D01*
X172940688Y-125517683D01*
X173235776Y-125649619D01*
X174405395Y-124480000D01*
X174764605Y-124480000D01*
X175934224Y-125649619D01*
X176229312Y-125517683D01*
X176400159Y-125176955D01*
X176501250Y-124809443D01*
X176528701Y-124429271D01*
X176481457Y-124051049D01*
X176361333Y-123689310D01*
X176229312Y-123442317D01*
X175934224Y-123310381D01*
X174764605Y-124480000D01*
X174405395Y-124480000D01*
X173235776Y-123310381D01*
X172940688Y-123442317D01*
X172769841Y-123783045D01*
X172668750Y-124150557D01*
X172641299Y-124530729D01*
X171440000Y-124530729D01*
X171440000Y-124289419D01*
X171365639Y-123915581D01*
X171352564Y-123884015D01*
X172105803Y-123130776D01*
X173415381Y-123130776D01*
X174585000Y-124300395D01*
X175705395Y-123180000D01*
X177726928Y-123180000D01*
X177726928Y-125780000D01*
X177739188Y-125904482D01*
X177775498Y-126024180D01*
X177834463Y-126134494D01*
X177913815Y-126231185D01*
X178010506Y-126310537D01*
X178120820Y-126369502D01*
X178240518Y-126405812D01*
X178365000Y-126418072D01*
X180965000Y-126418072D01*
X181089482Y-126405812D01*
X181209180Y-126369502D01*
X181319494Y-126310537D01*
X181416185Y-126231185D01*
X181495537Y-126134494D01*
X181554502Y-126024180D01*
X181590812Y-125904482D01*
X181603072Y-125780000D01*
X181603072Y-124289419D01*
X182810000Y-124289419D01*
X182810000Y-124670581D01*
X182884361Y-125044419D01*
X183030225Y-125396566D01*
X183241987Y-125713491D01*
X183511509Y-125983013D01*
X183828434Y-126194775D01*
X184180581Y-126340639D01*
X184554419Y-126415000D01*
X184935581Y-126415000D01*
X185309419Y-126340639D01*
X185661566Y-126194775D01*
X185978491Y-125983013D01*
X186248013Y-125713491D01*
X186459775Y-125396566D01*
X186605639Y-125044419D01*
X186680000Y-124670581D01*
X186680000Y-124289419D01*
X186605639Y-123915581D01*
X186459775Y-123563434D01*
X186248013Y-123246509D01*
X185978491Y-122976987D01*
X185661566Y-122765225D01*
X185309419Y-122619361D01*
X184935581Y-122545000D01*
X184554419Y-122545000D01*
X184180581Y-122619361D01*
X183828434Y-122765225D01*
X183511509Y-122976987D01*
X183241987Y-123246509D01*
X183030225Y-123563434D01*
X182884361Y-123915581D01*
X182810000Y-124289419D01*
X181603072Y-124289419D01*
X181603072Y-123180000D01*
X181590812Y-123055518D01*
X181554502Y-122935820D01*
X181495537Y-122825506D01*
X181416185Y-122728815D01*
X181319494Y-122649463D01*
X181209180Y-122590498D01*
X181089482Y-122554188D01*
X180965000Y-122541928D01*
X178365000Y-122541928D01*
X178240518Y-122554188D01*
X178120820Y-122590498D01*
X178010506Y-122649463D01*
X177913815Y-122728815D01*
X177834463Y-122825506D01*
X177775498Y-122935820D01*
X177739188Y-123055518D01*
X177726928Y-123180000D01*
X175705395Y-123180000D01*
X175754619Y-123130776D01*
X175622683Y-122835688D01*
X175281955Y-122664841D01*
X174914443Y-122563750D01*
X174534271Y-122536299D01*
X174156049Y-122583543D01*
X173794310Y-122703667D01*
X173547317Y-122835688D01*
X173415381Y-123130776D01*
X172105803Y-123130776D01*
X173105049Y-122131530D01*
X173138817Y-122103817D01*
X173249411Y-121969059D01*
X173331589Y-121815313D01*
X173382195Y-121648490D01*
X173395000Y-121518477D01*
X173395000Y-121518469D01*
X173399281Y-121475000D01*
X173395000Y-121431531D01*
X173395000Y-110417366D01*
X173510001Y-110277237D01*
X173632499Y-110426502D01*
X173820552Y-110580833D01*
X174035100Y-110695511D01*
X174267899Y-110766130D01*
X174510000Y-110789975D01*
X174752102Y-110766130D01*
X174984901Y-110695511D01*
X175199449Y-110580833D01*
X175387502Y-110426502D01*
X175541833Y-110238449D01*
X175656511Y-110023900D01*
X175727130Y-109791101D01*
X175745000Y-109609664D01*
X175745000Y-108938335D01*
X175727130Y-108756898D01*
X175656511Y-108524099D01*
X175541833Y-108309551D01*
X175387502Y-108121498D01*
X175199448Y-107967167D01*
X174984900Y-107852489D01*
X174752101Y-107781870D01*
X174510000Y-107758025D01*
X174267898Y-107781870D01*
X174035099Y-107852489D01*
X173820551Y-107967167D01*
X173632498Y-108121498D01*
X173510000Y-108270763D01*
X173387502Y-108121498D01*
X173199448Y-107967167D01*
X172984900Y-107852489D01*
X172752101Y-107781870D01*
X172510000Y-107758025D01*
X172267898Y-107781870D01*
X172035099Y-107852489D01*
X171820551Y-107967167D01*
X171632498Y-108121498D01*
X171510000Y-108270763D01*
X171387502Y-108121498D01*
X171199448Y-107967167D01*
X170984900Y-107852489D01*
X170752101Y-107781870D01*
X170510000Y-107758025D01*
X170267898Y-107781870D01*
X170035099Y-107852489D01*
X169820551Y-107967167D01*
X169632498Y-108121498D01*
X169510000Y-108270763D01*
X169387502Y-108121498D01*
X169199448Y-107967167D01*
X168984900Y-107852489D01*
X168752101Y-107781870D01*
X168510000Y-107758025D01*
X168267898Y-107781870D01*
X168035099Y-107852489D01*
X167820551Y-107967167D01*
X167632498Y-108121498D01*
X167510000Y-108270763D01*
X167387502Y-108121498D01*
X167199448Y-107967167D01*
X166984900Y-107852489D01*
X166752101Y-107781870D01*
X166510000Y-107758025D01*
X166267898Y-107781870D01*
X166035099Y-107852489D01*
X165820551Y-107967167D01*
X165666691Y-108093436D01*
X165640537Y-108044506D01*
X165561185Y-107947815D01*
X165464494Y-107868463D01*
X165354180Y-107809498D01*
X165234482Y-107773188D01*
X165110000Y-107760928D01*
X164795750Y-107764000D01*
X164637000Y-107922750D01*
X164637000Y-109147000D01*
X164657000Y-109147000D01*
X164657000Y-109401000D01*
X164637000Y-109401000D01*
X164637000Y-110625250D01*
X164795750Y-110784000D01*
X165110000Y-110787072D01*
X165234482Y-110774812D01*
X165354180Y-110738502D01*
X165464494Y-110679537D01*
X165561185Y-110600185D01*
X165640537Y-110503494D01*
X165666692Y-110454563D01*
X165820552Y-110580833D01*
X166035100Y-110695511D01*
X166267899Y-110766130D01*
X166510000Y-110789975D01*
X166752102Y-110766130D01*
X166984901Y-110695511D01*
X167199449Y-110580833D01*
X167387502Y-110426502D01*
X167510001Y-110277237D01*
X167632499Y-110426502D01*
X167820552Y-110580833D01*
X168035100Y-110695511D01*
X168267899Y-110766130D01*
X168510000Y-110789975D01*
X168752102Y-110766130D01*
X168984901Y-110695511D01*
X169199449Y-110580833D01*
X169387502Y-110426502D01*
X169510001Y-110277237D01*
X169625000Y-110417365D01*
X169625001Y-118028420D01*
X165111494Y-122541928D01*
X163125000Y-122541928D01*
X163000518Y-122554188D01*
X162880820Y-122590498D01*
X162770506Y-122649463D01*
X162673815Y-122728815D01*
X162594463Y-122825506D01*
X162535498Y-122935820D01*
X162499188Y-123055518D01*
X162486928Y-123180000D01*
X160781504Y-123180000D01*
X160578491Y-122976987D01*
X160261566Y-122765225D01*
X159909419Y-122619361D01*
X159535581Y-122545000D01*
X159154419Y-122545000D01*
X158780581Y-122619361D01*
X158428434Y-122765225D01*
X158111509Y-122976987D01*
X157841987Y-123246509D01*
X157630225Y-123563434D01*
X157484361Y-123915581D01*
X157410000Y-124289419D01*
X156104831Y-124289419D01*
X156200000Y-124194250D01*
X156203072Y-123180000D01*
X156190812Y-123055518D01*
X156154502Y-122935820D01*
X156095537Y-122825506D01*
X156016185Y-122728815D01*
X155919494Y-122649463D01*
X155809180Y-122590498D01*
X155689482Y-122554188D01*
X155565000Y-122541928D01*
X154550750Y-122545000D01*
X154392000Y-122703750D01*
X154138000Y-122703750D01*
X153979250Y-122545000D01*
X152965000Y-122541928D01*
X152840518Y-122554188D01*
X152720820Y-122590498D01*
X152610506Y-122649463D01*
X152513815Y-122728815D01*
X152434463Y-122825506D01*
X152375498Y-122935820D01*
X152339188Y-123055518D01*
X152326928Y-123180000D01*
X140170000Y-123180000D01*
X140170000Y-110149000D01*
X163271928Y-110149000D01*
X163284188Y-110273482D01*
X163320498Y-110393180D01*
X163379463Y-110503494D01*
X163458815Y-110600185D01*
X163555506Y-110679537D01*
X163665820Y-110738502D01*
X163785518Y-110774812D01*
X163910000Y-110787072D01*
X164224250Y-110784000D01*
X164383000Y-110625250D01*
X164383000Y-109401000D01*
X163433750Y-109401000D01*
X163275000Y-109559750D01*
X163271928Y-110149000D01*
X140170000Y-110149000D01*
X140170000Y-107529872D01*
X142275000Y-107529872D01*
X142275000Y-107970128D01*
X142360890Y-108401925D01*
X142529369Y-108808669D01*
X142773962Y-109174729D01*
X143085271Y-109486038D01*
X143451331Y-109730631D01*
X143858075Y-109899110D01*
X144289872Y-109985000D01*
X144730128Y-109985000D01*
X145161925Y-109899110D01*
X145568669Y-109730631D01*
X145934729Y-109486038D01*
X146246038Y-109174729D01*
X146490631Y-108808669D01*
X146659110Y-108401925D01*
X146659691Y-108399000D01*
X163271928Y-108399000D01*
X163275000Y-108988250D01*
X163433750Y-109147000D01*
X164383000Y-109147000D01*
X164383000Y-107922750D01*
X164224250Y-107764000D01*
X163910000Y-107760928D01*
X163785518Y-107773188D01*
X163665820Y-107809498D01*
X163555506Y-107868463D01*
X163458815Y-107947815D01*
X163379463Y-108044506D01*
X163320498Y-108154820D01*
X163284188Y-108274518D01*
X163271928Y-108399000D01*
X146659691Y-108399000D01*
X146745000Y-107970128D01*
X146745000Y-107529872D01*
X192275000Y-107529872D01*
X192275000Y-107970128D01*
X192360890Y-108401925D01*
X192529369Y-108808669D01*
X192773962Y-109174729D01*
X193085271Y-109486038D01*
X193451331Y-109730631D01*
X193858075Y-109899110D01*
X194289872Y-109985000D01*
X194730128Y-109985000D01*
X195161925Y-109899110D01*
X195568669Y-109730631D01*
X195934729Y-109486038D01*
X196246038Y-109174729D01*
X196490631Y-108808669D01*
X196659110Y-108401925D01*
X196745000Y-107970128D01*
X196745000Y-107529872D01*
X196659110Y-107098075D01*
X196490631Y-106691331D01*
X196246038Y-106325271D01*
X195934729Y-106013962D01*
X195568669Y-105769369D01*
X195161925Y-105600890D01*
X194730128Y-105515000D01*
X194289872Y-105515000D01*
X193858075Y-105600890D01*
X193451331Y-105769369D01*
X193085271Y-106013962D01*
X192773962Y-106325271D01*
X192529369Y-106691331D01*
X192360890Y-107098075D01*
X192275000Y-107529872D01*
X146745000Y-107529872D01*
X146659110Y-107098075D01*
X146490631Y-106691331D01*
X146246038Y-106325271D01*
X145934729Y-106013962D01*
X145568669Y-105769369D01*
X145161925Y-105600890D01*
X144730128Y-105515000D01*
X144289872Y-105515000D01*
X143858075Y-105600890D01*
X143451331Y-105769369D01*
X143085271Y-106013962D01*
X142773962Y-106325271D01*
X142529369Y-106691331D01*
X142360890Y-107098075D01*
X142275000Y-107529872D01*
X140170000Y-107529872D01*
X140170000Y-104782279D01*
X140198625Y-104490341D01*
X140274035Y-104240571D01*
X140396522Y-104010208D01*
X140561422Y-103808020D01*
X140762450Y-103641714D01*
X140991954Y-103517622D01*
X141241195Y-103440469D01*
X141531088Y-103410000D01*
X154542419Y-103410000D01*
X154575387Y-103406753D01*
X154588367Y-103406753D01*
X154597532Y-103405790D01*
X154791481Y-103384035D01*
X154849966Y-103371603D01*
X154908676Y-103359978D01*
X154917479Y-103357253D01*
X155103509Y-103298240D01*
X155158519Y-103274662D01*
X155213794Y-103251880D01*
X155221900Y-103247497D01*
X155256929Y-103228239D01*
X155340795Y-103284277D01*
X155501855Y-103350990D01*
X155672835Y-103385000D01*
X155847165Y-103385000D01*
X156018145Y-103350990D01*
X156135000Y-103302587D01*
X156251855Y-103350990D01*
X156422835Y-103385000D01*
X156597165Y-103385000D01*
X156768145Y-103350990D01*
X156885000Y-103302587D01*
X157001855Y-103350990D01*
X157172835Y-103385000D01*
X157347165Y-103385000D01*
X157518145Y-103350990D01*
X157679205Y-103284277D01*
X157763677Y-103227834D01*
X157819080Y-103257292D01*
X157874392Y-103280090D01*
X157929366Y-103303652D01*
X157938169Y-103306377D01*
X158125006Y-103362786D01*
X158183686Y-103374405D01*
X158242196Y-103386842D01*
X158251361Y-103387805D01*
X158445594Y-103406850D01*
X158445598Y-103406850D01*
X158477581Y-103410000D01*
X180542419Y-103410000D01*
X180575387Y-103406753D01*
X180588367Y-103406753D01*
X180597532Y-103405790D01*
X180791481Y-103384035D01*
X180849966Y-103371603D01*
X180908676Y-103359978D01*
X180917479Y-103357253D01*
X181103509Y-103298240D01*
X181158519Y-103274662D01*
X181213794Y-103251880D01*
X181221900Y-103247497D01*
X181256929Y-103228239D01*
X181340795Y-103284277D01*
X181501855Y-103350990D01*
X181672835Y-103385000D01*
X181847165Y-103385000D01*
X182018145Y-103350990D01*
X182135000Y-103302587D01*
X182251855Y-103350990D01*
X182422835Y-103385000D01*
X182597165Y-103385000D01*
X182768145Y-103350990D01*
X182885000Y-103302587D01*
X183001855Y-103350990D01*
X183172835Y-103385000D01*
X183347165Y-103385000D01*
X183518145Y-103350990D01*
X183679205Y-103284277D01*
X183763677Y-103227834D01*
X183819080Y-103257292D01*
%TA.AperFunction,Conductor*%
D28*
G36*
X183819080Y-103257292D02*
G01*
X183874392Y-103280090D01*
X183929366Y-103303652D01*
X183938169Y-103306377D01*
X184125006Y-103362786D01*
X184183686Y-103374405D01*
X184242196Y-103386842D01*
X184251361Y-103387805D01*
X184445594Y-103406850D01*
X184445598Y-103406850D01*
X184477581Y-103410000D01*
X197477721Y-103410000D01*
X197769659Y-103438625D01*
X198019429Y-103514035D01*
X198249792Y-103636522D01*
X198451980Y-103801422D01*
X198618286Y-104002450D01*
X198742378Y-104231954D01*
X198819531Y-104481195D01*
X198850000Y-104771089D01*
X198850001Y-130717711D01*
X198821375Y-131009660D01*
X198745965Y-131259429D01*
X198623477Y-131489794D01*
X198458579Y-131691979D01*
X198257546Y-131858288D01*
X198028046Y-131982378D01*
X197778805Y-132059531D01*
X197488911Y-132090000D01*
X141542279Y-132090000D01*
X141250340Y-132061375D01*
X141000571Y-131985965D01*
X140770206Y-131863477D01*
X140568021Y-131698579D01*
X140401712Y-131497546D01*
X140277622Y-131268046D01*
X140200469Y-131018805D01*
X140170000Y-130728911D01*
X140170000Y-127529872D01*
X142275000Y-127529872D01*
X142275000Y-127970128D01*
X142360890Y-128401925D01*
X142529369Y-128808669D01*
X142773962Y-129174729D01*
X143085271Y-129486038D01*
X143451331Y-129730631D01*
X143858075Y-129899110D01*
X144289872Y-129985000D01*
X144730128Y-129985000D01*
X145161925Y-129899110D01*
X145568669Y-129730631D01*
X145934729Y-129486038D01*
X146246038Y-129174729D01*
X146490631Y-128808669D01*
X146659110Y-128401925D01*
X146745000Y-127970128D01*
X146745000Y-127529872D01*
X192275000Y-127529872D01*
X192275000Y-127970128D01*
X192360890Y-128401925D01*
X192529369Y-128808669D01*
X192773962Y-129174729D01*
X193085271Y-129486038D01*
X193451331Y-129730631D01*
X193858075Y-129899110D01*
X194289872Y-129985000D01*
X194730128Y-129985000D01*
X195161925Y-129899110D01*
X195568669Y-129730631D01*
X195934729Y-129486038D01*
X196246038Y-129174729D01*
X196490631Y-128808669D01*
X196659110Y-128401925D01*
X196745000Y-127970128D01*
X196745000Y-127529872D01*
X196659110Y-127098075D01*
X196490631Y-126691331D01*
X196246038Y-126325271D01*
X195934729Y-126013962D01*
X195568669Y-125769369D01*
X195161925Y-125600890D01*
X194730128Y-125515000D01*
X194289872Y-125515000D01*
X193858075Y-125600890D01*
X193451331Y-125769369D01*
X193085271Y-126013962D01*
X192773962Y-126325271D01*
X192529369Y-126691331D01*
X192360890Y-127098075D01*
X192275000Y-127529872D01*
X146745000Y-127529872D01*
X146659110Y-127098075D01*
X146490631Y-126691331D01*
X146246038Y-126325271D01*
X145934729Y-126013962D01*
X145584580Y-125780000D01*
X152326928Y-125780000D01*
X152339188Y-125904482D01*
X152375498Y-126024180D01*
X152434463Y-126134494D01*
X152513815Y-126231185D01*
X152610506Y-126310537D01*
X152720820Y-126369502D01*
X152840518Y-126405812D01*
X152965000Y-126418072D01*
X153979250Y-126415000D01*
X154138000Y-126256250D01*
X154138000Y-124607000D01*
X154392000Y-124607000D01*
X154392000Y-126256250D01*
X154550750Y-126415000D01*
X155565000Y-126418072D01*
X155689482Y-126405812D01*
X155809180Y-126369502D01*
X155919494Y-126310537D01*
X156016185Y-126231185D01*
X156095537Y-126134494D01*
X156154502Y-126024180D01*
X156190812Y-125904482D01*
X156203072Y-125780000D01*
X156200000Y-124765750D01*
X156041250Y-124607000D01*
X154392000Y-124607000D01*
X154138000Y-124607000D01*
X152488750Y-124607000D01*
X152330000Y-124765750D01*
X152326928Y-125780000D01*
X145584580Y-125780000D01*
X145568669Y-125769369D01*
X145161925Y-125600890D01*
X144730128Y-125515000D01*
X144289872Y-125515000D01*
X143858075Y-125600890D01*
X143451331Y-125769369D01*
X143085271Y-126013962D01*
X142773962Y-126325271D01*
X142529369Y-126691331D01*
X142360890Y-127098075D01*
X142275000Y-127529872D01*
X140170000Y-127529872D01*
X140170000Y-123180000D01*
X152326928Y-123180000D01*
X152330000Y-124194250D01*
X152488750Y-124353000D01*
X154138000Y-124353000D01*
X154138000Y-122703750D01*
X154392000Y-122703750D01*
X154392000Y-124353000D01*
X156041250Y-124353000D01*
X156104831Y-124289419D01*
X157410000Y-124289419D01*
X157410000Y-124670581D01*
X157484361Y-125044419D01*
X157630225Y-125396566D01*
X157841987Y-125713491D01*
X158111509Y-125983013D01*
X158428434Y-126194775D01*
X158780581Y-126340639D01*
X159154419Y-126415000D01*
X159535581Y-126415000D01*
X159909419Y-126340639D01*
X160261566Y-126194775D01*
X160578491Y-125983013D01*
X160848013Y-125713491D01*
X161059775Y-125396566D01*
X161205639Y-125044419D01*
X161280000Y-124670581D01*
X161280000Y-124289419D01*
X161205639Y-123915581D01*
X161059775Y-123563434D01*
X160848013Y-123246509D01*
X160781504Y-123180000D01*
X162486928Y-123180000D01*
X162486928Y-125780000D01*
X162499188Y-125904482D01*
X162535498Y-126024180D01*
X162594463Y-126134494D01*
X162673815Y-126231185D01*
X162770506Y-126310537D01*
X162880820Y-126369502D01*
X163000518Y-126405812D01*
X163125000Y-126418072D01*
X165725000Y-126418072D01*
X165849482Y-126405812D01*
X165969180Y-126369502D01*
X166079494Y-126310537D01*
X166176185Y-126231185D01*
X166255537Y-126134494D01*
X166314502Y-126024180D01*
X166350812Y-125904482D01*
X166363072Y-125780000D01*
X166363072Y-123793506D01*
X171105049Y-119051530D01*
X171138817Y-119023817D01*
X171249411Y-118889059D01*
X171331589Y-118735314D01*
X171382195Y-118568490D01*
X171395000Y-118438477D01*
X171395000Y-118438469D01*
X171399281Y-118395000D01*
X171395000Y-118351531D01*
X171395000Y-110417366D01*
X171510001Y-110277237D01*
X171625000Y-110417365D01*
X171625001Y-121108420D01*
X170100985Y-122632436D01*
X170069419Y-122619361D01*
X169695581Y-122545000D01*
X169314419Y-122545000D01*
X168940581Y-122619361D01*
X168588434Y-122765225D01*
X168271509Y-122976987D01*
X168001987Y-123246509D01*
X167790225Y-123563434D01*
X167644361Y-123915581D01*
X167570000Y-124289419D01*
X167570000Y-124670581D01*
X167644361Y-125044419D01*
X167790225Y-125396566D01*
X168001987Y-125713491D01*
X168271509Y-125983013D01*
X168588434Y-126194775D01*
X168940581Y-126340639D01*
X169314419Y-126415000D01*
X169695581Y-126415000D01*
X170069419Y-126340639D01*
X170421566Y-126194775D01*
X170738491Y-125983013D01*
X170892280Y-125829224D01*
X173415381Y-125829224D01*
X173547317Y-126124312D01*
X173888045Y-126295159D01*
X174255557Y-126396250D01*
X174635729Y-126423701D01*
X175013951Y-126376457D01*
X175375690Y-126256333D01*
X175622683Y-126124312D01*
X175754619Y-125829224D01*
X174585000Y-124659605D01*
X173415381Y-125829224D01*
X170892280Y-125829224D01*
X171008013Y-125713491D01*
X171219775Y-125396566D01*
X171365639Y-125044419D01*
X171440000Y-124670581D01*
X171440000Y-124530729D01*
X172641299Y-124530729D01*
X172688543Y-124908951D01*
X172808667Y-125270690D01*
X172940688Y-125517683D01*
X173235776Y-125649619D01*
X174405395Y-124480000D01*
X174764605Y-124480000D01*
X175934224Y-125649619D01*
X176229312Y-125517683D01*
X176400159Y-125176955D01*
X176501250Y-124809443D01*
X176528701Y-124429271D01*
X176481457Y-124051049D01*
X176361333Y-123689310D01*
X176229312Y-123442317D01*
X175934224Y-123310381D01*
X174764605Y-124480000D01*
X174405395Y-124480000D01*
X173235776Y-123310381D01*
X172940688Y-123442317D01*
X172769841Y-123783045D01*
X172668750Y-124150557D01*
X172641299Y-124530729D01*
X171440000Y-124530729D01*
X171440000Y-124289419D01*
X171365639Y-123915581D01*
X171352564Y-123884015D01*
X172105803Y-123130776D01*
X173415381Y-123130776D01*
X174585000Y-124300395D01*
X175705395Y-123180000D01*
X177726928Y-123180000D01*
X177726928Y-125780000D01*
X177739188Y-125904482D01*
X177775498Y-126024180D01*
X177834463Y-126134494D01*
X177913815Y-126231185D01*
X178010506Y-126310537D01*
X178120820Y-126369502D01*
X178240518Y-126405812D01*
X178365000Y-126418072D01*
X180965000Y-126418072D01*
X181089482Y-126405812D01*
X181209180Y-126369502D01*
X181319494Y-126310537D01*
X181416185Y-126231185D01*
X181495537Y-126134494D01*
X181554502Y-126024180D01*
X181590812Y-125904482D01*
X181603072Y-125780000D01*
X181603072Y-124289419D01*
X182810000Y-124289419D01*
X182810000Y-124670581D01*
X182884361Y-125044419D01*
X183030225Y-125396566D01*
X183241987Y-125713491D01*
X183511509Y-125983013D01*
X183828434Y-126194775D01*
X184180581Y-126340639D01*
X184554419Y-126415000D01*
X184935581Y-126415000D01*
X185309419Y-126340639D01*
X185661566Y-126194775D01*
X185978491Y-125983013D01*
X186248013Y-125713491D01*
X186459775Y-125396566D01*
X186605639Y-125044419D01*
X186680000Y-124670581D01*
X186680000Y-124289419D01*
X186605639Y-123915581D01*
X186459775Y-123563434D01*
X186248013Y-123246509D01*
X185978491Y-122976987D01*
X185661566Y-122765225D01*
X185309419Y-122619361D01*
X184935581Y-122545000D01*
X184554419Y-122545000D01*
X184180581Y-122619361D01*
X183828434Y-122765225D01*
X183511509Y-122976987D01*
X183241987Y-123246509D01*
X183030225Y-123563434D01*
X182884361Y-123915581D01*
X182810000Y-124289419D01*
X181603072Y-124289419D01*
X181603072Y-123180000D01*
X181590812Y-123055518D01*
X181554502Y-122935820D01*
X181495537Y-122825506D01*
X181416185Y-122728815D01*
X181319494Y-122649463D01*
X181209180Y-122590498D01*
X181089482Y-122554188D01*
X180965000Y-122541928D01*
X178365000Y-122541928D01*
X178240518Y-122554188D01*
X178120820Y-122590498D01*
X178010506Y-122649463D01*
X177913815Y-122728815D01*
X177834463Y-122825506D01*
X177775498Y-122935820D01*
X177739188Y-123055518D01*
X177726928Y-123180000D01*
X175705395Y-123180000D01*
X175754619Y-123130776D01*
X175622683Y-122835688D01*
X175281955Y-122664841D01*
X174914443Y-122563750D01*
X174534271Y-122536299D01*
X174156049Y-122583543D01*
X173794310Y-122703667D01*
X173547317Y-122835688D01*
X173415381Y-123130776D01*
X172105803Y-123130776D01*
X173105049Y-122131530D01*
X173138817Y-122103817D01*
X173249411Y-121969059D01*
X173331589Y-121815313D01*
X173382195Y-121648490D01*
X173395000Y-121518477D01*
X173395000Y-121518469D01*
X173399281Y-121475000D01*
X173395000Y-121431531D01*
X173395000Y-110417366D01*
X173510001Y-110277237D01*
X173632499Y-110426502D01*
X173820552Y-110580833D01*
X174035100Y-110695511D01*
X174267899Y-110766130D01*
X174510000Y-110789975D01*
X174752102Y-110766130D01*
X174984901Y-110695511D01*
X175199449Y-110580833D01*
X175387502Y-110426502D01*
X175541833Y-110238449D01*
X175656511Y-110023900D01*
X175727130Y-109791101D01*
X175745000Y-109609664D01*
X175745000Y-108938335D01*
X175727130Y-108756898D01*
X175656511Y-108524099D01*
X175541833Y-108309551D01*
X175387502Y-108121498D01*
X175199448Y-107967167D01*
X174984900Y-107852489D01*
X174752101Y-107781870D01*
X174510000Y-107758025D01*
X174267898Y-107781870D01*
X174035099Y-107852489D01*
X173820551Y-107967167D01*
X173632498Y-108121498D01*
X173510000Y-108270763D01*
X173387502Y-108121498D01*
X173199448Y-107967167D01*
X172984900Y-107852489D01*
X172752101Y-107781870D01*
X172510000Y-107758025D01*
X172267898Y-107781870D01*
X172035099Y-107852489D01*
X171820551Y-107967167D01*
X171632498Y-108121498D01*
X171510000Y-108270763D01*
X171387502Y-108121498D01*
X171199448Y-107967167D01*
X170984900Y-107852489D01*
X170752101Y-107781870D01*
X170510000Y-107758025D01*
X170267898Y-107781870D01*
X170035099Y-107852489D01*
X169820551Y-107967167D01*
X169632498Y-108121498D01*
X169510000Y-108270763D01*
X169387502Y-108121498D01*
X169199448Y-107967167D01*
X168984900Y-107852489D01*
X168752101Y-107781870D01*
X168510000Y-107758025D01*
X168267898Y-107781870D01*
X168035099Y-107852489D01*
X167820551Y-107967167D01*
X167632498Y-108121498D01*
X167510000Y-108270763D01*
X167387502Y-108121498D01*
X167199448Y-107967167D01*
X166984900Y-107852489D01*
X166752101Y-107781870D01*
X166510000Y-107758025D01*
X166267898Y-107781870D01*
X166035099Y-107852489D01*
X165820551Y-107967167D01*
X165666691Y-108093436D01*
X165640537Y-108044506D01*
X165561185Y-107947815D01*
X165464494Y-107868463D01*
X165354180Y-107809498D01*
X165234482Y-107773188D01*
X165110000Y-107760928D01*
X164795750Y-107764000D01*
X164637000Y-107922750D01*
X164637000Y-109147000D01*
X164657000Y-109147000D01*
X164657000Y-109401000D01*
X164637000Y-109401000D01*
X164637000Y-110625250D01*
X164795750Y-110784000D01*
X165110000Y-110787072D01*
X165234482Y-110774812D01*
X165354180Y-110738502D01*
X165464494Y-110679537D01*
X165561185Y-110600185D01*
X165640537Y-110503494D01*
X165666692Y-110454563D01*
X165820552Y-110580833D01*
X166035100Y-110695511D01*
X166267899Y-110766130D01*
X166510000Y-110789975D01*
X166752102Y-110766130D01*
X166984901Y-110695511D01*
X167199449Y-110580833D01*
X167387502Y-110426502D01*
X167510001Y-110277237D01*
X167632499Y-110426502D01*
X167820552Y-110580833D01*
X168035100Y-110695511D01*
X168267899Y-110766130D01*
X168510000Y-110789975D01*
X168752102Y-110766130D01*
X168984901Y-110695511D01*
X169199449Y-110580833D01*
X169387502Y-110426502D01*
X169510001Y-110277237D01*
X169625000Y-110417365D01*
X169625001Y-118028420D01*
X165111494Y-122541928D01*
X163125000Y-122541928D01*
X163000518Y-122554188D01*
X162880820Y-122590498D01*
X162770506Y-122649463D01*
X162673815Y-122728815D01*
X162594463Y-122825506D01*
X162535498Y-122935820D01*
X162499188Y-123055518D01*
X162486928Y-123180000D01*
X160781504Y-123180000D01*
X160578491Y-122976987D01*
X160261566Y-122765225D01*
X159909419Y-122619361D01*
X159535581Y-122545000D01*
X159154419Y-122545000D01*
X158780581Y-122619361D01*
X158428434Y-122765225D01*
X158111509Y-122976987D01*
X157841987Y-123246509D01*
X157630225Y-123563434D01*
X157484361Y-123915581D01*
X157410000Y-124289419D01*
X156104831Y-124289419D01*
X156200000Y-124194250D01*
X156203072Y-123180000D01*
X156190812Y-123055518D01*
X156154502Y-122935820D01*
X156095537Y-122825506D01*
X156016185Y-122728815D01*
X155919494Y-122649463D01*
X155809180Y-122590498D01*
X155689482Y-122554188D01*
X155565000Y-122541928D01*
X154550750Y-122545000D01*
X154392000Y-122703750D01*
X154138000Y-122703750D01*
X153979250Y-122545000D01*
X152965000Y-122541928D01*
X152840518Y-122554188D01*
X152720820Y-122590498D01*
X152610506Y-122649463D01*
X152513815Y-122728815D01*
X152434463Y-122825506D01*
X152375498Y-122935820D01*
X152339188Y-123055518D01*
X152326928Y-123180000D01*
X140170000Y-123180000D01*
X140170000Y-110149000D01*
X163271928Y-110149000D01*
X163284188Y-110273482D01*
X163320498Y-110393180D01*
X163379463Y-110503494D01*
X163458815Y-110600185D01*
X163555506Y-110679537D01*
X163665820Y-110738502D01*
X163785518Y-110774812D01*
X163910000Y-110787072D01*
X164224250Y-110784000D01*
X164383000Y-110625250D01*
X164383000Y-109401000D01*
X163433750Y-109401000D01*
X163275000Y-109559750D01*
X163271928Y-110149000D01*
X140170000Y-110149000D01*
X140170000Y-107529872D01*
X142275000Y-107529872D01*
X142275000Y-107970128D01*
X142360890Y-108401925D01*
X142529369Y-108808669D01*
X142773962Y-109174729D01*
X143085271Y-109486038D01*
X143451331Y-109730631D01*
X143858075Y-109899110D01*
X144289872Y-109985000D01*
X144730128Y-109985000D01*
X145161925Y-109899110D01*
X145568669Y-109730631D01*
X145934729Y-109486038D01*
X146246038Y-109174729D01*
X146490631Y-108808669D01*
X146659110Y-108401925D01*
X146659691Y-108399000D01*
X163271928Y-108399000D01*
X163275000Y-108988250D01*
X163433750Y-109147000D01*
X164383000Y-109147000D01*
X164383000Y-107922750D01*
X164224250Y-107764000D01*
X163910000Y-107760928D01*
X163785518Y-107773188D01*
X163665820Y-107809498D01*
X163555506Y-107868463D01*
X163458815Y-107947815D01*
X163379463Y-108044506D01*
X163320498Y-108154820D01*
X163284188Y-108274518D01*
X163271928Y-108399000D01*
X146659691Y-108399000D01*
X146745000Y-107970128D01*
X146745000Y-107529872D01*
X192275000Y-107529872D01*
X192275000Y-107970128D01*
X192360890Y-108401925D01*
X192529369Y-108808669D01*
X192773962Y-109174729D01*
X193085271Y-109486038D01*
X193451331Y-109730631D01*
X193858075Y-109899110D01*
X194289872Y-109985000D01*
X194730128Y-109985000D01*
X195161925Y-109899110D01*
X195568669Y-109730631D01*
X195934729Y-109486038D01*
X196246038Y-109174729D01*
X196490631Y-108808669D01*
X196659110Y-108401925D01*
X196745000Y-107970128D01*
X196745000Y-107529872D01*
X196659110Y-107098075D01*
X196490631Y-106691331D01*
X196246038Y-106325271D01*
X195934729Y-106013962D01*
X195568669Y-105769369D01*
X195161925Y-105600890D01*
X194730128Y-105515000D01*
X194289872Y-105515000D01*
X193858075Y-105600890D01*
X193451331Y-105769369D01*
X193085271Y-106013962D01*
X192773962Y-106325271D01*
X192529369Y-106691331D01*
X192360890Y-107098075D01*
X192275000Y-107529872D01*
X146745000Y-107529872D01*
X146659110Y-107098075D01*
X146490631Y-106691331D01*
X146246038Y-106325271D01*
X145934729Y-106013962D01*
X145568669Y-105769369D01*
X145161925Y-105600890D01*
X144730128Y-105515000D01*
X144289872Y-105515000D01*
X143858075Y-105600890D01*
X143451331Y-105769369D01*
X143085271Y-106013962D01*
X142773962Y-106325271D01*
X142529369Y-106691331D01*
X142360890Y-107098075D01*
X142275000Y-107529872D01*
X140170000Y-107529872D01*
X140170000Y-104782279D01*
X140198625Y-104490341D01*
X140274035Y-104240571D01*
X140396522Y-104010208D01*
X140561422Y-103808020D01*
X140762450Y-103641714D01*
X140991954Y-103517622D01*
X141241195Y-103440469D01*
X141531088Y-103410000D01*
X154542419Y-103410000D01*
X154575387Y-103406753D01*
X154588367Y-103406753D01*
X154597532Y-103405790D01*
X154791481Y-103384035D01*
X154849966Y-103371603D01*
X154908676Y-103359978D01*
X154917479Y-103357253D01*
X155103509Y-103298240D01*
X155158519Y-103274662D01*
X155213794Y-103251880D01*
X155221900Y-103247497D01*
X155256929Y-103228239D01*
X155340795Y-103284277D01*
X155501855Y-103350990D01*
X155672835Y-103385000D01*
X155847165Y-103385000D01*
X156018145Y-103350990D01*
X156135000Y-103302587D01*
X156251855Y-103350990D01*
X156422835Y-103385000D01*
X156597165Y-103385000D01*
X156768145Y-103350990D01*
X156885000Y-103302587D01*
X157001855Y-103350990D01*
X157172835Y-103385000D01*
X157347165Y-103385000D01*
X157518145Y-103350990D01*
X157679205Y-103284277D01*
X157763677Y-103227834D01*
X157819080Y-103257292D01*
X157874392Y-103280090D01*
X157929366Y-103303652D01*
X157938169Y-103306377D01*
X158125006Y-103362786D01*
X158183686Y-103374405D01*
X158242196Y-103386842D01*
X158251361Y-103387805D01*
X158445594Y-103406850D01*
X158445598Y-103406850D01*
X158477581Y-103410000D01*
X180542419Y-103410000D01*
X180575387Y-103406753D01*
X180588367Y-103406753D01*
X180597532Y-103405790D01*
X180791481Y-103384035D01*
X180849966Y-103371603D01*
X180908676Y-103359978D01*
X180917479Y-103357253D01*
X181103509Y-103298240D01*
X181158519Y-103274662D01*
X181213794Y-103251880D01*
X181221900Y-103247497D01*
X181256929Y-103228239D01*
X181340795Y-103284277D01*
X181501855Y-103350990D01*
X181672835Y-103385000D01*
X181847165Y-103385000D01*
X182018145Y-103350990D01*
X182135000Y-103302587D01*
X182251855Y-103350990D01*
X182422835Y-103385000D01*
X182597165Y-103385000D01*
X182768145Y-103350990D01*
X182885000Y-103302587D01*
X183001855Y-103350990D01*
X183172835Y-103385000D01*
X183347165Y-103385000D01*
X183518145Y-103350990D01*
X183679205Y-103284277D01*
X183763677Y-103227834D01*
X183819080Y-103257292D01*
G37*
%TD.AperFunction*%
%TD*%
M02*
