M48
; DRILL file {KiCad (5.1.9)-1} date 05/22/21 23:47:21
; FORMAT={-:-/ absolute / inch / decimal}
; #@! TF.CreationDate,2021-05-22T23:47:21+02:00
; #@! TF.GenerationSoftware,Kicad,Pcbnew,(5.1.9)-1
; #@! TF.FileFunction,Plated,1,2,PTH
FMAT,2
INCH
T1C0.0157
T2C0.0197
T3C0.0295
T4C0.0315
T5C0.0394
T6C0.0433
T7C0.0512
%
G90
G05
T1
X4.6465Y-2.1752
X4.7465Y-2.1152
X4.7465Y-2.2352
X4.8225Y-2.513
X4.8225Y-2.953
X4.8465Y-2.1752
X4.9125Y-3.013
X4.915Y-2.71
X4.9325Y-2.553
X4.9325Y-2.853
X5.0625Y-3.113
X5.1053Y-3.026
X5.1125Y-3.573
X5.115Y-2.625
X5.115Y-2.95
X5.2725Y-3.573
X5.28Y-2.475
X5.28Y-2.71
X5.2925Y-2.993
X5.3325Y-3.213
X5.4125Y-3.173
X5.4925Y-2.773
X5.4925Y-3.213
X5.4929Y-2.5861
X5.5725Y-3.253
X5.6125Y-2.773
X5.6525Y-3.293
X5.6846Y-3.5209
X5.6925Y-2.793
X5.7325Y-3.333
X5.7725Y-3.733
X5.7925Y-3.333
X5.8525Y-3.333
X5.8525Y-3.493
X5.9028Y-3.3331
X6.0625Y-2.603
X6.0625Y-2.978
X6.1125Y-2.703
X6.1125Y-2.978
X6.2045Y-2.7579
X6.3324Y-3.4678
X6.3625Y-2.753
X6.3625Y-2.803
X6.3724Y-3.4678
X6.4616Y-3.4673
X6.5625Y-3.113
X6.6146Y-3.6446
X6.6425Y-3.033
X6.6736Y-4.373
X6.7978Y-3.113
X6.9098Y-3.4675
X7.028Y-4.3321
X7.1Y-2.62
X7.1829Y-2.5053
X7.2979Y-2.633
X7.3029Y-3.4152
X7.3129Y-3.3011
X7.32Y-3.72
X7.4029Y-3.8961
X7.4079Y-2.5011
X7.4297Y-2.6708
X7.4971Y-2.623
T2
X6.7017Y-3.2269
T3
X4.4869Y-2.4803
X4.4869Y-2.5591
X4.4869Y-2.6378
X4.4886Y-2.9134
X4.4886Y-2.9921
X4.8807Y-3.2137
X4.9307Y-3.2137
X4.9807Y-3.2137
X6.398Y-4.3021
X6.4768Y-4.3021
X6.4965Y-3.7037
X6.5555Y-4.3021
X6.5752Y-3.7037
X6.6343Y-4.3021
X6.6539Y-3.7037
X6.713Y-4.3021
X6.7327Y-3.7037
X6.7917Y-4.3021
X6.8114Y-3.7037
X6.8902Y-3.7037
X7.1461Y-3.7153
X7.1461Y-3.7653
X7.1461Y-3.8153
T4
X4.3565Y-2.1679
X4.4903Y-2.1679
T5
X4.4689Y-3.2137
X4.5689Y-3.2137
X4.6689Y-3.2137
X4.8875Y-3.5209
X4.8875Y-3.6209
X4.8875Y-3.7209
X4.8875Y-3.8209
X5.3429Y-3.393
X5.4429Y-3.393
X5.5429Y-3.393
X5.6429Y-3.393
X6.3579Y-2.4311
X6.4579Y-2.4311
X6.5579Y-2.4311
X6.6579Y-2.4311
X6.7579Y-2.4311
X6.8579Y-2.4311
X6.9579Y-2.4311
X7.0579Y-2.4311
X7.1579Y-2.4311
X7.2579Y-2.4311
X7.3579Y-2.4311
X7.4022Y-3.0214
X7.4579Y-2.4311
X7.5579Y-2.4311
X7.599Y-2.923
X7.599Y-3.1198
X7.6579Y-2.4311
T6
X6.2407Y-2.6272
X6.2407Y-2.8831
X6.4179Y-2.6272
X6.4179Y-2.8831
X6.5656Y-2.6272
X6.5656Y-2.8831
X6.7427Y-2.6272
X6.7427Y-2.8831
T7
X5.9947Y-4.9008
X6.1947Y-4.9008
X6.3947Y-4.9008
X6.5947Y-4.9008
X6.7947Y-4.9008
X6.9947Y-4.9008
X7.1947Y-4.9008
T0
M30
