%TF.GenerationSoftware,KiCad,Pcbnew,(5.1.10)-1*%
%TF.CreationDate,2021-06-06T00:54:17+02:00*%
%TF.ProjectId,LakeTemp,4c616b65-5465-46d7-902e-6b696361645f,2.0*%
%TF.SameCoordinates,Original*%
%TF.FileFunction,Legend,Top*%
%TF.FilePolarity,Positive*%
%FSLAX46Y46*%
G04 Gerber Fmt 4.6, Leading zero omitted, Abs format (unit mm)*
G04 Created by KiCad (PCBNEW (5.1.10)-1) date 2021-06-06 00:54:17*
%MOMM*%
%LPD*%
G01*
G04 APERTURE LIST*
%ADD10C,0.150000*%
%ADD11C,0.200000*%
%ADD12C,0.250000*%
%ADD13C,0.120000*%
%ADD14C,0.100000*%
G04 APERTURE END LIST*
D10*
X127698357Y-96504380D02*
X128317404Y-96504380D01*
X127984071Y-96885333D01*
X128126928Y-96885333D01*
X128222166Y-96932952D01*
X128269785Y-96980571D01*
X128317404Y-97075809D01*
X128317404Y-97313904D01*
X128269785Y-97409142D01*
X128222166Y-97456761D01*
X128126928Y-97504380D01*
X127841214Y-97504380D01*
X127745976Y-97456761D01*
X127698357Y-97409142D01*
X128745976Y-97409142D02*
X128793595Y-97456761D01*
X128745976Y-97504380D01*
X128698357Y-97456761D01*
X128745976Y-97409142D01*
X128745976Y-97504380D01*
X129126928Y-96504380D02*
X129745976Y-96504380D01*
X129412642Y-96885333D01*
X129555500Y-96885333D01*
X129650738Y-96932952D01*
X129698357Y-96980571D01*
X129745976Y-97075809D01*
X129745976Y-97313904D01*
X129698357Y-97409142D01*
X129650738Y-97456761D01*
X129555500Y-97504380D01*
X129269785Y-97504380D01*
X129174547Y-97456761D01*
X129126928Y-97409142D01*
X130031690Y-96504380D02*
X130365023Y-97504380D01*
X130698357Y-96504380D01*
X128317404Y-94012000D02*
X128222166Y-93964380D01*
X128079309Y-93964380D01*
X127936452Y-94012000D01*
X127841214Y-94107238D01*
X127793595Y-94202476D01*
X127745976Y-94392952D01*
X127745976Y-94535809D01*
X127793595Y-94726285D01*
X127841214Y-94821523D01*
X127936452Y-94916761D01*
X128079309Y-94964380D01*
X128174547Y-94964380D01*
X128317404Y-94916761D01*
X128365023Y-94869142D01*
X128365023Y-94535809D01*
X128174547Y-94535809D01*
X128793595Y-94964380D02*
X128793595Y-93964380D01*
X129365023Y-94964380D01*
X129365023Y-93964380D01*
X129841214Y-94964380D02*
X129841214Y-93964380D01*
X130079309Y-93964380D01*
X130222166Y-94012000D01*
X130317404Y-94107238D01*
X130365023Y-94202476D01*
X130412642Y-94392952D01*
X130412642Y-94535809D01*
X130365023Y-94726285D01*
X130317404Y-94821523D01*
X130222166Y-94916761D01*
X130079309Y-94964380D01*
X129841214Y-94964380D01*
X127745976Y-92256761D02*
X127888833Y-92304380D01*
X128126928Y-92304380D01*
X128222166Y-92256761D01*
X128269785Y-92209142D01*
X128317404Y-92113904D01*
X128317404Y-92018666D01*
X128269785Y-91923428D01*
X128222166Y-91875809D01*
X128126928Y-91828190D01*
X127936452Y-91780571D01*
X127841214Y-91732952D01*
X127793595Y-91685333D01*
X127745976Y-91590095D01*
X127745976Y-91494857D01*
X127793595Y-91399619D01*
X127841214Y-91352000D01*
X127936452Y-91304380D01*
X128174547Y-91304380D01*
X128317404Y-91352000D01*
X128745976Y-92304380D02*
X128745976Y-91304380D01*
X128984071Y-91304380D01*
X129126928Y-91352000D01*
X129222166Y-91447238D01*
X129269785Y-91542476D01*
X129317404Y-91732952D01*
X129317404Y-91875809D01*
X129269785Y-92066285D01*
X129222166Y-92161523D01*
X129126928Y-92256761D01*
X128984071Y-92304380D01*
X128745976Y-92304380D01*
X129698357Y-92018666D02*
X130174547Y-92018666D01*
X129603119Y-92304380D02*
X129936452Y-91304380D01*
X130269785Y-92304380D01*
X127745976Y-89836761D02*
X127888833Y-89884380D01*
X128126928Y-89884380D01*
X128222166Y-89836761D01*
X128269785Y-89789142D01*
X128317404Y-89693904D01*
X128317404Y-89598666D01*
X128269785Y-89503428D01*
X128222166Y-89455809D01*
X128126928Y-89408190D01*
X127936452Y-89360571D01*
X127841214Y-89312952D01*
X127793595Y-89265333D01*
X127745976Y-89170095D01*
X127745976Y-89074857D01*
X127793595Y-88979619D01*
X127841214Y-88932000D01*
X127936452Y-88884380D01*
X128174547Y-88884380D01*
X128317404Y-88932000D01*
X128745976Y-89884380D02*
X128745976Y-88884380D01*
X128984071Y-88884380D01*
X129126928Y-88932000D01*
X129222166Y-89027238D01*
X129269785Y-89122476D01*
X129317404Y-89312952D01*
X129317404Y-89455809D01*
X129269785Y-89646285D01*
X129222166Y-89741523D01*
X129126928Y-89836761D01*
X128984071Y-89884380D01*
X128745976Y-89884380D01*
X129698357Y-89598666D02*
X130174547Y-89598666D01*
X129603119Y-89884380D02*
X129936452Y-88884380D01*
X130269785Y-89884380D01*
X179205380Y-97750238D02*
X178205380Y-97750238D01*
X178205380Y-97512142D01*
X178253000Y-97369285D01*
X178348238Y-97274047D01*
X178443476Y-97226428D01*
X178633952Y-97178809D01*
X178776809Y-97178809D01*
X178967285Y-97226428D01*
X179062523Y-97274047D01*
X179157761Y-97369285D01*
X179205380Y-97512142D01*
X179205380Y-97750238D01*
X179157761Y-96797857D02*
X179205380Y-96655000D01*
X179205380Y-96416904D01*
X179157761Y-96321666D01*
X179110142Y-96274047D01*
X179014904Y-96226428D01*
X178919666Y-96226428D01*
X178824428Y-96274047D01*
X178776809Y-96321666D01*
X178729190Y-96416904D01*
X178681571Y-96607380D01*
X178633952Y-96702619D01*
X178586333Y-96750238D01*
X178491095Y-96797857D01*
X178395857Y-96797857D01*
X178300619Y-96750238D01*
X178253000Y-96702619D01*
X178205380Y-96607380D01*
X178205380Y-96369285D01*
X178253000Y-96226428D01*
X179205380Y-95274047D02*
X179205380Y-95845476D01*
X179205380Y-95559761D02*
X178205380Y-95559761D01*
X178348238Y-95655000D01*
X178443476Y-95750238D01*
X178491095Y-95845476D01*
X178633952Y-94702619D02*
X178586333Y-94797857D01*
X178538714Y-94845476D01*
X178443476Y-94893095D01*
X178395857Y-94893095D01*
X178300619Y-94845476D01*
X178253000Y-94797857D01*
X178205380Y-94702619D01*
X178205380Y-94512142D01*
X178253000Y-94416904D01*
X178300619Y-94369285D01*
X178395857Y-94321666D01*
X178443476Y-94321666D01*
X178538714Y-94369285D01*
X178586333Y-94416904D01*
X178633952Y-94512142D01*
X178633952Y-94702619D01*
X178681571Y-94797857D01*
X178729190Y-94845476D01*
X178824428Y-94893095D01*
X179014904Y-94893095D01*
X179110142Y-94845476D01*
X179157761Y-94797857D01*
X179205380Y-94702619D01*
X179205380Y-94512142D01*
X179157761Y-94416904D01*
X179110142Y-94369285D01*
X179014904Y-94321666D01*
X178824428Y-94321666D01*
X178729190Y-94369285D01*
X178681571Y-94416904D01*
X178633952Y-94512142D01*
X179205380Y-93988333D02*
X178538714Y-93464523D01*
X178538714Y-93988333D02*
X179205380Y-93464523D01*
X113090952Y-85578571D02*
X112757619Y-85578571D01*
X112757619Y-86102380D02*
X112757619Y-85102380D01*
X113233809Y-85102380D01*
X113614761Y-86102380D02*
X113614761Y-85102380D01*
X113995714Y-85102380D02*
X114662380Y-86102380D01*
X114662380Y-85102380D02*
X113995714Y-86102380D01*
X116043333Y-86435714D02*
X116043333Y-85007142D01*
X117471904Y-85816666D02*
X117948095Y-85816666D01*
X117376666Y-86102380D02*
X117710000Y-85102380D01*
X118043333Y-86102380D01*
X118376666Y-86102380D02*
X118376666Y-85102380D01*
X118614761Y-85102380D01*
X118757619Y-85150000D01*
X118852857Y-85245238D01*
X118900476Y-85340476D01*
X118948095Y-85530952D01*
X118948095Y-85673809D01*
X118900476Y-85864285D01*
X118852857Y-85959523D01*
X118757619Y-86054761D01*
X118614761Y-86102380D01*
X118376666Y-86102380D01*
X119662380Y-85102380D02*
X119662380Y-85816666D01*
X119614761Y-85959523D01*
X119519523Y-86054761D01*
X119376666Y-86102380D01*
X119281428Y-86102380D01*
X188945238Y-81713142D02*
X188897619Y-81760761D01*
X188754761Y-81808380D01*
X188659523Y-81808380D01*
X188516666Y-81760761D01*
X188421428Y-81665523D01*
X188373809Y-81570285D01*
X188326190Y-81379809D01*
X188326190Y-81236952D01*
X188373809Y-81046476D01*
X188421428Y-80951238D01*
X188516666Y-80856000D01*
X188659523Y-80808380D01*
X188754761Y-80808380D01*
X188897619Y-80856000D01*
X188945238Y-80903619D01*
X189564285Y-80808380D02*
X189754761Y-80808380D01*
X189850000Y-80856000D01*
X189945238Y-80951238D01*
X189992857Y-81141714D01*
X189992857Y-81475047D01*
X189945238Y-81665523D01*
X189850000Y-81760761D01*
X189754761Y-81808380D01*
X189564285Y-81808380D01*
X189469047Y-81760761D01*
X189373809Y-81665523D01*
X189326190Y-81475047D01*
X189326190Y-81141714D01*
X189373809Y-80951238D01*
X189469047Y-80856000D01*
X189564285Y-80808380D01*
X190421428Y-81808380D02*
X190421428Y-80808380D01*
X190992857Y-81808380D01*
X190992857Y-80808380D01*
X191326190Y-80808380D02*
X191897619Y-80808380D01*
X191611904Y-81808380D02*
X191611904Y-80808380D01*
X192802380Y-81808380D02*
X192469047Y-81332190D01*
X192230952Y-81808380D02*
X192230952Y-80808380D01*
X192611904Y-80808380D01*
X192707142Y-80856000D01*
X192754761Y-80903619D01*
X192802380Y-80998857D01*
X192802380Y-81141714D01*
X192754761Y-81236952D01*
X192707142Y-81284571D01*
X192611904Y-81332190D01*
X192230952Y-81332190D01*
X193183333Y-81522666D02*
X193659523Y-81522666D01*
X193088095Y-81808380D02*
X193421428Y-80808380D01*
X193754761Y-81808380D01*
X194040476Y-81760761D02*
X194183333Y-81808380D01*
X194421428Y-81808380D01*
X194516666Y-81760761D01*
X194564285Y-81713142D01*
X194611904Y-81617904D01*
X194611904Y-81522666D01*
X194564285Y-81427428D01*
X194516666Y-81379809D01*
X194421428Y-81332190D01*
X194230952Y-81284571D01*
X194135714Y-81236952D01*
X194088095Y-81189333D01*
X194040476Y-81094095D01*
X194040476Y-80998857D01*
X194088095Y-80903619D01*
X194135714Y-80856000D01*
X194230952Y-80808380D01*
X194469047Y-80808380D01*
X194611904Y-80856000D01*
X194897619Y-80808380D02*
X195469047Y-80808380D01*
X195183333Y-81808380D02*
X195183333Y-80808380D01*
D11*
X149326667Y-81502380D02*
X149326667Y-80502380D01*
X149660000Y-81216666D01*
X149993333Y-80502380D01*
X149993333Y-81502380D01*
X150898095Y-81502380D02*
X150898095Y-80978571D01*
X150850476Y-80883333D01*
X150755238Y-80835714D01*
X150564762Y-80835714D01*
X150469524Y-80883333D01*
X150898095Y-81454761D02*
X150802857Y-81502380D01*
X150564762Y-81502380D01*
X150469524Y-81454761D01*
X150421905Y-81359523D01*
X150421905Y-81264285D01*
X150469524Y-81169047D01*
X150564762Y-81121428D01*
X150802857Y-81121428D01*
X150898095Y-81073809D01*
X151374286Y-81502380D02*
X151374286Y-80835714D01*
X151374286Y-80502380D02*
X151326667Y-80550000D01*
X151374286Y-80597619D01*
X151421905Y-80550000D01*
X151374286Y-80502380D01*
X151374286Y-80597619D01*
X151850476Y-80835714D02*
X151850476Y-81502380D01*
X151850476Y-80930952D02*
X151898095Y-80883333D01*
X151993333Y-80835714D01*
X152136190Y-80835714D01*
X152231429Y-80883333D01*
X152279048Y-80978571D01*
X152279048Y-81502380D01*
X153517143Y-81502380D02*
X153517143Y-80502380D01*
X153898095Y-80502380D01*
X153993333Y-80550000D01*
X154040952Y-80597619D01*
X154088571Y-80692857D01*
X154088571Y-80835714D01*
X154040952Y-80930952D01*
X153993333Y-80978571D01*
X153898095Y-81026190D01*
X153517143Y-81026190D01*
X155088571Y-81407142D02*
X155040952Y-81454761D01*
X154898095Y-81502380D01*
X154802857Y-81502380D01*
X154660000Y-81454761D01*
X154564762Y-81359523D01*
X154517143Y-81264285D01*
X154469524Y-81073809D01*
X154469524Y-80930952D01*
X154517143Y-80740476D01*
X154564762Y-80645238D01*
X154660000Y-80550000D01*
X154802857Y-80502380D01*
X154898095Y-80502380D01*
X155040952Y-80550000D01*
X155088571Y-80597619D01*
X155850476Y-80978571D02*
X155993333Y-81026190D01*
X156040952Y-81073809D01*
X156088571Y-81169047D01*
X156088571Y-81311904D01*
X156040952Y-81407142D01*
X155993333Y-81454761D01*
X155898095Y-81502380D01*
X155517143Y-81502380D01*
X155517143Y-80502380D01*
X155850476Y-80502380D01*
X155945714Y-80550000D01*
X155993333Y-80597619D01*
X156040952Y-80692857D01*
X156040952Y-80788095D01*
X155993333Y-80883333D01*
X155945714Y-80930952D01*
X155850476Y-80978571D01*
X155517143Y-80978571D01*
D10*
X149898095Y-83102380D02*
X149564762Y-82626190D01*
X149326666Y-83102380D02*
X149326666Y-82102380D01*
X149707619Y-82102380D01*
X149802857Y-82150000D01*
X149850476Y-82197619D01*
X149898095Y-82292857D01*
X149898095Y-82435714D01*
X149850476Y-82530952D01*
X149802857Y-82578571D01*
X149707619Y-82626190D01*
X149326666Y-82626190D01*
X150326666Y-82578571D02*
X150660000Y-82578571D01*
X150802857Y-83102380D02*
X150326666Y-83102380D01*
X150326666Y-82102380D01*
X150802857Y-82102380D01*
X151088571Y-82102380D02*
X151421904Y-83102380D01*
X151755238Y-82102380D01*
X152802857Y-82197619D02*
X152850476Y-82150000D01*
X152945714Y-82102380D01*
X153183809Y-82102380D01*
X153279047Y-82150000D01*
X153326666Y-82197619D01*
X153374285Y-82292857D01*
X153374285Y-82388095D01*
X153326666Y-82530952D01*
X152755238Y-83102380D01*
X153374285Y-83102380D01*
X153802857Y-83007142D02*
X153850476Y-83054761D01*
X153802857Y-83102380D01*
X153755238Y-83054761D01*
X153802857Y-83007142D01*
X153802857Y-83102380D01*
X154469523Y-82102380D02*
X154564762Y-82102380D01*
X154660000Y-82150000D01*
X154707619Y-82197619D01*
X154755238Y-82292857D01*
X154802857Y-82483333D01*
X154802857Y-82721428D01*
X154755238Y-82911904D01*
X154707619Y-83007142D01*
X154660000Y-83054761D01*
X154564762Y-83102380D01*
X154469523Y-83102380D01*
X154374285Y-83054761D01*
X154326666Y-83007142D01*
X154279047Y-82911904D01*
X154231428Y-82721428D01*
X154231428Y-82483333D01*
X154279047Y-82292857D01*
X154326666Y-82197619D01*
X154374285Y-82150000D01*
X154469523Y-82102380D01*
X157469523Y-82197619D02*
X157517142Y-82150000D01*
X157612381Y-82102380D01*
X157850476Y-82102380D01*
X157945714Y-82150000D01*
X157993333Y-82197619D01*
X158040952Y-82292857D01*
X158040952Y-82388095D01*
X157993333Y-82530952D01*
X157421904Y-83102380D01*
X158040952Y-83102380D01*
X158660000Y-82102380D02*
X158755238Y-82102380D01*
X158850476Y-82150000D01*
X158898095Y-82197619D01*
X158945714Y-82292857D01*
X158993333Y-82483333D01*
X158993333Y-82721428D01*
X158945714Y-82911904D01*
X158898095Y-83007142D01*
X158850476Y-83054761D01*
X158755238Y-83102380D01*
X158660000Y-83102380D01*
X158564762Y-83054761D01*
X158517142Y-83007142D01*
X158469523Y-82911904D01*
X158421904Y-82721428D01*
X158421904Y-82483333D01*
X158469523Y-82292857D01*
X158517142Y-82197619D01*
X158564762Y-82150000D01*
X158660000Y-82102380D01*
X159374285Y-82197619D02*
X159421904Y-82150000D01*
X159517142Y-82102380D01*
X159755238Y-82102380D01*
X159850476Y-82150000D01*
X159898095Y-82197619D01*
X159945714Y-82292857D01*
X159945714Y-82388095D01*
X159898095Y-82530952D01*
X159326666Y-83102380D01*
X159945714Y-83102380D01*
X160898095Y-83102380D02*
X160326666Y-83102380D01*
X160612381Y-83102380D02*
X160612381Y-82102380D01*
X160517142Y-82245238D01*
X160421904Y-82340476D01*
X160326666Y-82388095D01*
X162040952Y-82054761D02*
X161183809Y-83340476D01*
X162564762Y-82102380D02*
X162660000Y-82102380D01*
X162755238Y-82150000D01*
X162802857Y-82197619D01*
X162850476Y-82292857D01*
X162898095Y-82483333D01*
X162898095Y-82721428D01*
X162850476Y-82911904D01*
X162802857Y-83007142D01*
X162755238Y-83054761D01*
X162660000Y-83102380D01*
X162564762Y-83102380D01*
X162469523Y-83054761D01*
X162421904Y-83007142D01*
X162374285Y-82911904D01*
X162326666Y-82721428D01*
X162326666Y-82483333D01*
X162374285Y-82292857D01*
X162421904Y-82197619D01*
X162469523Y-82150000D01*
X162564762Y-82102380D01*
X163755238Y-82102380D02*
X163564762Y-82102380D01*
X163469523Y-82150000D01*
X163421904Y-82197619D01*
X163326666Y-82340476D01*
X163279047Y-82530952D01*
X163279047Y-82911904D01*
X163326666Y-83007142D01*
X163374285Y-83054761D01*
X163469523Y-83102380D01*
X163660000Y-83102380D01*
X163755238Y-83054761D01*
X163802857Y-83007142D01*
X163850476Y-82911904D01*
X163850476Y-82673809D01*
X163802857Y-82578571D01*
X163755238Y-82530952D01*
X163660000Y-82483333D01*
X163469523Y-82483333D01*
X163374285Y-82530952D01*
X163326666Y-82578571D01*
X163279047Y-82673809D01*
D12*
X150110000Y-79928571D02*
X149395714Y-79928571D01*
X149395714Y-78428571D01*
X151252857Y-79928571D02*
X151252857Y-79142857D01*
X151181428Y-79000000D01*
X151038571Y-78928571D01*
X150752857Y-78928571D01*
X150610000Y-79000000D01*
X151252857Y-79857142D02*
X151110000Y-79928571D01*
X150752857Y-79928571D01*
X150610000Y-79857142D01*
X150538571Y-79714285D01*
X150538571Y-79571428D01*
X150610000Y-79428571D01*
X150752857Y-79357142D01*
X151110000Y-79357142D01*
X151252857Y-79285714D01*
X151967142Y-79928571D02*
X151967142Y-78428571D01*
X152110000Y-79357142D02*
X152538571Y-79928571D01*
X152538571Y-78928571D02*
X151967142Y-79500000D01*
X153752857Y-79857142D02*
X153610000Y-79928571D01*
X153324285Y-79928571D01*
X153181428Y-79857142D01*
X153110000Y-79714285D01*
X153110000Y-79142857D01*
X153181428Y-79000000D01*
X153324285Y-78928571D01*
X153610000Y-78928571D01*
X153752857Y-79000000D01*
X153824285Y-79142857D01*
X153824285Y-79285714D01*
X153110000Y-79428571D01*
X154252857Y-78428571D02*
X155110000Y-78428571D01*
X154681428Y-79928571D02*
X154681428Y-78428571D01*
X156181428Y-79857142D02*
X156038571Y-79928571D01*
X155752857Y-79928571D01*
X155610000Y-79857142D01*
X155538571Y-79714285D01*
X155538571Y-79142857D01*
X155610000Y-79000000D01*
X155752857Y-78928571D01*
X156038571Y-78928571D01*
X156181428Y-79000000D01*
X156252857Y-79142857D01*
X156252857Y-79285714D01*
X155538571Y-79428571D01*
X156895714Y-79928571D02*
X156895714Y-78928571D01*
X156895714Y-79071428D02*
X156967142Y-79000000D01*
X157110000Y-78928571D01*
X157324285Y-78928571D01*
X157467142Y-79000000D01*
X157538571Y-79142857D01*
X157538571Y-79928571D01*
X157538571Y-79142857D02*
X157610000Y-79000000D01*
X157752857Y-78928571D01*
X157967142Y-78928571D01*
X158110000Y-79000000D01*
X158181428Y-79142857D01*
X158181428Y-79928571D01*
X158895714Y-78928571D02*
X158895714Y-80428571D01*
X158895714Y-79000000D02*
X159038571Y-78928571D01*
X159324285Y-78928571D01*
X159467142Y-79000000D01*
X159538571Y-79071428D01*
X159610000Y-79214285D01*
X159610000Y-79642857D01*
X159538571Y-79785714D01*
X159467142Y-79857142D01*
X159324285Y-79928571D01*
X159038571Y-79928571D01*
X158895714Y-79857142D01*
X160252857Y-79142857D02*
X160752857Y-79142857D01*
X160967142Y-79928571D02*
X160252857Y-79928571D01*
X160252857Y-78428571D01*
X160967142Y-78428571D01*
X161538571Y-79857142D02*
X161752857Y-79928571D01*
X162110000Y-79928571D01*
X162252857Y-79857142D01*
X162324285Y-79785714D01*
X162395714Y-79642857D01*
X162395714Y-79500000D01*
X162324285Y-79357142D01*
X162252857Y-79285714D01*
X162110000Y-79214285D01*
X161824285Y-79142857D01*
X161681428Y-79071428D01*
X161610000Y-79000000D01*
X161538571Y-78857142D01*
X161538571Y-78714285D01*
X161610000Y-78571428D01*
X161681428Y-78500000D01*
X161824285Y-78428571D01*
X162181428Y-78428571D01*
X162395714Y-78500000D01*
X163038571Y-79928571D02*
X163038571Y-78428571D01*
X163610000Y-78428571D01*
X163752857Y-78500000D01*
X163824285Y-78571428D01*
X163895714Y-78714285D01*
X163895714Y-78928571D01*
X163824285Y-79071428D01*
X163752857Y-79142857D01*
X163610000Y-79214285D01*
X163038571Y-79214285D01*
D10*
X147162380Y-124035714D02*
X146686190Y-124369047D01*
X147162380Y-124607142D02*
X146162380Y-124607142D01*
X146162380Y-124226190D01*
X146210000Y-124130952D01*
X146257619Y-124083333D01*
X146352857Y-124035714D01*
X146495714Y-124035714D01*
X146590952Y-124083333D01*
X146638571Y-124130952D01*
X146686190Y-124226190D01*
X146686190Y-124607142D01*
X146638571Y-123607142D02*
X146638571Y-123273809D01*
X147162380Y-123130952D02*
X147162380Y-123607142D01*
X146162380Y-123607142D01*
X146162380Y-123130952D01*
X146162380Y-122845238D02*
X147162380Y-122511904D01*
X146162380Y-122178571D01*
X146257619Y-121130952D02*
X146210000Y-121083333D01*
X146162380Y-120988095D01*
X146162380Y-120750000D01*
X146210000Y-120654761D01*
X146257619Y-120607142D01*
X146352857Y-120559523D01*
X146448095Y-120559523D01*
X146590952Y-120607142D01*
X147162380Y-121178571D01*
X147162380Y-120559523D01*
X147067142Y-120130952D02*
X147114761Y-120083333D01*
X147162380Y-120130952D01*
X147114761Y-120178571D01*
X147067142Y-120130952D01*
X147162380Y-120130952D01*
X146162380Y-119464285D02*
X146162380Y-119369047D01*
X146210000Y-119273809D01*
X146257619Y-119226190D01*
X146352857Y-119178571D01*
X146543333Y-119130952D01*
X146781428Y-119130952D01*
X146971904Y-119178571D01*
X147067142Y-119226190D01*
X147114761Y-119273809D01*
X147162380Y-119369047D01*
X147162380Y-119464285D01*
X147114761Y-119559523D01*
X147067142Y-119607142D01*
X146971904Y-119654761D01*
X146781428Y-119702380D01*
X146543333Y-119702380D01*
X146352857Y-119654761D01*
X146257619Y-119607142D01*
X146210000Y-119559523D01*
X146162380Y-119464285D01*
X146257619Y-117226190D02*
X146210000Y-117178571D01*
X146162380Y-117083333D01*
X146162380Y-116845238D01*
X146210000Y-116750000D01*
X146257619Y-116702380D01*
X146352857Y-116654761D01*
X146448095Y-116654761D01*
X146590952Y-116702380D01*
X147162380Y-117273809D01*
X147162380Y-116654761D01*
X146162380Y-116035714D02*
X146162380Y-115940476D01*
X146210000Y-115845238D01*
X146257619Y-115797619D01*
X146352857Y-115750000D01*
X146543333Y-115702380D01*
X146781428Y-115702380D01*
X146971904Y-115750000D01*
X147067142Y-115797619D01*
X147114761Y-115845238D01*
X147162380Y-115940476D01*
X147162380Y-116035714D01*
X147114761Y-116130952D01*
X147067142Y-116178571D01*
X146971904Y-116226190D01*
X146781428Y-116273809D01*
X146543333Y-116273809D01*
X146352857Y-116226190D01*
X146257619Y-116178571D01*
X146210000Y-116130952D01*
X146162380Y-116035714D01*
X146257619Y-115321428D02*
X146210000Y-115273809D01*
X146162380Y-115178571D01*
X146162380Y-114940476D01*
X146210000Y-114845238D01*
X146257619Y-114797619D01*
X146352857Y-114750000D01*
X146448095Y-114750000D01*
X146590952Y-114797619D01*
X147162380Y-115369047D01*
X147162380Y-114750000D01*
X147162380Y-113797619D02*
X147162380Y-114369047D01*
X147162380Y-114083333D02*
X146162380Y-114083333D01*
X146305238Y-114178571D01*
X146400476Y-114273809D01*
X146448095Y-114369047D01*
X146114761Y-112654761D02*
X147400476Y-113511904D01*
X146162380Y-112130952D02*
X146162380Y-112035714D01*
X146210000Y-111940476D01*
X146257619Y-111892857D01*
X146352857Y-111845238D01*
X146543333Y-111797619D01*
X146781428Y-111797619D01*
X146971904Y-111845238D01*
X147067142Y-111892857D01*
X147114761Y-111940476D01*
X147162380Y-112035714D01*
X147162380Y-112130952D01*
X147114761Y-112226190D01*
X147067142Y-112273809D01*
X146971904Y-112321428D01*
X146781428Y-112369047D01*
X146543333Y-112369047D01*
X146352857Y-112321428D01*
X146257619Y-112273809D01*
X146210000Y-112226190D01*
X146162380Y-112130952D01*
X146162380Y-110940476D02*
X146162380Y-111130952D01*
X146210000Y-111226190D01*
X146257619Y-111273809D01*
X146400476Y-111369047D01*
X146590952Y-111416666D01*
X146971904Y-111416666D01*
X147067142Y-111369047D01*
X147114761Y-111321428D01*
X147162380Y-111226190D01*
X147162380Y-111035714D01*
X147114761Y-110940476D01*
X147067142Y-110892857D01*
X146971904Y-110845238D01*
X146733809Y-110845238D01*
X146638571Y-110892857D01*
X146590952Y-110940476D01*
X146543333Y-111035714D01*
X146543333Y-111226190D01*
X146590952Y-111321428D01*
X146638571Y-111369047D01*
X146733809Y-111416666D01*
D11*
X145067142Y-122583333D02*
X145114761Y-122630952D01*
X145162380Y-122773809D01*
X145162380Y-122869047D01*
X145114761Y-123011904D01*
X145019523Y-123107142D01*
X144924285Y-123154761D01*
X144733809Y-123202380D01*
X144590952Y-123202380D01*
X144400476Y-123154761D01*
X144305238Y-123107142D01*
X144210000Y-123011904D01*
X144162380Y-122869047D01*
X144162380Y-122773809D01*
X144210000Y-122630952D01*
X144257619Y-122583333D01*
X145162380Y-122011904D02*
X145114761Y-122107142D01*
X145067142Y-122154761D01*
X144971904Y-122202380D01*
X144686190Y-122202380D01*
X144590952Y-122154761D01*
X144543333Y-122107142D01*
X144495714Y-122011904D01*
X144495714Y-121869047D01*
X144543333Y-121773809D01*
X144590952Y-121726190D01*
X144686190Y-121678571D01*
X144971904Y-121678571D01*
X145067142Y-121726190D01*
X145114761Y-121773809D01*
X145162380Y-121869047D01*
X145162380Y-122011904D01*
X144495714Y-121250000D02*
X145162380Y-121250000D01*
X144590952Y-121250000D02*
X144543333Y-121202380D01*
X144495714Y-121107142D01*
X144495714Y-120964285D01*
X144543333Y-120869047D01*
X144638571Y-120821428D01*
X145162380Y-120821428D01*
X144495714Y-120345238D02*
X145162380Y-120345238D01*
X144590952Y-120345238D02*
X144543333Y-120297619D01*
X144495714Y-120202380D01*
X144495714Y-120059523D01*
X144543333Y-119964285D01*
X144638571Y-119916666D01*
X145162380Y-119916666D01*
X145114761Y-119059523D02*
X145162380Y-119154761D01*
X145162380Y-119345238D01*
X145114761Y-119440476D01*
X145019523Y-119488095D01*
X144638571Y-119488095D01*
X144543333Y-119440476D01*
X144495714Y-119345238D01*
X144495714Y-119154761D01*
X144543333Y-119059523D01*
X144638571Y-119011904D01*
X144733809Y-119011904D01*
X144829047Y-119488095D01*
X145114761Y-118154761D02*
X145162380Y-118250000D01*
X145162380Y-118440476D01*
X145114761Y-118535714D01*
X145067142Y-118583333D01*
X144971904Y-118630952D01*
X144686190Y-118630952D01*
X144590952Y-118583333D01*
X144543333Y-118535714D01*
X144495714Y-118440476D01*
X144495714Y-118250000D01*
X144543333Y-118154761D01*
X144495714Y-117869047D02*
X144495714Y-117488095D01*
X144162380Y-117726190D02*
X145019523Y-117726190D01*
X145114761Y-117678571D01*
X145162380Y-117583333D01*
X145162380Y-117488095D01*
X145162380Y-117011904D02*
X145114761Y-117107142D01*
X145067142Y-117154761D01*
X144971904Y-117202380D01*
X144686190Y-117202380D01*
X144590952Y-117154761D01*
X144543333Y-117107142D01*
X144495714Y-117011904D01*
X144495714Y-116869047D01*
X144543333Y-116773809D01*
X144590952Y-116726190D01*
X144686190Y-116678571D01*
X144971904Y-116678571D01*
X145067142Y-116726190D01*
X145114761Y-116773809D01*
X145162380Y-116869047D01*
X145162380Y-117011904D01*
X145162380Y-116250000D02*
X144495714Y-116250000D01*
X144686190Y-116250000D02*
X144590952Y-116202380D01*
X144543333Y-116154761D01*
X144495714Y-116059523D01*
X144495714Y-115964285D01*
X145162380Y-114869047D02*
X144162380Y-114869047D01*
X144162380Y-114488095D01*
X144210000Y-114392857D01*
X144257619Y-114345238D01*
X144352857Y-114297619D01*
X144495714Y-114297619D01*
X144590952Y-114345238D01*
X144638571Y-114392857D01*
X144686190Y-114488095D01*
X144686190Y-114869047D01*
X145067142Y-113297619D02*
X145114761Y-113345238D01*
X145162380Y-113488095D01*
X145162380Y-113583333D01*
X145114761Y-113726190D01*
X145019523Y-113821428D01*
X144924285Y-113869047D01*
X144733809Y-113916666D01*
X144590952Y-113916666D01*
X144400476Y-113869047D01*
X144305238Y-113821428D01*
X144210000Y-113726190D01*
X144162380Y-113583333D01*
X144162380Y-113488095D01*
X144210000Y-113345238D01*
X144257619Y-113297619D01*
X144638571Y-112535714D02*
X144686190Y-112392857D01*
X144733809Y-112345238D01*
X144829047Y-112297619D01*
X144971904Y-112297619D01*
X145067142Y-112345238D01*
X145114761Y-112392857D01*
X145162380Y-112488095D01*
X145162380Y-112869047D01*
X144162380Y-112869047D01*
X144162380Y-112535714D01*
X144210000Y-112440476D01*
X144257619Y-112392857D01*
X144352857Y-112345238D01*
X144448095Y-112345238D01*
X144543333Y-112392857D01*
X144590952Y-112440476D01*
X144638571Y-112535714D01*
X144638571Y-112869047D01*
D12*
X142788571Y-124050000D02*
X142788571Y-124764285D01*
X141288571Y-124764285D01*
X142788571Y-122907142D02*
X142002857Y-122907142D01*
X141860000Y-122978571D01*
X141788571Y-123121428D01*
X141788571Y-123407142D01*
X141860000Y-123550000D01*
X142717142Y-122907142D02*
X142788571Y-123050000D01*
X142788571Y-123407142D01*
X142717142Y-123550000D01*
X142574285Y-123621428D01*
X142431428Y-123621428D01*
X142288571Y-123550000D01*
X142217142Y-123407142D01*
X142217142Y-123050000D01*
X142145714Y-122907142D01*
X142788571Y-122192857D02*
X141288571Y-122192857D01*
X142217142Y-122050000D02*
X142788571Y-121621428D01*
X141788571Y-121621428D02*
X142360000Y-122192857D01*
X142717142Y-120407142D02*
X142788571Y-120550000D01*
X142788571Y-120835714D01*
X142717142Y-120978571D01*
X142574285Y-121050000D01*
X142002857Y-121050000D01*
X141860000Y-120978571D01*
X141788571Y-120835714D01*
X141788571Y-120550000D01*
X141860000Y-120407142D01*
X142002857Y-120335714D01*
X142145714Y-120335714D01*
X142288571Y-121050000D01*
X141288571Y-119907142D02*
X141288571Y-119050000D01*
X142788571Y-119478571D02*
X141288571Y-119478571D01*
X142717142Y-117978571D02*
X142788571Y-118121428D01*
X142788571Y-118407142D01*
X142717142Y-118550000D01*
X142574285Y-118621428D01*
X142002857Y-118621428D01*
X141860000Y-118550000D01*
X141788571Y-118407142D01*
X141788571Y-118121428D01*
X141860000Y-117978571D01*
X142002857Y-117907142D01*
X142145714Y-117907142D01*
X142288571Y-118621428D01*
X142788571Y-117264285D02*
X141788571Y-117264285D01*
X141931428Y-117264285D02*
X141860000Y-117192857D01*
X141788571Y-117050000D01*
X141788571Y-116835714D01*
X141860000Y-116692857D01*
X142002857Y-116621428D01*
X142788571Y-116621428D01*
X142002857Y-116621428D02*
X141860000Y-116550000D01*
X141788571Y-116407142D01*
X141788571Y-116192857D01*
X141860000Y-116050000D01*
X142002857Y-115978571D01*
X142788571Y-115978571D01*
X141788571Y-115264285D02*
X143288571Y-115264285D01*
X141860000Y-115264285D02*
X141788571Y-115121428D01*
X141788571Y-114835714D01*
X141860000Y-114692857D01*
X141931428Y-114621428D01*
X142074285Y-114550000D01*
X142502857Y-114550000D01*
X142645714Y-114621428D01*
X142717142Y-114692857D01*
X142788571Y-114835714D01*
X142788571Y-115121428D01*
X142717142Y-115264285D01*
X142002857Y-113907142D02*
X142002857Y-113407142D01*
X142788571Y-113192857D02*
X142788571Y-113907142D01*
X141288571Y-113907142D01*
X141288571Y-113192857D01*
X142717142Y-112621428D02*
X142788571Y-112407142D01*
X142788571Y-112050000D01*
X142717142Y-111907142D01*
X142645714Y-111835714D01*
X142502857Y-111764285D01*
X142360000Y-111764285D01*
X142217142Y-111835714D01*
X142145714Y-111907142D01*
X142074285Y-112050000D01*
X142002857Y-112335714D01*
X141931428Y-112478571D01*
X141860000Y-112550000D01*
X141717142Y-112621428D01*
X141574285Y-112621428D01*
X141431428Y-112550000D01*
X141360000Y-112478571D01*
X141288571Y-112335714D01*
X141288571Y-111978571D01*
X141360000Y-111764285D01*
X142788571Y-111121428D02*
X141288571Y-111121428D01*
X141288571Y-110550000D01*
X141360000Y-110407142D01*
X141431428Y-110335714D01*
X141574285Y-110264285D01*
X141788571Y-110264285D01*
X141931428Y-110335714D01*
X142002857Y-110407142D01*
X142074285Y-110550000D01*
X142074285Y-111121428D01*
D10*
X134890952Y-67092380D02*
X134890952Y-67806666D01*
X134843333Y-67949523D01*
X134748095Y-68044761D01*
X134605238Y-68092380D01*
X134510000Y-68092380D01*
X135843333Y-68092380D02*
X135367142Y-68092380D01*
X135367142Y-67092380D01*
X136748095Y-67997142D02*
X136700476Y-68044761D01*
X136557619Y-68092380D01*
X136462380Y-68092380D01*
X136319523Y-68044761D01*
X136224285Y-67949523D01*
X136176666Y-67854285D01*
X136129047Y-67663809D01*
X136129047Y-67520952D01*
X136176666Y-67330476D01*
X136224285Y-67235238D01*
X136319523Y-67140000D01*
X136462380Y-67092380D01*
X136557619Y-67092380D01*
X136700476Y-67140000D01*
X136748095Y-67187619D01*
X137462380Y-67092380D02*
X137462380Y-67806666D01*
X137414761Y-67949523D01*
X137319523Y-68044761D01*
X137176666Y-68092380D01*
X137081428Y-68092380D01*
X138414761Y-68092380D02*
X137938571Y-68092380D01*
X137938571Y-67092380D01*
X139319523Y-67997142D02*
X139271904Y-68044761D01*
X139129047Y-68092380D01*
X139033809Y-68092380D01*
X138890952Y-68044761D01*
X138795714Y-67949523D01*
X138748095Y-67854285D01*
X138700476Y-67663809D01*
X138700476Y-67520952D01*
X138748095Y-67330476D01*
X138795714Y-67235238D01*
X138890952Y-67140000D01*
X139033809Y-67092380D01*
X139129047Y-67092380D01*
X139271904Y-67140000D01*
X139319523Y-67187619D01*
X140033809Y-67092380D02*
X140033809Y-67806666D01*
X139986190Y-67949523D01*
X139890952Y-68044761D01*
X139748095Y-68092380D01*
X139652857Y-68092380D01*
X140986190Y-68092380D02*
X140510000Y-68092380D01*
X140510000Y-67092380D01*
X141890952Y-67997142D02*
X141843333Y-68044761D01*
X141700476Y-68092380D01*
X141605238Y-68092380D01*
X141462380Y-68044761D01*
X141367142Y-67949523D01*
X141319523Y-67854285D01*
X141271904Y-67663809D01*
X141271904Y-67520952D01*
X141319523Y-67330476D01*
X141367142Y-67235238D01*
X141462380Y-67140000D01*
X141605238Y-67092380D01*
X141700476Y-67092380D01*
X141843333Y-67140000D01*
X141890952Y-67187619D01*
X142605238Y-67092380D02*
X142605238Y-67806666D01*
X142557619Y-67949523D01*
X142462380Y-68044761D01*
X142319523Y-68092380D01*
X142224285Y-68092380D01*
X143557619Y-68092380D02*
X143081428Y-68092380D01*
X143081428Y-67092380D01*
X144462380Y-67997142D02*
X144414761Y-68044761D01*
X144271904Y-68092380D01*
X144176666Y-68092380D01*
X144033809Y-68044761D01*
X143938571Y-67949523D01*
X143890952Y-67854285D01*
X143843333Y-67663809D01*
X143843333Y-67520952D01*
X143890952Y-67330476D01*
X143938571Y-67235238D01*
X144033809Y-67140000D01*
X144176666Y-67092380D01*
X144271904Y-67092380D01*
X144414761Y-67140000D01*
X144462380Y-67187619D01*
X134581428Y-83776571D02*
X134914761Y-83776571D01*
X135057619Y-84300380D02*
X134581428Y-84300380D01*
X134581428Y-83300380D01*
X135057619Y-83300380D01*
X135438571Y-84252761D02*
X135581428Y-84300380D01*
X135819523Y-84300380D01*
X135914761Y-84252761D01*
X135962380Y-84205142D01*
X136010000Y-84109904D01*
X136010000Y-84014666D01*
X135962380Y-83919428D01*
X135914761Y-83871809D01*
X135819523Y-83824190D01*
X135629047Y-83776571D01*
X135533809Y-83728952D01*
X135486190Y-83681333D01*
X135438571Y-83586095D01*
X135438571Y-83490857D01*
X135486190Y-83395619D01*
X135533809Y-83348000D01*
X135629047Y-83300380D01*
X135867142Y-83300380D01*
X136010000Y-83348000D01*
X136438571Y-84300380D02*
X136438571Y-83300380D01*
X136819523Y-83300380D01*
X136914761Y-83348000D01*
X136962380Y-83395619D01*
X137010000Y-83490857D01*
X137010000Y-83633714D01*
X136962380Y-83728952D01*
X136914761Y-83776571D01*
X136819523Y-83824190D01*
X136438571Y-83824190D01*
X138057619Y-83300380D02*
X138629047Y-83300380D01*
X138343333Y-84300380D02*
X138343333Y-83300380D01*
X138867142Y-83300380D02*
X139533809Y-84300380D01*
X139533809Y-83300380D02*
X138867142Y-84300380D01*
X139914761Y-84300380D02*
X139914761Y-83300380D01*
X140152857Y-83300380D01*
X140295714Y-83348000D01*
X140390952Y-83443238D01*
X140438571Y-83538476D01*
X140486190Y-83728952D01*
X140486190Y-83871809D01*
X140438571Y-84062285D01*
X140390952Y-84157523D01*
X140295714Y-84252761D01*
X140152857Y-84300380D01*
X139914761Y-84300380D01*
X141629047Y-83252761D02*
X140771904Y-84538476D01*
X142533809Y-84300380D02*
X142200476Y-83824190D01*
X141962380Y-84300380D02*
X141962380Y-83300380D01*
X142343333Y-83300380D01*
X142438571Y-83348000D01*
X142486190Y-83395619D01*
X142533809Y-83490857D01*
X142533809Y-83633714D01*
X142486190Y-83728952D01*
X142438571Y-83776571D01*
X142343333Y-83824190D01*
X141962380Y-83824190D01*
X142867142Y-83300380D02*
X143533809Y-84300380D01*
X143533809Y-83300380D02*
X142867142Y-84300380D01*
X143914761Y-84300380D02*
X143914761Y-83300380D01*
X144152857Y-83300380D01*
X144295714Y-83348000D01*
X144390952Y-83443238D01*
X144438571Y-83538476D01*
X144486190Y-83728952D01*
X144486190Y-83871809D01*
X144438571Y-84062285D01*
X144390952Y-84157523D01*
X144295714Y-84252761D01*
X144152857Y-84300380D01*
X143914761Y-84300380D01*
X113514761Y-84602380D02*
X113038571Y-84602380D01*
X113038571Y-83602380D01*
X113848095Y-84078571D02*
X114181428Y-84078571D01*
X114324285Y-84602380D02*
X113848095Y-84602380D01*
X113848095Y-83602380D01*
X114324285Y-83602380D01*
X114752857Y-84602380D02*
X114752857Y-83602380D01*
X114990952Y-83602380D01*
X115133809Y-83650000D01*
X115229047Y-83745238D01*
X115276666Y-83840476D01*
X115324285Y-84030952D01*
X115324285Y-84173809D01*
X115276666Y-84364285D01*
X115229047Y-84459523D01*
X115133809Y-84554761D01*
X114990952Y-84602380D01*
X114752857Y-84602380D01*
X116514761Y-84602380D02*
X116514761Y-83602380D01*
X116895714Y-83602380D01*
X116990952Y-83650000D01*
X117038571Y-83697619D01*
X117086190Y-83792857D01*
X117086190Y-83935714D01*
X117038571Y-84030952D01*
X116990952Y-84078571D01*
X116895714Y-84126190D01*
X116514761Y-84126190D01*
X117419523Y-83602380D02*
X117657619Y-84602380D01*
X117848095Y-83888095D01*
X118038571Y-84602380D01*
X118276666Y-83602380D01*
X119229047Y-84602380D02*
X118895714Y-84126190D01*
X118657619Y-84602380D02*
X118657619Y-83602380D01*
X119038571Y-83602380D01*
X119133809Y-83650000D01*
X119181428Y-83697619D01*
X119229047Y-83792857D01*
X119229047Y-83935714D01*
X119181428Y-84030952D01*
X119133809Y-84078571D01*
X119038571Y-84126190D01*
X118657619Y-84126190D01*
X110093333Y-63452380D02*
X110093333Y-62452380D01*
X110760000Y-62452380D02*
X110950476Y-62452380D01*
X111045714Y-62500000D01*
X111140952Y-62595238D01*
X111188571Y-62785714D01*
X111188571Y-63119047D01*
X111140952Y-63309523D01*
X111045714Y-63404761D01*
X110950476Y-63452380D01*
X110760000Y-63452380D01*
X110664762Y-63404761D01*
X110569523Y-63309523D01*
X110521904Y-63119047D01*
X110521904Y-62785714D01*
X110569523Y-62595238D01*
X110664762Y-62500000D01*
X110760000Y-62452380D01*
X108283809Y-64452380D02*
X108902857Y-64452380D01*
X108569523Y-64833333D01*
X108712380Y-64833333D01*
X108807619Y-64880952D01*
X108855238Y-64928571D01*
X108902857Y-65023809D01*
X108902857Y-65261904D01*
X108855238Y-65357142D01*
X108807619Y-65404761D01*
X108712380Y-65452380D01*
X108426666Y-65452380D01*
X108331428Y-65404761D01*
X108283809Y-65357142D01*
X109331428Y-65357142D02*
X109379047Y-65404761D01*
X109331428Y-65452380D01*
X109283809Y-65404761D01*
X109331428Y-65357142D01*
X109331428Y-65452380D01*
X109712380Y-64452380D02*
X110331428Y-64452380D01*
X109998095Y-64833333D01*
X110140952Y-64833333D01*
X110236190Y-64880952D01*
X110283809Y-64928571D01*
X110331428Y-65023809D01*
X110331428Y-65261904D01*
X110283809Y-65357142D01*
X110236190Y-65404761D01*
X110140952Y-65452380D01*
X109855238Y-65452380D01*
X109760000Y-65404761D01*
X109712380Y-65357142D01*
X110617142Y-64452380D02*
X110950476Y-65452380D01*
X111283809Y-64452380D01*
X109093333Y-66500000D02*
X108998095Y-66452380D01*
X108855238Y-66452380D01*
X108712380Y-66500000D01*
X108617142Y-66595238D01*
X108569523Y-66690476D01*
X108521904Y-66880952D01*
X108521904Y-67023809D01*
X108569523Y-67214285D01*
X108617142Y-67309523D01*
X108712380Y-67404761D01*
X108855238Y-67452380D01*
X108950476Y-67452380D01*
X109093333Y-67404761D01*
X109140952Y-67357142D01*
X109140952Y-67023809D01*
X108950476Y-67023809D01*
X109569523Y-67452380D02*
X109569523Y-66452380D01*
X110140952Y-67452380D01*
X110140952Y-66452380D01*
X110617142Y-67452380D02*
X110617142Y-66452380D01*
X110855238Y-66452380D01*
X110998095Y-66500000D01*
X111093333Y-66595238D01*
X111140952Y-66690476D01*
X111188571Y-66880952D01*
X111188571Y-67023809D01*
X111140952Y-67214285D01*
X111093333Y-67309523D01*
X110998095Y-67404761D01*
X110855238Y-67452380D01*
X110617142Y-67452380D01*
X118557619Y-60857142D02*
X118557619Y-61428571D01*
X117557619Y-61142857D02*
X118557619Y-61142857D01*
X118557619Y-61952380D02*
X118557619Y-62142857D01*
X118510000Y-62238095D01*
X118414761Y-62333333D01*
X118224285Y-62380952D01*
X117890952Y-62380952D01*
X117700476Y-62333333D01*
X117605238Y-62238095D01*
X117557619Y-62142857D01*
X117557619Y-61952380D01*
X117605238Y-61857142D01*
X117700476Y-61761904D01*
X117890952Y-61714285D01*
X118224285Y-61714285D01*
X118414761Y-61761904D01*
X118510000Y-61857142D01*
X118557619Y-61952380D01*
X118557619Y-62809523D02*
X117748095Y-62809523D01*
X117652857Y-62857142D01*
X117605238Y-62904761D01*
X117557619Y-63000000D01*
X117557619Y-63190476D01*
X117605238Y-63285714D01*
X117652857Y-63333333D01*
X117748095Y-63380952D01*
X118557619Y-63380952D01*
X117652857Y-64428571D02*
X117605238Y-64380952D01*
X117557619Y-64238095D01*
X117557619Y-64142857D01*
X117605238Y-64000000D01*
X117700476Y-63904761D01*
X117795714Y-63857142D01*
X117986190Y-63809523D01*
X118129047Y-63809523D01*
X118319523Y-63857142D01*
X118414761Y-63904761D01*
X118510000Y-64000000D01*
X118557619Y-64142857D01*
X118557619Y-64238095D01*
X118510000Y-64380952D01*
X118462380Y-64428571D01*
X117557619Y-64857142D02*
X118557619Y-64857142D01*
X118081428Y-64857142D02*
X118081428Y-65428571D01*
X117557619Y-65428571D02*
X118557619Y-65428571D01*
X118081428Y-67000000D02*
X118033809Y-67142857D01*
X117986190Y-67190476D01*
X117890952Y-67238095D01*
X117748095Y-67238095D01*
X117652857Y-67190476D01*
X117605238Y-67142857D01*
X117557619Y-67047619D01*
X117557619Y-66666666D01*
X118557619Y-66666666D01*
X118557619Y-67000000D01*
X118510000Y-67095238D01*
X118462380Y-67142857D01*
X118367142Y-67190476D01*
X118271904Y-67190476D01*
X118176666Y-67142857D01*
X118129047Y-67095238D01*
X118081428Y-67000000D01*
X118081428Y-66666666D01*
X118557619Y-67523809D02*
X118557619Y-68095238D01*
X117557619Y-67809523D02*
X118557619Y-67809523D01*
X117557619Y-68428571D02*
X118557619Y-68428571D01*
X117557619Y-69000000D01*
X118557619Y-69000000D01*
X117557619Y-72571428D02*
X117557619Y-72095238D01*
X118557619Y-72095238D01*
X117652857Y-73476190D02*
X117605238Y-73428571D01*
X117557619Y-73285714D01*
X117557619Y-73190476D01*
X117605238Y-73047619D01*
X117700476Y-72952380D01*
X117795714Y-72904761D01*
X117986190Y-72857142D01*
X118129047Y-72857142D01*
X118319523Y-72904761D01*
X118414761Y-72952380D01*
X118510000Y-73047619D01*
X118557619Y-73190476D01*
X118557619Y-73285714D01*
X118510000Y-73428571D01*
X118462380Y-73476190D01*
X117557619Y-73904761D02*
X118557619Y-73904761D01*
X118557619Y-74142857D01*
X118510000Y-74285714D01*
X118414761Y-74380952D01*
X118319523Y-74428571D01*
X118129047Y-74476190D01*
X117986190Y-74476190D01*
X117795714Y-74428571D01*
X117700476Y-74380952D01*
X117605238Y-74285714D01*
X117557619Y-74142857D01*
X117557619Y-73904761D01*
X117557619Y-76142857D02*
X117557619Y-75666666D01*
X118557619Y-75666666D01*
X118081428Y-76476190D02*
X118081428Y-76809523D01*
X117557619Y-76952380D02*
X117557619Y-76476190D01*
X118557619Y-76476190D01*
X118557619Y-76952380D01*
X117557619Y-77380952D02*
X118557619Y-77380952D01*
X118557619Y-77619047D01*
X118510000Y-77761904D01*
X118414761Y-77857142D01*
X118319523Y-77904761D01*
X118129047Y-77952380D01*
X117986190Y-77952380D01*
X117795714Y-77904761D01*
X117700476Y-77857142D01*
X117605238Y-77761904D01*
X117557619Y-77619047D01*
X117557619Y-77380952D01*
X109379047Y-73500000D02*
X109283809Y-73452380D01*
X109140952Y-73452380D01*
X108998094Y-73500000D01*
X108902856Y-73595238D01*
X108855237Y-73690476D01*
X108807618Y-73880952D01*
X108807618Y-74023809D01*
X108855237Y-74214285D01*
X108902856Y-74309523D01*
X108998094Y-74404761D01*
X109140952Y-74452380D01*
X109236190Y-74452380D01*
X109379047Y-74404761D01*
X109426666Y-74357142D01*
X109426666Y-74023809D01*
X109236190Y-74023809D01*
X109855237Y-74452380D02*
X109855237Y-73452380D01*
X110426666Y-74452380D01*
X110426666Y-73452380D01*
X110902856Y-74452380D02*
X110902856Y-73452380D01*
X111140952Y-73452380D01*
X111283809Y-73500000D01*
X111379047Y-73595238D01*
X111426666Y-73690476D01*
X111474285Y-73880952D01*
X111474285Y-74023809D01*
X111426666Y-74214285D01*
X111379047Y-74309523D01*
X111283809Y-74404761D01*
X111140952Y-74452380D01*
X110902856Y-74452380D01*
X110569523Y-75452380D02*
X110093333Y-75452380D01*
X110045714Y-75928571D01*
X110093333Y-75880952D01*
X110188571Y-75833333D01*
X110426666Y-75833333D01*
X110521904Y-75880952D01*
X110569523Y-75928571D01*
X110617142Y-76023809D01*
X110617142Y-76261904D01*
X110569523Y-76357142D01*
X110521904Y-76404761D01*
X110426666Y-76452380D01*
X110188571Y-76452380D01*
X110093333Y-76404761D01*
X110045714Y-76357142D01*
X110902857Y-75452380D02*
X111236190Y-76452380D01*
X111569523Y-75452380D01*
X190178357Y-93440380D02*
X190797404Y-93440380D01*
X190464071Y-93821333D01*
X190606928Y-93821333D01*
X190702166Y-93868952D01*
X190749785Y-93916571D01*
X190797404Y-94011809D01*
X190797404Y-94249904D01*
X190749785Y-94345142D01*
X190702166Y-94392761D01*
X190606928Y-94440380D01*
X190321214Y-94440380D01*
X190225976Y-94392761D01*
X190178357Y-94345142D01*
X191225976Y-94345142D02*
X191273595Y-94392761D01*
X191225976Y-94440380D01*
X191178357Y-94392761D01*
X191225976Y-94345142D01*
X191225976Y-94440380D01*
X191606928Y-93440380D02*
X192225976Y-93440380D01*
X191892642Y-93821333D01*
X192035500Y-93821333D01*
X192130738Y-93868952D01*
X192178357Y-93916571D01*
X192225976Y-94011809D01*
X192225976Y-94249904D01*
X192178357Y-94345142D01*
X192130738Y-94392761D01*
X192035500Y-94440380D01*
X191749785Y-94440380D01*
X191654547Y-94392761D01*
X191606928Y-94345142D01*
X192511690Y-93440380D02*
X192845023Y-94440380D01*
X193178357Y-93440380D01*
X190797404Y-96090380D02*
X190225976Y-96090380D01*
X190511690Y-96090380D02*
X190511690Y-95090380D01*
X190416452Y-95233238D01*
X190321214Y-95328476D01*
X190225976Y-95376095D01*
X191130738Y-95090380D02*
X191368833Y-96090380D01*
X191559309Y-95376095D01*
X191749785Y-96090380D01*
X191987880Y-95090380D01*
X193130738Y-96090380D02*
X193130738Y-95090380D01*
X193511690Y-95090380D01*
X193606928Y-95138000D01*
X193654547Y-95185619D01*
X193702166Y-95280857D01*
X193702166Y-95423714D01*
X193654547Y-95518952D01*
X193606928Y-95566571D01*
X193511690Y-95614190D01*
X193130738Y-95614190D01*
X194035500Y-95090380D02*
X194273595Y-96090380D01*
X194464071Y-95376095D01*
X194654547Y-96090380D01*
X194892642Y-95090380D01*
X195845023Y-96090380D02*
X195511690Y-95614190D01*
X195273595Y-96090380D02*
X195273595Y-95090380D01*
X195654547Y-95090380D01*
X195749785Y-95138000D01*
X195797404Y-95185619D01*
X195845023Y-95280857D01*
X195845023Y-95423714D01*
X195797404Y-95518952D01*
X195749785Y-95566571D01*
X195654547Y-95614190D01*
X195273595Y-95614190D01*
X190749785Y-96740380D02*
X190273595Y-96740380D01*
X190225976Y-97216571D01*
X190273595Y-97168952D01*
X190368833Y-97121333D01*
X190606928Y-97121333D01*
X190702166Y-97168952D01*
X190749785Y-97216571D01*
X190797404Y-97311809D01*
X190797404Y-97549904D01*
X190749785Y-97645142D01*
X190702166Y-97692761D01*
X190606928Y-97740380D01*
X190368833Y-97740380D01*
X190273595Y-97692761D01*
X190225976Y-97645142D01*
X191083119Y-96740380D02*
X191416452Y-97740380D01*
X191749785Y-96740380D01*
X191145095Y-90502380D02*
X191145095Y-89502380D01*
X191573666Y-89597619D02*
X191621285Y-89550000D01*
X191716523Y-89502380D01*
X191954619Y-89502380D01*
X192049857Y-89550000D01*
X192097476Y-89597619D01*
X192145095Y-89692857D01*
X192145095Y-89788095D01*
X192097476Y-89930952D01*
X191526047Y-90502380D01*
X192145095Y-90502380D01*
X193145095Y-90407142D02*
X193097476Y-90454761D01*
X192954619Y-90502380D01*
X192859380Y-90502380D01*
X192716523Y-90454761D01*
X192621285Y-90359523D01*
X192573666Y-90264285D01*
X192526047Y-90073809D01*
X192526047Y-89930952D01*
X192573666Y-89740476D01*
X192621285Y-89645238D01*
X192716523Y-89550000D01*
X192859380Y-89502380D01*
X192954619Y-89502380D01*
X193097476Y-89550000D01*
X193145095Y-89597619D01*
X194287952Y-90216666D02*
X194764142Y-90216666D01*
X194192714Y-90502380D02*
X194526047Y-89502380D01*
X194859380Y-90502380D01*
X195192714Y-90502380D02*
X195192714Y-89502380D01*
X195430809Y-89502380D01*
X195573666Y-89550000D01*
X195668904Y-89645238D01*
X195716523Y-89740476D01*
X195764142Y-89930952D01*
X195764142Y-90073809D01*
X195716523Y-90264285D01*
X195668904Y-90359523D01*
X195573666Y-90454761D01*
X195430809Y-90502380D01*
X195192714Y-90502380D01*
X196764142Y-90502380D02*
X196430809Y-90026190D01*
X196192714Y-90502380D02*
X196192714Y-89502380D01*
X196573666Y-89502380D01*
X196668904Y-89550000D01*
X196716523Y-89597619D01*
X196764142Y-89692857D01*
X196764142Y-89835714D01*
X196716523Y-89930952D01*
X196668904Y-89978571D01*
X196573666Y-90026190D01*
X196192714Y-90026190D01*
X197716523Y-90502380D02*
X197145095Y-90502380D01*
X197430809Y-90502380D02*
X197430809Y-89502380D01*
X197335571Y-89645238D01*
X197240333Y-89740476D01*
X197145095Y-89788095D01*
X191145095Y-87454380D02*
X191145095Y-86454380D01*
X191573666Y-86549619D02*
X191621285Y-86502000D01*
X191716523Y-86454380D01*
X191954619Y-86454380D01*
X192049857Y-86502000D01*
X192097476Y-86549619D01*
X192145095Y-86644857D01*
X192145095Y-86740095D01*
X192097476Y-86882952D01*
X191526047Y-87454380D01*
X192145095Y-87454380D01*
X193145095Y-87359142D02*
X193097476Y-87406761D01*
X192954619Y-87454380D01*
X192859380Y-87454380D01*
X192716523Y-87406761D01*
X192621285Y-87311523D01*
X192573666Y-87216285D01*
X192526047Y-87025809D01*
X192526047Y-86882952D01*
X192573666Y-86692476D01*
X192621285Y-86597238D01*
X192716523Y-86502000D01*
X192859380Y-86454380D01*
X192954619Y-86454380D01*
X193097476Y-86502000D01*
X193145095Y-86549619D01*
X194287952Y-87168666D02*
X194764142Y-87168666D01*
X194192714Y-87454380D02*
X194526047Y-86454380D01*
X194859380Y-87454380D01*
X195192714Y-87454380D02*
X195192714Y-86454380D01*
X195430809Y-86454380D01*
X195573666Y-86502000D01*
X195668904Y-86597238D01*
X195716523Y-86692476D01*
X195764142Y-86882952D01*
X195764142Y-87025809D01*
X195716523Y-87216285D01*
X195668904Y-87311523D01*
X195573666Y-87406761D01*
X195430809Y-87454380D01*
X195192714Y-87454380D01*
X196764142Y-87454380D02*
X196430809Y-86978190D01*
X196192714Y-87454380D02*
X196192714Y-86454380D01*
X196573666Y-86454380D01*
X196668904Y-86502000D01*
X196716523Y-86549619D01*
X196764142Y-86644857D01*
X196764142Y-86787714D01*
X196716523Y-86882952D01*
X196668904Y-86930571D01*
X196573666Y-86978190D01*
X196192714Y-86978190D01*
X197145095Y-86549619D02*
X197192714Y-86502000D01*
X197287952Y-86454380D01*
X197526047Y-86454380D01*
X197621285Y-86502000D01*
X197668904Y-86549619D01*
X197716523Y-86644857D01*
X197716523Y-86740095D01*
X197668904Y-86882952D01*
X197097476Y-87454380D01*
X197716523Y-87454380D01*
X191145095Y-84406380D02*
X191145095Y-83406380D01*
X191573666Y-83501619D02*
X191621285Y-83454000D01*
X191716523Y-83406380D01*
X191954619Y-83406380D01*
X192049857Y-83454000D01*
X192097476Y-83501619D01*
X192145095Y-83596857D01*
X192145095Y-83692095D01*
X192097476Y-83834952D01*
X191526047Y-84406380D01*
X192145095Y-84406380D01*
X193145095Y-84311142D02*
X193097476Y-84358761D01*
X192954619Y-84406380D01*
X192859380Y-84406380D01*
X192716523Y-84358761D01*
X192621285Y-84263523D01*
X192573666Y-84168285D01*
X192526047Y-83977809D01*
X192526047Y-83834952D01*
X192573666Y-83644476D01*
X192621285Y-83549238D01*
X192716523Y-83454000D01*
X192859380Y-83406380D01*
X192954619Y-83406380D01*
X193097476Y-83454000D01*
X193145095Y-83501619D01*
X194287952Y-84120666D02*
X194764142Y-84120666D01*
X194192714Y-84406380D02*
X194526047Y-83406380D01*
X194859380Y-84406380D01*
X195192714Y-84406380D02*
X195192714Y-83406380D01*
X195430809Y-83406380D01*
X195573666Y-83454000D01*
X195668904Y-83549238D01*
X195716523Y-83644476D01*
X195764142Y-83834952D01*
X195764142Y-83977809D01*
X195716523Y-84168285D01*
X195668904Y-84263523D01*
X195573666Y-84358761D01*
X195430809Y-84406380D01*
X195192714Y-84406380D01*
X196764142Y-84406380D02*
X196430809Y-83930190D01*
X196192714Y-84406380D02*
X196192714Y-83406380D01*
X196573666Y-83406380D01*
X196668904Y-83454000D01*
X196716523Y-83501619D01*
X196764142Y-83596857D01*
X196764142Y-83739714D01*
X196716523Y-83834952D01*
X196668904Y-83882571D01*
X196573666Y-83930190D01*
X196192714Y-83930190D01*
X197097476Y-83406380D02*
X197716523Y-83406380D01*
X197383190Y-83787333D01*
X197526047Y-83787333D01*
X197621285Y-83834952D01*
X197668904Y-83882571D01*
X197716523Y-83977809D01*
X197716523Y-84215904D01*
X197668904Y-84311142D01*
X197621285Y-84358761D01*
X197526047Y-84406380D01*
X197240333Y-84406380D01*
X197145095Y-84358761D01*
X197097476Y-84311142D01*
X143026380Y-91214190D02*
X143026380Y-90595142D01*
X143407333Y-90928476D01*
X143407333Y-90785619D01*
X143454952Y-90690380D01*
X143502571Y-90642761D01*
X143597809Y-90595142D01*
X143835904Y-90595142D01*
X143931142Y-90642761D01*
X143978761Y-90690380D01*
X144026380Y-90785619D01*
X144026380Y-91071333D01*
X143978761Y-91166571D01*
X143931142Y-91214190D01*
X143931142Y-90166571D02*
X143978761Y-90118952D01*
X144026380Y-90166571D01*
X143978761Y-90214190D01*
X143931142Y-90166571D01*
X144026380Y-90166571D01*
X143026380Y-89785619D02*
X143026380Y-89166571D01*
X143407333Y-89499904D01*
X143407333Y-89357047D01*
X143454952Y-89261809D01*
X143502571Y-89214190D01*
X143597809Y-89166571D01*
X143835904Y-89166571D01*
X143931142Y-89214190D01*
X143978761Y-89261809D01*
X144026380Y-89357047D01*
X144026380Y-89642761D01*
X143978761Y-89738000D01*
X143931142Y-89785619D01*
X143026380Y-88880857D02*
X144026380Y-88547523D01*
X143026380Y-88214190D01*
X140335000Y-90499904D02*
X140287380Y-90595142D01*
X140287380Y-90738000D01*
X140335000Y-90880857D01*
X140430238Y-90976095D01*
X140525476Y-91023714D01*
X140715952Y-91071333D01*
X140858809Y-91071333D01*
X141049285Y-91023714D01*
X141144523Y-90976095D01*
X141239761Y-90880857D01*
X141287380Y-90738000D01*
X141287380Y-90642761D01*
X141239761Y-90499904D01*
X141192142Y-90452285D01*
X140858809Y-90452285D01*
X140858809Y-90642761D01*
X141287380Y-90023714D02*
X140287380Y-90023714D01*
X141287380Y-89452285D01*
X140287380Y-89452285D01*
X141287380Y-88976095D02*
X140287380Y-88976095D01*
X140287380Y-88738000D01*
X140335000Y-88595142D01*
X140430238Y-88499904D01*
X140525476Y-88452285D01*
X140715952Y-88404666D01*
X140858809Y-88404666D01*
X141049285Y-88452285D01*
X141144523Y-88499904D01*
X141239761Y-88595142D01*
X141287380Y-88738000D01*
X141287380Y-88976095D01*
X138702380Y-89396666D02*
X138226190Y-89730000D01*
X138702380Y-89968095D02*
X137702380Y-89968095D01*
X137702380Y-89587142D01*
X137750000Y-89491904D01*
X137797619Y-89444285D01*
X137892857Y-89396666D01*
X138035714Y-89396666D01*
X138130952Y-89444285D01*
X138178571Y-89491904D01*
X138226190Y-89587142D01*
X138226190Y-89968095D01*
X137702380Y-89063333D02*
X138702380Y-88396666D01*
X137702380Y-88396666D02*
X138702380Y-89063333D01*
X135162380Y-89991904D02*
X135162380Y-89420476D01*
X136162380Y-89706190D02*
X135162380Y-89706190D01*
X135162380Y-89182380D02*
X136162380Y-88515714D01*
X135162380Y-88515714D02*
X136162380Y-89182380D01*
X159312619Y-76182380D02*
X158979285Y-75706190D01*
X158741190Y-76182380D02*
X158741190Y-75182380D01*
X159122142Y-75182380D01*
X159217380Y-75230000D01*
X159265000Y-75277619D01*
X159312619Y-75372857D01*
X159312619Y-75515714D01*
X159265000Y-75610952D01*
X159217380Y-75658571D01*
X159122142Y-75706190D01*
X158741190Y-75706190D01*
X159741190Y-75658571D02*
X160074523Y-75658571D01*
X160217380Y-76182380D02*
X159741190Y-76182380D01*
X159741190Y-75182380D01*
X160217380Y-75182380D01*
X160598333Y-76134761D02*
X160741190Y-76182380D01*
X160979285Y-76182380D01*
X161074523Y-76134761D01*
X161122142Y-76087142D01*
X161169761Y-75991904D01*
X161169761Y-75896666D01*
X161122142Y-75801428D01*
X161074523Y-75753809D01*
X160979285Y-75706190D01*
X160788809Y-75658571D01*
X160693571Y-75610952D01*
X160645952Y-75563333D01*
X160598333Y-75468095D01*
X160598333Y-75372857D01*
X160645952Y-75277619D01*
X160693571Y-75230000D01*
X160788809Y-75182380D01*
X161026904Y-75182380D01*
X161169761Y-75230000D01*
X161598333Y-75658571D02*
X161931666Y-75658571D01*
X162074523Y-76182380D02*
X161598333Y-76182380D01*
X161598333Y-75182380D01*
X162074523Y-75182380D01*
X162360238Y-75182380D02*
X162931666Y-75182380D01*
X162645952Y-76182380D02*
X162645952Y-75182380D01*
X167324523Y-75658571D02*
X166991190Y-75658571D01*
X166991190Y-76182380D02*
X166991190Y-75182380D01*
X167467380Y-75182380D01*
X168324523Y-76182380D02*
X167848333Y-76182380D01*
X167848333Y-75182380D01*
X168610238Y-75896666D02*
X169086428Y-75896666D01*
X168515000Y-76182380D02*
X168848333Y-75182380D01*
X169181666Y-76182380D01*
X169467380Y-76134761D02*
X169610238Y-76182380D01*
X169848333Y-76182380D01*
X169943571Y-76134761D01*
X169991190Y-76087142D01*
X170038809Y-75991904D01*
X170038809Y-75896666D01*
X169991190Y-75801428D01*
X169943571Y-75753809D01*
X169848333Y-75706190D01*
X169657857Y-75658571D01*
X169562619Y-75610952D01*
X169515000Y-75563333D01*
X169467380Y-75468095D01*
X169467380Y-75372857D01*
X169515000Y-75277619D01*
X169562619Y-75230000D01*
X169657857Y-75182380D01*
X169895952Y-75182380D01*
X170038809Y-75230000D01*
X170467380Y-76182380D02*
X170467380Y-75182380D01*
X170467380Y-75658571D02*
X171038809Y-75658571D01*
X171038809Y-76182380D02*
X171038809Y-75182380D01*
X132797047Y-96456380D02*
X133416095Y-96456380D01*
X133082761Y-96837333D01*
X133225619Y-96837333D01*
X133320857Y-96884952D01*
X133368476Y-96932571D01*
X133416095Y-97027809D01*
X133416095Y-97265904D01*
X133368476Y-97361142D01*
X133320857Y-97408761D01*
X133225619Y-97456380D01*
X132939904Y-97456380D01*
X132844666Y-97408761D01*
X132797047Y-97361142D01*
X133844666Y-97361142D02*
X133892285Y-97408761D01*
X133844666Y-97456380D01*
X133797047Y-97408761D01*
X133844666Y-97361142D01*
X133844666Y-97456380D01*
X134225619Y-96456380D02*
X134844666Y-96456380D01*
X134511333Y-96837333D01*
X134654190Y-96837333D01*
X134749428Y-96884952D01*
X134797047Y-96932571D01*
X134844666Y-97027809D01*
X134844666Y-97265904D01*
X134797047Y-97361142D01*
X134749428Y-97408761D01*
X134654190Y-97456380D01*
X134368476Y-97456380D01*
X134273238Y-97408761D01*
X134225619Y-97361142D01*
X135130380Y-96456380D02*
X135463714Y-97456380D01*
X135797047Y-96456380D01*
X137082761Y-96456380D02*
X137273238Y-96456380D01*
X137368476Y-96504000D01*
X137463714Y-96599238D01*
X137511333Y-96789714D01*
X137511333Y-97123047D01*
X137463714Y-97313523D01*
X137368476Y-97408761D01*
X137273238Y-97456380D01*
X137082761Y-97456380D01*
X136987523Y-97408761D01*
X136892285Y-97313523D01*
X136844666Y-97123047D01*
X136844666Y-96789714D01*
X136892285Y-96599238D01*
X136987523Y-96504000D01*
X137082761Y-96456380D01*
X137939904Y-97456380D02*
X137939904Y-96456380D01*
X138511333Y-97456380D02*
X138082761Y-96884952D01*
X138511333Y-96456380D02*
X137939904Y-97027809D01*
X134797047Y-93956380D02*
X134320857Y-93956380D01*
X134273238Y-94432571D01*
X134320857Y-94384952D01*
X134416095Y-94337333D01*
X134654190Y-94337333D01*
X134749428Y-94384952D01*
X134797047Y-94432571D01*
X134844666Y-94527809D01*
X134844666Y-94765904D01*
X134797047Y-94861142D01*
X134749428Y-94908761D01*
X134654190Y-94956380D01*
X134416095Y-94956380D01*
X134320857Y-94908761D01*
X134273238Y-94861142D01*
X135130381Y-93956380D02*
X135463714Y-94956380D01*
X135797047Y-93956380D01*
X137082762Y-93956380D02*
X137273238Y-93956380D01*
X137368476Y-94004000D01*
X137463714Y-94099238D01*
X137511333Y-94289714D01*
X137511333Y-94623047D01*
X137463714Y-94813523D01*
X137368476Y-94908761D01*
X137273238Y-94956380D01*
X137082762Y-94956380D01*
X136987524Y-94908761D01*
X136892286Y-94813523D01*
X136844666Y-94623047D01*
X136844666Y-94289714D01*
X136892286Y-94099238D01*
X136987524Y-94004000D01*
X137082762Y-93956380D01*
X137939905Y-94956380D02*
X137939905Y-93956380D01*
X138511333Y-94956380D02*
X138082762Y-94384952D01*
X138511333Y-93956380D02*
X137939905Y-94527809D01*
X164510000Y-91837142D02*
X164462380Y-91884761D01*
X164319523Y-91932380D01*
X164224285Y-91932380D01*
X164081428Y-91884761D01*
X163986190Y-91789523D01*
X163938571Y-91694285D01*
X163890952Y-91503809D01*
X163890952Y-91360952D01*
X163938571Y-91170476D01*
X163986190Y-91075238D01*
X164081428Y-90980000D01*
X164224285Y-90932380D01*
X164319523Y-90932380D01*
X164462380Y-90980000D01*
X164510000Y-91027619D01*
X165129047Y-90932380D02*
X165319523Y-90932380D01*
X165414761Y-90980000D01*
X165510000Y-91075238D01*
X165557619Y-91265714D01*
X165557619Y-91599047D01*
X165510000Y-91789523D01*
X165414761Y-91884761D01*
X165319523Y-91932380D01*
X165129047Y-91932380D01*
X165033809Y-91884761D01*
X164938571Y-91789523D01*
X164890952Y-91599047D01*
X164890952Y-91265714D01*
X164938571Y-91075238D01*
X165033809Y-90980000D01*
X165129047Y-90932380D01*
X165986190Y-91932380D02*
X165986190Y-90932380D01*
X166557619Y-91932380D01*
X166557619Y-90932380D01*
X167033809Y-91932380D02*
X167033809Y-90932380D01*
X167605238Y-91932380D01*
X167605238Y-90932380D01*
X168081428Y-91408571D02*
X168414761Y-91408571D01*
X168557619Y-91932380D02*
X168081428Y-91932380D01*
X168081428Y-90932380D01*
X168557619Y-90932380D01*
X169557619Y-91837142D02*
X169510000Y-91884761D01*
X169367142Y-91932380D01*
X169271904Y-91932380D01*
X169129047Y-91884761D01*
X169033809Y-91789523D01*
X168986190Y-91694285D01*
X168938571Y-91503809D01*
X168938571Y-91360952D01*
X168986190Y-91170476D01*
X169033809Y-91075238D01*
X169129047Y-90980000D01*
X169271904Y-90932380D01*
X169367142Y-90932380D01*
X169510000Y-90980000D01*
X169557619Y-91027619D01*
X169843333Y-90932380D02*
X170414761Y-90932380D01*
X170129047Y-91932380D02*
X170129047Y-90932380D01*
X170938571Y-90932380D02*
X171129047Y-90932380D01*
X171224285Y-90980000D01*
X171319523Y-91075238D01*
X171367142Y-91265714D01*
X171367142Y-91599047D01*
X171319523Y-91789523D01*
X171224285Y-91884761D01*
X171129047Y-91932380D01*
X170938571Y-91932380D01*
X170843333Y-91884761D01*
X170748095Y-91789523D01*
X170700476Y-91599047D01*
X170700476Y-91265714D01*
X170748095Y-91075238D01*
X170843333Y-90980000D01*
X170938571Y-90932380D01*
X172367142Y-91932380D02*
X172033809Y-91456190D01*
X171795714Y-91932380D02*
X171795714Y-90932380D01*
X172176666Y-90932380D01*
X172271904Y-90980000D01*
X172319523Y-91027619D01*
X172367142Y-91122857D01*
X172367142Y-91265714D01*
X172319523Y-91360952D01*
X172271904Y-91408571D01*
X172176666Y-91456190D01*
X171795714Y-91456190D01*
X173557619Y-91932380D02*
X173557619Y-90932380D01*
X173938571Y-90932380D01*
X174033809Y-90980000D01*
X174081428Y-91027619D01*
X174129047Y-91122857D01*
X174129047Y-91265714D01*
X174081428Y-91360952D01*
X174033809Y-91408571D01*
X173938571Y-91456190D01*
X173557619Y-91456190D01*
X175129047Y-91837142D02*
X175081428Y-91884761D01*
X174938571Y-91932380D01*
X174843333Y-91932380D01*
X174700476Y-91884761D01*
X174605238Y-91789523D01*
X174557619Y-91694285D01*
X174510000Y-91503809D01*
X174510000Y-91360952D01*
X174557619Y-91170476D01*
X174605238Y-91075238D01*
X174700476Y-90980000D01*
X174843333Y-90932380D01*
X174938571Y-90932380D01*
X175081428Y-90980000D01*
X175129047Y-91027619D01*
X175890952Y-91408571D02*
X176033809Y-91456190D01*
X176081428Y-91503809D01*
X176129047Y-91599047D01*
X176129047Y-91741904D01*
X176081428Y-91837142D01*
X176033809Y-91884761D01*
X175938571Y-91932380D01*
X175557619Y-91932380D01*
X175557619Y-90932380D01*
X175890952Y-90932380D01*
X175986190Y-90980000D01*
X176033809Y-91027619D01*
X176081428Y-91122857D01*
X176081428Y-91218095D01*
X176033809Y-91313333D01*
X175986190Y-91360952D01*
X175890952Y-91408571D01*
X175557619Y-91408571D01*
X166105238Y-113702380D02*
X166105238Y-112702380D01*
X166438571Y-113416666D01*
X166771904Y-112702380D01*
X166771904Y-113702380D01*
X167200476Y-113416666D02*
X167676666Y-113416666D01*
X167105238Y-113702380D02*
X167438571Y-112702380D01*
X167771904Y-113702380D01*
X168105238Y-113702380D02*
X168105238Y-112702380D01*
X168581428Y-113702380D02*
X168581428Y-112702380D01*
X169152857Y-113702380D01*
X169152857Y-112702380D01*
X170390952Y-113702380D02*
X170390952Y-112702380D01*
X170771904Y-112702380D01*
X170867142Y-112750000D01*
X170914761Y-112797619D01*
X170962380Y-112892857D01*
X170962380Y-113035714D01*
X170914761Y-113130952D01*
X170867142Y-113178571D01*
X170771904Y-113226190D01*
X170390952Y-113226190D01*
X171962380Y-113607142D02*
X171914761Y-113654761D01*
X171771904Y-113702380D01*
X171676666Y-113702380D01*
X171533809Y-113654761D01*
X171438571Y-113559523D01*
X171390952Y-113464285D01*
X171343333Y-113273809D01*
X171343333Y-113130952D01*
X171390952Y-112940476D01*
X171438571Y-112845238D01*
X171533809Y-112750000D01*
X171676666Y-112702380D01*
X171771904Y-112702380D01*
X171914761Y-112750000D01*
X171962380Y-112797619D01*
X172724285Y-113178571D02*
X172867142Y-113226190D01*
X172914761Y-113273809D01*
X172962380Y-113369047D01*
X172962380Y-113511904D01*
X172914761Y-113607142D01*
X172867142Y-113654761D01*
X172771904Y-113702380D01*
X172390952Y-113702380D01*
X172390952Y-112702380D01*
X172724285Y-112702380D01*
X172819523Y-112750000D01*
X172867142Y-112797619D01*
X172914761Y-112892857D01*
X172914761Y-112988095D01*
X172867142Y-113083333D01*
X172819523Y-113130952D01*
X172724285Y-113178571D01*
X172390952Y-113178571D01*
X178455476Y-117432380D02*
X178693571Y-118432380D01*
X178884047Y-117718095D01*
X179074523Y-118432380D01*
X179312619Y-117432380D01*
X179645952Y-118146666D02*
X180122142Y-118146666D01*
X179550714Y-118432380D02*
X179884047Y-117432380D01*
X180217380Y-118432380D01*
X180407857Y-117432380D02*
X180979285Y-117432380D01*
X180693571Y-118432380D02*
X180693571Y-117432380D01*
X181312619Y-117908571D02*
X181645952Y-117908571D01*
X181788809Y-118432380D02*
X181312619Y-118432380D01*
X181312619Y-117432380D01*
X181788809Y-117432380D01*
X182788809Y-118432380D02*
X182455476Y-117956190D01*
X182217380Y-118432380D02*
X182217380Y-117432380D01*
X182598333Y-117432380D01*
X182693571Y-117480000D01*
X182741190Y-117527619D01*
X182788809Y-117622857D01*
X182788809Y-117765714D01*
X182741190Y-117860952D01*
X182693571Y-117908571D01*
X182598333Y-117956190D01*
X182217380Y-117956190D01*
X184455476Y-118432380D02*
X183979285Y-118432380D01*
X183979285Y-117432380D01*
X184645952Y-117432380D02*
X184979285Y-118432380D01*
X185312619Y-117432380D01*
X186122142Y-118432380D02*
X185645952Y-118432380D01*
X185645952Y-117432380D01*
X166676666Y-117432380D02*
X166867142Y-117432380D01*
X166962380Y-117480000D01*
X167057619Y-117575238D01*
X167105238Y-117765714D01*
X167105238Y-118099047D01*
X167057619Y-118289523D01*
X166962380Y-118384761D01*
X166867142Y-118432380D01*
X166676666Y-118432380D01*
X166581428Y-118384761D01*
X166486190Y-118289523D01*
X166438571Y-118099047D01*
X166438571Y-117765714D01*
X166486190Y-117575238D01*
X166581428Y-117480000D01*
X166676666Y-117432380D01*
X167533809Y-118432380D02*
X167533809Y-117432380D01*
X168105238Y-118432380D01*
X168105238Y-117432380D01*
X168581428Y-117908571D02*
X168914761Y-117908571D01*
X169057619Y-118432380D02*
X168581428Y-118432380D01*
X168581428Y-117432380D01*
X169057619Y-117432380D01*
X169390952Y-117432380D02*
X169629047Y-118432380D01*
X169819523Y-117718095D01*
X170010000Y-118432380D01*
X170248095Y-117432380D01*
X170629047Y-118432380D02*
X170629047Y-117432380D01*
X171676666Y-118432380D02*
X171343333Y-117956190D01*
X171105238Y-118432380D02*
X171105238Y-117432380D01*
X171486190Y-117432380D01*
X171581428Y-117480000D01*
X171629047Y-117527619D01*
X171676666Y-117622857D01*
X171676666Y-117765714D01*
X171629047Y-117860952D01*
X171581428Y-117908571D01*
X171486190Y-117956190D01*
X171105238Y-117956190D01*
X172105238Y-117908571D02*
X172438571Y-117908571D01*
X172581428Y-118432380D02*
X172105238Y-118432380D01*
X172105238Y-117432380D01*
X172581428Y-117432380D01*
X154288809Y-118432380D02*
X154288809Y-117432380D01*
X154669761Y-117432380D01*
X154765000Y-117480000D01*
X154812619Y-117527619D01*
X154860238Y-117622857D01*
X154860238Y-117765714D01*
X154812619Y-117860952D01*
X154765000Y-117908571D01*
X154669761Y-117956190D01*
X154288809Y-117956190D01*
X155193571Y-117432380D02*
X155431666Y-118432380D01*
X155622142Y-117718095D01*
X155812619Y-118432380D01*
X156050714Y-117432380D01*
X157003095Y-118432380D02*
X156669761Y-117956190D01*
X156431666Y-118432380D02*
X156431666Y-117432380D01*
X156812619Y-117432380D01*
X156907857Y-117480000D01*
X156955476Y-117527619D01*
X157003095Y-117622857D01*
X157003095Y-117765714D01*
X156955476Y-117860952D01*
X156907857Y-117908571D01*
X156812619Y-117956190D01*
X156431666Y-117956190D01*
X158193571Y-118432380D02*
X158193571Y-117432380D01*
X158669761Y-118432380D02*
X158669761Y-117432380D01*
X159241190Y-118432380D01*
X159241190Y-117432380D01*
X185457332Y-110758380D02*
X186076380Y-110758380D01*
X185743046Y-111139333D01*
X185885904Y-111139333D01*
X185981142Y-111186952D01*
X186028761Y-111234571D01*
X186076380Y-111329809D01*
X186076380Y-111567904D01*
X186028761Y-111663142D01*
X185981142Y-111710761D01*
X185885904Y-111758380D01*
X185600189Y-111758380D01*
X185504951Y-111710761D01*
X185457332Y-111663142D01*
X186504951Y-111663142D02*
X186552570Y-111710761D01*
X186504951Y-111758380D01*
X186457332Y-111710761D01*
X186504951Y-111663142D01*
X186504951Y-111758380D01*
X186885904Y-110758380D02*
X187504951Y-110758380D01*
X187171618Y-111139333D01*
X187314475Y-111139333D01*
X187409713Y-111186952D01*
X187457332Y-111234571D01*
X187504951Y-111329809D01*
X187504951Y-111567904D01*
X187457332Y-111663142D01*
X187409713Y-111710761D01*
X187314475Y-111758380D01*
X187028761Y-111758380D01*
X186933523Y-111710761D01*
X186885904Y-111663142D01*
X187790665Y-110758380D02*
X188123999Y-111758380D01*
X188457332Y-110758380D01*
X189743046Y-110758380D02*
X189933523Y-110758380D01*
X190028761Y-110806000D01*
X190123999Y-110901238D01*
X190171618Y-111091714D01*
X190171618Y-111425047D01*
X190123999Y-111615523D01*
X190028761Y-111710761D01*
X189933523Y-111758380D01*
X189743046Y-111758380D01*
X189647808Y-111710761D01*
X189552570Y-111615523D01*
X189504951Y-111425047D01*
X189504951Y-111091714D01*
X189552570Y-110901238D01*
X189647808Y-110806000D01*
X189743046Y-110758380D01*
X190600189Y-111758380D02*
X190600189Y-110758380D01*
X191171618Y-111758380D02*
X190743046Y-111186952D01*
X191171618Y-110758380D02*
X190600189Y-111329809D01*
X186028761Y-108218380D02*
X185552571Y-108218380D01*
X185504952Y-108694571D01*
X185552571Y-108646952D01*
X185647809Y-108599333D01*
X185885904Y-108599333D01*
X185981142Y-108646952D01*
X186028761Y-108694571D01*
X186076380Y-108789809D01*
X186076380Y-109027904D01*
X186028761Y-109123142D01*
X185981142Y-109170761D01*
X185885904Y-109218380D01*
X185647809Y-109218380D01*
X185552571Y-109170761D01*
X185504952Y-109123142D01*
X186362095Y-108218380D02*
X186695428Y-109218380D01*
X187028761Y-108218380D01*
X188314476Y-108218380D02*
X188504952Y-108218380D01*
X188600190Y-108266000D01*
X188695428Y-108361238D01*
X188743047Y-108551714D01*
X188743047Y-108885047D01*
X188695428Y-109075523D01*
X188600190Y-109170761D01*
X188504952Y-109218380D01*
X188314476Y-109218380D01*
X188219238Y-109170761D01*
X188124000Y-109075523D01*
X188076380Y-108885047D01*
X188076380Y-108551714D01*
X188124000Y-108361238D01*
X188219238Y-108266000D01*
X188314476Y-108218380D01*
X189171619Y-109218380D02*
X189171619Y-108218380D01*
X189743047Y-109218380D02*
X189314476Y-108646952D01*
X189743047Y-108218380D02*
X189171619Y-108789809D01*
X174122380Y-106519523D02*
X175122380Y-106281428D01*
X174408095Y-106090952D01*
X175122380Y-105900476D01*
X174122380Y-105662380D01*
X174122380Y-105424285D02*
X174122380Y-104852857D01*
X175122380Y-105138571D02*
X174122380Y-105138571D01*
X175122380Y-103948095D02*
X174646190Y-104281428D01*
X175122380Y-104519523D02*
X174122380Y-104519523D01*
X174122380Y-104138571D01*
X174170000Y-104043333D01*
X174217619Y-103995714D01*
X174312857Y-103948095D01*
X174455714Y-103948095D01*
X174550952Y-103995714D01*
X174598571Y-104043333D01*
X174646190Y-104138571D01*
X174646190Y-104519523D01*
X173090380Y-105900476D02*
X173090380Y-106471904D01*
X173090380Y-106186190D02*
X172090380Y-106186190D01*
X172233238Y-106281428D01*
X172328476Y-106376666D01*
X172376095Y-106471904D01*
X172090380Y-105567142D02*
X173090380Y-105329047D01*
X172376095Y-105138571D01*
X173090380Y-104948095D01*
X172090380Y-104710000D01*
X173090380Y-104329047D02*
X172090380Y-104329047D01*
X172090380Y-104090952D01*
X172138000Y-103948095D01*
X172233238Y-103852857D01*
X172328476Y-103805238D01*
X172518952Y-103757619D01*
X172661809Y-103757619D01*
X172852285Y-103805238D01*
X172947523Y-103852857D01*
X173042761Y-103948095D01*
X173090380Y-104090952D01*
X173090380Y-104329047D01*
X171058380Y-105900476D02*
X171058380Y-106471905D01*
X171058380Y-106186191D02*
X170058380Y-106186191D01*
X170201238Y-106281429D01*
X170296476Y-106376667D01*
X170344095Y-106471905D01*
X170058380Y-105567143D02*
X171058380Y-105329048D01*
X170344095Y-105138572D01*
X171058380Y-104948095D01*
X170058380Y-104710000D01*
X170677428Y-104329048D02*
X170677428Y-103567143D01*
X171058380Y-103948095D02*
X170296476Y-103948095D01*
X168026380Y-106519524D02*
X168026380Y-105900476D01*
X168407333Y-106233810D01*
X168407333Y-106090953D01*
X168454952Y-105995714D01*
X168502571Y-105948095D01*
X168597809Y-105900476D01*
X168835904Y-105900476D01*
X168931142Y-105948095D01*
X168978761Y-105995714D01*
X169026380Y-106090953D01*
X169026380Y-106376667D01*
X168978761Y-106471905D01*
X168931142Y-106519524D01*
X168931142Y-105471905D02*
X168978761Y-105424286D01*
X169026380Y-105471905D01*
X168978761Y-105519524D01*
X168931142Y-105471905D01*
X169026380Y-105471905D01*
X168026380Y-105090953D02*
X168026380Y-104471905D01*
X168407333Y-104805238D01*
X168407333Y-104662381D01*
X168454952Y-104567143D01*
X168502571Y-104519524D01*
X168597809Y-104471905D01*
X168835904Y-104471905D01*
X168931142Y-104519524D01*
X168978761Y-104567143D01*
X169026380Y-104662381D01*
X169026380Y-104948095D01*
X168978761Y-105043334D01*
X168931142Y-105090953D01*
X168026380Y-104186191D02*
X169026380Y-103852857D01*
X168026380Y-103519524D01*
X165994380Y-105948095D02*
X165994380Y-106424285D01*
X166470571Y-106471904D01*
X166422952Y-106424285D01*
X166375333Y-106329047D01*
X166375333Y-106090952D01*
X166422952Y-105995714D01*
X166470571Y-105948095D01*
X166565809Y-105900476D01*
X166803904Y-105900476D01*
X166899142Y-105948095D01*
X166946761Y-105995714D01*
X166994380Y-106090952D01*
X166994380Y-106329047D01*
X166946761Y-106424285D01*
X166899142Y-106471904D01*
X165994380Y-105614761D02*
X166994380Y-105281428D01*
X165994380Y-104948095D01*
D13*
X177210000Y-129594000D02*
X177210000Y-132134000D01*
X161970000Y-129594000D02*
X161970000Y-132134000D01*
D10*
X164010000Y-105900476D02*
X163962380Y-105995714D01*
X163962380Y-106138572D01*
X164010000Y-106281429D01*
X164105238Y-106376667D01*
X164200476Y-106424286D01*
X164390952Y-106471905D01*
X164533809Y-106471905D01*
X164724285Y-106424286D01*
X164819523Y-106376667D01*
X164914761Y-106281429D01*
X164962380Y-106138572D01*
X164962380Y-106043333D01*
X164914761Y-105900476D01*
X164867142Y-105852857D01*
X164533809Y-105852857D01*
X164533809Y-106043333D01*
X164962380Y-105424286D02*
X163962380Y-105424286D01*
X164962380Y-104852857D01*
X163962380Y-104852857D01*
X164962380Y-104376667D02*
X163962380Y-104376667D01*
X163962380Y-104138572D01*
X164010000Y-103995714D01*
X164105238Y-103900476D01*
X164200476Y-103852857D01*
X164390952Y-103805238D01*
X164533809Y-103805238D01*
X164724285Y-103852857D01*
X164819523Y-103900476D01*
X164914761Y-103995714D01*
X164962380Y-104138572D01*
X164962380Y-104376667D01*
X183435476Y-130282380D02*
X183673571Y-131282380D01*
X183864047Y-130568095D01*
X184054523Y-131282380D01*
X184292619Y-130282380D01*
X184530714Y-130282380D02*
X185102142Y-130282380D01*
X184816428Y-131282380D02*
X184816428Y-130282380D01*
X186006904Y-131282380D02*
X185673571Y-130806190D01*
X185435476Y-131282380D02*
X185435476Y-130282380D01*
X185816428Y-130282380D01*
X185911666Y-130330000D01*
X185959285Y-130377619D01*
X186006904Y-130472857D01*
X186006904Y-130615714D01*
X185959285Y-130710952D01*
X185911666Y-130758571D01*
X185816428Y-130806190D01*
X185435476Y-130806190D01*
X178188809Y-130282380D02*
X178807857Y-130282380D01*
X178474523Y-130663333D01*
X178617380Y-130663333D01*
X178712619Y-130710952D01*
X178760238Y-130758571D01*
X178807857Y-130853809D01*
X178807857Y-131091904D01*
X178760238Y-131187142D01*
X178712619Y-131234761D01*
X178617380Y-131282380D01*
X178331666Y-131282380D01*
X178236428Y-131234761D01*
X178188809Y-131187142D01*
X179236428Y-131187142D02*
X179284047Y-131234761D01*
X179236428Y-131282380D01*
X179188809Y-131234761D01*
X179236428Y-131187142D01*
X179236428Y-131282380D01*
X179617380Y-130282380D02*
X180236428Y-130282380D01*
X179903095Y-130663333D01*
X180045952Y-130663333D01*
X180141190Y-130710952D01*
X180188809Y-130758571D01*
X180236428Y-130853809D01*
X180236428Y-131091904D01*
X180188809Y-131187142D01*
X180141190Y-131234761D01*
X180045952Y-131282380D01*
X179760238Y-131282380D01*
X179665000Y-131234761D01*
X179617380Y-131187142D01*
X180522142Y-130282380D02*
X180855476Y-131282380D01*
X181188809Y-130282380D01*
X163091666Y-130282380D02*
X163425000Y-131282380D01*
X163758333Y-130282380D01*
X164663095Y-131187142D02*
X164615476Y-131234761D01*
X164472619Y-131282380D01*
X164377380Y-131282380D01*
X164234523Y-131234761D01*
X164139285Y-131139523D01*
X164091666Y-131044285D01*
X164044047Y-130853809D01*
X164044047Y-130710952D01*
X164091666Y-130520476D01*
X164139285Y-130425238D01*
X164234523Y-130330000D01*
X164377380Y-130282380D01*
X164472619Y-130282380D01*
X164615476Y-130330000D01*
X164663095Y-130377619D01*
X165663095Y-131187142D02*
X165615476Y-131234761D01*
X165472619Y-131282380D01*
X165377380Y-131282380D01*
X165234523Y-131234761D01*
X165139285Y-131139523D01*
X165091666Y-131044285D01*
X165044047Y-130853809D01*
X165044047Y-130710952D01*
X165091666Y-130520476D01*
X165139285Y-130425238D01*
X165234523Y-130330000D01*
X165377380Y-130282380D01*
X165472619Y-130282380D01*
X165615476Y-130330000D01*
X165663095Y-130377619D01*
X168005000Y-131282380D02*
X168005000Y-130282380D01*
X168243095Y-130282380D01*
X168385952Y-130330000D01*
X168481190Y-130425238D01*
X168528809Y-130520476D01*
X168576428Y-130710952D01*
X168576428Y-130853809D01*
X168528809Y-131044285D01*
X168481190Y-131139523D01*
X168385952Y-131234761D01*
X168243095Y-131282380D01*
X168005000Y-131282380D01*
X168957380Y-130996666D02*
X169433571Y-130996666D01*
X168862142Y-131282380D02*
X169195476Y-130282380D01*
X169528809Y-131282380D01*
X169719285Y-130282380D02*
X170290714Y-130282380D01*
X170005000Y-131282380D02*
X170005000Y-130282380D01*
X170576428Y-130996666D02*
X171052619Y-130996666D01*
X170481190Y-131282380D02*
X170814523Y-130282380D01*
X171147857Y-131282380D01*
X173823095Y-130330000D02*
X173727857Y-130282380D01*
X173585000Y-130282380D01*
X173442142Y-130330000D01*
X173346904Y-130425238D01*
X173299285Y-130520476D01*
X173251666Y-130710952D01*
X173251666Y-130853809D01*
X173299285Y-131044285D01*
X173346904Y-131139523D01*
X173442142Y-131234761D01*
X173585000Y-131282380D01*
X173680238Y-131282380D01*
X173823095Y-131234761D01*
X173870714Y-131187142D01*
X173870714Y-130853809D01*
X173680238Y-130853809D01*
X174299285Y-131282380D02*
X174299285Y-130282380D01*
X174870714Y-131282380D01*
X174870714Y-130282380D01*
X175346904Y-131282380D02*
X175346904Y-130282380D01*
X175585000Y-130282380D01*
X175727857Y-130330000D01*
X175823095Y-130425238D01*
X175870714Y-130520476D01*
X175918333Y-130710952D01*
X175918333Y-130853809D01*
X175870714Y-131044285D01*
X175823095Y-131139523D01*
X175727857Y-131234761D01*
X175585000Y-131282380D01*
X175346904Y-131282380D01*
X159154523Y-130282380D02*
X158678333Y-130282380D01*
X158630714Y-130758571D01*
X158678333Y-130710952D01*
X158773571Y-130663333D01*
X159011666Y-130663333D01*
X159106904Y-130710952D01*
X159154523Y-130758571D01*
X159202142Y-130853809D01*
X159202142Y-131091904D01*
X159154523Y-131187142D01*
X159106904Y-131234761D01*
X159011666Y-131282380D01*
X158773571Y-131282380D01*
X158678333Y-131234761D01*
X158630714Y-131187142D01*
X159487857Y-130282380D02*
X159821190Y-131282380D01*
X160154523Y-130282380D01*
X153503095Y-130330000D02*
X153407857Y-130282380D01*
X153265000Y-130282380D01*
X153122142Y-130330000D01*
X153026904Y-130425238D01*
X152979285Y-130520476D01*
X152931666Y-130710952D01*
X152931666Y-130853809D01*
X152979285Y-131044285D01*
X153026904Y-131139523D01*
X153122142Y-131234761D01*
X153265000Y-131282380D01*
X153360238Y-131282380D01*
X153503095Y-131234761D01*
X153550714Y-131187142D01*
X153550714Y-130853809D01*
X153360238Y-130853809D01*
X153979285Y-131282380D02*
X153979285Y-130282380D01*
X154550714Y-131282380D01*
X154550714Y-130282380D01*
X155026904Y-131282380D02*
X155026904Y-130282380D01*
X155265000Y-130282380D01*
X155407857Y-130330000D01*
X155503095Y-130425238D01*
X155550714Y-130520476D01*
X155598333Y-130710952D01*
X155598333Y-130853809D01*
X155550714Y-131044285D01*
X155503095Y-131139523D01*
X155407857Y-131234761D01*
X155265000Y-131282380D01*
X155026904Y-131282380D01*
X112894047Y-93150571D02*
X113036904Y-93198190D01*
X113084523Y-93245809D01*
X113132142Y-93341047D01*
X113132142Y-93483904D01*
X113084523Y-93579142D01*
X113036904Y-93626761D01*
X112941666Y-93674380D01*
X112560714Y-93674380D01*
X112560714Y-92674380D01*
X112894047Y-92674380D01*
X112989285Y-92722000D01*
X113036904Y-92769619D01*
X113084523Y-92864857D01*
X113084523Y-92960095D01*
X113036904Y-93055333D01*
X112989285Y-93102952D01*
X112894047Y-93150571D01*
X112560714Y-93150571D01*
X113560714Y-93674380D02*
X113560714Y-92674380D01*
X113894047Y-93388666D01*
X114227380Y-92674380D01*
X114227380Y-93674380D01*
X114703571Y-93150571D02*
X115036904Y-93150571D01*
X115179761Y-93674380D02*
X114703571Y-93674380D01*
X114703571Y-92674380D01*
X115179761Y-92674380D01*
X115560714Y-92769619D02*
X115608333Y-92722000D01*
X115703571Y-92674380D01*
X115941666Y-92674380D01*
X116036904Y-92722000D01*
X116084523Y-92769619D01*
X116132142Y-92864857D01*
X116132142Y-92960095D01*
X116084523Y-93102952D01*
X115513095Y-93674380D01*
X116132142Y-93674380D01*
X116703571Y-93102952D02*
X116608333Y-93055333D01*
X116560714Y-93007714D01*
X116513095Y-92912476D01*
X116513095Y-92864857D01*
X116560714Y-92769619D01*
X116608333Y-92722000D01*
X116703571Y-92674380D01*
X116894047Y-92674380D01*
X116989285Y-92722000D01*
X117036904Y-92769619D01*
X117084523Y-92864857D01*
X117084523Y-92912476D01*
X117036904Y-93007714D01*
X116989285Y-93055333D01*
X116894047Y-93102952D01*
X116703571Y-93102952D01*
X116608333Y-93150571D01*
X116560714Y-93198190D01*
X116513095Y-93293428D01*
X116513095Y-93483904D01*
X116560714Y-93579142D01*
X116608333Y-93626761D01*
X116703571Y-93674380D01*
X116894047Y-93674380D01*
X116989285Y-93626761D01*
X117036904Y-93579142D01*
X117084523Y-93483904D01*
X117084523Y-93293428D01*
X117036904Y-93198190D01*
X116989285Y-93150571D01*
X116894047Y-93102952D01*
X117703571Y-92674380D02*
X117798809Y-92674380D01*
X117894047Y-92722000D01*
X117941666Y-92769619D01*
X117989285Y-92864857D01*
X118036904Y-93055333D01*
X118036904Y-93293428D01*
X117989285Y-93483904D01*
X117941666Y-93579142D01*
X117894047Y-93626761D01*
X117798809Y-93674380D01*
X117703571Y-93674380D01*
X117608333Y-93626761D01*
X117560714Y-93579142D01*
X117513095Y-93483904D01*
X117465476Y-93293428D01*
X117465476Y-93055333D01*
X117513095Y-92864857D01*
X117560714Y-92769619D01*
X117608333Y-92722000D01*
X117703571Y-92674380D01*
D13*
X109243000Y-98722000D02*
X109243000Y-87722000D01*
X123243000Y-98722000D02*
X109243000Y-98722000D01*
X123243000Y-87722000D02*
X123243000Y-98722000D01*
X109243000Y-87722000D02*
X123243000Y-87722000D01*
%TO.C,J11*%
X127010000Y-88102000D02*
X124350000Y-88102000D01*
X127010000Y-95782000D02*
X127010000Y-88102000D01*
X124350000Y-95782000D02*
X124350000Y-88102000D01*
X127010000Y-95782000D02*
X124350000Y-95782000D01*
X127010000Y-97052000D02*
X127010000Y-98382000D01*
X127010000Y-98382000D02*
X125680000Y-98382000D01*
%TO.C,RV1*%
X195473000Y-80308000D02*
X194783000Y-80308000D01*
X195473000Y-80208000D02*
X195473000Y-80308000D01*
X195473000Y-73688000D02*
X195223000Y-73688000D01*
X195473000Y-73788000D02*
X195473000Y-73688000D01*
X195673000Y-73788000D02*
X195473000Y-73788000D01*
X195473000Y-75208000D02*
X195673000Y-75208000D01*
X188453000Y-78998000D02*
X188453000Y-77508000D01*
X193743000Y-80308000D02*
X189763000Y-80308000D01*
X189763000Y-73688000D02*
X193303000Y-73688000D01*
X188453000Y-76488000D02*
X188453000Y-74998000D01*
X195673000Y-80208000D02*
X195473000Y-80208000D01*
X195673000Y-78788000D02*
X195673000Y-80208000D01*
X195473000Y-78788000D02*
X195673000Y-78788000D01*
X195473000Y-75208000D02*
X195473000Y-78788000D01*
X195673000Y-73788000D02*
X195673000Y-75208000D01*
X188453000Y-74998000D02*
G75*
G02*
X189763000Y-73688000I1310000J0D01*
G01*
X189763000Y-80308000D02*
G75*
G02*
X188453000Y-78998000I0J1310000D01*
G01*
%TO.C,U5*%
X179660000Y-93838000D02*
X179660000Y-97438000D01*
X179671522Y-97476478D02*
G75*
G03*
X184110000Y-95638000I1838478J1838478D01*
G01*
X179671522Y-93799522D02*
G75*
G02*
X184110000Y-95638000I1838478J-1838478D01*
G01*
%TO.C,R18*%
X127360936Y-66651000D02*
X127815064Y-66651000D01*
X127360936Y-68121000D02*
X127815064Y-68121000D01*
%TO.C,R17*%
X127815064Y-65581000D02*
X127360936Y-65581000D01*
X127815064Y-64111000D02*
X127360936Y-64111000D01*
%TO.C,Q1*%
X124950000Y-81870000D02*
X124950000Y-82800000D01*
X124950000Y-85030000D02*
X124950000Y-84100000D01*
X124950000Y-85030000D02*
X127110000Y-85030000D01*
X124950000Y-81870000D02*
X126410000Y-81870000D01*
%TO.C,U3*%
X183370000Y-74735000D02*
X185185000Y-74735000D01*
X183370000Y-74990000D02*
X183370000Y-74735000D01*
X179510000Y-74990000D02*
X183370000Y-74990000D01*
X175650000Y-74990000D02*
X175650000Y-74735000D01*
X179510000Y-74990000D02*
X175650000Y-74990000D01*
X183370000Y-64470000D02*
X183370000Y-64725000D01*
X179510000Y-64470000D02*
X183370000Y-64470000D01*
X175650000Y-64470000D02*
X175650000Y-64725000D01*
X179510000Y-64470000D02*
X175650000Y-64470000D01*
%TO.C,J2*%
X164150000Y-94214000D02*
X164150000Y-92999000D01*
X164210000Y-98174000D02*
X164210000Y-100434000D01*
X164710000Y-98174000D02*
X164710000Y-100434000D01*
X175310000Y-96574000D02*
X176310000Y-96574000D01*
X175310000Y-98174000D02*
X175310000Y-96574000D01*
X176310000Y-98174000D02*
X175310000Y-98174000D01*
X176310000Y-96574000D02*
X176310000Y-98174000D01*
X164710000Y-96574000D02*
X163710000Y-96574000D01*
X164710000Y-98174000D02*
X164710000Y-96574000D01*
X163710000Y-98174000D02*
X164710000Y-98174000D01*
X163710000Y-96574000D02*
X163710000Y-98174000D01*
X177070000Y-94214000D02*
X176150000Y-94214000D01*
X162950000Y-94214000D02*
X163870000Y-94214000D01*
X174510000Y-96074000D02*
X174510000Y-100434000D01*
X165510000Y-96074000D02*
X174510000Y-96074000D01*
X165510000Y-100434000D02*
X165510000Y-96074000D01*
X176150000Y-94214000D02*
X175870000Y-94214000D01*
X176150000Y-92614000D02*
X176150000Y-94214000D01*
X177070000Y-92614000D02*
X176150000Y-92614000D01*
X177070000Y-100434000D02*
X177070000Y-92614000D01*
X162950000Y-100434000D02*
X177070000Y-100434000D01*
X162950000Y-92614000D02*
X162950000Y-100434000D01*
X163870000Y-92614000D02*
X162950000Y-92614000D01*
X163870000Y-94214000D02*
X163870000Y-92614000D01*
X164150000Y-94214000D02*
X163870000Y-94214000D01*
%TO.C,JP1*%
X187034000Y-97688000D02*
X187034000Y-93588000D01*
X187034000Y-93588000D02*
X189034000Y-93588000D01*
X189034000Y-93588000D02*
X189034000Y-97688000D01*
X189034000Y-97688000D02*
X187034000Y-97688000D01*
X189234000Y-96938000D02*
X189534000Y-97238000D01*
X189534000Y-97238000D02*
X189534000Y-96638000D01*
X189234000Y-96938000D02*
X189534000Y-96638000D01*
%TO.C,SW2*%
X168265000Y-73480000D02*
X169765000Y-73480000D01*
X172265000Y-72230000D02*
X172265000Y-67730000D01*
X169765000Y-66480000D02*
X168265000Y-66480000D01*
X165765000Y-67730000D02*
X165765000Y-72230000D01*
%TO.C,SW1*%
X161515000Y-66480000D02*
X160015000Y-66480000D01*
X157515000Y-67730000D02*
X157515000Y-72230000D01*
X160015000Y-73480000D02*
X161515000Y-73480000D01*
X164015000Y-72230000D02*
X164015000Y-67730000D01*
%TO.C,JP2*%
X112180000Y-82958000D02*
X112180000Y-81628000D01*
X113510000Y-82958000D02*
X112180000Y-82958000D01*
X114780000Y-82958000D02*
X114780000Y-80298000D01*
X114780000Y-80298000D02*
X119920000Y-80298000D01*
X114780000Y-82958000D02*
X119920000Y-82958000D01*
X119920000Y-82958000D02*
X119920000Y-80298000D01*
%TO.C,C6*%
X157895000Y-85525000D02*
X156645000Y-85525000D01*
X157270000Y-84900000D02*
X157270000Y-86150000D01*
X150214437Y-86390000D02*
X149150000Y-87454437D01*
X158805563Y-86390000D02*
X159870000Y-87454437D01*
X158805563Y-86390000D02*
X156020000Y-86390000D01*
X150214437Y-86390000D02*
X153000000Y-86390000D01*
X149150000Y-87454437D02*
X149150000Y-97110000D01*
X159870000Y-87454437D02*
X159870000Y-97110000D01*
X159870000Y-97110000D02*
X156020000Y-97110000D01*
X149150000Y-97110000D02*
X153000000Y-97110000D01*
%TO.C,J3*%
X162150000Y-107164000D02*
X162150000Y-108414000D01*
X163400000Y-107164000D02*
X162150000Y-107164000D01*
X173510000Y-111574000D02*
X173510000Y-111074000D01*
X173610000Y-111074000D02*
X173610000Y-111574000D01*
X173410000Y-111074000D02*
X173610000Y-111074000D01*
X173410000Y-111574000D02*
X173410000Y-111074000D01*
X171510000Y-111574000D02*
X171510000Y-111074000D01*
X171610000Y-111074000D02*
X171610000Y-111574000D01*
X171410000Y-111074000D02*
X171610000Y-111074000D01*
X171410000Y-111574000D02*
X171410000Y-111074000D01*
X169510000Y-111574000D02*
X169510000Y-111074000D01*
X169610000Y-111074000D02*
X169610000Y-111574000D01*
X169410000Y-111074000D02*
X169610000Y-111074000D01*
X169410000Y-111574000D02*
X169410000Y-111074000D01*
X167510000Y-111574000D02*
X167510000Y-111074000D01*
X167610000Y-111074000D02*
X167610000Y-111574000D01*
X167410000Y-111074000D02*
X167610000Y-111074000D01*
X167410000Y-111574000D02*
X167410000Y-111074000D01*
X165510000Y-111574000D02*
X165510000Y-111074000D01*
X165610000Y-111074000D02*
X165610000Y-111574000D01*
X165410000Y-111074000D02*
X165610000Y-111074000D01*
X165410000Y-111574000D02*
X165410000Y-111074000D01*
X176570000Y-110074000D02*
X175960000Y-110074000D01*
X176570000Y-108774000D02*
X175960000Y-108774000D01*
X162450000Y-110074000D02*
X163060000Y-110074000D01*
X162450000Y-108774000D02*
X163060000Y-108774000D01*
X174010000Y-108074000D02*
X174010000Y-107464000D01*
X175960000Y-108074000D02*
X174010000Y-108074000D01*
X175960000Y-111574000D02*
X175960000Y-108074000D01*
X163060000Y-111574000D02*
X175960000Y-111574000D01*
X163060000Y-108074000D02*
X163060000Y-111574000D01*
X165010000Y-108074000D02*
X163060000Y-108074000D01*
X165010000Y-107464000D02*
X165010000Y-108074000D01*
X164210000Y-107364000D02*
X163910000Y-107364000D01*
X163910000Y-107264000D02*
X163910000Y-107464000D01*
X164210000Y-107264000D02*
X163910000Y-107264000D01*
X164210000Y-107464000D02*
X164210000Y-107264000D01*
X176570000Y-107464000D02*
X162450000Y-107464000D01*
X176570000Y-112184000D02*
X176570000Y-107464000D01*
X162450000Y-112184000D02*
X176570000Y-112184000D01*
X162450000Y-107464000D02*
X162450000Y-112184000D01*
%TO.C,J9*%
X121743000Y-98382000D02*
X120413000Y-98382000D01*
X120413000Y-98382000D02*
X120413000Y-97052000D01*
X120413000Y-95782000D02*
X120413000Y-88102000D01*
X123073000Y-88102000D02*
X120413000Y-88102000D01*
X123073000Y-95782000D02*
X123073000Y-88102000D01*
X123073000Y-95782000D02*
X120413000Y-95782000D01*
%TO.C,R3*%
X182824936Y-106961000D02*
X183279064Y-106961000D01*
X182824936Y-105491000D02*
X183279064Y-105491000D01*
%TO.C,R4*%
X182840936Y-114581000D02*
X183295064Y-114581000D01*
X182840936Y-113111000D02*
X183295064Y-113111000D01*
%TO.C,ADR-A3*%
X187665000Y-82954000D02*
X190465000Y-82954000D01*
X190465000Y-82954000D02*
X190465000Y-84954000D01*
X190465000Y-84954000D02*
X187665000Y-84954000D01*
X187665000Y-84954000D02*
X187665000Y-82954000D01*
%TO.C,ADR-A2*%
X187665000Y-86002000D02*
X190465000Y-86002000D01*
X190465000Y-86002000D02*
X190465000Y-88002000D01*
X190465000Y-88002000D02*
X187665000Y-88002000D01*
X187665000Y-88002000D02*
X187665000Y-86002000D01*
%TO.C,ADR-A1*%
X187665000Y-89050000D02*
X190465000Y-89050000D01*
X190465000Y-89050000D02*
X190465000Y-91050000D01*
X190465000Y-91050000D02*
X187665000Y-91050000D01*
X187665000Y-91050000D02*
X187665000Y-89050000D01*
%TO.C,U1*%
X173360000Y-87660000D02*
X167350000Y-87660000D01*
X171110000Y-80840000D02*
X167350000Y-80840000D01*
X167350000Y-87660000D02*
X167350000Y-86400000D01*
X167350000Y-80840000D02*
X167350000Y-82100000D01*
%TO.C,R16*%
X127360936Y-63041000D02*
X127815064Y-63041000D01*
X127360936Y-61571000D02*
X127815064Y-61571000D01*
%TO.C,R15*%
X127344936Y-78281000D02*
X127799064Y-78281000D01*
X127344936Y-76811000D02*
X127799064Y-76811000D01*
%TO.C,R14*%
X110804000Y-52914000D02*
X113854000Y-52914000D01*
X110804000Y-57214000D02*
X113854000Y-57214000D01*
X113898513Y-57182249D02*
G75*
G03*
X113854000Y-52914000I-1544513J2118249D01*
G01*
X110825766Y-52898474D02*
G75*
G03*
X110804000Y-57214000I1528234J-2165526D01*
G01*
%TO.C,R11*%
X176722064Y-85745000D02*
X176267936Y-85745000D01*
X176722064Y-87215000D02*
X176267936Y-87215000D01*
%TO.C,J10*%
X111857000Y-69360000D02*
X113107000Y-69360000D01*
X111857000Y-68110000D02*
X111857000Y-69360000D01*
X116267000Y-64000000D02*
X115767000Y-64000000D01*
X115767000Y-63900000D02*
X116267000Y-63900000D01*
X115767000Y-64100000D02*
X115767000Y-63900000D01*
X116267000Y-64100000D02*
X115767000Y-64100000D01*
X116267000Y-66000000D02*
X115767000Y-66000000D01*
X115767000Y-65900000D02*
X116267000Y-65900000D01*
X115767000Y-66100000D02*
X115767000Y-65900000D01*
X116267000Y-66100000D02*
X115767000Y-66100000D01*
X114767000Y-60940000D02*
X114767000Y-61550000D01*
X113467000Y-60940000D02*
X113467000Y-61550000D01*
X114767000Y-69060000D02*
X114767000Y-68450000D01*
X113467000Y-69060000D02*
X113467000Y-68450000D01*
X112767000Y-63500000D02*
X112157000Y-63500000D01*
X112767000Y-61550000D02*
X112767000Y-63500000D01*
X116267000Y-61550000D02*
X112767000Y-61550000D01*
X116267000Y-68450000D02*
X116267000Y-61550000D01*
X112767000Y-68450000D02*
X116267000Y-68450000D01*
X112767000Y-66500000D02*
X112767000Y-68450000D01*
X112157000Y-66500000D02*
X112767000Y-66500000D01*
X112057000Y-67300000D02*
X112057000Y-67600000D01*
X111957000Y-67600000D02*
X112157000Y-67600000D01*
X111957000Y-67300000D02*
X111957000Y-67600000D01*
X112157000Y-67300000D02*
X111957000Y-67300000D01*
X112157000Y-60940000D02*
X112157000Y-69060000D01*
X116877000Y-60940000D02*
X112157000Y-60940000D01*
X116877000Y-69060000D02*
X116877000Y-60940000D01*
X112157000Y-69060000D02*
X116877000Y-69060000D01*
%TO.C,J7*%
X134380000Y-87512000D02*
X134380000Y-86182000D01*
X135710000Y-87512000D02*
X134380000Y-87512000D01*
X136980000Y-87512000D02*
X136980000Y-84852000D01*
X136980000Y-84852000D02*
X144660000Y-84852000D01*
X136980000Y-87512000D02*
X144660000Y-87512000D01*
X144660000Y-87512000D02*
X144660000Y-84852000D01*
%TO.C,J6*%
X111900000Y-78360000D02*
X113150000Y-78360000D01*
X111900000Y-77110000D02*
X111900000Y-78360000D01*
X116310000Y-75000000D02*
X115810000Y-75000000D01*
X115810000Y-74900000D02*
X116310000Y-74900000D01*
X115810000Y-75100000D02*
X115810000Y-74900000D01*
X116310000Y-75100000D02*
X115810000Y-75100000D01*
X114810000Y-71940000D02*
X114810000Y-72550000D01*
X113510000Y-71940000D02*
X113510000Y-72550000D01*
X114810000Y-78060000D02*
X114810000Y-77450000D01*
X113510000Y-78060000D02*
X113510000Y-77450000D01*
X112810000Y-74500000D02*
X112200000Y-74500000D01*
X112810000Y-72550000D02*
X112810000Y-74500000D01*
X116310000Y-72550000D02*
X112810000Y-72550000D01*
X116310000Y-77450000D02*
X116310000Y-72550000D01*
X112810000Y-77450000D02*
X116310000Y-77450000D01*
X112810000Y-75500000D02*
X112810000Y-77450000D01*
X112200000Y-75500000D02*
X112810000Y-75500000D01*
X112100000Y-76300000D02*
X112100000Y-76600000D01*
X112000000Y-76600000D02*
X112200000Y-76600000D01*
X112000000Y-76300000D02*
X112000000Y-76600000D01*
X112200000Y-76300000D02*
X112000000Y-76300000D01*
X112200000Y-71940000D02*
X112200000Y-78060000D01*
X116920000Y-71940000D02*
X112200000Y-71940000D01*
X116920000Y-78060000D02*
X116920000Y-71940000D01*
X112200000Y-78060000D02*
X116920000Y-78060000D01*
%TO.C,J5*%
X176825000Y-129380000D02*
X177325000Y-129380000D01*
X176825000Y-128640000D02*
X176825000Y-129380000D01*
X183518000Y-125503000D02*
X183471000Y-125549000D01*
X185815000Y-123205000D02*
X185780000Y-123241000D01*
X183711000Y-125719000D02*
X183676000Y-125754000D01*
X186020000Y-123411000D02*
X185973000Y-123457000D01*
X187345000Y-119219000D02*
X187345000Y-129140000D01*
X177065000Y-119219000D02*
X177065000Y-129140000D01*
X177065000Y-129140000D02*
X187345000Y-129140000D01*
X177065000Y-119219000D02*
X187345000Y-119219000D01*
X177065000Y-122179000D02*
X187345000Y-122179000D01*
X177065000Y-127080000D02*
X187345000Y-127080000D01*
X177065000Y-128580000D02*
X187345000Y-128580000D01*
X186425000Y-124480000D02*
G75*
G03*
X186425000Y-124480000I-1680000J0D01*
G01*
X179693805Y-126160253D02*
G75*
G02*
X178981000Y-126015000I-28805J1680253D01*
G01*
X178129574Y-125163042D02*
G75*
G02*
X178130000Y-123796000I1535426J683042D01*
G01*
X178981958Y-122944574D02*
G75*
G02*
X180349000Y-122945000I683042J-1535426D01*
G01*
X181200426Y-123796958D02*
G75*
G02*
X181200000Y-125164000I-1535426J-683042D01*
G01*
X180348318Y-126014756D02*
G75*
G02*
X179665000Y-126160000I-683318J1534756D01*
G01*
%TO.C,J4*%
X171185000Y-124480000D02*
G75*
G03*
X171185000Y-124480000I-1680000J0D01*
G01*
X176265000Y-124480000D02*
G75*
G03*
X176265000Y-124480000I-1680000J0D01*
G01*
X161825000Y-128580000D02*
X177185000Y-128580000D01*
X161825000Y-127080000D02*
X177185000Y-127080000D01*
X161825000Y-122179000D02*
X177185000Y-122179000D01*
X161825000Y-119219000D02*
X177185000Y-119219000D01*
X161825000Y-129140000D02*
X177185000Y-129140000D01*
X161825000Y-119219000D02*
X161825000Y-129140000D01*
X177185000Y-119219000D02*
X177185000Y-129140000D01*
X170780000Y-123411000D02*
X170733000Y-123457000D01*
X168471000Y-125719000D02*
X168436000Y-125754000D01*
X170575000Y-123205000D02*
X170540000Y-123241000D01*
X168278000Y-125503000D02*
X168231000Y-125549000D01*
X175860000Y-123411000D02*
X175813000Y-123457000D01*
X173551000Y-125719000D02*
X173516000Y-125754000D01*
X175655000Y-123205000D02*
X175620000Y-123241000D01*
X173358000Y-125503000D02*
X173311000Y-125549000D01*
X161585000Y-128640000D02*
X161585000Y-129380000D01*
X161585000Y-129380000D02*
X162085000Y-129380000D01*
X165108318Y-126014756D02*
G75*
G02*
X164425000Y-126160000I-683318J1534756D01*
G01*
X165960426Y-123796958D02*
G75*
G02*
X165960000Y-125164000I-1535426J-683042D01*
G01*
X163741958Y-122944574D02*
G75*
G02*
X165109000Y-122945000I683042J-1535426D01*
G01*
X162889574Y-125163042D02*
G75*
G02*
X162890000Y-123796000I1535426J683042D01*
G01*
X164453805Y-126160253D02*
G75*
G02*
X163741000Y-126015000I-28805J1680253D01*
G01*
%TO.C,J1*%
X151425000Y-129380000D02*
X151925000Y-129380000D01*
X151425000Y-128640000D02*
X151425000Y-129380000D01*
X158118000Y-125503000D02*
X158071000Y-125549000D01*
X160415000Y-123205000D02*
X160380000Y-123241000D01*
X158311000Y-125719000D02*
X158276000Y-125754000D01*
X160620000Y-123411000D02*
X160573000Y-123457000D01*
X161945000Y-119219000D02*
X161945000Y-129140000D01*
X151665000Y-119219000D02*
X151665000Y-129140000D01*
X151665000Y-129140000D02*
X161945000Y-129140000D01*
X151665000Y-119219000D02*
X161945000Y-119219000D01*
X151665000Y-122179000D02*
X161945000Y-122179000D01*
X151665000Y-127080000D02*
X161945000Y-127080000D01*
X151665000Y-128580000D02*
X161945000Y-128580000D01*
X161025000Y-124480000D02*
G75*
G03*
X161025000Y-124480000I-1680000J0D01*
G01*
X154293805Y-126160253D02*
G75*
G02*
X153581000Y-126015000I-28805J1680253D01*
G01*
X152729574Y-125163042D02*
G75*
G02*
X152730000Y-123796000I1535426J683042D01*
G01*
X153581958Y-122944574D02*
G75*
G02*
X154949000Y-122945000I683042J-1535426D01*
G01*
X155800426Y-123796958D02*
G75*
G02*
X155800000Y-125164000I-1535426J-683042D01*
G01*
X154948318Y-126014756D02*
G75*
G02*
X154265000Y-126160000I-683318J1534756D01*
G01*
%TO.C,D4*%
X181183000Y-112266000D02*
X184043000Y-112266000D01*
X181183000Y-110346000D02*
X181183000Y-112266000D01*
X184043000Y-110346000D02*
X181183000Y-110346000D01*
%TO.C,D1*%
X139166000Y-95464000D02*
X142026000Y-95464000D01*
X139166000Y-93544000D02*
X139166000Y-95464000D01*
X142026000Y-93544000D02*
X139166000Y-93544000D01*
%TO.C,R13*%
X127799064Y-75741000D02*
X127344936Y-75741000D01*
X127799064Y-74271000D02*
X127344936Y-74271000D01*
%TO.C,R12*%
X151675064Y-75741000D02*
X151220936Y-75741000D01*
X151675064Y-74271000D02*
X151220936Y-74271000D01*
%TO.C,R10*%
X151220936Y-71731000D02*
X151675064Y-71731000D01*
X151220936Y-73201000D02*
X151675064Y-73201000D01*
%TO.C,R9*%
X151675064Y-65581000D02*
X151220936Y-65581000D01*
X151675064Y-64111000D02*
X151220936Y-64111000D01*
%TO.C,R8*%
X151675064Y-68121000D02*
X151220936Y-68121000D01*
X151675064Y-66651000D02*
X151220936Y-66651000D01*
%TO.C,R7*%
X151220936Y-69191000D02*
X151675064Y-69191000D01*
X151220936Y-70661000D02*
X151675064Y-70661000D01*
%TO.C,R6*%
X127815064Y-73201000D02*
X127360936Y-73201000D01*
X127815064Y-71731000D02*
X127360936Y-71731000D01*
%TO.C,R5*%
X127815064Y-70661000D02*
X127360936Y-70661000D01*
X127815064Y-69191000D02*
X127360936Y-69191000D01*
%TO.C,R1*%
X145278064Y-95239000D02*
X144823936Y-95239000D01*
X145278064Y-93769000D02*
X144823936Y-93769000D01*
%TO.C,D3*%
X184043000Y-107806000D02*
X181183000Y-107806000D01*
X181183000Y-107806000D02*
X181183000Y-109726000D01*
X181183000Y-109726000D02*
X184043000Y-109726000D01*
%TO.C,D2*%
X142076000Y-96044000D02*
X139216000Y-96044000D01*
X139216000Y-96044000D02*
X139216000Y-97964000D01*
X139216000Y-97964000D02*
X142076000Y-97964000D01*
%TO.C,C5*%
X121465000Y-64584748D02*
X121465000Y-65107252D01*
X119995000Y-64584748D02*
X119995000Y-65107252D01*
%TO.C,C4*%
X194704248Y-65889000D02*
X195226752Y-65889000D01*
X194704248Y-67359000D02*
X195226752Y-67359000D01*
%TO.C,C3*%
X194704248Y-68429000D02*
X195226752Y-68429000D01*
X194704248Y-69899000D02*
X195226752Y-69899000D01*
%TO.C,C2*%
X176211248Y-83515000D02*
X176733752Y-83515000D01*
X176211248Y-84985000D02*
X176733752Y-84985000D01*
%TO.C,C1*%
X176211248Y-81265000D02*
X176733752Y-81265000D01*
X176211248Y-82735000D02*
X176733752Y-82735000D01*
D14*
%TO.C,mouse-bite-2mm-slot*%
X184510000Y-100750000D02*
G75*
G03*
X184510000Y-102750000I0J-1000000D01*
G01*
X180510000Y-102750000D02*
G75*
G03*
X180510000Y-100750000I0J1000000D01*
G01*
X154510000Y-102750000D02*
G75*
G03*
X154510000Y-100750000I0J1000000D01*
G01*
X158510000Y-100750000D02*
G75*
G03*
X158510000Y-102750000I0J-1000000D01*
G01*
D13*
%TO.C,R2*%
X145278064Y-97739000D02*
X144823936Y-97739000D01*
X145278064Y-96269000D02*
X144823936Y-96269000D01*
%TO.C,U2*%
X191832000Y-67894000D02*
X191832000Y-65944000D01*
X191832000Y-67894000D02*
X191832000Y-69844000D01*
X186712000Y-67894000D02*
X186712000Y-65944000D01*
X186712000Y-67894000D02*
X186712000Y-71344000D01*
%TO.C,U4*%
X131390000Y-54250000D02*
X147630000Y-54250000D01*
X147630000Y-54250000D02*
X147630000Y-61870000D01*
X147630000Y-77870000D02*
X147630000Y-78490000D01*
X147630000Y-78490000D02*
X145510000Y-78490000D01*
X133510000Y-78490000D02*
X131390000Y-78490000D01*
X131390000Y-78490000D02*
X131390000Y-77870000D01*
X131390000Y-61870000D02*
X131390000Y-54250000D01*
X131390000Y-61870000D02*
X130780000Y-61870000D01*
%TO.C,J11*%
D10*
X124870476Y-99044380D02*
X124870476Y-99758666D01*
X124822857Y-99901523D01*
X124727619Y-99996761D01*
X124584761Y-100044380D01*
X124489523Y-100044380D01*
X125870476Y-100044380D02*
X125299047Y-100044380D01*
X125584761Y-100044380D02*
X125584761Y-99044380D01*
X125489523Y-99187238D01*
X125394285Y-99282476D01*
X125299047Y-99330095D01*
X126822857Y-100044380D02*
X126251428Y-100044380D01*
X126537142Y-100044380D02*
X126537142Y-99044380D01*
X126441904Y-99187238D01*
X126346666Y-99282476D01*
X126251428Y-99330095D01*
%TO.C,RV1*%
X197215380Y-77693238D02*
X196739190Y-78026571D01*
X197215380Y-78264666D02*
X196215380Y-78264666D01*
X196215380Y-77883714D01*
X196263000Y-77788476D01*
X196310619Y-77740857D01*
X196405857Y-77693238D01*
X196548714Y-77693238D01*
X196643952Y-77740857D01*
X196691571Y-77788476D01*
X196739190Y-77883714D01*
X196739190Y-78264666D01*
X196215380Y-77407523D02*
X197215380Y-77074190D01*
X196215380Y-76740857D01*
X197215380Y-75883714D02*
X197215380Y-76455142D01*
X197215380Y-76169428D02*
X196215380Y-76169428D01*
X196358238Y-76264666D01*
X196453476Y-76359904D01*
X196501095Y-76455142D01*
%TO.C,R18*%
X123429142Y-67838380D02*
X123095809Y-67362190D01*
X122857714Y-67838380D02*
X122857714Y-66838380D01*
X123238666Y-66838380D01*
X123333904Y-66886000D01*
X123381523Y-66933619D01*
X123429142Y-67028857D01*
X123429142Y-67171714D01*
X123381523Y-67266952D01*
X123333904Y-67314571D01*
X123238666Y-67362190D01*
X122857714Y-67362190D01*
X124381523Y-67838380D02*
X123810095Y-67838380D01*
X124095809Y-67838380D02*
X124095809Y-66838380D01*
X124000571Y-66981238D01*
X123905333Y-67076476D01*
X123810095Y-67124095D01*
X124952952Y-67266952D02*
X124857714Y-67219333D01*
X124810095Y-67171714D01*
X124762476Y-67076476D01*
X124762476Y-67028857D01*
X124810095Y-66933619D01*
X124857714Y-66886000D01*
X124952952Y-66838380D01*
X125143428Y-66838380D01*
X125238666Y-66886000D01*
X125286285Y-66933619D01*
X125333904Y-67028857D01*
X125333904Y-67076476D01*
X125286285Y-67171714D01*
X125238666Y-67219333D01*
X125143428Y-67266952D01*
X124952952Y-67266952D01*
X124857714Y-67314571D01*
X124810095Y-67362190D01*
X124762476Y-67457428D01*
X124762476Y-67647904D01*
X124810095Y-67743142D01*
X124857714Y-67790761D01*
X124952952Y-67838380D01*
X125143428Y-67838380D01*
X125238666Y-67790761D01*
X125286285Y-67743142D01*
X125333904Y-67647904D01*
X125333904Y-67457428D01*
X125286285Y-67362190D01*
X125238666Y-67314571D01*
X125143428Y-67266952D01*
%TO.C,R17*%
X123429142Y-65298380D02*
X123095809Y-64822190D01*
X122857714Y-65298380D02*
X122857714Y-64298380D01*
X123238666Y-64298380D01*
X123333904Y-64346000D01*
X123381523Y-64393619D01*
X123429142Y-64488857D01*
X123429142Y-64631714D01*
X123381523Y-64726952D01*
X123333904Y-64774571D01*
X123238666Y-64822190D01*
X122857714Y-64822190D01*
X124381523Y-65298380D02*
X123810095Y-65298380D01*
X124095809Y-65298380D02*
X124095809Y-64298380D01*
X124000571Y-64441238D01*
X123905333Y-64536476D01*
X123810095Y-64584095D01*
X124714857Y-64298380D02*
X125381523Y-64298380D01*
X124952952Y-65298380D01*
%TO.C,Q1*%
X125614761Y-86497619D02*
X125519523Y-86450000D01*
X125424285Y-86354761D01*
X125281428Y-86211904D01*
X125186190Y-86164285D01*
X125090952Y-86164285D01*
X125138571Y-86402380D02*
X125043333Y-86354761D01*
X124948095Y-86259523D01*
X124900476Y-86069047D01*
X124900476Y-85735714D01*
X124948095Y-85545238D01*
X125043333Y-85450000D01*
X125138571Y-85402380D01*
X125329047Y-85402380D01*
X125424285Y-85450000D01*
X125519523Y-85545238D01*
X125567142Y-85735714D01*
X125567142Y-86069047D01*
X125519523Y-86259523D01*
X125424285Y-86354761D01*
X125329047Y-86402380D01*
X125138571Y-86402380D01*
X126519523Y-86402380D02*
X125948095Y-86402380D01*
X126233809Y-86402380D02*
X126233809Y-85402380D01*
X126138571Y-85545238D01*
X126043333Y-85640476D01*
X125948095Y-85688095D01*
%TO.C,U3*%
X178748095Y-75282380D02*
X178748095Y-76091904D01*
X178795714Y-76187142D01*
X178843333Y-76234761D01*
X178938571Y-76282380D01*
X179129047Y-76282380D01*
X179224285Y-76234761D01*
X179271904Y-76187142D01*
X179319523Y-76091904D01*
X179319523Y-75282380D01*
X179700476Y-75282380D02*
X180319523Y-75282380D01*
X179986190Y-75663333D01*
X180129047Y-75663333D01*
X180224285Y-75710952D01*
X180271904Y-75758571D01*
X180319523Y-75853809D01*
X180319523Y-76091904D01*
X180271904Y-76187142D01*
X180224285Y-76234761D01*
X180129047Y-76282380D01*
X179843333Y-76282380D01*
X179748095Y-76234761D01*
X179700476Y-76187142D01*
%TO.C,J2*%
X161176666Y-96452380D02*
X161176666Y-97166666D01*
X161129047Y-97309523D01*
X161033809Y-97404761D01*
X160890952Y-97452380D01*
X160795714Y-97452380D01*
X161605238Y-96547619D02*
X161652857Y-96500000D01*
X161748095Y-96452380D01*
X161986190Y-96452380D01*
X162081428Y-96500000D01*
X162129047Y-96547619D01*
X162176666Y-96642857D01*
X162176666Y-96738095D01*
X162129047Y-96880952D01*
X161557619Y-97452380D01*
X162176666Y-97452380D01*
%TO.C,SW2*%
X167681666Y-64948761D02*
X167824523Y-64996380D01*
X168062619Y-64996380D01*
X168157857Y-64948761D01*
X168205476Y-64901142D01*
X168253095Y-64805904D01*
X168253095Y-64710666D01*
X168205476Y-64615428D01*
X168157857Y-64567809D01*
X168062619Y-64520190D01*
X167872142Y-64472571D01*
X167776904Y-64424952D01*
X167729285Y-64377333D01*
X167681666Y-64282095D01*
X167681666Y-64186857D01*
X167729285Y-64091619D01*
X167776904Y-64044000D01*
X167872142Y-63996380D01*
X168110238Y-63996380D01*
X168253095Y-64044000D01*
X168586428Y-63996380D02*
X168824523Y-64996380D01*
X169015000Y-64282095D01*
X169205476Y-64996380D01*
X169443571Y-63996380D01*
X169776904Y-64091619D02*
X169824523Y-64044000D01*
X169919761Y-63996380D01*
X170157857Y-63996380D01*
X170253095Y-64044000D01*
X170300714Y-64091619D01*
X170348333Y-64186857D01*
X170348333Y-64282095D01*
X170300714Y-64424952D01*
X169729285Y-64996380D01*
X170348333Y-64996380D01*
%TO.C,SW1*%
X159394666Y-64948761D02*
X159537523Y-64996380D01*
X159775619Y-64996380D01*
X159870857Y-64948761D01*
X159918476Y-64901142D01*
X159966095Y-64805904D01*
X159966095Y-64710666D01*
X159918476Y-64615428D01*
X159870857Y-64567809D01*
X159775619Y-64520190D01*
X159585142Y-64472571D01*
X159489904Y-64424952D01*
X159442285Y-64377333D01*
X159394666Y-64282095D01*
X159394666Y-64186857D01*
X159442285Y-64091619D01*
X159489904Y-64044000D01*
X159585142Y-63996380D01*
X159823238Y-63996380D01*
X159966095Y-64044000D01*
X160299428Y-63996380D02*
X160537523Y-64996380D01*
X160728000Y-64282095D01*
X160918476Y-64996380D01*
X161156571Y-63996380D01*
X162061333Y-64996380D02*
X161489904Y-64996380D01*
X161775619Y-64996380D02*
X161775619Y-63996380D01*
X161680380Y-64139238D01*
X161585142Y-64234476D01*
X161489904Y-64282095D01*
%TO.C,JP2*%
X115190666Y-78982380D02*
X115190666Y-79696666D01*
X115143047Y-79839523D01*
X115047809Y-79934761D01*
X114904952Y-79982380D01*
X114809714Y-79982380D01*
X115666857Y-79982380D02*
X115666857Y-78982380D01*
X116047809Y-78982380D01*
X116143047Y-79030000D01*
X116190666Y-79077619D01*
X116238285Y-79172857D01*
X116238285Y-79315714D01*
X116190666Y-79410952D01*
X116143047Y-79458571D01*
X116047809Y-79506190D01*
X115666857Y-79506190D01*
X116619238Y-79077619D02*
X116666857Y-79030000D01*
X116762095Y-78982380D01*
X117000190Y-78982380D01*
X117095428Y-79030000D01*
X117143047Y-79077619D01*
X117190666Y-79172857D01*
X117190666Y-79268095D01*
X117143047Y-79410952D01*
X116571619Y-79982380D01*
X117190666Y-79982380D01*
%TO.C,C6*%
X147598333Y-92178142D02*
X147550714Y-92225761D01*
X147407857Y-92273380D01*
X147312619Y-92273380D01*
X147169761Y-92225761D01*
X147074523Y-92130523D01*
X147026904Y-92035285D01*
X146979285Y-91844809D01*
X146979285Y-91701952D01*
X147026904Y-91511476D01*
X147074523Y-91416238D01*
X147169761Y-91321000D01*
X147312619Y-91273380D01*
X147407857Y-91273380D01*
X147550714Y-91321000D01*
X147598333Y-91368619D01*
X148455476Y-91273380D02*
X148265000Y-91273380D01*
X148169761Y-91321000D01*
X148122142Y-91368619D01*
X148026904Y-91511476D01*
X147979285Y-91701952D01*
X147979285Y-92082904D01*
X148026904Y-92178142D01*
X148074523Y-92225761D01*
X148169761Y-92273380D01*
X148360238Y-92273380D01*
X148455476Y-92225761D01*
X148503095Y-92178142D01*
X148550714Y-92082904D01*
X148550714Y-91844809D01*
X148503095Y-91749571D01*
X148455476Y-91701952D01*
X148360238Y-91654333D01*
X148169761Y-91654333D01*
X148074523Y-91701952D01*
X148026904Y-91749571D01*
X147979285Y-91844809D01*
%TO.C,J3*%
X160676666Y-109202380D02*
X160676666Y-109916666D01*
X160629047Y-110059523D01*
X160533809Y-110154761D01*
X160390952Y-110202380D01*
X160295714Y-110202380D01*
X161057619Y-109202380D02*
X161676666Y-109202380D01*
X161343333Y-109583333D01*
X161486190Y-109583333D01*
X161581428Y-109630952D01*
X161629047Y-109678571D01*
X161676666Y-109773809D01*
X161676666Y-110011904D01*
X161629047Y-110107142D01*
X161581428Y-110154761D01*
X161486190Y-110202380D01*
X161200476Y-110202380D01*
X161105238Y-110154761D01*
X161057619Y-110107142D01*
%TO.C,J9*%
X121409666Y-99044380D02*
X121409666Y-99758666D01*
X121362047Y-99901523D01*
X121266809Y-99996761D01*
X121123952Y-100044380D01*
X121028714Y-100044380D01*
X121933476Y-100044380D02*
X122123952Y-100044380D01*
X122219190Y-99996761D01*
X122266809Y-99949142D01*
X122362047Y-99806285D01*
X122409666Y-99615809D01*
X122409666Y-99234857D01*
X122362047Y-99139619D01*
X122314428Y-99092000D01*
X122219190Y-99044380D01*
X122028714Y-99044380D01*
X121933476Y-99092000D01*
X121885857Y-99139619D01*
X121838238Y-99234857D01*
X121838238Y-99472952D01*
X121885857Y-99568190D01*
X121933476Y-99615809D01*
X122028714Y-99663428D01*
X122219190Y-99663428D01*
X122314428Y-99615809D01*
X122362047Y-99568190D01*
X122409666Y-99472952D01*
%TO.C,R3*%
X179837333Y-106678380D02*
X179504000Y-106202190D01*
X179265904Y-106678380D02*
X179265904Y-105678380D01*
X179646857Y-105678380D01*
X179742095Y-105726000D01*
X179789714Y-105773619D01*
X179837333Y-105868857D01*
X179837333Y-106011714D01*
X179789714Y-106106952D01*
X179742095Y-106154571D01*
X179646857Y-106202190D01*
X179265904Y-106202190D01*
X180170666Y-105678380D02*
X180789714Y-105678380D01*
X180456380Y-106059333D01*
X180599238Y-106059333D01*
X180694476Y-106106952D01*
X180742095Y-106154571D01*
X180789714Y-106249809D01*
X180789714Y-106487904D01*
X180742095Y-106583142D01*
X180694476Y-106630761D01*
X180599238Y-106678380D01*
X180313523Y-106678380D01*
X180218285Y-106630761D01*
X180170666Y-106583142D01*
%TO.C,R4*%
X179869333Y-114298380D02*
X179536000Y-113822190D01*
X179297904Y-114298380D02*
X179297904Y-113298380D01*
X179678857Y-113298380D01*
X179774095Y-113346000D01*
X179821714Y-113393619D01*
X179869333Y-113488857D01*
X179869333Y-113631714D01*
X179821714Y-113726952D01*
X179774095Y-113774571D01*
X179678857Y-113822190D01*
X179297904Y-113822190D01*
X180726476Y-113631714D02*
X180726476Y-114298380D01*
X180488380Y-113250761D02*
X180250285Y-113965047D01*
X180869333Y-113965047D01*
%TO.C,U1*%
X168498095Y-88202380D02*
X168498095Y-89011904D01*
X168545714Y-89107142D01*
X168593333Y-89154761D01*
X168688571Y-89202380D01*
X168879047Y-89202380D01*
X168974285Y-89154761D01*
X169021904Y-89107142D01*
X169069523Y-89011904D01*
X169069523Y-88202380D01*
X170069523Y-89202380D02*
X169498095Y-89202380D01*
X169783809Y-89202380D02*
X169783809Y-88202380D01*
X169688571Y-88345238D01*
X169593333Y-88440476D01*
X169498095Y-88488095D01*
%TO.C,R16*%
X123429142Y-62758380D02*
X123095809Y-62282190D01*
X122857714Y-62758380D02*
X122857714Y-61758380D01*
X123238666Y-61758380D01*
X123333904Y-61806000D01*
X123381523Y-61853619D01*
X123429142Y-61948857D01*
X123429142Y-62091714D01*
X123381523Y-62186952D01*
X123333904Y-62234571D01*
X123238666Y-62282190D01*
X122857714Y-62282190D01*
X124381523Y-62758380D02*
X123810095Y-62758380D01*
X124095809Y-62758380D02*
X124095809Y-61758380D01*
X124000571Y-61901238D01*
X123905333Y-61996476D01*
X123810095Y-62044095D01*
X125238666Y-61758380D02*
X125048190Y-61758380D01*
X124952952Y-61806000D01*
X124905333Y-61853619D01*
X124810095Y-61996476D01*
X124762476Y-62186952D01*
X124762476Y-62567904D01*
X124810095Y-62663142D01*
X124857714Y-62710761D01*
X124952952Y-62758380D01*
X125143428Y-62758380D01*
X125238666Y-62710761D01*
X125286285Y-62663142D01*
X125333904Y-62567904D01*
X125333904Y-62329809D01*
X125286285Y-62234571D01*
X125238666Y-62186952D01*
X125143428Y-62139333D01*
X124952952Y-62139333D01*
X124857714Y-62186952D01*
X124810095Y-62234571D01*
X124762476Y-62329809D01*
%TO.C,R15*%
X123429142Y-77998380D02*
X123095809Y-77522190D01*
X122857714Y-77998380D02*
X122857714Y-76998380D01*
X123238666Y-76998380D01*
X123333904Y-77046000D01*
X123381523Y-77093619D01*
X123429142Y-77188857D01*
X123429142Y-77331714D01*
X123381523Y-77426952D01*
X123333904Y-77474571D01*
X123238666Y-77522190D01*
X122857714Y-77522190D01*
X124381523Y-77998380D02*
X123810095Y-77998380D01*
X124095809Y-77998380D02*
X124095809Y-76998380D01*
X124000571Y-77141238D01*
X123905333Y-77236476D01*
X123810095Y-77284095D01*
X125286285Y-76998380D02*
X124810095Y-76998380D01*
X124762476Y-77474571D01*
X124810095Y-77426952D01*
X124905333Y-77379333D01*
X125143428Y-77379333D01*
X125238666Y-77426952D01*
X125286285Y-77474571D01*
X125333904Y-77569809D01*
X125333904Y-77807904D01*
X125286285Y-77903142D01*
X125238666Y-77950761D01*
X125143428Y-77998380D01*
X124905333Y-77998380D01*
X124810095Y-77950761D01*
X124762476Y-77903142D01*
%TO.C,R14*%
X111711142Y-52616380D02*
X111377809Y-52140190D01*
X111139714Y-52616380D02*
X111139714Y-51616380D01*
X111520666Y-51616380D01*
X111615904Y-51664000D01*
X111663523Y-51711619D01*
X111711142Y-51806857D01*
X111711142Y-51949714D01*
X111663523Y-52044952D01*
X111615904Y-52092571D01*
X111520666Y-52140190D01*
X111139714Y-52140190D01*
X112663523Y-52616380D02*
X112092095Y-52616380D01*
X112377809Y-52616380D02*
X112377809Y-51616380D01*
X112282571Y-51759238D01*
X112187333Y-51854476D01*
X112092095Y-51902095D01*
X113520666Y-51949714D02*
X113520666Y-52616380D01*
X113282571Y-51568761D02*
X113044476Y-52283047D01*
X113663523Y-52283047D01*
%TO.C,R11*%
X179262142Y-86932380D02*
X178928809Y-86456190D01*
X178690714Y-86932380D02*
X178690714Y-85932380D01*
X179071666Y-85932380D01*
X179166904Y-85980000D01*
X179214523Y-86027619D01*
X179262142Y-86122857D01*
X179262142Y-86265714D01*
X179214523Y-86360952D01*
X179166904Y-86408571D01*
X179071666Y-86456190D01*
X178690714Y-86456190D01*
X180214523Y-86932380D02*
X179643095Y-86932380D01*
X179928809Y-86932380D02*
X179928809Y-85932380D01*
X179833571Y-86075238D01*
X179738333Y-86170476D01*
X179643095Y-86218095D01*
X181166904Y-86932380D02*
X180595476Y-86932380D01*
X180881190Y-86932380D02*
X180881190Y-85932380D01*
X180785952Y-86075238D01*
X180690714Y-86170476D01*
X180595476Y-86218095D01*
%TO.C,J10*%
X113700476Y-59202380D02*
X113700476Y-59916666D01*
X113652857Y-60059523D01*
X113557619Y-60154761D01*
X113414761Y-60202380D01*
X113319523Y-60202380D01*
X114700476Y-60202380D02*
X114129047Y-60202380D01*
X114414761Y-60202380D02*
X114414761Y-59202380D01*
X114319523Y-59345238D01*
X114224285Y-59440476D01*
X114129047Y-59488095D01*
X115319523Y-59202380D02*
X115414761Y-59202380D01*
X115510000Y-59250000D01*
X115557619Y-59297619D01*
X115605238Y-59392857D01*
X115652857Y-59583333D01*
X115652857Y-59821428D01*
X115605238Y-60011904D01*
X115557619Y-60107142D01*
X115510000Y-60154761D01*
X115414761Y-60202380D01*
X115319523Y-60202380D01*
X115224285Y-60154761D01*
X115176666Y-60107142D01*
X115129047Y-60011904D01*
X115081428Y-59821428D01*
X115081428Y-59583333D01*
X115129047Y-59392857D01*
X115176666Y-59297619D01*
X115224285Y-59250000D01*
X115319523Y-59202380D01*
%TO.C,J7*%
X145662666Y-85713380D02*
X145662666Y-86427666D01*
X145615047Y-86570523D01*
X145519809Y-86665761D01*
X145376952Y-86713380D01*
X145281714Y-86713380D01*
X146043619Y-85713380D02*
X146710285Y-85713380D01*
X146281714Y-86713380D01*
%TO.C,J6*%
X114176666Y-70202380D02*
X114176666Y-70916666D01*
X114129047Y-71059523D01*
X114033809Y-71154761D01*
X113890952Y-71202380D01*
X113795714Y-71202380D01*
X115081428Y-70202380D02*
X114890952Y-70202380D01*
X114795714Y-70250000D01*
X114748095Y-70297619D01*
X114652857Y-70440476D01*
X114605238Y-70630952D01*
X114605238Y-71011904D01*
X114652857Y-71107142D01*
X114700476Y-71154761D01*
X114795714Y-71202380D01*
X114986190Y-71202380D01*
X115081428Y-71154761D01*
X115129047Y-71107142D01*
X115176666Y-71011904D01*
X115176666Y-70773809D01*
X115129047Y-70678571D01*
X115081428Y-70630952D01*
X114986190Y-70583333D01*
X114795714Y-70583333D01*
X114700476Y-70630952D01*
X114652857Y-70678571D01*
X114605238Y-70773809D01*
%TO.C,J5*%
X181825666Y-115812380D02*
X181825666Y-116526666D01*
X181778047Y-116669523D01*
X181682809Y-116764761D01*
X181539952Y-116812380D01*
X181444714Y-116812380D01*
X182778047Y-115812380D02*
X182301857Y-115812380D01*
X182254238Y-116288571D01*
X182301857Y-116240952D01*
X182397095Y-116193333D01*
X182635190Y-116193333D01*
X182730428Y-116240952D01*
X182778047Y-116288571D01*
X182825666Y-116383809D01*
X182825666Y-116621904D01*
X182778047Y-116717142D01*
X182730428Y-116764761D01*
X182635190Y-116812380D01*
X182397095Y-116812380D01*
X182301857Y-116764761D01*
X182254238Y-116717142D01*
%TO.C,J4*%
X169125666Y-115812380D02*
X169125666Y-116526666D01*
X169078047Y-116669523D01*
X168982809Y-116764761D01*
X168839952Y-116812380D01*
X168744714Y-116812380D01*
X170030428Y-116145714D02*
X170030428Y-116812380D01*
X169792333Y-115764761D02*
X169554238Y-116479047D01*
X170173285Y-116479047D01*
%TO.C,J1*%
X156552666Y-115812380D02*
X156552666Y-116526666D01*
X156505047Y-116669523D01*
X156409809Y-116764761D01*
X156266952Y-116812380D01*
X156171714Y-116812380D01*
X157552666Y-116812380D02*
X156981238Y-116812380D01*
X157266952Y-116812380D02*
X157266952Y-115812380D01*
X157171714Y-115955238D01*
X157076476Y-116050476D01*
X156981238Y-116098095D01*
%TO.C,D4*%
X179265904Y-111758380D02*
X179265904Y-110758380D01*
X179504000Y-110758380D01*
X179646857Y-110806000D01*
X179742095Y-110901238D01*
X179789714Y-110996476D01*
X179837333Y-111186952D01*
X179837333Y-111329809D01*
X179789714Y-111520285D01*
X179742095Y-111615523D01*
X179646857Y-111710761D01*
X179504000Y-111758380D01*
X179265904Y-111758380D01*
X180694476Y-111091714D02*
X180694476Y-111758380D01*
X180456380Y-110710761D02*
X180218285Y-111425047D01*
X180837333Y-111425047D01*
%TO.C,D1*%
X140287904Y-93306380D02*
X140287904Y-92306380D01*
X140526000Y-92306380D01*
X140668857Y-92354000D01*
X140764095Y-92449238D01*
X140811714Y-92544476D01*
X140859333Y-92734952D01*
X140859333Y-92877809D01*
X140811714Y-93068285D01*
X140764095Y-93163523D01*
X140668857Y-93258761D01*
X140526000Y-93306380D01*
X140287904Y-93306380D01*
X141811714Y-93306380D02*
X141240285Y-93306380D01*
X141526000Y-93306380D02*
X141526000Y-92306380D01*
X141430761Y-92449238D01*
X141335523Y-92544476D01*
X141240285Y-92592095D01*
%TO.C,R13*%
X123429142Y-75458380D02*
X123095809Y-74982190D01*
X122857714Y-75458380D02*
X122857714Y-74458380D01*
X123238666Y-74458380D01*
X123333904Y-74506000D01*
X123381523Y-74553619D01*
X123429142Y-74648857D01*
X123429142Y-74791714D01*
X123381523Y-74886952D01*
X123333904Y-74934571D01*
X123238666Y-74982190D01*
X122857714Y-74982190D01*
X124381523Y-75458380D02*
X123810095Y-75458380D01*
X124095809Y-75458380D02*
X124095809Y-74458380D01*
X124000571Y-74601238D01*
X123905333Y-74696476D01*
X123810095Y-74744095D01*
X124714857Y-74458380D02*
X125333904Y-74458380D01*
X125000571Y-74839333D01*
X125143428Y-74839333D01*
X125238666Y-74886952D01*
X125286285Y-74934571D01*
X125333904Y-75029809D01*
X125333904Y-75267904D01*
X125286285Y-75363142D01*
X125238666Y-75410761D01*
X125143428Y-75458380D01*
X124857714Y-75458380D01*
X124762476Y-75410761D01*
X124714857Y-75363142D01*
%TO.C,R12*%
X154305142Y-75458380D02*
X153971809Y-74982190D01*
X153733714Y-75458380D02*
X153733714Y-74458380D01*
X154114666Y-74458380D01*
X154209904Y-74506000D01*
X154257523Y-74553619D01*
X154305142Y-74648857D01*
X154305142Y-74791714D01*
X154257523Y-74886952D01*
X154209904Y-74934571D01*
X154114666Y-74982190D01*
X153733714Y-74982190D01*
X155257523Y-75458380D02*
X154686095Y-75458380D01*
X154971809Y-75458380D02*
X154971809Y-74458380D01*
X154876571Y-74601238D01*
X154781333Y-74696476D01*
X154686095Y-74744095D01*
X155638476Y-74553619D02*
X155686095Y-74506000D01*
X155781333Y-74458380D01*
X156019428Y-74458380D01*
X156114666Y-74506000D01*
X156162285Y-74553619D01*
X156209904Y-74648857D01*
X156209904Y-74744095D01*
X156162285Y-74886952D01*
X155590857Y-75458380D01*
X156209904Y-75458380D01*
%TO.C,R10*%
X154305142Y-72918380D02*
X153971809Y-72442190D01*
X153733714Y-72918380D02*
X153733714Y-71918380D01*
X154114666Y-71918380D01*
X154209904Y-71966000D01*
X154257523Y-72013619D01*
X154305142Y-72108857D01*
X154305142Y-72251714D01*
X154257523Y-72346952D01*
X154209904Y-72394571D01*
X154114666Y-72442190D01*
X153733714Y-72442190D01*
X155257523Y-72918380D02*
X154686095Y-72918380D01*
X154971809Y-72918380D02*
X154971809Y-71918380D01*
X154876571Y-72061238D01*
X154781333Y-72156476D01*
X154686095Y-72204095D01*
X155876571Y-71918380D02*
X155971809Y-71918380D01*
X156067047Y-71966000D01*
X156114666Y-72013619D01*
X156162285Y-72108857D01*
X156209904Y-72299333D01*
X156209904Y-72537428D01*
X156162285Y-72727904D01*
X156114666Y-72823142D01*
X156067047Y-72870761D01*
X155971809Y-72918380D01*
X155876571Y-72918380D01*
X155781333Y-72870761D01*
X155733714Y-72823142D01*
X155686095Y-72727904D01*
X155638476Y-72537428D01*
X155638476Y-72299333D01*
X155686095Y-72108857D01*
X155733714Y-72013619D01*
X155781333Y-71966000D01*
X155876571Y-71918380D01*
%TO.C,R9*%
X154305142Y-65298380D02*
X153971809Y-64822190D01*
X153733713Y-65298380D02*
X153733713Y-64298380D01*
X154114666Y-64298380D01*
X154209904Y-64346000D01*
X154257523Y-64393619D01*
X154305142Y-64488857D01*
X154305142Y-64631714D01*
X154257523Y-64726952D01*
X154209904Y-64774571D01*
X154114666Y-64822190D01*
X153733713Y-64822190D01*
X154781332Y-65298380D02*
X154971809Y-65298380D01*
X155067047Y-65250761D01*
X155114666Y-65203142D01*
X155209904Y-65060285D01*
X155257523Y-64869809D01*
X155257523Y-64488857D01*
X155209904Y-64393619D01*
X155162285Y-64346000D01*
X155067047Y-64298380D01*
X154876570Y-64298380D01*
X154781332Y-64346000D01*
X154733713Y-64393619D01*
X154686094Y-64488857D01*
X154686094Y-64726952D01*
X154733713Y-64822190D01*
X154781332Y-64869809D01*
X154876570Y-64917428D01*
X155067047Y-64917428D01*
X155162285Y-64869809D01*
X155209904Y-64822190D01*
X155257523Y-64726952D01*
%TO.C,R8*%
X154305142Y-67838380D02*
X153971809Y-67362190D01*
X153733713Y-67838380D02*
X153733713Y-66838380D01*
X154114666Y-66838380D01*
X154209904Y-66886000D01*
X154257523Y-66933619D01*
X154305142Y-67028857D01*
X154305142Y-67171714D01*
X154257523Y-67266952D01*
X154209904Y-67314571D01*
X154114666Y-67362190D01*
X153733713Y-67362190D01*
X154876570Y-67266952D02*
X154781332Y-67219333D01*
X154733713Y-67171714D01*
X154686094Y-67076476D01*
X154686094Y-67028857D01*
X154733713Y-66933619D01*
X154781332Y-66886000D01*
X154876570Y-66838380D01*
X155067047Y-66838380D01*
X155162285Y-66886000D01*
X155209904Y-66933619D01*
X155257523Y-67028857D01*
X155257523Y-67076476D01*
X155209904Y-67171714D01*
X155162285Y-67219333D01*
X155067047Y-67266952D01*
X154876570Y-67266952D01*
X154781332Y-67314571D01*
X154733713Y-67362190D01*
X154686094Y-67457428D01*
X154686094Y-67647904D01*
X154733713Y-67743142D01*
X154781332Y-67790761D01*
X154876570Y-67838380D01*
X155067047Y-67838380D01*
X155162285Y-67790761D01*
X155209904Y-67743142D01*
X155257523Y-67647904D01*
X155257523Y-67457428D01*
X155209904Y-67362190D01*
X155162285Y-67314571D01*
X155067047Y-67266952D01*
%TO.C,R7*%
X154305142Y-70378380D02*
X153971809Y-69902190D01*
X153733713Y-70378380D02*
X153733713Y-69378380D01*
X154114666Y-69378380D01*
X154209904Y-69426000D01*
X154257523Y-69473619D01*
X154305142Y-69568857D01*
X154305142Y-69711714D01*
X154257523Y-69806952D01*
X154209904Y-69854571D01*
X154114666Y-69902190D01*
X153733713Y-69902190D01*
X154638475Y-69378380D02*
X155305142Y-69378380D01*
X154876570Y-70378380D01*
%TO.C,R6*%
X124381523Y-72918380D02*
X124048190Y-72442190D01*
X123810094Y-72918380D02*
X123810094Y-71918380D01*
X124191047Y-71918380D01*
X124286285Y-71966000D01*
X124333904Y-72013619D01*
X124381523Y-72108857D01*
X124381523Y-72251714D01*
X124333904Y-72346952D01*
X124286285Y-72394571D01*
X124191047Y-72442190D01*
X123810094Y-72442190D01*
X125238666Y-71918380D02*
X125048190Y-71918380D01*
X124952951Y-71966000D01*
X124905332Y-72013619D01*
X124810094Y-72156476D01*
X124762475Y-72346952D01*
X124762475Y-72727904D01*
X124810094Y-72823142D01*
X124857713Y-72870761D01*
X124952951Y-72918380D01*
X125143428Y-72918380D01*
X125238666Y-72870761D01*
X125286285Y-72823142D01*
X125333904Y-72727904D01*
X125333904Y-72489809D01*
X125286285Y-72394571D01*
X125238666Y-72346952D01*
X125143428Y-72299333D01*
X124952951Y-72299333D01*
X124857713Y-72346952D01*
X124810094Y-72394571D01*
X124762475Y-72489809D01*
%TO.C,R5*%
X124381523Y-70380380D02*
X124048190Y-69904190D01*
X123810094Y-70380380D02*
X123810094Y-69380380D01*
X124191047Y-69380380D01*
X124286285Y-69428000D01*
X124333904Y-69475619D01*
X124381523Y-69570857D01*
X124381523Y-69713714D01*
X124333904Y-69808952D01*
X124286285Y-69856571D01*
X124191047Y-69904190D01*
X123810094Y-69904190D01*
X125286285Y-69380380D02*
X124810094Y-69380380D01*
X124762475Y-69856571D01*
X124810094Y-69808952D01*
X124905332Y-69761333D01*
X125143428Y-69761333D01*
X125238666Y-69808952D01*
X125286285Y-69856571D01*
X125333904Y-69951809D01*
X125333904Y-70189904D01*
X125286285Y-70285142D01*
X125238666Y-70332761D01*
X125143428Y-70380380D01*
X124905332Y-70380380D01*
X124810094Y-70332761D01*
X124762475Y-70285142D01*
%TO.C,R1*%
X144884333Y-93206380D02*
X144551000Y-92730190D01*
X144312904Y-93206380D02*
X144312904Y-92206380D01*
X144693857Y-92206380D01*
X144789095Y-92254000D01*
X144836714Y-92301619D01*
X144884333Y-92396857D01*
X144884333Y-92539714D01*
X144836714Y-92634952D01*
X144789095Y-92682571D01*
X144693857Y-92730190D01*
X144312904Y-92730190D01*
X145836714Y-93206380D02*
X145265285Y-93206380D01*
X145551000Y-93206380D02*
X145551000Y-92206380D01*
X145455761Y-92349238D01*
X145360523Y-92444476D01*
X145265285Y-92492095D01*
%TO.C,D3*%
X179265904Y-109218380D02*
X179265904Y-108218380D01*
X179504000Y-108218380D01*
X179646857Y-108266000D01*
X179742095Y-108361238D01*
X179789714Y-108456476D01*
X179837333Y-108646952D01*
X179837333Y-108789809D01*
X179789714Y-108980285D01*
X179742095Y-109075523D01*
X179646857Y-109170761D01*
X179504000Y-109218380D01*
X179265904Y-109218380D01*
X180170666Y-108218380D02*
X180789714Y-108218380D01*
X180456380Y-108599333D01*
X180599238Y-108599333D01*
X180694476Y-108646952D01*
X180742095Y-108694571D01*
X180789714Y-108789809D01*
X180789714Y-109027904D01*
X180742095Y-109123142D01*
X180694476Y-109170761D01*
X180599238Y-109218380D01*
X180313523Y-109218380D01*
X180218285Y-109170761D01*
X180170666Y-109123142D01*
%TO.C,D2*%
X140312904Y-99206380D02*
X140312904Y-98206380D01*
X140551000Y-98206380D01*
X140693857Y-98254000D01*
X140789095Y-98349238D01*
X140836714Y-98444476D01*
X140884333Y-98634952D01*
X140884333Y-98777809D01*
X140836714Y-98968285D01*
X140789095Y-99063523D01*
X140693857Y-99158761D01*
X140551000Y-99206380D01*
X140312904Y-99206380D01*
X141265285Y-98301619D02*
X141312904Y-98254000D01*
X141408142Y-98206380D01*
X141646238Y-98206380D01*
X141741476Y-98254000D01*
X141789095Y-98301619D01*
X141836714Y-98396857D01*
X141836714Y-98492095D01*
X141789095Y-98634952D01*
X141217666Y-99206380D01*
X141836714Y-99206380D01*
%TO.C,C5*%
X120563333Y-62663142D02*
X120515714Y-62710761D01*
X120372857Y-62758380D01*
X120277619Y-62758380D01*
X120134761Y-62710761D01*
X120039523Y-62615523D01*
X119991904Y-62520285D01*
X119944285Y-62329809D01*
X119944285Y-62186952D01*
X119991904Y-61996476D01*
X120039523Y-61901238D01*
X120134761Y-61806000D01*
X120277619Y-61758380D01*
X120372857Y-61758380D01*
X120515714Y-61806000D01*
X120563333Y-61853619D01*
X121468095Y-61758380D02*
X120991904Y-61758380D01*
X120944285Y-62234571D01*
X120991904Y-62186952D01*
X121087142Y-62139333D01*
X121325238Y-62139333D01*
X121420476Y-62186952D01*
X121468095Y-62234571D01*
X121515714Y-62329809D01*
X121515714Y-62567904D01*
X121468095Y-62663142D01*
X121420476Y-62710761D01*
X121325238Y-62758380D01*
X121087142Y-62758380D01*
X120991904Y-62710761D01*
X120944285Y-62663142D01*
%TO.C,C4*%
X197848333Y-66981142D02*
X197800714Y-67028761D01*
X197657857Y-67076380D01*
X197562619Y-67076380D01*
X197419761Y-67028761D01*
X197324523Y-66933523D01*
X197276904Y-66838285D01*
X197229285Y-66647809D01*
X197229285Y-66504952D01*
X197276904Y-66314476D01*
X197324523Y-66219238D01*
X197419761Y-66124000D01*
X197562619Y-66076380D01*
X197657857Y-66076380D01*
X197800714Y-66124000D01*
X197848333Y-66171619D01*
X198705476Y-66409714D02*
X198705476Y-67076380D01*
X198467380Y-66028761D02*
X198229285Y-66743047D01*
X198848333Y-66743047D01*
%TO.C,C3*%
X197848333Y-69521142D02*
X197800714Y-69568761D01*
X197657857Y-69616380D01*
X197562619Y-69616380D01*
X197419761Y-69568761D01*
X197324523Y-69473523D01*
X197276904Y-69378285D01*
X197229285Y-69187809D01*
X197229285Y-69044952D01*
X197276904Y-68854476D01*
X197324523Y-68759238D01*
X197419761Y-68664000D01*
X197562619Y-68616380D01*
X197657857Y-68616380D01*
X197800714Y-68664000D01*
X197848333Y-68711619D01*
X198181666Y-68616380D02*
X198800714Y-68616380D01*
X198467380Y-68997333D01*
X198610238Y-68997333D01*
X198705476Y-69044952D01*
X198753095Y-69092571D01*
X198800714Y-69187809D01*
X198800714Y-69425904D01*
X198753095Y-69521142D01*
X198705476Y-69568761D01*
X198610238Y-69616380D01*
X198324523Y-69616380D01*
X198229285Y-69568761D01*
X198181666Y-69521142D01*
%TO.C,C2*%
X179310833Y-84587142D02*
X179263214Y-84634761D01*
X179120357Y-84682380D01*
X179025119Y-84682380D01*
X178882261Y-84634761D01*
X178787023Y-84539523D01*
X178739404Y-84444285D01*
X178691785Y-84253809D01*
X178691785Y-84110952D01*
X178739404Y-83920476D01*
X178787023Y-83825238D01*
X178882261Y-83730000D01*
X179025119Y-83682380D01*
X179120357Y-83682380D01*
X179263214Y-83730000D01*
X179310833Y-83777619D01*
X179691785Y-83777619D02*
X179739404Y-83730000D01*
X179834642Y-83682380D01*
X180072738Y-83682380D01*
X180167976Y-83730000D01*
X180215595Y-83777619D01*
X180263214Y-83872857D01*
X180263214Y-83968095D01*
X180215595Y-84110952D01*
X179644166Y-84682380D01*
X180263214Y-84682380D01*
%TO.C,C1*%
X179310833Y-82337142D02*
X179263214Y-82384761D01*
X179120357Y-82432380D01*
X179025119Y-82432380D01*
X178882261Y-82384761D01*
X178787023Y-82289523D01*
X178739404Y-82194285D01*
X178691785Y-82003809D01*
X178691785Y-81860952D01*
X178739404Y-81670476D01*
X178787023Y-81575238D01*
X178882261Y-81480000D01*
X179025119Y-81432380D01*
X179120357Y-81432380D01*
X179263214Y-81480000D01*
X179310833Y-81527619D01*
X180263214Y-82432380D02*
X179691785Y-82432380D01*
X179977500Y-82432380D02*
X179977500Y-81432380D01*
X179882261Y-81575238D01*
X179787023Y-81670476D01*
X179691785Y-81718095D01*
%TO.C,R2*%
X144884333Y-99206380D02*
X144551000Y-98730190D01*
X144312904Y-99206380D02*
X144312904Y-98206380D01*
X144693857Y-98206380D01*
X144789095Y-98254000D01*
X144836714Y-98301619D01*
X144884333Y-98396857D01*
X144884333Y-98539714D01*
X144836714Y-98634952D01*
X144789095Y-98682571D01*
X144693857Y-98730190D01*
X144312904Y-98730190D01*
X145265285Y-98301619D02*
X145312904Y-98254000D01*
X145408142Y-98206380D01*
X145646238Y-98206380D01*
X145741476Y-98254000D01*
X145789095Y-98301619D01*
X145836714Y-98396857D01*
X145836714Y-98492095D01*
X145789095Y-98634952D01*
X145217666Y-99206380D01*
X145836714Y-99206380D01*
%TO.C,U2*%
X188509095Y-71870380D02*
X188509095Y-72679904D01*
X188556714Y-72775142D01*
X188604333Y-72822761D01*
X188699571Y-72870380D01*
X188890047Y-72870380D01*
X188985285Y-72822761D01*
X189032904Y-72775142D01*
X189080523Y-72679904D01*
X189080523Y-71870380D01*
X189509095Y-71965619D02*
X189556714Y-71918000D01*
X189651952Y-71870380D01*
X189890047Y-71870380D01*
X189985285Y-71918000D01*
X190032904Y-71965619D01*
X190080523Y-72060857D01*
X190080523Y-72156095D01*
X190032904Y-72298952D01*
X189461476Y-72870380D01*
X190080523Y-72870380D01*
%TO.C,U4*%
X138757095Y-79744380D02*
X138757095Y-80553904D01*
X138804714Y-80649142D01*
X138852333Y-80696761D01*
X138947571Y-80744380D01*
X139138047Y-80744380D01*
X139233285Y-80696761D01*
X139280904Y-80649142D01*
X139328523Y-80553904D01*
X139328523Y-79744380D01*
X140233285Y-80077714D02*
X140233285Y-80744380D01*
X139995190Y-79696761D02*
X139757095Y-80411047D01*
X140376142Y-80411047D01*
%TD*%
M02*
