%TF.GenerationSoftware,KiCad,Pcbnew,(5.1.10)-1*%
%TF.CreationDate,2021-06-06T00:22:10+02:00*%
%TF.ProjectId,LakeTemp,4c616b65-5465-46d7-902e-6b696361645f,2.0*%
%TF.SameCoordinates,Original*%
%TF.FileFunction,Soldermask,Bot*%
%TF.FilePolarity,Negative*%
%FSLAX46Y46*%
G04 Gerber Fmt 4.6, Leading zero omitted, Abs format (unit mm)*
G04 Created by KiCad (PCBNEW (5.1.10)-1) date 2021-06-06 00:22:10*
%MOMM*%
%LPD*%
G01*
G04 APERTURE LIST*
%ADD10O,1.700000X1.700000*%
%ADD11R,1.700000X1.700000*%
%ADD12C,1.550000*%
%ADD13R,1.550000X1.550000*%
%ADD14R,1.500000X1.050000*%
%ADD15O,1.500000X1.050000*%
%ADD16O,1.200000X1.750000*%
%ADD17C,2.000000*%
%ADD18C,1.500000*%
%ADD19O,1.750000X1.200000*%
%ADD20C,2.600000*%
%ADD21R,2.600000X2.600000*%
%ADD22R,1.500000X1.000000*%
%ADD23C,3.200000*%
%ADD24C,0.500000*%
G04 APERTURE END LIST*
D10*
%TO.C,J11*%
X128080000Y-89432000D03*
X128080000Y-91972000D03*
X128080000Y-94512000D03*
D11*
X128080000Y-97052000D03*
%TD*%
D12*
%TO.C,RV1*%
X189263000Y-76998000D03*
D13*
X194263000Y-74498000D03*
D12*
X194263000Y-79498000D03*
%TD*%
D14*
%TO.C,U5*%
X181510000Y-94368000D03*
D15*
X181510000Y-96908000D03*
X181510000Y-95638000D03*
%TD*%
D16*
%TO.C,J2*%
X175010000Y-94074000D03*
X173010000Y-94074000D03*
X171010000Y-94074000D03*
X169010000Y-94074000D03*
X167010000Y-94074000D03*
G36*
G01*
X164410000Y-94699001D02*
X164410000Y-93448999D01*
G75*
G02*
X164659999Y-93199000I249999J0D01*
G01*
X165360001Y-93199000D01*
G75*
G02*
X165610000Y-93448999I0J-249999D01*
G01*
X165610000Y-94699001D01*
G75*
G02*
X165360001Y-94949000I-249999J0D01*
G01*
X164659999Y-94949000D01*
G75*
G02*
X164410000Y-94699001I0J249999D01*
G01*
G37*
%TD*%
D17*
%TO.C,SW2*%
X171265000Y-73230000D03*
X166765000Y-73230000D03*
X171265000Y-66730000D03*
X166765000Y-66730000D03*
%TD*%
%TO.C,SW1*%
X158515000Y-66730000D03*
X163015000Y-66730000D03*
X158515000Y-73230000D03*
X163015000Y-73230000D03*
%TD*%
D10*
%TO.C,JP2*%
X118590000Y-81628000D03*
X116050000Y-81628000D03*
D11*
X113510000Y-81628000D03*
%TD*%
D16*
%TO.C,J3*%
X174510000Y-109274000D03*
X172510000Y-109274000D03*
X170510000Y-109274000D03*
X168510000Y-109274000D03*
X166510000Y-109274000D03*
G36*
G01*
X163910000Y-109899001D02*
X163910000Y-108648999D01*
G75*
G02*
X164159999Y-108399000I249999J0D01*
G01*
X164860001Y-108399000D01*
G75*
G02*
X165110000Y-108648999I0J-249999D01*
G01*
X165110000Y-109899001D01*
G75*
G02*
X164860001Y-110149000I-249999J0D01*
G01*
X164159999Y-110149000D01*
G75*
G02*
X163910000Y-109899001I0J249999D01*
G01*
G37*
%TD*%
D10*
%TO.C,J9*%
X124143000Y-89432000D03*
X124143000Y-91972000D03*
X124143000Y-94512000D03*
D11*
X124143000Y-97052000D03*
%TD*%
D18*
%TO.C,R14*%
X114054000Y-55064000D03*
X110654000Y-55064000D03*
%TD*%
D19*
%TO.C,J10*%
X113967000Y-63000000D03*
X113967000Y-65000000D03*
G36*
G01*
X114592001Y-67600000D02*
X113341999Y-67600000D01*
G75*
G02*
X113092000Y-67350001I0J249999D01*
G01*
X113092000Y-66649999D01*
G75*
G02*
X113341999Y-66400000I249999J0D01*
G01*
X114592001Y-66400000D01*
G75*
G02*
X114842000Y-66649999I0J-249999D01*
G01*
X114842000Y-67350001D01*
G75*
G02*
X114592001Y-67600000I-249999J0D01*
G01*
G37*
%TD*%
D10*
%TO.C,J8*%
X161490000Y-61750000D03*
X164030000Y-61750000D03*
X166570000Y-61750000D03*
X169110000Y-61750000D03*
X171650000Y-61750000D03*
X174190000Y-61750000D03*
X176730000Y-61750000D03*
X179270000Y-61750000D03*
X181810000Y-61750000D03*
X184350000Y-61750000D03*
X186890000Y-61750000D03*
X189430000Y-61750000D03*
X191970000Y-61750000D03*
D11*
X194510000Y-61750000D03*
%TD*%
D10*
%TO.C,J7*%
X143330000Y-86182000D03*
X140790000Y-86182000D03*
X138250000Y-86182000D03*
D11*
X135710000Y-86182000D03*
%TD*%
D19*
%TO.C,J6*%
X114010000Y-74000000D03*
G36*
G01*
X114635001Y-76600000D02*
X113384999Y-76600000D01*
G75*
G02*
X113135000Y-76350001I0J249999D01*
G01*
X113135000Y-75649999D01*
G75*
G02*
X113384999Y-75400000I249999J0D01*
G01*
X114635001Y-75400000D01*
G75*
G02*
X114885000Y-75649999I0J-249999D01*
G01*
X114885000Y-76350001D01*
G75*
G02*
X114635001Y-76600000I-249999J0D01*
G01*
G37*
%TD*%
D20*
%TO.C,J5*%
X184745000Y-124480000D03*
D21*
X179665000Y-124480000D03*
%TD*%
%TO.C,J4*%
X164425000Y-124480000D03*
D20*
X169505000Y-124480000D03*
X174585000Y-124480000D03*
%TD*%
%TO.C,J1*%
X159345000Y-124480000D03*
D21*
X154265000Y-124480000D03*
%TD*%
D22*
%TO.C,D5*%
X118110000Y-56850000D03*
X118110000Y-53650000D03*
X123010000Y-56850000D03*
X123010000Y-53650000D03*
%TD*%
D23*
%TO.C,REF\u002A\u002A*%
X144510000Y-107750000D03*
%TD*%
%TO.C,REF\u002A\u002A*%
X144510000Y-127750000D03*
%TD*%
%TO.C,REF\u002A\u002A*%
X194510000Y-127750000D03*
%TD*%
%TO.C,REF\u002A\u002A*%
X194510000Y-107750000D03*
%TD*%
D24*
%TO.C,mouse-bite-2mm-slot*%
X183260000Y-102500000D03*
X181760000Y-102500000D03*
X181760000Y-101000000D03*
X183260000Y-101000000D03*
X182510000Y-102500000D03*
X182510000Y-101000000D03*
%TD*%
%TO.C,mouse-bite-2mm-slot*%
X156510000Y-101000000D03*
X156510000Y-102500000D03*
X157260000Y-101000000D03*
X155760000Y-101000000D03*
X155760000Y-102500000D03*
X157260000Y-102500000D03*
%TD*%
M02*
