%TF.GenerationSoftware,KiCad,Pcbnew,(5.1.10)-1*%
%TF.CreationDate,2021-06-06T00:22:09+02:00*%
%TF.ProjectId,LakeTemp,4c616b65-5465-46d7-902e-6b696361645f,2.0*%
%TF.SameCoordinates,Original*%
%TF.FileFunction,Paste,Top*%
%TF.FilePolarity,Positive*%
%FSLAX46Y46*%
G04 Gerber Fmt 4.6, Leading zero omitted, Abs format (unit mm)*
G04 Created by KiCad (PCBNEW (5.1.10)-1) date 2021-06-06 00:22:09*
%MOMM*%
%LPD*%
G01*
G04 APERTURE LIST*
%ADD10R,0.900000X0.800000*%
%ADD11R,2.000000X1.500000*%
%ADD12R,2.000000X3.800000*%
%ADD13R,2.500000X1.000000*%
%ADD14R,1.000000X1.800000*%
G04 APERTURE END LIST*
%TO.C,R18*%
G36*
G01*
X127988000Y-67836001D02*
X127988000Y-66935999D01*
G75*
G02*
X128237999Y-66686000I249999J0D01*
G01*
X128938001Y-66686000D01*
G75*
G02*
X129188000Y-66935999I0J-249999D01*
G01*
X129188000Y-67836001D01*
G75*
G02*
X128938001Y-68086000I-249999J0D01*
G01*
X128237999Y-68086000D01*
G75*
G02*
X127988000Y-67836001I0J249999D01*
G01*
G37*
G36*
G01*
X125988000Y-67836001D02*
X125988000Y-66935999D01*
G75*
G02*
X126237999Y-66686000I249999J0D01*
G01*
X126938001Y-66686000D01*
G75*
G02*
X127188000Y-66935999I0J-249999D01*
G01*
X127188000Y-67836001D01*
G75*
G02*
X126938001Y-68086000I-249999J0D01*
G01*
X126237999Y-68086000D01*
G75*
G02*
X125988000Y-67836001I0J249999D01*
G01*
G37*
%TD*%
%TO.C,R17*%
G36*
G01*
X127188000Y-64395999D02*
X127188000Y-65296001D01*
G75*
G02*
X126938001Y-65546000I-249999J0D01*
G01*
X126237999Y-65546000D01*
G75*
G02*
X125988000Y-65296001I0J249999D01*
G01*
X125988000Y-64395999D01*
G75*
G02*
X126237999Y-64146000I249999J0D01*
G01*
X126938001Y-64146000D01*
G75*
G02*
X127188000Y-64395999I0J-249999D01*
G01*
G37*
G36*
G01*
X129188000Y-64395999D02*
X129188000Y-65296001D01*
G75*
G02*
X128938001Y-65546000I-249999J0D01*
G01*
X128237999Y-65546000D01*
G75*
G02*
X127988000Y-65296001I0J249999D01*
G01*
X127988000Y-64395999D01*
G75*
G02*
X128237999Y-64146000I249999J0D01*
G01*
X128938001Y-64146000D01*
G75*
G02*
X129188000Y-64395999I0J-249999D01*
G01*
G37*
%TD*%
D10*
%TO.C,Q1*%
X124710000Y-83450000D03*
X126710000Y-82500000D03*
X126710000Y-84400000D03*
%TD*%
%TO.C,U3*%
G36*
G01*
X175885000Y-74025000D02*
X175885000Y-74325000D01*
G75*
G02*
X175735000Y-74475000I-150000J0D01*
G01*
X173985000Y-74475000D01*
G75*
G02*
X173835000Y-74325000I0J150000D01*
G01*
X173835000Y-74025000D01*
G75*
G02*
X173985000Y-73875000I150000J0D01*
G01*
X175735000Y-73875000D01*
G75*
G02*
X175885000Y-74025000I0J-150000D01*
G01*
G37*
G36*
G01*
X175885000Y-72755000D02*
X175885000Y-73055000D01*
G75*
G02*
X175735000Y-73205000I-150000J0D01*
G01*
X173985000Y-73205000D01*
G75*
G02*
X173835000Y-73055000I0J150000D01*
G01*
X173835000Y-72755000D01*
G75*
G02*
X173985000Y-72605000I150000J0D01*
G01*
X175735000Y-72605000D01*
G75*
G02*
X175885000Y-72755000I0J-150000D01*
G01*
G37*
G36*
G01*
X175885000Y-71485000D02*
X175885000Y-71785000D01*
G75*
G02*
X175735000Y-71935000I-150000J0D01*
G01*
X173985000Y-71935000D01*
G75*
G02*
X173835000Y-71785000I0J150000D01*
G01*
X173835000Y-71485000D01*
G75*
G02*
X173985000Y-71335000I150000J0D01*
G01*
X175735000Y-71335000D01*
G75*
G02*
X175885000Y-71485000I0J-150000D01*
G01*
G37*
G36*
G01*
X175885000Y-70215000D02*
X175885000Y-70515000D01*
G75*
G02*
X175735000Y-70665000I-150000J0D01*
G01*
X173985000Y-70665000D01*
G75*
G02*
X173835000Y-70515000I0J150000D01*
G01*
X173835000Y-70215000D01*
G75*
G02*
X173985000Y-70065000I150000J0D01*
G01*
X175735000Y-70065000D01*
G75*
G02*
X175885000Y-70215000I0J-150000D01*
G01*
G37*
G36*
G01*
X175885000Y-68945000D02*
X175885000Y-69245000D01*
G75*
G02*
X175735000Y-69395000I-150000J0D01*
G01*
X173985000Y-69395000D01*
G75*
G02*
X173835000Y-69245000I0J150000D01*
G01*
X173835000Y-68945000D01*
G75*
G02*
X173985000Y-68795000I150000J0D01*
G01*
X175735000Y-68795000D01*
G75*
G02*
X175885000Y-68945000I0J-150000D01*
G01*
G37*
G36*
G01*
X175885000Y-67675000D02*
X175885000Y-67975000D01*
G75*
G02*
X175735000Y-68125000I-150000J0D01*
G01*
X173985000Y-68125000D01*
G75*
G02*
X173835000Y-67975000I0J150000D01*
G01*
X173835000Y-67675000D01*
G75*
G02*
X173985000Y-67525000I150000J0D01*
G01*
X175735000Y-67525000D01*
G75*
G02*
X175885000Y-67675000I0J-150000D01*
G01*
G37*
G36*
G01*
X175885000Y-66405000D02*
X175885000Y-66705000D01*
G75*
G02*
X175735000Y-66855000I-150000J0D01*
G01*
X173985000Y-66855000D01*
G75*
G02*
X173835000Y-66705000I0J150000D01*
G01*
X173835000Y-66405000D01*
G75*
G02*
X173985000Y-66255000I150000J0D01*
G01*
X175735000Y-66255000D01*
G75*
G02*
X175885000Y-66405000I0J-150000D01*
G01*
G37*
G36*
G01*
X175885000Y-65135000D02*
X175885000Y-65435000D01*
G75*
G02*
X175735000Y-65585000I-150000J0D01*
G01*
X173985000Y-65585000D01*
G75*
G02*
X173835000Y-65435000I0J150000D01*
G01*
X173835000Y-65135000D01*
G75*
G02*
X173985000Y-64985000I150000J0D01*
G01*
X175735000Y-64985000D01*
G75*
G02*
X175885000Y-65135000I0J-150000D01*
G01*
G37*
G36*
G01*
X185185000Y-65135000D02*
X185185000Y-65435000D01*
G75*
G02*
X185035000Y-65585000I-150000J0D01*
G01*
X183285000Y-65585000D01*
G75*
G02*
X183135000Y-65435000I0J150000D01*
G01*
X183135000Y-65135000D01*
G75*
G02*
X183285000Y-64985000I150000J0D01*
G01*
X185035000Y-64985000D01*
G75*
G02*
X185185000Y-65135000I0J-150000D01*
G01*
G37*
G36*
G01*
X185185000Y-66405000D02*
X185185000Y-66705000D01*
G75*
G02*
X185035000Y-66855000I-150000J0D01*
G01*
X183285000Y-66855000D01*
G75*
G02*
X183135000Y-66705000I0J150000D01*
G01*
X183135000Y-66405000D01*
G75*
G02*
X183285000Y-66255000I150000J0D01*
G01*
X185035000Y-66255000D01*
G75*
G02*
X185185000Y-66405000I0J-150000D01*
G01*
G37*
G36*
G01*
X185185000Y-67675000D02*
X185185000Y-67975000D01*
G75*
G02*
X185035000Y-68125000I-150000J0D01*
G01*
X183285000Y-68125000D01*
G75*
G02*
X183135000Y-67975000I0J150000D01*
G01*
X183135000Y-67675000D01*
G75*
G02*
X183285000Y-67525000I150000J0D01*
G01*
X185035000Y-67525000D01*
G75*
G02*
X185185000Y-67675000I0J-150000D01*
G01*
G37*
G36*
G01*
X185185000Y-68945000D02*
X185185000Y-69245000D01*
G75*
G02*
X185035000Y-69395000I-150000J0D01*
G01*
X183285000Y-69395000D01*
G75*
G02*
X183135000Y-69245000I0J150000D01*
G01*
X183135000Y-68945000D01*
G75*
G02*
X183285000Y-68795000I150000J0D01*
G01*
X185035000Y-68795000D01*
G75*
G02*
X185185000Y-68945000I0J-150000D01*
G01*
G37*
G36*
G01*
X185185000Y-70215000D02*
X185185000Y-70515000D01*
G75*
G02*
X185035000Y-70665000I-150000J0D01*
G01*
X183285000Y-70665000D01*
G75*
G02*
X183135000Y-70515000I0J150000D01*
G01*
X183135000Y-70215000D01*
G75*
G02*
X183285000Y-70065000I150000J0D01*
G01*
X185035000Y-70065000D01*
G75*
G02*
X185185000Y-70215000I0J-150000D01*
G01*
G37*
G36*
G01*
X185185000Y-71485000D02*
X185185000Y-71785000D01*
G75*
G02*
X185035000Y-71935000I-150000J0D01*
G01*
X183285000Y-71935000D01*
G75*
G02*
X183135000Y-71785000I0J150000D01*
G01*
X183135000Y-71485000D01*
G75*
G02*
X183285000Y-71335000I150000J0D01*
G01*
X185035000Y-71335000D01*
G75*
G02*
X185185000Y-71485000I0J-150000D01*
G01*
G37*
G36*
G01*
X185185000Y-72755000D02*
X185185000Y-73055000D01*
G75*
G02*
X185035000Y-73205000I-150000J0D01*
G01*
X183285000Y-73205000D01*
G75*
G02*
X183135000Y-73055000I0J150000D01*
G01*
X183135000Y-72755000D01*
G75*
G02*
X183285000Y-72605000I150000J0D01*
G01*
X185035000Y-72605000D01*
G75*
G02*
X185185000Y-72755000I0J-150000D01*
G01*
G37*
G36*
G01*
X185185000Y-74025000D02*
X185185000Y-74325000D01*
G75*
G02*
X185035000Y-74475000I-150000J0D01*
G01*
X183285000Y-74475000D01*
G75*
G02*
X183135000Y-74325000I0J150000D01*
G01*
X183135000Y-74025000D01*
G75*
G02*
X183285000Y-73875000I150000J0D01*
G01*
X185035000Y-73875000D01*
G75*
G02*
X185185000Y-74025000I0J-150000D01*
G01*
G37*
%TD*%
%TO.C,C6*%
G36*
G01*
X153510000Y-93750000D02*
X155510000Y-93750000D01*
G75*
G02*
X155760000Y-94000000I0J-250000D01*
G01*
X155760000Y-97900000D01*
G75*
G02*
X155510000Y-98150000I-250000J0D01*
G01*
X153510000Y-98150000D01*
G75*
G02*
X153260000Y-97900000I0J250000D01*
G01*
X153260000Y-94000000D01*
G75*
G02*
X153510000Y-93750000I250000J0D01*
G01*
G37*
G36*
G01*
X153510000Y-85350000D02*
X155510000Y-85350000D01*
G75*
G02*
X155760000Y-85600000I0J-250000D01*
G01*
X155760000Y-89500000D01*
G75*
G02*
X155510000Y-89750000I-250000J0D01*
G01*
X153510000Y-89750000D01*
G75*
G02*
X153260000Y-89500000I0J250000D01*
G01*
X153260000Y-85600000D01*
G75*
G02*
X153510000Y-85350000I250000J0D01*
G01*
G37*
%TD*%
%TO.C,R3*%
G36*
G01*
X183452000Y-106676001D02*
X183452000Y-105775999D01*
G75*
G02*
X183701999Y-105526000I249999J0D01*
G01*
X184402001Y-105526000D01*
G75*
G02*
X184652000Y-105775999I0J-249999D01*
G01*
X184652000Y-106676001D01*
G75*
G02*
X184402001Y-106926000I-249999J0D01*
G01*
X183701999Y-106926000D01*
G75*
G02*
X183452000Y-106676001I0J249999D01*
G01*
G37*
G36*
G01*
X181452000Y-106676001D02*
X181452000Y-105775999D01*
G75*
G02*
X181701999Y-105526000I249999J0D01*
G01*
X182402001Y-105526000D01*
G75*
G02*
X182652000Y-105775999I0J-249999D01*
G01*
X182652000Y-106676001D01*
G75*
G02*
X182402001Y-106926000I-249999J0D01*
G01*
X181701999Y-106926000D01*
G75*
G02*
X181452000Y-106676001I0J249999D01*
G01*
G37*
%TD*%
%TO.C,R4*%
G36*
G01*
X183468000Y-114296001D02*
X183468000Y-113395999D01*
G75*
G02*
X183717999Y-113146000I249999J0D01*
G01*
X184418001Y-113146000D01*
G75*
G02*
X184668000Y-113395999I0J-249999D01*
G01*
X184668000Y-114296001D01*
G75*
G02*
X184418001Y-114546000I-249999J0D01*
G01*
X183717999Y-114546000D01*
G75*
G02*
X183468000Y-114296001I0J249999D01*
G01*
G37*
G36*
G01*
X181468000Y-114296001D02*
X181468000Y-113395999D01*
G75*
G02*
X181717999Y-113146000I249999J0D01*
G01*
X182418001Y-113146000D01*
G75*
G02*
X182668000Y-113395999I0J-249999D01*
G01*
X182668000Y-114296001D01*
G75*
G02*
X182418001Y-114546000I-249999J0D01*
G01*
X181717999Y-114546000D01*
G75*
G02*
X181468000Y-114296001I0J249999D01*
G01*
G37*
%TD*%
D11*
%TO.C,U1*%
X172410000Y-86550000D03*
X172410000Y-81950000D03*
X172410000Y-84250000D03*
D12*
X166110000Y-84250000D03*
%TD*%
%TO.C,R16*%
G36*
G01*
X127988000Y-62756001D02*
X127988000Y-61855999D01*
G75*
G02*
X128237999Y-61606000I249999J0D01*
G01*
X128938001Y-61606000D01*
G75*
G02*
X129188000Y-61855999I0J-249999D01*
G01*
X129188000Y-62756001D01*
G75*
G02*
X128938001Y-63006000I-249999J0D01*
G01*
X128237999Y-63006000D01*
G75*
G02*
X127988000Y-62756001I0J249999D01*
G01*
G37*
G36*
G01*
X125988000Y-62756001D02*
X125988000Y-61855999D01*
G75*
G02*
X126237999Y-61606000I249999J0D01*
G01*
X126938001Y-61606000D01*
G75*
G02*
X127188000Y-61855999I0J-249999D01*
G01*
X127188000Y-62756001D01*
G75*
G02*
X126938001Y-63006000I-249999J0D01*
G01*
X126237999Y-63006000D01*
G75*
G02*
X125988000Y-62756001I0J249999D01*
G01*
G37*
%TD*%
%TO.C,R15*%
G36*
G01*
X127972000Y-77996001D02*
X127972000Y-77095999D01*
G75*
G02*
X128221999Y-76846000I249999J0D01*
G01*
X128922001Y-76846000D01*
G75*
G02*
X129172000Y-77095999I0J-249999D01*
G01*
X129172000Y-77996001D01*
G75*
G02*
X128922001Y-78246000I-249999J0D01*
G01*
X128221999Y-78246000D01*
G75*
G02*
X127972000Y-77996001I0J249999D01*
G01*
G37*
G36*
G01*
X125972000Y-77996001D02*
X125972000Y-77095999D01*
G75*
G02*
X126221999Y-76846000I249999J0D01*
G01*
X126922001Y-76846000D01*
G75*
G02*
X127172000Y-77095999I0J-249999D01*
G01*
X127172000Y-77996001D01*
G75*
G02*
X126922001Y-78246000I-249999J0D01*
G01*
X126221999Y-78246000D01*
G75*
G02*
X125972000Y-77996001I0J249999D01*
G01*
G37*
%TD*%
%TO.C,R11*%
G36*
G01*
X176095000Y-86029999D02*
X176095000Y-86930001D01*
G75*
G02*
X175845001Y-87180000I-249999J0D01*
G01*
X175144999Y-87180000D01*
G75*
G02*
X174895000Y-86930001I0J249999D01*
G01*
X174895000Y-86029999D01*
G75*
G02*
X175144999Y-85780000I249999J0D01*
G01*
X175845001Y-85780000D01*
G75*
G02*
X176095000Y-86029999I0J-249999D01*
G01*
G37*
G36*
G01*
X178095000Y-86029999D02*
X178095000Y-86930001D01*
G75*
G02*
X177845001Y-87180000I-249999J0D01*
G01*
X177144999Y-87180000D01*
G75*
G02*
X176895000Y-86930001I0J249999D01*
G01*
X176895000Y-86029999D01*
G75*
G02*
X177144999Y-85780000I249999J0D01*
G01*
X177845001Y-85780000D01*
G75*
G02*
X178095000Y-86029999I0J-249999D01*
G01*
G37*
%TD*%
%TO.C,D4*%
G36*
G01*
X183493000Y-111756001D02*
X183493000Y-110855999D01*
G75*
G02*
X183742999Y-110606000I249999J0D01*
G01*
X184393001Y-110606000D01*
G75*
G02*
X184643000Y-110855999I0J-249999D01*
G01*
X184643000Y-111756001D01*
G75*
G02*
X184393001Y-112006000I-249999J0D01*
G01*
X183742999Y-112006000D01*
G75*
G02*
X183493000Y-111756001I0J249999D01*
G01*
G37*
G36*
G01*
X181443000Y-111756001D02*
X181443000Y-110855999D01*
G75*
G02*
X181692999Y-110606000I249999J0D01*
G01*
X182343001Y-110606000D01*
G75*
G02*
X182593000Y-110855999I0J-249999D01*
G01*
X182593000Y-111756001D01*
G75*
G02*
X182343001Y-112006000I-249999J0D01*
G01*
X181692999Y-112006000D01*
G75*
G02*
X181443000Y-111756001I0J249999D01*
G01*
G37*
%TD*%
%TO.C,D1*%
G36*
G01*
X139190000Y-95208001D02*
X139190000Y-94307999D01*
G75*
G02*
X139439999Y-94058000I249999J0D01*
G01*
X140090001Y-94058000D01*
G75*
G02*
X140340000Y-94307999I0J-249999D01*
G01*
X140340000Y-95208001D01*
G75*
G02*
X140090001Y-95458000I-249999J0D01*
G01*
X139439999Y-95458000D01*
G75*
G02*
X139190000Y-95208001I0J249999D01*
G01*
G37*
G36*
G01*
X137140000Y-95208001D02*
X137140000Y-94307999D01*
G75*
G02*
X137389999Y-94058000I249999J0D01*
G01*
X138040001Y-94058000D01*
G75*
G02*
X138290000Y-94307999I0J-249999D01*
G01*
X138290000Y-95208001D01*
G75*
G02*
X138040001Y-95458000I-249999J0D01*
G01*
X137389999Y-95458000D01*
G75*
G02*
X137140000Y-95208001I0J249999D01*
G01*
G37*
%TD*%
%TO.C,R13*%
G36*
G01*
X127172000Y-74555999D02*
X127172000Y-75456001D01*
G75*
G02*
X126922001Y-75706000I-249999J0D01*
G01*
X126221999Y-75706000D01*
G75*
G02*
X125972000Y-75456001I0J249999D01*
G01*
X125972000Y-74555999D01*
G75*
G02*
X126221999Y-74306000I249999J0D01*
G01*
X126922001Y-74306000D01*
G75*
G02*
X127172000Y-74555999I0J-249999D01*
G01*
G37*
G36*
G01*
X129172000Y-74555999D02*
X129172000Y-75456001D01*
G75*
G02*
X128922001Y-75706000I-249999J0D01*
G01*
X128221999Y-75706000D01*
G75*
G02*
X127972000Y-75456001I0J249999D01*
G01*
X127972000Y-74555999D01*
G75*
G02*
X128221999Y-74306000I249999J0D01*
G01*
X128922001Y-74306000D01*
G75*
G02*
X129172000Y-74555999I0J-249999D01*
G01*
G37*
%TD*%
%TO.C,R12*%
G36*
G01*
X151048000Y-74555999D02*
X151048000Y-75456001D01*
G75*
G02*
X150798001Y-75706000I-249999J0D01*
G01*
X150097999Y-75706000D01*
G75*
G02*
X149848000Y-75456001I0J249999D01*
G01*
X149848000Y-74555999D01*
G75*
G02*
X150097999Y-74306000I249999J0D01*
G01*
X150798001Y-74306000D01*
G75*
G02*
X151048000Y-74555999I0J-249999D01*
G01*
G37*
G36*
G01*
X153048000Y-74555999D02*
X153048000Y-75456001D01*
G75*
G02*
X152798001Y-75706000I-249999J0D01*
G01*
X152097999Y-75706000D01*
G75*
G02*
X151848000Y-75456001I0J249999D01*
G01*
X151848000Y-74555999D01*
G75*
G02*
X152097999Y-74306000I249999J0D01*
G01*
X152798001Y-74306000D01*
G75*
G02*
X153048000Y-74555999I0J-249999D01*
G01*
G37*
%TD*%
%TO.C,R10*%
G36*
G01*
X151848000Y-72916001D02*
X151848000Y-72015999D01*
G75*
G02*
X152097999Y-71766000I249999J0D01*
G01*
X152798001Y-71766000D01*
G75*
G02*
X153048000Y-72015999I0J-249999D01*
G01*
X153048000Y-72916001D01*
G75*
G02*
X152798001Y-73166000I-249999J0D01*
G01*
X152097999Y-73166000D01*
G75*
G02*
X151848000Y-72916001I0J249999D01*
G01*
G37*
G36*
G01*
X149848000Y-72916001D02*
X149848000Y-72015999D01*
G75*
G02*
X150097999Y-71766000I249999J0D01*
G01*
X150798001Y-71766000D01*
G75*
G02*
X151048000Y-72015999I0J-249999D01*
G01*
X151048000Y-72916001D01*
G75*
G02*
X150798001Y-73166000I-249999J0D01*
G01*
X150097999Y-73166000D01*
G75*
G02*
X149848000Y-72916001I0J249999D01*
G01*
G37*
%TD*%
%TO.C,R9*%
G36*
G01*
X151048000Y-64395999D02*
X151048000Y-65296001D01*
G75*
G02*
X150798001Y-65546000I-249999J0D01*
G01*
X150097999Y-65546000D01*
G75*
G02*
X149848000Y-65296001I0J249999D01*
G01*
X149848000Y-64395999D01*
G75*
G02*
X150097999Y-64146000I249999J0D01*
G01*
X150798001Y-64146000D01*
G75*
G02*
X151048000Y-64395999I0J-249999D01*
G01*
G37*
G36*
G01*
X153048000Y-64395999D02*
X153048000Y-65296001D01*
G75*
G02*
X152798001Y-65546000I-249999J0D01*
G01*
X152097999Y-65546000D01*
G75*
G02*
X151848000Y-65296001I0J249999D01*
G01*
X151848000Y-64395999D01*
G75*
G02*
X152097999Y-64146000I249999J0D01*
G01*
X152798001Y-64146000D01*
G75*
G02*
X153048000Y-64395999I0J-249999D01*
G01*
G37*
%TD*%
%TO.C,R8*%
G36*
G01*
X151048000Y-66935999D02*
X151048000Y-67836001D01*
G75*
G02*
X150798001Y-68086000I-249999J0D01*
G01*
X150097999Y-68086000D01*
G75*
G02*
X149848000Y-67836001I0J249999D01*
G01*
X149848000Y-66935999D01*
G75*
G02*
X150097999Y-66686000I249999J0D01*
G01*
X150798001Y-66686000D01*
G75*
G02*
X151048000Y-66935999I0J-249999D01*
G01*
G37*
G36*
G01*
X153048000Y-66935999D02*
X153048000Y-67836001D01*
G75*
G02*
X152798001Y-68086000I-249999J0D01*
G01*
X152097999Y-68086000D01*
G75*
G02*
X151848000Y-67836001I0J249999D01*
G01*
X151848000Y-66935999D01*
G75*
G02*
X152097999Y-66686000I249999J0D01*
G01*
X152798001Y-66686000D01*
G75*
G02*
X153048000Y-66935999I0J-249999D01*
G01*
G37*
%TD*%
%TO.C,R7*%
G36*
G01*
X151848000Y-70376001D02*
X151848000Y-69475999D01*
G75*
G02*
X152097999Y-69226000I249999J0D01*
G01*
X152798001Y-69226000D01*
G75*
G02*
X153048000Y-69475999I0J-249999D01*
G01*
X153048000Y-70376001D01*
G75*
G02*
X152798001Y-70626000I-249999J0D01*
G01*
X152097999Y-70626000D01*
G75*
G02*
X151848000Y-70376001I0J249999D01*
G01*
G37*
G36*
G01*
X149848000Y-70376001D02*
X149848000Y-69475999D01*
G75*
G02*
X150097999Y-69226000I249999J0D01*
G01*
X150798001Y-69226000D01*
G75*
G02*
X151048000Y-69475999I0J-249999D01*
G01*
X151048000Y-70376001D01*
G75*
G02*
X150798001Y-70626000I-249999J0D01*
G01*
X150097999Y-70626000D01*
G75*
G02*
X149848000Y-70376001I0J249999D01*
G01*
G37*
%TD*%
%TO.C,R6*%
G36*
G01*
X127188000Y-72015999D02*
X127188000Y-72916001D01*
G75*
G02*
X126938001Y-73166000I-249999J0D01*
G01*
X126237999Y-73166000D01*
G75*
G02*
X125988000Y-72916001I0J249999D01*
G01*
X125988000Y-72015999D01*
G75*
G02*
X126237999Y-71766000I249999J0D01*
G01*
X126938001Y-71766000D01*
G75*
G02*
X127188000Y-72015999I0J-249999D01*
G01*
G37*
G36*
G01*
X129188000Y-72015999D02*
X129188000Y-72916001D01*
G75*
G02*
X128938001Y-73166000I-249999J0D01*
G01*
X128237999Y-73166000D01*
G75*
G02*
X127988000Y-72916001I0J249999D01*
G01*
X127988000Y-72015999D01*
G75*
G02*
X128237999Y-71766000I249999J0D01*
G01*
X128938001Y-71766000D01*
G75*
G02*
X129188000Y-72015999I0J-249999D01*
G01*
G37*
%TD*%
%TO.C,R5*%
G36*
G01*
X127188000Y-69475999D02*
X127188000Y-70376001D01*
G75*
G02*
X126938001Y-70626000I-249999J0D01*
G01*
X126237999Y-70626000D01*
G75*
G02*
X125988000Y-70376001I0J249999D01*
G01*
X125988000Y-69475999D01*
G75*
G02*
X126237999Y-69226000I249999J0D01*
G01*
X126938001Y-69226000D01*
G75*
G02*
X127188000Y-69475999I0J-249999D01*
G01*
G37*
G36*
G01*
X129188000Y-69475999D02*
X129188000Y-70376001D01*
G75*
G02*
X128938001Y-70626000I-249999J0D01*
G01*
X128237999Y-70626000D01*
G75*
G02*
X127988000Y-70376001I0J249999D01*
G01*
X127988000Y-69475999D01*
G75*
G02*
X128237999Y-69226000I249999J0D01*
G01*
X128938001Y-69226000D01*
G75*
G02*
X129188000Y-69475999I0J-249999D01*
G01*
G37*
%TD*%
%TO.C,R1*%
G36*
G01*
X142365000Y-94307999D02*
X142365000Y-95208001D01*
G75*
G02*
X142115001Y-95458000I-249999J0D01*
G01*
X141414999Y-95458000D01*
G75*
G02*
X141165000Y-95208001I0J249999D01*
G01*
X141165000Y-94307999D01*
G75*
G02*
X141414999Y-94058000I249999J0D01*
G01*
X142115001Y-94058000D01*
G75*
G02*
X142365000Y-94307999I0J-249999D01*
G01*
G37*
G36*
G01*
X144365000Y-94307999D02*
X144365000Y-95208001D01*
G75*
G02*
X144115001Y-95458000I-249999J0D01*
G01*
X143414999Y-95458000D01*
G75*
G02*
X143165000Y-95208001I0J249999D01*
G01*
X143165000Y-94307999D01*
G75*
G02*
X143414999Y-94058000I249999J0D01*
G01*
X144115001Y-94058000D01*
G75*
G02*
X144365000Y-94307999I0J-249999D01*
G01*
G37*
%TD*%
%TO.C,D3*%
G36*
G01*
X183493000Y-109216001D02*
X183493000Y-108315999D01*
G75*
G02*
X183742999Y-108066000I249999J0D01*
G01*
X184393001Y-108066000D01*
G75*
G02*
X184643000Y-108315999I0J-249999D01*
G01*
X184643000Y-109216001D01*
G75*
G02*
X184393001Y-109466000I-249999J0D01*
G01*
X183742999Y-109466000D01*
G75*
G02*
X183493000Y-109216001I0J249999D01*
G01*
G37*
G36*
G01*
X181443000Y-109216001D02*
X181443000Y-108315999D01*
G75*
G02*
X181692999Y-108066000I249999J0D01*
G01*
X182343001Y-108066000D01*
G75*
G02*
X182593000Y-108315999I0J-249999D01*
G01*
X182593000Y-109216001D01*
G75*
G02*
X182343001Y-109466000I-249999J0D01*
G01*
X181692999Y-109466000D01*
G75*
G02*
X181443000Y-109216001I0J249999D01*
G01*
G37*
%TD*%
%TO.C,D2*%
G36*
G01*
X139240000Y-97708001D02*
X139240000Y-96807999D01*
G75*
G02*
X139489999Y-96558000I249999J0D01*
G01*
X140140001Y-96558000D01*
G75*
G02*
X140390000Y-96807999I0J-249999D01*
G01*
X140390000Y-97708001D01*
G75*
G02*
X140140001Y-97958000I-249999J0D01*
G01*
X139489999Y-97958000D01*
G75*
G02*
X139240000Y-97708001I0J249999D01*
G01*
G37*
G36*
G01*
X137190000Y-97708001D02*
X137190000Y-96807999D01*
G75*
G02*
X137439999Y-96558000I249999J0D01*
G01*
X138090001Y-96558000D01*
G75*
G02*
X138340000Y-96807999I0J-249999D01*
G01*
X138340000Y-97708001D01*
G75*
G02*
X138090001Y-97958000I-249999J0D01*
G01*
X137439999Y-97958000D01*
G75*
G02*
X137190000Y-97708001I0J249999D01*
G01*
G37*
%TD*%
%TO.C,C5*%
G36*
G01*
X120255000Y-65296000D02*
X121205000Y-65296000D01*
G75*
G02*
X121455000Y-65546000I0J-250000D01*
G01*
X121455000Y-66221000D01*
G75*
G02*
X121205000Y-66471000I-250000J0D01*
G01*
X120255000Y-66471000D01*
G75*
G02*
X120005000Y-66221000I0J250000D01*
G01*
X120005000Y-65546000D01*
G75*
G02*
X120255000Y-65296000I250000J0D01*
G01*
G37*
G36*
G01*
X120255000Y-63221000D02*
X121205000Y-63221000D01*
G75*
G02*
X121455000Y-63471000I0J-250000D01*
G01*
X121455000Y-64146000D01*
G75*
G02*
X121205000Y-64396000I-250000J0D01*
G01*
X120255000Y-64396000D01*
G75*
G02*
X120005000Y-64146000I0J250000D01*
G01*
X120005000Y-63471000D01*
G75*
G02*
X120255000Y-63221000I250000J0D01*
G01*
G37*
%TD*%
%TO.C,C4*%
G36*
G01*
X195415500Y-67099000D02*
X195415500Y-66149000D01*
G75*
G02*
X195665500Y-65899000I250000J0D01*
G01*
X196340500Y-65899000D01*
G75*
G02*
X196590500Y-66149000I0J-250000D01*
G01*
X196590500Y-67099000D01*
G75*
G02*
X196340500Y-67349000I-250000J0D01*
G01*
X195665500Y-67349000D01*
G75*
G02*
X195415500Y-67099000I0J250000D01*
G01*
G37*
G36*
G01*
X193340500Y-67099000D02*
X193340500Y-66149000D01*
G75*
G02*
X193590500Y-65899000I250000J0D01*
G01*
X194265500Y-65899000D01*
G75*
G02*
X194515500Y-66149000I0J-250000D01*
G01*
X194515500Y-67099000D01*
G75*
G02*
X194265500Y-67349000I-250000J0D01*
G01*
X193590500Y-67349000D01*
G75*
G02*
X193340500Y-67099000I0J250000D01*
G01*
G37*
%TD*%
%TO.C,C3*%
G36*
G01*
X195415500Y-69639000D02*
X195415500Y-68689000D01*
G75*
G02*
X195665500Y-68439000I250000J0D01*
G01*
X196340500Y-68439000D01*
G75*
G02*
X196590500Y-68689000I0J-250000D01*
G01*
X196590500Y-69639000D01*
G75*
G02*
X196340500Y-69889000I-250000J0D01*
G01*
X195665500Y-69889000D01*
G75*
G02*
X195415500Y-69639000I0J250000D01*
G01*
G37*
G36*
G01*
X193340500Y-69639000D02*
X193340500Y-68689000D01*
G75*
G02*
X193590500Y-68439000I250000J0D01*
G01*
X194265500Y-68439000D01*
G75*
G02*
X194515500Y-68689000I0J-250000D01*
G01*
X194515500Y-69639000D01*
G75*
G02*
X194265500Y-69889000I-250000J0D01*
G01*
X193590500Y-69889000D01*
G75*
G02*
X193340500Y-69639000I0J250000D01*
G01*
G37*
%TD*%
%TO.C,C2*%
G36*
G01*
X176922500Y-84725000D02*
X176922500Y-83775000D01*
G75*
G02*
X177172500Y-83525000I250000J0D01*
G01*
X177847500Y-83525000D01*
G75*
G02*
X178097500Y-83775000I0J-250000D01*
G01*
X178097500Y-84725000D01*
G75*
G02*
X177847500Y-84975000I-250000J0D01*
G01*
X177172500Y-84975000D01*
G75*
G02*
X176922500Y-84725000I0J250000D01*
G01*
G37*
G36*
G01*
X174847500Y-84725000D02*
X174847500Y-83775000D01*
G75*
G02*
X175097500Y-83525000I250000J0D01*
G01*
X175772500Y-83525000D01*
G75*
G02*
X176022500Y-83775000I0J-250000D01*
G01*
X176022500Y-84725000D01*
G75*
G02*
X175772500Y-84975000I-250000J0D01*
G01*
X175097500Y-84975000D01*
G75*
G02*
X174847500Y-84725000I0J250000D01*
G01*
G37*
%TD*%
%TO.C,C1*%
G36*
G01*
X176922500Y-82475000D02*
X176922500Y-81525000D01*
G75*
G02*
X177172500Y-81275000I250000J0D01*
G01*
X177847500Y-81275000D01*
G75*
G02*
X178097500Y-81525000I0J-250000D01*
G01*
X178097500Y-82475000D01*
G75*
G02*
X177847500Y-82725000I-250000J0D01*
G01*
X177172500Y-82725000D01*
G75*
G02*
X176922500Y-82475000I0J250000D01*
G01*
G37*
G36*
G01*
X174847500Y-82475000D02*
X174847500Y-81525000D01*
G75*
G02*
X175097500Y-81275000I250000J0D01*
G01*
X175772500Y-81275000D01*
G75*
G02*
X176022500Y-81525000I0J-250000D01*
G01*
X176022500Y-82475000D01*
G75*
G02*
X175772500Y-82725000I-250000J0D01*
G01*
X175097500Y-82725000D01*
G75*
G02*
X174847500Y-82475000I0J250000D01*
G01*
G37*
%TD*%
%TO.C,R2*%
G36*
G01*
X142365000Y-96807999D02*
X142365000Y-97708001D01*
G75*
G02*
X142115001Y-97958000I-249999J0D01*
G01*
X141414999Y-97958000D01*
G75*
G02*
X141165000Y-97708001I0J249999D01*
G01*
X141165000Y-96807999D01*
G75*
G02*
X141414999Y-96558000I249999J0D01*
G01*
X142115001Y-96558000D01*
G75*
G02*
X142365000Y-96807999I0J-249999D01*
G01*
G37*
G36*
G01*
X144365000Y-96807999D02*
X144365000Y-97708001D01*
G75*
G02*
X144115001Y-97958000I-249999J0D01*
G01*
X143414999Y-97958000D01*
G75*
G02*
X143165000Y-97708001I0J249999D01*
G01*
X143165000Y-96807999D01*
G75*
G02*
X143414999Y-96558000I249999J0D01*
G01*
X144115001Y-96558000D01*
G75*
G02*
X144365000Y-96807999I0J-249999D01*
G01*
G37*
%TD*%
%TO.C,U2*%
G36*
G01*
X187517000Y-66094000D02*
X187217000Y-66094000D01*
G75*
G02*
X187067000Y-65944000I0J150000D01*
G01*
X187067000Y-64594000D01*
G75*
G02*
X187217000Y-64444000I150000J0D01*
G01*
X187517000Y-64444000D01*
G75*
G02*
X187667000Y-64594000I0J-150000D01*
G01*
X187667000Y-65944000D01*
G75*
G02*
X187517000Y-66094000I-150000J0D01*
G01*
G37*
G36*
G01*
X188787000Y-66094000D02*
X188487000Y-66094000D01*
G75*
G02*
X188337000Y-65944000I0J150000D01*
G01*
X188337000Y-64594000D01*
G75*
G02*
X188487000Y-64444000I150000J0D01*
G01*
X188787000Y-64444000D01*
G75*
G02*
X188937000Y-64594000I0J-150000D01*
G01*
X188937000Y-65944000D01*
G75*
G02*
X188787000Y-66094000I-150000J0D01*
G01*
G37*
G36*
G01*
X190057000Y-66094000D02*
X189757000Y-66094000D01*
G75*
G02*
X189607000Y-65944000I0J150000D01*
G01*
X189607000Y-64594000D01*
G75*
G02*
X189757000Y-64444000I150000J0D01*
G01*
X190057000Y-64444000D01*
G75*
G02*
X190207000Y-64594000I0J-150000D01*
G01*
X190207000Y-65944000D01*
G75*
G02*
X190057000Y-66094000I-150000J0D01*
G01*
G37*
G36*
G01*
X191327000Y-66094000D02*
X191027000Y-66094000D01*
G75*
G02*
X190877000Y-65944000I0J150000D01*
G01*
X190877000Y-64594000D01*
G75*
G02*
X191027000Y-64444000I150000J0D01*
G01*
X191327000Y-64444000D01*
G75*
G02*
X191477000Y-64594000I0J-150000D01*
G01*
X191477000Y-65944000D01*
G75*
G02*
X191327000Y-66094000I-150000J0D01*
G01*
G37*
G36*
G01*
X191327000Y-71344000D02*
X191027000Y-71344000D01*
G75*
G02*
X190877000Y-71194000I0J150000D01*
G01*
X190877000Y-69844000D01*
G75*
G02*
X191027000Y-69694000I150000J0D01*
G01*
X191327000Y-69694000D01*
G75*
G02*
X191477000Y-69844000I0J-150000D01*
G01*
X191477000Y-71194000D01*
G75*
G02*
X191327000Y-71344000I-150000J0D01*
G01*
G37*
G36*
G01*
X190057000Y-71344000D02*
X189757000Y-71344000D01*
G75*
G02*
X189607000Y-71194000I0J150000D01*
G01*
X189607000Y-69844000D01*
G75*
G02*
X189757000Y-69694000I150000J0D01*
G01*
X190057000Y-69694000D01*
G75*
G02*
X190207000Y-69844000I0J-150000D01*
G01*
X190207000Y-71194000D01*
G75*
G02*
X190057000Y-71344000I-150000J0D01*
G01*
G37*
G36*
G01*
X188787000Y-71344000D02*
X188487000Y-71344000D01*
G75*
G02*
X188337000Y-71194000I0J150000D01*
G01*
X188337000Y-69844000D01*
G75*
G02*
X188487000Y-69694000I150000J0D01*
G01*
X188787000Y-69694000D01*
G75*
G02*
X188937000Y-69844000I0J-150000D01*
G01*
X188937000Y-71194000D01*
G75*
G02*
X188787000Y-71344000I-150000J0D01*
G01*
G37*
G36*
G01*
X187517000Y-71344000D02*
X187217000Y-71344000D01*
G75*
G02*
X187067000Y-71194000I0J150000D01*
G01*
X187067000Y-69844000D01*
G75*
G02*
X187217000Y-69694000I150000J0D01*
G01*
X187517000Y-69694000D01*
G75*
G02*
X187667000Y-69844000I0J-150000D01*
G01*
X187667000Y-71194000D01*
G75*
G02*
X187517000Y-71344000I-150000J0D01*
G01*
G37*
%TD*%
D13*
%TO.C,U4*%
X147110000Y-62870000D03*
X147110000Y-64870000D03*
X147110000Y-66870000D03*
X147110000Y-68870000D03*
X147110000Y-70870000D03*
X147110000Y-72870000D03*
X147110000Y-74870000D03*
X147110000Y-76870000D03*
D14*
X144510000Y-78370000D03*
X142510000Y-78370000D03*
X140510000Y-78370000D03*
X138510000Y-78370000D03*
X136510000Y-78370000D03*
X134510000Y-78370000D03*
D13*
X131910000Y-76870000D03*
X131910000Y-74870000D03*
X131910000Y-72870000D03*
X131910000Y-70870000D03*
X131910000Y-68870000D03*
X131910000Y-66870000D03*
X131910000Y-64870000D03*
X131910000Y-62870000D03*
%TD*%
M02*
