M48
; DRILL file {KiCad (5.1.10)-1} date 06/06/21 00:54:19
; FORMAT={-:-/ absolute / inch / decimal}
; #@! TF.CreationDate,2021-06-06T00:54:19+02:00
; #@! TF.GenerationSoftware,Kicad,Pcbnew,(5.1.10)-1
; #@! TF.FileFunction,Plated,1,2,PTH
FMAT,2
INCH
T1C0.0157
T2C0.0197
T3C0.0295
T4C0.0315
T5C0.0394
T6C0.0433
T7C0.0512
%
G90
G05
T1
X4.6465Y-2.1752
X4.7465Y-2.1152
X4.7465Y-2.2352
X4.8231Y-2.513
X4.8465Y-2.1752
X4.9125Y-3.013
X4.915Y-2.71
X4.9331Y-3.073
X5.0614Y-3.113
X5.0614Y-3.1909
X5.1131Y-2.473
X5.1131Y-2.625
X5.1131Y-3.008
X5.115Y-2.948
X5.1425Y-3.5709
X5.2425Y-3.5709
X5.28Y-2.475
X5.28Y-2.71
X5.2925Y-2.993
X5.3325Y-3.213
X5.4125Y-3.173
X5.4925Y-2.773
X5.4925Y-3.213
X5.5725Y-3.253
X5.6125Y-2.773
X5.6525Y-3.293
X5.6846Y-3.5209
X5.6925Y-2.793
X5.7002Y-2.6728
X5.7325Y-3.333
X5.7925Y-3.333
X5.823Y-3.7209
X5.8525Y-3.333
X5.8525Y-3.493
X5.9028Y-3.3331
X6.0625Y-2.603
X6.0625Y-2.978
X6.1125Y-2.703
X6.1125Y-2.978
X6.2045Y-2.7579
X6.3324Y-3.4678
X6.3625Y-2.753
X6.3625Y-2.803
X6.3724Y-3.4678
X6.4616Y-3.4673
X6.5625Y-3.113
X6.6146Y-3.6446
X6.6425Y-3.033
X6.7524Y-4.373
X6.7978Y-3.113
X6.9098Y-3.4675
X7.1068Y-4.3321
X7.1197Y-2.62
X7.2026Y-2.5053
X7.32Y-3.72
X7.3422Y-3.4152
X7.3522Y-3.3011
X7.3767Y-2.638
X7.4029Y-3.8961
X7.4276Y-2.5011
X7.4517Y-2.673
X7.5758Y-2.623
X7.7644Y-2.623
T2
X6.7017Y-3.2269
T3
X4.4869Y-2.4803
X4.4869Y-2.5591
X4.4869Y-2.6378
X4.4886Y-2.9134
X4.4886Y-2.9921
X6.4768Y-4.3021
X6.4965Y-3.7037
X6.5555Y-4.3021
X6.5752Y-3.7037
X6.6343Y-4.3021
X6.6539Y-3.7037
X6.713Y-4.3021
X6.7327Y-3.7037
X6.7917Y-4.3021
X6.8114Y-3.7037
X6.8705Y-4.3021
X6.8902Y-3.7037
X7.1461Y-3.7153
X7.1461Y-3.7653
X7.1461Y-3.8153
T4
X4.3565Y-2.1679
X4.4903Y-2.1679
T5
X4.4689Y-3.2137
X4.5689Y-3.2137
X4.6689Y-3.2137
X4.793Y-3.5209
X4.793Y-3.6209
X4.793Y-3.7209
X4.793Y-3.8209
X4.948Y-3.5209
X4.948Y-3.6209
X4.948Y-3.7209
X4.948Y-3.8209
X5.3429Y-3.393
X5.4429Y-3.393
X5.5429Y-3.393
X5.6429Y-3.393
X6.3579Y-2.4311
X6.4579Y-2.4311
X6.5579Y-2.4311
X6.6579Y-2.4311
X6.7579Y-2.4311
X6.8579Y-2.4311
X6.9579Y-2.4311
X7.0579Y-2.4311
X7.1579Y-2.4311
X7.2579Y-2.4311
X7.3579Y-2.4311
X7.4513Y-3.0314
X7.4579Y-2.4311
X7.5579Y-2.4311
X7.6481Y-2.933
X7.6481Y-3.1298
X7.6579Y-2.4311
T6
X6.2407Y-2.6272
X6.2407Y-2.8831
X6.4179Y-2.6272
X6.4179Y-2.8831
X6.5656Y-2.6272
X6.5656Y-2.8831
X6.7427Y-2.6272
X6.7427Y-2.8831
T7
X6.0734Y-4.9008
X6.2734Y-4.9008
X6.4734Y-4.9008
X6.6734Y-4.9008
X6.8734Y-4.9008
X7.0734Y-4.9008
X7.2734Y-4.9008
T0
M30
