%TF.GenerationSoftware,KiCad,Pcbnew,(5.1.9)-1*%
%TF.CreationDate,2021-05-22T23:47:25+02:00*%
%TF.ProjectId,LakeTemp,4c616b65-5465-46d7-902e-6b696361645f,1.0*%
%TF.SameCoordinates,Original*%
%TF.FileFunction,Profile,NP*%
%FSLAX46Y46*%
G04 Gerber Fmt 4.6, Leading zero omitted, Abs format (unit mm)*
G04 Created by KiCad (PCBNEW (5.1.9)-1) date 2021-05-22 23:47:25*
%MOMM*%
%LPD*%
G01*
G04 APERTURE LIST*
%TA.AperFunction,Profile*%
%ADD10C,0.050000*%
%TD*%
G04 APERTURE END LIST*
D10*
X127510000Y-58750000D02*
G75*
G02*
X129010000Y-60250000I0J-1500000D01*
G01*
X130510000Y-61750000D02*
G75*
G02*
X129010000Y-60250000I0J1500000D01*
G01*
X150010000Y-60250000D02*
G75*
G02*
X151510000Y-58750000I1500000J0D01*
G01*
X150010000Y-60250000D02*
G75*
G02*
X148510000Y-61750000I-1500000J0D01*
G01*
X127510000Y-58750000D02*
G75*
G02*
X126010000Y-57250000I0J1500000D01*
G01*
X195510000Y-58750000D02*
G75*
G02*
X197510000Y-60750000I0J-2000000D01*
G01*
X197510000Y-98750000D02*
G75*
G02*
X195510000Y-100750000I-2000000J0D01*
G01*
X109510000Y-100750000D02*
G75*
G02*
X107510000Y-98750000I0J2000000D01*
G01*
X107510000Y-53750000D02*
G75*
G02*
X110510000Y-50750000I3000000J0D01*
G01*
X123010000Y-50750000D02*
G75*
G02*
X126010000Y-53750000I0J-3000000D01*
G01*
X126010000Y-57250000D02*
X126010000Y-53750000D01*
X110510000Y-50750000D02*
X123010000Y-50750000D01*
X156510000Y-102750000D02*
X178510000Y-102750000D01*
X178510000Y-100750000D02*
X156510000Y-100750000D01*
X182510000Y-102750000D02*
X195510000Y-102750000D01*
X195510000Y-100750000D02*
X182510000Y-100750000D01*
X182510000Y-102750000D02*
G75*
G02*
X182510000Y-100750000I0J1000000D01*
G01*
X178510000Y-100750000D02*
G75*
G02*
X178510000Y-102750000I0J-1000000D01*
G01*
X156510000Y-102750000D02*
G75*
G02*
X156510000Y-100750000I0J1000000D01*
G01*
X152510000Y-100750000D02*
G75*
G02*
X152510000Y-102750000I0J-1000000D01*
G01*
X197510000Y-130750000D02*
G75*
G02*
X195510000Y-132750000I-2000000J0D01*
G01*
X152510000Y-102750000D02*
X139510000Y-102750000D01*
X197510000Y-60750000D02*
X197510000Y-98750000D01*
X137510000Y-130750000D02*
X137510000Y-104750000D01*
X195510000Y-132750000D02*
X139510000Y-132750000D01*
X197510000Y-104750000D02*
X197510000Y-130750000D01*
X139510000Y-132750000D02*
G75*
G02*
X137510000Y-130750000I0J2000000D01*
G01*
X137510000Y-104750000D02*
G75*
G02*
X139510000Y-102750000I2000000J0D01*
G01*
X195510000Y-102750000D02*
G75*
G02*
X197510000Y-104750000I0J-2000000D01*
G01*
X148510000Y-61750000D02*
X130510000Y-61750000D01*
X109510000Y-100750000D02*
X152510000Y-100750000D01*
X107510000Y-53750000D02*
X107510000Y-98750000D01*
X195510000Y-58750000D02*
X151510000Y-58750000D01*
M02*
