%TF.GenerationSoftware,KiCad,Pcbnew,(5.1.9)-1*%
%TF.CreationDate,2021-05-22T23:47:24+02:00*%
%TF.ProjectId,LakeTemp,4c616b65-5465-46d7-902e-6b696361645f,1.0*%
%TF.SameCoordinates,Original*%
%TF.FileFunction,Soldermask,Top*%
%TF.FilePolarity,Negative*%
%FSLAX46Y46*%
G04 Gerber Fmt 4.6, Leading zero omitted, Abs format (unit mm)*
G04 Created by KiCad (PCBNEW (5.1.9)-1) date 2021-05-22 23:47:24*
%MOMM*%
%LPD*%
G01*
G04 APERTURE LIST*
%ADD10O,1.300000X1.850000*%
%ADD11O,1.150000X1.600000*%
%ADD12C,2.100000*%
%ADD13O,1.800000X1.800000*%
%ADD14C,0.100000*%
%ADD15C,1.600000*%
%ADD16O,1.850000X1.300000*%
%ADD17C,2.700000*%
%ADD18C,3.300000*%
%ADD19C,0.600000*%
%ADD20O,1.600000X1.150000*%
%ADD21C,1.650000*%
G04 APERTURE END LIST*
D10*
%TO.C,J2*%
X175010000Y-94074000D03*
X173010000Y-94074000D03*
X171010000Y-94074000D03*
X169010000Y-94074000D03*
X167010000Y-94074000D03*
G36*
G01*
X164360000Y-94728168D02*
X164360000Y-93419832D01*
G75*
G02*
X164630832Y-93149000I270832J0D01*
G01*
X165389168Y-93149000D01*
G75*
G02*
X165660000Y-93419832I0J-270832D01*
G01*
X165660000Y-94728168D01*
G75*
G02*
X165389168Y-94999000I-270832J0D01*
G01*
X164630832Y-94999000D01*
G75*
G02*
X164360000Y-94728168I0J270832D01*
G01*
G37*
%TD*%
%TO.C,Q1*%
G36*
G01*
X127085000Y-80878000D02*
X127085000Y-82378000D01*
G75*
G02*
X127035000Y-82428000I-50000J0D01*
G01*
X125985000Y-82428000D01*
G75*
G02*
X125935000Y-82378000I0J50000D01*
G01*
X125935000Y-80878000D01*
G75*
G02*
X125985000Y-80828000I50000J0D01*
G01*
X127035000Y-80828000D01*
G75*
G02*
X127085000Y-80878000I0J-50000D01*
G01*
G37*
D11*
X123970000Y-81628000D03*
X125240000Y-81628000D03*
%TD*%
%TO.C,JP1*%
G36*
G01*
X188784000Y-96188000D02*
X187284000Y-96188000D01*
G75*
G02*
X187234000Y-96138000I0J50000D01*
G01*
X187234000Y-95138000D01*
G75*
G02*
X187284000Y-95088000I50000J0D01*
G01*
X188784000Y-95088000D01*
G75*
G02*
X188834000Y-95138000I0J-50000D01*
G01*
X188834000Y-96138000D01*
G75*
G02*
X188784000Y-96188000I-50000J0D01*
G01*
G37*
G36*
G01*
X188784000Y-94888000D02*
X187284000Y-94888000D01*
G75*
G02*
X187234000Y-94838000I0J50000D01*
G01*
X187234000Y-93838000D01*
G75*
G02*
X187284000Y-93788000I50000J0D01*
G01*
X188784000Y-93788000D01*
G75*
G02*
X188834000Y-93838000I0J-50000D01*
G01*
X188834000Y-94838000D01*
G75*
G02*
X188784000Y-94888000I-50000J0D01*
G01*
G37*
G36*
G01*
X188784000Y-97488000D02*
X187284000Y-97488000D01*
G75*
G02*
X187234000Y-97438000I0J50000D01*
G01*
X187234000Y-96438000D01*
G75*
G02*
X187284000Y-96388000I50000J0D01*
G01*
X188784000Y-96388000D01*
G75*
G02*
X188834000Y-96438000I0J-50000D01*
G01*
X188834000Y-97438000D01*
G75*
G02*
X188784000Y-97488000I-50000J0D01*
G01*
G37*
%TD*%
D12*
%TO.C,SW2*%
X171265000Y-73230000D03*
X166765000Y-73230000D03*
X171265000Y-66730000D03*
X166765000Y-66730000D03*
%TD*%
%TO.C,SW1*%
X158515000Y-66730000D03*
X163015000Y-66730000D03*
X158515000Y-73230000D03*
X163015000Y-73230000D03*
%TD*%
D13*
%TO.C,JP2*%
X118590000Y-81628000D03*
X116050000Y-81628000D03*
G36*
G01*
X114360000Y-82528000D02*
X112660000Y-82528000D01*
G75*
G02*
X112610000Y-82478000I0J50000D01*
G01*
X112610000Y-80778000D01*
G75*
G02*
X112660000Y-80728000I50000J0D01*
G01*
X114360000Y-80728000D01*
G75*
G02*
X114410000Y-80778000I0J-50000D01*
G01*
X114410000Y-82478000D01*
G75*
G02*
X114360000Y-82528000I-50000J0D01*
G01*
G37*
%TD*%
%TO.C,C6*%
G36*
G01*
X153470000Y-91950000D02*
X155550000Y-91950000D01*
G75*
G02*
X155810000Y-92210000I0J-260000D01*
G01*
X155810000Y-96190000D01*
G75*
G02*
X155550000Y-96450000I-260000J0D01*
G01*
X153470000Y-96450000D01*
G75*
G02*
X153210000Y-96190000I0J260000D01*
G01*
X153210000Y-92210000D01*
G75*
G02*
X153470000Y-91950000I260000J0D01*
G01*
G37*
G36*
G01*
X153470000Y-83550000D02*
X155550000Y-83550000D01*
G75*
G02*
X155810000Y-83810000I0J-260000D01*
G01*
X155810000Y-87790000D01*
G75*
G02*
X155550000Y-88050000I-260000J0D01*
G01*
X153470000Y-88050000D01*
G75*
G02*
X153210000Y-87790000I0J260000D01*
G01*
X153210000Y-83810000D01*
G75*
G02*
X153470000Y-83550000I260000J0D01*
G01*
G37*
%TD*%
D10*
%TO.C,J3*%
X172510000Y-109274000D03*
X170510000Y-109274000D03*
X168510000Y-109274000D03*
X166510000Y-109274000D03*
X164510000Y-109274000D03*
G36*
G01*
X161860000Y-109928168D02*
X161860000Y-108619832D01*
G75*
G02*
X162130832Y-108349000I270832J0D01*
G01*
X162889168Y-108349000D01*
G75*
G02*
X163160000Y-108619832I0J-270832D01*
G01*
X163160000Y-109928168D01*
G75*
G02*
X162889168Y-110199000I-270832J0D01*
G01*
X162130832Y-110199000D01*
G75*
G02*
X161860000Y-109928168I0J270832D01*
G01*
G37*
%TD*%
D13*
%TO.C,J9*%
X124143000Y-89432000D03*
X124143000Y-91972000D03*
X124143000Y-94512000D03*
G36*
G01*
X125043000Y-96202000D02*
X125043000Y-97902000D01*
G75*
G02*
X124993000Y-97952000I-50000J0D01*
G01*
X123293000Y-97952000D01*
G75*
G02*
X123243000Y-97902000I0J50000D01*
G01*
X123243000Y-96202000D01*
G75*
G02*
X123293000Y-96152000I50000J0D01*
G01*
X124993000Y-96152000D01*
G75*
G02*
X125043000Y-96202000I0J-50000D01*
G01*
G37*
%TD*%
%TO.C,R3*%
G36*
G01*
X181402000Y-106705168D02*
X181402000Y-105746832D01*
G75*
G02*
X181672832Y-105476000I270832J0D01*
G01*
X182431168Y-105476000D01*
G75*
G02*
X182702000Y-105746832I0J-270832D01*
G01*
X182702000Y-106705168D01*
G75*
G02*
X182431168Y-106976000I-270832J0D01*
G01*
X181672832Y-106976000D01*
G75*
G02*
X181402000Y-106705168I0J270832D01*
G01*
G37*
G36*
G01*
X179402000Y-106705168D02*
X179402000Y-105746832D01*
G75*
G02*
X179672832Y-105476000I270832J0D01*
G01*
X180431168Y-105476000D01*
G75*
G02*
X180702000Y-105746832I0J-270832D01*
G01*
X180702000Y-106705168D01*
G75*
G02*
X180431168Y-106976000I-270832J0D01*
G01*
X179672832Y-106976000D01*
G75*
G02*
X179402000Y-106705168I0J270832D01*
G01*
G37*
%TD*%
%TO.C,R4*%
G36*
G01*
X181418000Y-114325168D02*
X181418000Y-113366832D01*
G75*
G02*
X181688832Y-113096000I270832J0D01*
G01*
X182447168Y-113096000D01*
G75*
G02*
X182718000Y-113366832I0J-270832D01*
G01*
X182718000Y-114325168D01*
G75*
G02*
X182447168Y-114596000I-270832J0D01*
G01*
X181688832Y-114596000D01*
G75*
G02*
X181418000Y-114325168I0J270832D01*
G01*
G37*
G36*
G01*
X179418000Y-114325168D02*
X179418000Y-113366832D01*
G75*
G02*
X179688832Y-113096000I270832J0D01*
G01*
X180447168Y-113096000D01*
G75*
G02*
X180718000Y-113366832I0J-270832D01*
G01*
X180718000Y-114325168D01*
G75*
G02*
X180447168Y-114596000I-270832J0D01*
G01*
X179688832Y-114596000D01*
G75*
G02*
X179418000Y-114325168I0J270832D01*
G01*
G37*
%TD*%
D14*
%TO.C,ADR-A3*%
G36*
X187849755Y-83154961D02*
G01*
X187859134Y-83157806D01*
X187867779Y-83162427D01*
X187875355Y-83168645D01*
X187881603Y-83176265D01*
X188381603Y-83926265D01*
X188386214Y-83934914D01*
X188389049Y-83944297D01*
X188390000Y-83954052D01*
X188389029Y-83963806D01*
X188386174Y-83973182D01*
X188381603Y-83981735D01*
X187881603Y-84731735D01*
X187875392Y-84739318D01*
X187867822Y-84745544D01*
X187859182Y-84750174D01*
X187849806Y-84753029D01*
X187840000Y-84754000D01*
X186840000Y-84754000D01*
X186830245Y-84753039D01*
X186820866Y-84750194D01*
X186812221Y-84745573D01*
X186804645Y-84739355D01*
X186798427Y-84731779D01*
X186793806Y-84723134D01*
X186790961Y-84713755D01*
X186790000Y-84704000D01*
X186790000Y-83204000D01*
X186790961Y-83194245D01*
X186793806Y-83184866D01*
X186798427Y-83176221D01*
X186804645Y-83168645D01*
X186812221Y-83162427D01*
X186820866Y-83157806D01*
X186830245Y-83154961D01*
X186840000Y-83154000D01*
X187840000Y-83154000D01*
X187849755Y-83154961D01*
G37*
G36*
X189299755Y-83154961D02*
G01*
X189309134Y-83157806D01*
X189317779Y-83162427D01*
X189325355Y-83168645D01*
X189331573Y-83176221D01*
X189336194Y-83184866D01*
X189339039Y-83194245D01*
X189340000Y-83204000D01*
X189340000Y-84704000D01*
X189339039Y-84713755D01*
X189336194Y-84723134D01*
X189331573Y-84731779D01*
X189325355Y-84739355D01*
X189317779Y-84745573D01*
X189309134Y-84750194D01*
X189299755Y-84753039D01*
X189290000Y-84754000D01*
X188140000Y-84754000D01*
X188130245Y-84753039D01*
X188120866Y-84750194D01*
X188112221Y-84745573D01*
X188104645Y-84739355D01*
X188098427Y-84731779D01*
X188093806Y-84723134D01*
X188090961Y-84713755D01*
X188090000Y-84704000D01*
X188090961Y-84694245D01*
X188093806Y-84684866D01*
X188098397Y-84676265D01*
X188579907Y-83954000D01*
X188098397Y-83231735D01*
X188093786Y-83223086D01*
X188090951Y-83213703D01*
X188090000Y-83203948D01*
X188090971Y-83194194D01*
X188093826Y-83184818D01*
X188098456Y-83176178D01*
X188104682Y-83168608D01*
X188112265Y-83162397D01*
X188120914Y-83157786D01*
X188130297Y-83154951D01*
X188140000Y-83154000D01*
X189290000Y-83154000D01*
X189299755Y-83154961D01*
G37*
%TD*%
%TO.C,ADR-A2*%
G36*
X187849755Y-86202961D02*
G01*
X187859134Y-86205806D01*
X187867779Y-86210427D01*
X187875355Y-86216645D01*
X187881603Y-86224265D01*
X188381603Y-86974265D01*
X188386214Y-86982914D01*
X188389049Y-86992297D01*
X188390000Y-87002052D01*
X188389029Y-87011806D01*
X188386174Y-87021182D01*
X188381603Y-87029735D01*
X187881603Y-87779735D01*
X187875392Y-87787318D01*
X187867822Y-87793544D01*
X187859182Y-87798174D01*
X187849806Y-87801029D01*
X187840000Y-87802000D01*
X186840000Y-87802000D01*
X186830245Y-87801039D01*
X186820866Y-87798194D01*
X186812221Y-87793573D01*
X186804645Y-87787355D01*
X186798427Y-87779779D01*
X186793806Y-87771134D01*
X186790961Y-87761755D01*
X186790000Y-87752000D01*
X186790000Y-86252000D01*
X186790961Y-86242245D01*
X186793806Y-86232866D01*
X186798427Y-86224221D01*
X186804645Y-86216645D01*
X186812221Y-86210427D01*
X186820866Y-86205806D01*
X186830245Y-86202961D01*
X186840000Y-86202000D01*
X187840000Y-86202000D01*
X187849755Y-86202961D01*
G37*
G36*
X189299755Y-86202961D02*
G01*
X189309134Y-86205806D01*
X189317779Y-86210427D01*
X189325355Y-86216645D01*
X189331573Y-86224221D01*
X189336194Y-86232866D01*
X189339039Y-86242245D01*
X189340000Y-86252000D01*
X189340000Y-87752000D01*
X189339039Y-87761755D01*
X189336194Y-87771134D01*
X189331573Y-87779779D01*
X189325355Y-87787355D01*
X189317779Y-87793573D01*
X189309134Y-87798194D01*
X189299755Y-87801039D01*
X189290000Y-87802000D01*
X188140000Y-87802000D01*
X188130245Y-87801039D01*
X188120866Y-87798194D01*
X188112221Y-87793573D01*
X188104645Y-87787355D01*
X188098427Y-87779779D01*
X188093806Y-87771134D01*
X188090961Y-87761755D01*
X188090000Y-87752000D01*
X188090961Y-87742245D01*
X188093806Y-87732866D01*
X188098397Y-87724265D01*
X188579907Y-87002000D01*
X188098397Y-86279735D01*
X188093786Y-86271086D01*
X188090951Y-86261703D01*
X188090000Y-86251948D01*
X188090971Y-86242194D01*
X188093826Y-86232818D01*
X188098456Y-86224178D01*
X188104682Y-86216608D01*
X188112265Y-86210397D01*
X188120914Y-86205786D01*
X188130297Y-86202951D01*
X188140000Y-86202000D01*
X189290000Y-86202000D01*
X189299755Y-86202961D01*
G37*
%TD*%
%TO.C,ADR-A1*%
G36*
X187849755Y-89250961D02*
G01*
X187859134Y-89253806D01*
X187867779Y-89258427D01*
X187875355Y-89264645D01*
X187881603Y-89272265D01*
X188381603Y-90022265D01*
X188386214Y-90030914D01*
X188389049Y-90040297D01*
X188390000Y-90050052D01*
X188389029Y-90059806D01*
X188386174Y-90069182D01*
X188381603Y-90077735D01*
X187881603Y-90827735D01*
X187875392Y-90835318D01*
X187867822Y-90841544D01*
X187859182Y-90846174D01*
X187849806Y-90849029D01*
X187840000Y-90850000D01*
X186840000Y-90850000D01*
X186830245Y-90849039D01*
X186820866Y-90846194D01*
X186812221Y-90841573D01*
X186804645Y-90835355D01*
X186798427Y-90827779D01*
X186793806Y-90819134D01*
X186790961Y-90809755D01*
X186790000Y-90800000D01*
X186790000Y-89300000D01*
X186790961Y-89290245D01*
X186793806Y-89280866D01*
X186798427Y-89272221D01*
X186804645Y-89264645D01*
X186812221Y-89258427D01*
X186820866Y-89253806D01*
X186830245Y-89250961D01*
X186840000Y-89250000D01*
X187840000Y-89250000D01*
X187849755Y-89250961D01*
G37*
G36*
X189299755Y-89250961D02*
G01*
X189309134Y-89253806D01*
X189317779Y-89258427D01*
X189325355Y-89264645D01*
X189331573Y-89272221D01*
X189336194Y-89280866D01*
X189339039Y-89290245D01*
X189340000Y-89300000D01*
X189340000Y-90800000D01*
X189339039Y-90809755D01*
X189336194Y-90819134D01*
X189331573Y-90827779D01*
X189325355Y-90835355D01*
X189317779Y-90841573D01*
X189309134Y-90846194D01*
X189299755Y-90849039D01*
X189290000Y-90850000D01*
X188140000Y-90850000D01*
X188130245Y-90849039D01*
X188120866Y-90846194D01*
X188112221Y-90841573D01*
X188104645Y-90835355D01*
X188098427Y-90827779D01*
X188093806Y-90819134D01*
X188090961Y-90809755D01*
X188090000Y-90800000D01*
X188090961Y-90790245D01*
X188093806Y-90780866D01*
X188098397Y-90772265D01*
X188579907Y-90050000D01*
X188098397Y-89327735D01*
X188093786Y-89319086D01*
X188090951Y-89309703D01*
X188090000Y-89299948D01*
X188090971Y-89290194D01*
X188093826Y-89280818D01*
X188098456Y-89272178D01*
X188104682Y-89264608D01*
X188112265Y-89258397D01*
X188120914Y-89253786D01*
X188130297Y-89250951D01*
X188140000Y-89250000D01*
X189290000Y-89250000D01*
X189299755Y-89250961D01*
G37*
%TD*%
%TO.C,U3*%
G36*
G01*
X176465000Y-74000000D02*
X176465000Y-74350000D01*
G75*
G02*
X176290000Y-74525000I-175000J0D01*
G01*
X174565000Y-74525000D01*
G75*
G02*
X174390000Y-74350000I0J175000D01*
G01*
X174390000Y-74000000D01*
G75*
G02*
X174565000Y-73825000I175000J0D01*
G01*
X176290000Y-73825000D01*
G75*
G02*
X176465000Y-74000000I0J-175000D01*
G01*
G37*
G36*
G01*
X176465000Y-72730000D02*
X176465000Y-73080000D01*
G75*
G02*
X176290000Y-73255000I-175000J0D01*
G01*
X174565000Y-73255000D01*
G75*
G02*
X174390000Y-73080000I0J175000D01*
G01*
X174390000Y-72730000D01*
G75*
G02*
X174565000Y-72555000I175000J0D01*
G01*
X176290000Y-72555000D01*
G75*
G02*
X176465000Y-72730000I0J-175000D01*
G01*
G37*
G36*
G01*
X176465000Y-71460000D02*
X176465000Y-71810000D01*
G75*
G02*
X176290000Y-71985000I-175000J0D01*
G01*
X174565000Y-71985000D01*
G75*
G02*
X174390000Y-71810000I0J175000D01*
G01*
X174390000Y-71460000D01*
G75*
G02*
X174565000Y-71285000I175000J0D01*
G01*
X176290000Y-71285000D01*
G75*
G02*
X176465000Y-71460000I0J-175000D01*
G01*
G37*
G36*
G01*
X176465000Y-70190000D02*
X176465000Y-70540000D01*
G75*
G02*
X176290000Y-70715000I-175000J0D01*
G01*
X174565000Y-70715000D01*
G75*
G02*
X174390000Y-70540000I0J175000D01*
G01*
X174390000Y-70190000D01*
G75*
G02*
X174565000Y-70015000I175000J0D01*
G01*
X176290000Y-70015000D01*
G75*
G02*
X176465000Y-70190000I0J-175000D01*
G01*
G37*
G36*
G01*
X176465000Y-68920000D02*
X176465000Y-69270000D01*
G75*
G02*
X176290000Y-69445000I-175000J0D01*
G01*
X174565000Y-69445000D01*
G75*
G02*
X174390000Y-69270000I0J175000D01*
G01*
X174390000Y-68920000D01*
G75*
G02*
X174565000Y-68745000I175000J0D01*
G01*
X176290000Y-68745000D01*
G75*
G02*
X176465000Y-68920000I0J-175000D01*
G01*
G37*
G36*
G01*
X176465000Y-67650000D02*
X176465000Y-68000000D01*
G75*
G02*
X176290000Y-68175000I-175000J0D01*
G01*
X174565000Y-68175000D01*
G75*
G02*
X174390000Y-68000000I0J175000D01*
G01*
X174390000Y-67650000D01*
G75*
G02*
X174565000Y-67475000I175000J0D01*
G01*
X176290000Y-67475000D01*
G75*
G02*
X176465000Y-67650000I0J-175000D01*
G01*
G37*
G36*
G01*
X176465000Y-66380000D02*
X176465000Y-66730000D01*
G75*
G02*
X176290000Y-66905000I-175000J0D01*
G01*
X174565000Y-66905000D01*
G75*
G02*
X174390000Y-66730000I0J175000D01*
G01*
X174390000Y-66380000D01*
G75*
G02*
X174565000Y-66205000I175000J0D01*
G01*
X176290000Y-66205000D01*
G75*
G02*
X176465000Y-66380000I0J-175000D01*
G01*
G37*
G36*
G01*
X176465000Y-65110000D02*
X176465000Y-65460000D01*
G75*
G02*
X176290000Y-65635000I-175000J0D01*
G01*
X174565000Y-65635000D01*
G75*
G02*
X174390000Y-65460000I0J175000D01*
G01*
X174390000Y-65110000D01*
G75*
G02*
X174565000Y-64935000I175000J0D01*
G01*
X176290000Y-64935000D01*
G75*
G02*
X176465000Y-65110000I0J-175000D01*
G01*
G37*
G36*
G01*
X183390000Y-65110000D02*
X183390000Y-65460000D01*
G75*
G02*
X183215000Y-65635000I-175000J0D01*
G01*
X181490000Y-65635000D01*
G75*
G02*
X181315000Y-65460000I0J175000D01*
G01*
X181315000Y-65110000D01*
G75*
G02*
X181490000Y-64935000I175000J0D01*
G01*
X183215000Y-64935000D01*
G75*
G02*
X183390000Y-65110000I0J-175000D01*
G01*
G37*
G36*
G01*
X183390000Y-66380000D02*
X183390000Y-66730000D01*
G75*
G02*
X183215000Y-66905000I-175000J0D01*
G01*
X181490000Y-66905000D01*
G75*
G02*
X181315000Y-66730000I0J175000D01*
G01*
X181315000Y-66380000D01*
G75*
G02*
X181490000Y-66205000I175000J0D01*
G01*
X183215000Y-66205000D01*
G75*
G02*
X183390000Y-66380000I0J-175000D01*
G01*
G37*
G36*
G01*
X183390000Y-67650000D02*
X183390000Y-68000000D01*
G75*
G02*
X183215000Y-68175000I-175000J0D01*
G01*
X181490000Y-68175000D01*
G75*
G02*
X181315000Y-68000000I0J175000D01*
G01*
X181315000Y-67650000D01*
G75*
G02*
X181490000Y-67475000I175000J0D01*
G01*
X183215000Y-67475000D01*
G75*
G02*
X183390000Y-67650000I0J-175000D01*
G01*
G37*
G36*
G01*
X183390000Y-68920000D02*
X183390000Y-69270000D01*
G75*
G02*
X183215000Y-69445000I-175000J0D01*
G01*
X181490000Y-69445000D01*
G75*
G02*
X181315000Y-69270000I0J175000D01*
G01*
X181315000Y-68920000D01*
G75*
G02*
X181490000Y-68745000I175000J0D01*
G01*
X183215000Y-68745000D01*
G75*
G02*
X183390000Y-68920000I0J-175000D01*
G01*
G37*
G36*
G01*
X183390000Y-70190000D02*
X183390000Y-70540000D01*
G75*
G02*
X183215000Y-70715000I-175000J0D01*
G01*
X181490000Y-70715000D01*
G75*
G02*
X181315000Y-70540000I0J175000D01*
G01*
X181315000Y-70190000D01*
G75*
G02*
X181490000Y-70015000I175000J0D01*
G01*
X183215000Y-70015000D01*
G75*
G02*
X183390000Y-70190000I0J-175000D01*
G01*
G37*
G36*
G01*
X183390000Y-71460000D02*
X183390000Y-71810000D01*
G75*
G02*
X183215000Y-71985000I-175000J0D01*
G01*
X181490000Y-71985000D01*
G75*
G02*
X181315000Y-71810000I0J175000D01*
G01*
X181315000Y-71460000D01*
G75*
G02*
X181490000Y-71285000I175000J0D01*
G01*
X183215000Y-71285000D01*
G75*
G02*
X183390000Y-71460000I0J-175000D01*
G01*
G37*
G36*
G01*
X183390000Y-72730000D02*
X183390000Y-73080000D01*
G75*
G02*
X183215000Y-73255000I-175000J0D01*
G01*
X181490000Y-73255000D01*
G75*
G02*
X181315000Y-73080000I0J175000D01*
G01*
X181315000Y-72730000D01*
G75*
G02*
X181490000Y-72555000I175000J0D01*
G01*
X183215000Y-72555000D01*
G75*
G02*
X183390000Y-72730000I0J-175000D01*
G01*
G37*
G36*
G01*
X183390000Y-74000000D02*
X183390000Y-74350000D01*
G75*
G02*
X183215000Y-74525000I-175000J0D01*
G01*
X181490000Y-74525000D01*
G75*
G02*
X181315000Y-74350000I0J175000D01*
G01*
X181315000Y-74000000D01*
G75*
G02*
X181490000Y-73825000I175000J0D01*
G01*
X183215000Y-73825000D01*
G75*
G02*
X183390000Y-74000000I0J-175000D01*
G01*
G37*
%TD*%
%TO.C,U1*%
G36*
G01*
X173460000Y-85800000D02*
X173460000Y-87300000D01*
G75*
G02*
X173410000Y-87350000I-50000J0D01*
G01*
X171410000Y-87350000D01*
G75*
G02*
X171360000Y-87300000I0J50000D01*
G01*
X171360000Y-85800000D01*
G75*
G02*
X171410000Y-85750000I50000J0D01*
G01*
X173410000Y-85750000D01*
G75*
G02*
X173460000Y-85800000I0J-50000D01*
G01*
G37*
G36*
G01*
X173460000Y-81200000D02*
X173460000Y-82700000D01*
G75*
G02*
X173410000Y-82750000I-50000J0D01*
G01*
X171410000Y-82750000D01*
G75*
G02*
X171360000Y-82700000I0J50000D01*
G01*
X171360000Y-81200000D01*
G75*
G02*
X171410000Y-81150000I50000J0D01*
G01*
X173410000Y-81150000D01*
G75*
G02*
X173460000Y-81200000I0J-50000D01*
G01*
G37*
G36*
G01*
X173460000Y-83500000D02*
X173460000Y-85000000D01*
G75*
G02*
X173410000Y-85050000I-50000J0D01*
G01*
X171410000Y-85050000D01*
G75*
G02*
X171360000Y-85000000I0J50000D01*
G01*
X171360000Y-83500000D01*
G75*
G02*
X171410000Y-83450000I50000J0D01*
G01*
X173410000Y-83450000D01*
G75*
G02*
X173460000Y-83500000I0J-50000D01*
G01*
G37*
G36*
G01*
X167160000Y-82350000D02*
X167160000Y-86150000D01*
G75*
G02*
X167110000Y-86200000I-50000J0D01*
G01*
X165110000Y-86200000D01*
G75*
G02*
X165060000Y-86150000I0J50000D01*
G01*
X165060000Y-82350000D01*
G75*
G02*
X165110000Y-82300000I50000J0D01*
G01*
X167110000Y-82300000D01*
G75*
G02*
X167160000Y-82350000I0J-50000D01*
G01*
G37*
%TD*%
%TO.C,R16*%
G36*
G01*
X127238000Y-64366832D02*
X127238000Y-65325168D01*
G75*
G02*
X126967168Y-65596000I-270832J0D01*
G01*
X126208832Y-65596000D01*
G75*
G02*
X125938000Y-65325168I0J270832D01*
G01*
X125938000Y-64366832D01*
G75*
G02*
X126208832Y-64096000I270832J0D01*
G01*
X126967168Y-64096000D01*
G75*
G02*
X127238000Y-64366832I0J-270832D01*
G01*
G37*
G36*
G01*
X129238000Y-64366832D02*
X129238000Y-65325168D01*
G75*
G02*
X128967168Y-65596000I-270832J0D01*
G01*
X128208832Y-65596000D01*
G75*
G02*
X127938000Y-65325168I0J270832D01*
G01*
X127938000Y-64366832D01*
G75*
G02*
X128208832Y-64096000I270832J0D01*
G01*
X128967168Y-64096000D01*
G75*
G02*
X129238000Y-64366832I0J-270832D01*
G01*
G37*
%TD*%
%TO.C,R15*%
G36*
G01*
X127922000Y-75485168D02*
X127922000Y-74526832D01*
G75*
G02*
X128192832Y-74256000I270832J0D01*
G01*
X128951168Y-74256000D01*
G75*
G02*
X129222000Y-74526832I0J-270832D01*
G01*
X129222000Y-75485168D01*
G75*
G02*
X128951168Y-75756000I-270832J0D01*
G01*
X128192832Y-75756000D01*
G75*
G02*
X127922000Y-75485168I0J270832D01*
G01*
G37*
G36*
G01*
X125922000Y-75485168D02*
X125922000Y-74526832D01*
G75*
G02*
X126192832Y-74256000I270832J0D01*
G01*
X126951168Y-74256000D01*
G75*
G02*
X127222000Y-74526832I0J-270832D01*
G01*
X127222000Y-75485168D01*
G75*
G02*
X126951168Y-75756000I-270832J0D01*
G01*
X126192832Y-75756000D01*
G75*
G02*
X125922000Y-75485168I0J270832D01*
G01*
G37*
%TD*%
D15*
%TO.C,R14*%
X114054000Y-55064000D03*
X110654000Y-55064000D03*
%TD*%
%TO.C,R11*%
G36*
G01*
X176145000Y-86000832D02*
X176145000Y-86959168D01*
G75*
G02*
X175874168Y-87230000I-270832J0D01*
G01*
X175115832Y-87230000D01*
G75*
G02*
X174845000Y-86959168I0J270832D01*
G01*
X174845000Y-86000832D01*
G75*
G02*
X175115832Y-85730000I270832J0D01*
G01*
X175874168Y-85730000D01*
G75*
G02*
X176145000Y-86000832I0J-270832D01*
G01*
G37*
G36*
G01*
X178145000Y-86000832D02*
X178145000Y-86959168D01*
G75*
G02*
X177874168Y-87230000I-270832J0D01*
G01*
X177115832Y-87230000D01*
G75*
G02*
X176845000Y-86959168I0J270832D01*
G01*
X176845000Y-86000832D01*
G75*
G02*
X177115832Y-85730000I270832J0D01*
G01*
X177874168Y-85730000D01*
G75*
G02*
X178145000Y-86000832I0J-270832D01*
G01*
G37*
%TD*%
D16*
%TO.C,J10*%
X113967000Y-63000000D03*
X113967000Y-65000000D03*
G36*
G01*
X114621168Y-67650000D02*
X113312832Y-67650000D01*
G75*
G02*
X113042000Y-67379168I0J270832D01*
G01*
X113042000Y-66620832D01*
G75*
G02*
X113312832Y-66350000I270832J0D01*
G01*
X114621168Y-66350000D01*
G75*
G02*
X114892000Y-66620832I0J-270832D01*
G01*
X114892000Y-67379168D01*
G75*
G02*
X114621168Y-67650000I-270832J0D01*
G01*
G37*
%TD*%
D13*
%TO.C,J8*%
X161490000Y-61750000D03*
X164030000Y-61750000D03*
X166570000Y-61750000D03*
X169110000Y-61750000D03*
X171650000Y-61750000D03*
X174190000Y-61750000D03*
X176730000Y-61750000D03*
X179270000Y-61750000D03*
X181810000Y-61750000D03*
X184350000Y-61750000D03*
X186890000Y-61750000D03*
X189430000Y-61750000D03*
X191970000Y-61750000D03*
G36*
G01*
X195360000Y-62650000D02*
X193660000Y-62650000D01*
G75*
G02*
X193610000Y-62600000I0J50000D01*
G01*
X193610000Y-60900000D01*
G75*
G02*
X193660000Y-60850000I50000J0D01*
G01*
X195360000Y-60850000D01*
G75*
G02*
X195410000Y-60900000I0J-50000D01*
G01*
X195410000Y-62600000D01*
G75*
G02*
X195360000Y-62650000I-50000J0D01*
G01*
G37*
%TD*%
%TO.C,J7*%
X143330000Y-86182000D03*
X140790000Y-86182000D03*
X138250000Y-86182000D03*
G36*
G01*
X136560000Y-87082000D02*
X134860000Y-87082000D01*
G75*
G02*
X134810000Y-87032000I0J50000D01*
G01*
X134810000Y-85332000D01*
G75*
G02*
X134860000Y-85282000I50000J0D01*
G01*
X136560000Y-85282000D01*
G75*
G02*
X136610000Y-85332000I0J-50000D01*
G01*
X136610000Y-87032000D01*
G75*
G02*
X136560000Y-87082000I-50000J0D01*
G01*
G37*
%TD*%
D16*
%TO.C,J6*%
X114010000Y-74000000D03*
G36*
G01*
X114664168Y-76650000D02*
X113355832Y-76650000D01*
G75*
G02*
X113085000Y-76379168I0J270832D01*
G01*
X113085000Y-75620832D01*
G75*
G02*
X113355832Y-75350000I270832J0D01*
G01*
X114664168Y-75350000D01*
G75*
G02*
X114935000Y-75620832I0J-270832D01*
G01*
X114935000Y-76379168D01*
G75*
G02*
X114664168Y-76650000I-270832J0D01*
G01*
G37*
%TD*%
D17*
%TO.C,J5*%
X182745000Y-124480000D03*
G36*
G01*
X176315000Y-125780000D02*
X176315000Y-123180000D01*
G75*
G02*
X176365000Y-123130000I50000J0D01*
G01*
X178965000Y-123130000D01*
G75*
G02*
X179015000Y-123180000I0J-50000D01*
G01*
X179015000Y-125780000D01*
G75*
G02*
X178965000Y-125830000I-50000J0D01*
G01*
X176365000Y-125830000D01*
G75*
G02*
X176315000Y-125780000I0J50000D01*
G01*
G37*
%TD*%
%TO.C,J4*%
G36*
G01*
X161075000Y-125780000D02*
X161075000Y-123180000D01*
G75*
G02*
X161125000Y-123130000I50000J0D01*
G01*
X163725000Y-123130000D01*
G75*
G02*
X163775000Y-123180000I0J-50000D01*
G01*
X163775000Y-125780000D01*
G75*
G02*
X163725000Y-125830000I-50000J0D01*
G01*
X161125000Y-125830000D01*
G75*
G02*
X161075000Y-125780000I0J50000D01*
G01*
G37*
X167505000Y-124480000D03*
X172585000Y-124480000D03*
%TD*%
%TO.C,J1*%
X157345000Y-124480000D03*
G36*
G01*
X150915000Y-125780000D02*
X150915000Y-123180000D01*
G75*
G02*
X150965000Y-123130000I50000J0D01*
G01*
X153565000Y-123130000D01*
G75*
G02*
X153615000Y-123180000I0J-50000D01*
G01*
X153615000Y-125780000D01*
G75*
G02*
X153565000Y-125830000I-50000J0D01*
G01*
X150965000Y-125830000D01*
G75*
G02*
X150915000Y-125780000I0J50000D01*
G01*
G37*
%TD*%
%TO.C,D4*%
G36*
G01*
X181443000Y-111784262D02*
X181443000Y-110827738D01*
G75*
G02*
X181714738Y-110556000I271738J0D01*
G01*
X182421262Y-110556000D01*
G75*
G02*
X182693000Y-110827738I0J-271738D01*
G01*
X182693000Y-111784262D01*
G75*
G02*
X182421262Y-112056000I-271738J0D01*
G01*
X181714738Y-112056000D01*
G75*
G02*
X181443000Y-111784262I0J271738D01*
G01*
G37*
G36*
G01*
X179393000Y-111784262D02*
X179393000Y-110827738D01*
G75*
G02*
X179664738Y-110556000I271738J0D01*
G01*
X180371262Y-110556000D01*
G75*
G02*
X180643000Y-110827738I0J-271738D01*
G01*
X180643000Y-111784262D01*
G75*
G02*
X180371262Y-112056000I-271738J0D01*
G01*
X179664738Y-112056000D01*
G75*
G02*
X179393000Y-111784262I0J271738D01*
G01*
G37*
%TD*%
%TO.C,D1*%
G36*
G01*
X139140000Y-95236262D02*
X139140000Y-94279738D01*
G75*
G02*
X139411738Y-94008000I271738J0D01*
G01*
X140118262Y-94008000D01*
G75*
G02*
X140390000Y-94279738I0J-271738D01*
G01*
X140390000Y-95236262D01*
G75*
G02*
X140118262Y-95508000I-271738J0D01*
G01*
X139411738Y-95508000D01*
G75*
G02*
X139140000Y-95236262I0J271738D01*
G01*
G37*
G36*
G01*
X137090000Y-95236262D02*
X137090000Y-94279738D01*
G75*
G02*
X137361738Y-94008000I271738J0D01*
G01*
X138068262Y-94008000D01*
G75*
G02*
X138340000Y-94279738I0J-271738D01*
G01*
X138340000Y-95236262D01*
G75*
G02*
X138068262Y-95508000I-271738J0D01*
G01*
X137361738Y-95508000D01*
G75*
G02*
X137090000Y-95236262I0J271738D01*
G01*
G37*
%TD*%
%TO.C,R13*%
G36*
G01*
X127222000Y-71986832D02*
X127222000Y-72945168D01*
G75*
G02*
X126951168Y-73216000I-270832J0D01*
G01*
X126192832Y-73216000D01*
G75*
G02*
X125922000Y-72945168I0J270832D01*
G01*
X125922000Y-71986832D01*
G75*
G02*
X126192832Y-71716000I270832J0D01*
G01*
X126951168Y-71716000D01*
G75*
G02*
X127222000Y-71986832I0J-270832D01*
G01*
G37*
G36*
G01*
X129222000Y-71986832D02*
X129222000Y-72945168D01*
G75*
G02*
X128951168Y-73216000I-270832J0D01*
G01*
X128192832Y-73216000D01*
G75*
G02*
X127922000Y-72945168I0J270832D01*
G01*
X127922000Y-71986832D01*
G75*
G02*
X128192832Y-71716000I270832J0D01*
G01*
X128951168Y-71716000D01*
G75*
G02*
X129222000Y-71986832I0J-270832D01*
G01*
G37*
%TD*%
%TO.C,R12*%
G36*
G01*
X151098000Y-74526832D02*
X151098000Y-75485168D01*
G75*
G02*
X150827168Y-75756000I-270832J0D01*
G01*
X150068832Y-75756000D01*
G75*
G02*
X149798000Y-75485168I0J270832D01*
G01*
X149798000Y-74526832D01*
G75*
G02*
X150068832Y-74256000I270832J0D01*
G01*
X150827168Y-74256000D01*
G75*
G02*
X151098000Y-74526832I0J-270832D01*
G01*
G37*
G36*
G01*
X153098000Y-74526832D02*
X153098000Y-75485168D01*
G75*
G02*
X152827168Y-75756000I-270832J0D01*
G01*
X152068832Y-75756000D01*
G75*
G02*
X151798000Y-75485168I0J270832D01*
G01*
X151798000Y-74526832D01*
G75*
G02*
X152068832Y-74256000I270832J0D01*
G01*
X152827168Y-74256000D01*
G75*
G02*
X153098000Y-74526832I0J-270832D01*
G01*
G37*
%TD*%
%TO.C,R10*%
G36*
G01*
X151798000Y-72945168D02*
X151798000Y-71986832D01*
G75*
G02*
X152068832Y-71716000I270832J0D01*
G01*
X152827168Y-71716000D01*
G75*
G02*
X153098000Y-71986832I0J-270832D01*
G01*
X153098000Y-72945168D01*
G75*
G02*
X152827168Y-73216000I-270832J0D01*
G01*
X152068832Y-73216000D01*
G75*
G02*
X151798000Y-72945168I0J270832D01*
G01*
G37*
G36*
G01*
X149798000Y-72945168D02*
X149798000Y-71986832D01*
G75*
G02*
X150068832Y-71716000I270832J0D01*
G01*
X150827168Y-71716000D01*
G75*
G02*
X151098000Y-71986832I0J-270832D01*
G01*
X151098000Y-72945168D01*
G75*
G02*
X150827168Y-73216000I-270832J0D01*
G01*
X150068832Y-73216000D01*
G75*
G02*
X149798000Y-72945168I0J270832D01*
G01*
G37*
%TD*%
%TO.C,R9*%
G36*
G01*
X151098000Y-64366832D02*
X151098000Y-65325168D01*
G75*
G02*
X150827168Y-65596000I-270832J0D01*
G01*
X150068832Y-65596000D01*
G75*
G02*
X149798000Y-65325168I0J270832D01*
G01*
X149798000Y-64366832D01*
G75*
G02*
X150068832Y-64096000I270832J0D01*
G01*
X150827168Y-64096000D01*
G75*
G02*
X151098000Y-64366832I0J-270832D01*
G01*
G37*
G36*
G01*
X153098000Y-64366832D02*
X153098000Y-65325168D01*
G75*
G02*
X152827168Y-65596000I-270832J0D01*
G01*
X152068832Y-65596000D01*
G75*
G02*
X151798000Y-65325168I0J270832D01*
G01*
X151798000Y-64366832D01*
G75*
G02*
X152068832Y-64096000I270832J0D01*
G01*
X152827168Y-64096000D01*
G75*
G02*
X153098000Y-64366832I0J-270832D01*
G01*
G37*
%TD*%
%TO.C,R8*%
G36*
G01*
X151098000Y-66906832D02*
X151098000Y-67865168D01*
G75*
G02*
X150827168Y-68136000I-270832J0D01*
G01*
X150068832Y-68136000D01*
G75*
G02*
X149798000Y-67865168I0J270832D01*
G01*
X149798000Y-66906832D01*
G75*
G02*
X150068832Y-66636000I270832J0D01*
G01*
X150827168Y-66636000D01*
G75*
G02*
X151098000Y-66906832I0J-270832D01*
G01*
G37*
G36*
G01*
X153098000Y-66906832D02*
X153098000Y-67865168D01*
G75*
G02*
X152827168Y-68136000I-270832J0D01*
G01*
X152068832Y-68136000D01*
G75*
G02*
X151798000Y-67865168I0J270832D01*
G01*
X151798000Y-66906832D01*
G75*
G02*
X152068832Y-66636000I270832J0D01*
G01*
X152827168Y-66636000D01*
G75*
G02*
X153098000Y-66906832I0J-270832D01*
G01*
G37*
%TD*%
%TO.C,R7*%
G36*
G01*
X151798000Y-70405168D02*
X151798000Y-69446832D01*
G75*
G02*
X152068832Y-69176000I270832J0D01*
G01*
X152827168Y-69176000D01*
G75*
G02*
X153098000Y-69446832I0J-270832D01*
G01*
X153098000Y-70405168D01*
G75*
G02*
X152827168Y-70676000I-270832J0D01*
G01*
X152068832Y-70676000D01*
G75*
G02*
X151798000Y-70405168I0J270832D01*
G01*
G37*
G36*
G01*
X149798000Y-70405168D02*
X149798000Y-69446832D01*
G75*
G02*
X150068832Y-69176000I270832J0D01*
G01*
X150827168Y-69176000D01*
G75*
G02*
X151098000Y-69446832I0J-270832D01*
G01*
X151098000Y-70405168D01*
G75*
G02*
X150827168Y-70676000I-270832J0D01*
G01*
X150068832Y-70676000D01*
G75*
G02*
X149798000Y-70405168I0J270832D01*
G01*
G37*
%TD*%
%TO.C,R6*%
G36*
G01*
X127238000Y-69446832D02*
X127238000Y-70405168D01*
G75*
G02*
X126967168Y-70676000I-270832J0D01*
G01*
X126208832Y-70676000D01*
G75*
G02*
X125938000Y-70405168I0J270832D01*
G01*
X125938000Y-69446832D01*
G75*
G02*
X126208832Y-69176000I270832J0D01*
G01*
X126967168Y-69176000D01*
G75*
G02*
X127238000Y-69446832I0J-270832D01*
G01*
G37*
G36*
G01*
X129238000Y-69446832D02*
X129238000Y-70405168D01*
G75*
G02*
X128967168Y-70676000I-270832J0D01*
G01*
X128208832Y-70676000D01*
G75*
G02*
X127938000Y-70405168I0J270832D01*
G01*
X127938000Y-69446832D01*
G75*
G02*
X128208832Y-69176000I270832J0D01*
G01*
X128967168Y-69176000D01*
G75*
G02*
X129238000Y-69446832I0J-270832D01*
G01*
G37*
%TD*%
%TO.C,R5*%
G36*
G01*
X127238000Y-66906832D02*
X127238000Y-67865168D01*
G75*
G02*
X126967168Y-68136000I-270832J0D01*
G01*
X126208832Y-68136000D01*
G75*
G02*
X125938000Y-67865168I0J270832D01*
G01*
X125938000Y-66906832D01*
G75*
G02*
X126208832Y-66636000I270832J0D01*
G01*
X126967168Y-66636000D01*
G75*
G02*
X127238000Y-66906832I0J-270832D01*
G01*
G37*
G36*
G01*
X129238000Y-66906832D02*
X129238000Y-67865168D01*
G75*
G02*
X128967168Y-68136000I-270832J0D01*
G01*
X128208832Y-68136000D01*
G75*
G02*
X127938000Y-67865168I0J270832D01*
G01*
X127938000Y-66906832D01*
G75*
G02*
X128208832Y-66636000I270832J0D01*
G01*
X128967168Y-66636000D01*
G75*
G02*
X129238000Y-66906832I0J-270832D01*
G01*
G37*
%TD*%
%TO.C,R1*%
G36*
G01*
X142415000Y-94278832D02*
X142415000Y-95237168D01*
G75*
G02*
X142144168Y-95508000I-270832J0D01*
G01*
X141385832Y-95508000D01*
G75*
G02*
X141115000Y-95237168I0J270832D01*
G01*
X141115000Y-94278832D01*
G75*
G02*
X141385832Y-94008000I270832J0D01*
G01*
X142144168Y-94008000D01*
G75*
G02*
X142415000Y-94278832I0J-270832D01*
G01*
G37*
G36*
G01*
X144415000Y-94278832D02*
X144415000Y-95237168D01*
G75*
G02*
X144144168Y-95508000I-270832J0D01*
G01*
X143385832Y-95508000D01*
G75*
G02*
X143115000Y-95237168I0J270832D01*
G01*
X143115000Y-94278832D01*
G75*
G02*
X143385832Y-94008000I270832J0D01*
G01*
X144144168Y-94008000D01*
G75*
G02*
X144415000Y-94278832I0J-270832D01*
G01*
G37*
%TD*%
%TO.C,D3*%
G36*
G01*
X181443000Y-109244262D02*
X181443000Y-108287738D01*
G75*
G02*
X181714738Y-108016000I271738J0D01*
G01*
X182421262Y-108016000D01*
G75*
G02*
X182693000Y-108287738I0J-271738D01*
G01*
X182693000Y-109244262D01*
G75*
G02*
X182421262Y-109516000I-271738J0D01*
G01*
X181714738Y-109516000D01*
G75*
G02*
X181443000Y-109244262I0J271738D01*
G01*
G37*
G36*
G01*
X179393000Y-109244262D02*
X179393000Y-108287738D01*
G75*
G02*
X179664738Y-108016000I271738J0D01*
G01*
X180371262Y-108016000D01*
G75*
G02*
X180643000Y-108287738I0J-271738D01*
G01*
X180643000Y-109244262D01*
G75*
G02*
X180371262Y-109516000I-271738J0D01*
G01*
X179664738Y-109516000D01*
G75*
G02*
X179393000Y-109244262I0J271738D01*
G01*
G37*
%TD*%
%TO.C,D2*%
G36*
G01*
X139190000Y-97736262D02*
X139190000Y-96779738D01*
G75*
G02*
X139461738Y-96508000I271738J0D01*
G01*
X140168262Y-96508000D01*
G75*
G02*
X140440000Y-96779738I0J-271738D01*
G01*
X140440000Y-97736262D01*
G75*
G02*
X140168262Y-98008000I-271738J0D01*
G01*
X139461738Y-98008000D01*
G75*
G02*
X139190000Y-97736262I0J271738D01*
G01*
G37*
G36*
G01*
X137140000Y-97736262D02*
X137140000Y-96779738D01*
G75*
G02*
X137411738Y-96508000I271738J0D01*
G01*
X138118262Y-96508000D01*
G75*
G02*
X138390000Y-96779738I0J-271738D01*
G01*
X138390000Y-97736262D01*
G75*
G02*
X138118262Y-98008000I-271738J0D01*
G01*
X137411738Y-98008000D01*
G75*
G02*
X137140000Y-97736262I0J271738D01*
G01*
G37*
%TD*%
%TO.C,C5*%
G36*
G01*
X120006276Y-65267500D02*
X121013724Y-65267500D01*
G75*
G02*
X121285000Y-65538776I0J-271276D01*
G01*
X121285000Y-66271224D01*
G75*
G02*
X121013724Y-66542500I-271276J0D01*
G01*
X120006276Y-66542500D01*
G75*
G02*
X119735000Y-66271224I0J271276D01*
G01*
X119735000Y-65538776D01*
G75*
G02*
X120006276Y-65267500I271276J0D01*
G01*
G37*
G36*
G01*
X120006276Y-63192500D02*
X121013724Y-63192500D01*
G75*
G02*
X121285000Y-63463776I0J-271276D01*
G01*
X121285000Y-64196224D01*
G75*
G02*
X121013724Y-64467500I-271276J0D01*
G01*
X120006276Y-64467500D01*
G75*
G02*
X119735000Y-64196224I0J271276D01*
G01*
X119735000Y-63463776D01*
G75*
G02*
X120006276Y-63192500I271276J0D01*
G01*
G37*
%TD*%
%TO.C,C4*%
G36*
G01*
X193365500Y-67127724D02*
X193365500Y-66120276D01*
G75*
G02*
X193636776Y-65849000I271276J0D01*
G01*
X194369224Y-65849000D01*
G75*
G02*
X194640500Y-66120276I0J-271276D01*
G01*
X194640500Y-67127724D01*
G75*
G02*
X194369224Y-67399000I-271276J0D01*
G01*
X193636776Y-67399000D01*
G75*
G02*
X193365500Y-67127724I0J271276D01*
G01*
G37*
G36*
G01*
X191290500Y-67127724D02*
X191290500Y-66120276D01*
G75*
G02*
X191561776Y-65849000I271276J0D01*
G01*
X192294224Y-65849000D01*
G75*
G02*
X192565500Y-66120276I0J-271276D01*
G01*
X192565500Y-67127724D01*
G75*
G02*
X192294224Y-67399000I-271276J0D01*
G01*
X191561776Y-67399000D01*
G75*
G02*
X191290500Y-67127724I0J271276D01*
G01*
G37*
%TD*%
%TO.C,C3*%
G36*
G01*
X193365500Y-69667724D02*
X193365500Y-68660276D01*
G75*
G02*
X193636776Y-68389000I271276J0D01*
G01*
X194369224Y-68389000D01*
G75*
G02*
X194640500Y-68660276I0J-271276D01*
G01*
X194640500Y-69667724D01*
G75*
G02*
X194369224Y-69939000I-271276J0D01*
G01*
X193636776Y-69939000D01*
G75*
G02*
X193365500Y-69667724I0J271276D01*
G01*
G37*
G36*
G01*
X191290500Y-69667724D02*
X191290500Y-68660276D01*
G75*
G02*
X191561776Y-68389000I271276J0D01*
G01*
X192294224Y-68389000D01*
G75*
G02*
X192565500Y-68660276I0J-271276D01*
G01*
X192565500Y-69667724D01*
G75*
G02*
X192294224Y-69939000I-271276J0D01*
G01*
X191561776Y-69939000D01*
G75*
G02*
X191290500Y-69667724I0J271276D01*
G01*
G37*
%TD*%
%TO.C,C2*%
G36*
G01*
X176872500Y-84753724D02*
X176872500Y-83746276D01*
G75*
G02*
X177143776Y-83475000I271276J0D01*
G01*
X177876224Y-83475000D01*
G75*
G02*
X178147500Y-83746276I0J-271276D01*
G01*
X178147500Y-84753724D01*
G75*
G02*
X177876224Y-85025000I-271276J0D01*
G01*
X177143776Y-85025000D01*
G75*
G02*
X176872500Y-84753724I0J271276D01*
G01*
G37*
G36*
G01*
X174797500Y-84753724D02*
X174797500Y-83746276D01*
G75*
G02*
X175068776Y-83475000I271276J0D01*
G01*
X175801224Y-83475000D01*
G75*
G02*
X176072500Y-83746276I0J-271276D01*
G01*
X176072500Y-84753724D01*
G75*
G02*
X175801224Y-85025000I-271276J0D01*
G01*
X175068776Y-85025000D01*
G75*
G02*
X174797500Y-84753724I0J271276D01*
G01*
G37*
%TD*%
%TO.C,C1*%
G36*
G01*
X176872500Y-82503724D02*
X176872500Y-81496276D01*
G75*
G02*
X177143776Y-81225000I271276J0D01*
G01*
X177876224Y-81225000D01*
G75*
G02*
X178147500Y-81496276I0J-271276D01*
G01*
X178147500Y-82503724D01*
G75*
G02*
X177876224Y-82775000I-271276J0D01*
G01*
X177143776Y-82775000D01*
G75*
G02*
X176872500Y-82503724I0J271276D01*
G01*
G37*
G36*
G01*
X174797500Y-82503724D02*
X174797500Y-81496276D01*
G75*
G02*
X175068776Y-81225000I271276J0D01*
G01*
X175801224Y-81225000D01*
G75*
G02*
X176072500Y-81496276I0J-271276D01*
G01*
X176072500Y-82503724D01*
G75*
G02*
X175801224Y-82775000I-271276J0D01*
G01*
X175068776Y-82775000D01*
G75*
G02*
X174797500Y-82503724I0J271276D01*
G01*
G37*
%TD*%
D18*
%TO.C,REF\u002A\u002A*%
X142510000Y-107750000D03*
%TD*%
%TO.C,REF\u002A\u002A*%
X142510000Y-127750000D03*
%TD*%
%TO.C,REF\u002A\u002A*%
X192510000Y-127750000D03*
%TD*%
%TO.C,REF\u002A\u002A*%
X192510000Y-107750000D03*
%TD*%
D19*
%TO.C,mouse-bite-2mm-slot*%
X181260000Y-102500000D03*
X179760000Y-102500000D03*
X179760000Y-101000000D03*
X181260000Y-101000000D03*
X180510000Y-102500000D03*
X180510000Y-101000000D03*
%TD*%
%TO.C,mouse-bite-2mm-slot*%
X154510000Y-101000000D03*
X154510000Y-102500000D03*
X155260000Y-101000000D03*
X153760000Y-101000000D03*
X153760000Y-102500000D03*
X155260000Y-102500000D03*
%TD*%
%TO.C,R2*%
G36*
G01*
X142415000Y-96778832D02*
X142415000Y-97737168D01*
G75*
G02*
X142144168Y-98008000I-270832J0D01*
G01*
X141385832Y-98008000D01*
G75*
G02*
X141115000Y-97737168I0J270832D01*
G01*
X141115000Y-96778832D01*
G75*
G02*
X141385832Y-96508000I270832J0D01*
G01*
X142144168Y-96508000D01*
G75*
G02*
X142415000Y-96778832I0J-270832D01*
G01*
G37*
G36*
G01*
X144415000Y-96778832D02*
X144415000Y-97737168D01*
G75*
G02*
X144144168Y-98008000I-270832J0D01*
G01*
X143385832Y-98008000D01*
G75*
G02*
X143115000Y-97737168I0J270832D01*
G01*
X143115000Y-96778832D01*
G75*
G02*
X143385832Y-96508000I270832J0D01*
G01*
X144144168Y-96508000D01*
G75*
G02*
X144415000Y-96778832I0J-270832D01*
G01*
G37*
%TD*%
%TO.C,U5*%
G36*
G01*
X180760000Y-93793000D02*
X182260000Y-93793000D01*
G75*
G02*
X182310000Y-93843000I0J-50000D01*
G01*
X182310000Y-94893000D01*
G75*
G02*
X182260000Y-94943000I-50000J0D01*
G01*
X180760000Y-94943000D01*
G75*
G02*
X180710000Y-94893000I0J50000D01*
G01*
X180710000Y-93843000D01*
G75*
G02*
X180760000Y-93793000I50000J0D01*
G01*
G37*
D20*
X181510000Y-96908000D03*
X181510000Y-95638000D03*
%TD*%
%TO.C,U2*%
G36*
G01*
X185542000Y-66144000D02*
X185192000Y-66144000D01*
G75*
G02*
X185017000Y-65969000I0J175000D01*
G01*
X185017000Y-64569000D01*
G75*
G02*
X185192000Y-64394000I175000J0D01*
G01*
X185542000Y-64394000D01*
G75*
G02*
X185717000Y-64569000I0J-175000D01*
G01*
X185717000Y-65969000D01*
G75*
G02*
X185542000Y-66144000I-175000J0D01*
G01*
G37*
G36*
G01*
X186812000Y-66144000D02*
X186462000Y-66144000D01*
G75*
G02*
X186287000Y-65969000I0J175000D01*
G01*
X186287000Y-64569000D01*
G75*
G02*
X186462000Y-64394000I175000J0D01*
G01*
X186812000Y-64394000D01*
G75*
G02*
X186987000Y-64569000I0J-175000D01*
G01*
X186987000Y-65969000D01*
G75*
G02*
X186812000Y-66144000I-175000J0D01*
G01*
G37*
G36*
G01*
X188082000Y-66144000D02*
X187732000Y-66144000D01*
G75*
G02*
X187557000Y-65969000I0J175000D01*
G01*
X187557000Y-64569000D01*
G75*
G02*
X187732000Y-64394000I175000J0D01*
G01*
X188082000Y-64394000D01*
G75*
G02*
X188257000Y-64569000I0J-175000D01*
G01*
X188257000Y-65969000D01*
G75*
G02*
X188082000Y-66144000I-175000J0D01*
G01*
G37*
G36*
G01*
X189352000Y-66144000D02*
X189002000Y-66144000D01*
G75*
G02*
X188827000Y-65969000I0J175000D01*
G01*
X188827000Y-64569000D01*
G75*
G02*
X189002000Y-64394000I175000J0D01*
G01*
X189352000Y-64394000D01*
G75*
G02*
X189527000Y-64569000I0J-175000D01*
G01*
X189527000Y-65969000D01*
G75*
G02*
X189352000Y-66144000I-175000J0D01*
G01*
G37*
G36*
G01*
X189352000Y-71394000D02*
X189002000Y-71394000D01*
G75*
G02*
X188827000Y-71219000I0J175000D01*
G01*
X188827000Y-69819000D01*
G75*
G02*
X189002000Y-69644000I175000J0D01*
G01*
X189352000Y-69644000D01*
G75*
G02*
X189527000Y-69819000I0J-175000D01*
G01*
X189527000Y-71219000D01*
G75*
G02*
X189352000Y-71394000I-175000J0D01*
G01*
G37*
G36*
G01*
X188082000Y-71394000D02*
X187732000Y-71394000D01*
G75*
G02*
X187557000Y-71219000I0J175000D01*
G01*
X187557000Y-69819000D01*
G75*
G02*
X187732000Y-69644000I175000J0D01*
G01*
X188082000Y-69644000D01*
G75*
G02*
X188257000Y-69819000I0J-175000D01*
G01*
X188257000Y-71219000D01*
G75*
G02*
X188082000Y-71394000I-175000J0D01*
G01*
G37*
G36*
G01*
X186812000Y-71394000D02*
X186462000Y-71394000D01*
G75*
G02*
X186287000Y-71219000I0J175000D01*
G01*
X186287000Y-69819000D01*
G75*
G02*
X186462000Y-69644000I175000J0D01*
G01*
X186812000Y-69644000D01*
G75*
G02*
X186987000Y-69819000I0J-175000D01*
G01*
X186987000Y-71219000D01*
G75*
G02*
X186812000Y-71394000I-175000J0D01*
G01*
G37*
G36*
G01*
X185542000Y-71394000D02*
X185192000Y-71394000D01*
G75*
G02*
X185017000Y-71219000I0J175000D01*
G01*
X185017000Y-69819000D01*
G75*
G02*
X185192000Y-69644000I175000J0D01*
G01*
X185542000Y-69644000D01*
G75*
G02*
X185717000Y-69819000I0J-175000D01*
G01*
X185717000Y-71219000D01*
G75*
G02*
X185542000Y-71394000I-175000J0D01*
G01*
G37*
%TD*%
D21*
%TO.C,RV1*%
X188015000Y-76744000D03*
G36*
G01*
X192240000Y-73419000D02*
X193790000Y-73419000D01*
G75*
G02*
X193840000Y-73469000I0J-50000D01*
G01*
X193840000Y-75019000D01*
G75*
G02*
X193790000Y-75069000I-50000J0D01*
G01*
X192240000Y-75069000D01*
G75*
G02*
X192190000Y-75019000I0J50000D01*
G01*
X192190000Y-73469000D01*
G75*
G02*
X192240000Y-73419000I50000J0D01*
G01*
G37*
X193015000Y-79244000D03*
%TD*%
%TO.C,U4*%
G36*
G01*
X145810000Y-63370000D02*
X145810000Y-62370000D01*
G75*
G02*
X145860000Y-62320000I50000J0D01*
G01*
X148360000Y-62320000D01*
G75*
G02*
X148410000Y-62370000I0J-50000D01*
G01*
X148410000Y-63370000D01*
G75*
G02*
X148360000Y-63420000I-50000J0D01*
G01*
X145860000Y-63420000D01*
G75*
G02*
X145810000Y-63370000I0J50000D01*
G01*
G37*
G36*
G01*
X145810000Y-65370000D02*
X145810000Y-64370000D01*
G75*
G02*
X145860000Y-64320000I50000J0D01*
G01*
X148360000Y-64320000D01*
G75*
G02*
X148410000Y-64370000I0J-50000D01*
G01*
X148410000Y-65370000D01*
G75*
G02*
X148360000Y-65420000I-50000J0D01*
G01*
X145860000Y-65420000D01*
G75*
G02*
X145810000Y-65370000I0J50000D01*
G01*
G37*
G36*
G01*
X145810000Y-67370000D02*
X145810000Y-66370000D01*
G75*
G02*
X145860000Y-66320000I50000J0D01*
G01*
X148360000Y-66320000D01*
G75*
G02*
X148410000Y-66370000I0J-50000D01*
G01*
X148410000Y-67370000D01*
G75*
G02*
X148360000Y-67420000I-50000J0D01*
G01*
X145860000Y-67420000D01*
G75*
G02*
X145810000Y-67370000I0J50000D01*
G01*
G37*
G36*
G01*
X145810000Y-69370000D02*
X145810000Y-68370000D01*
G75*
G02*
X145860000Y-68320000I50000J0D01*
G01*
X148360000Y-68320000D01*
G75*
G02*
X148410000Y-68370000I0J-50000D01*
G01*
X148410000Y-69370000D01*
G75*
G02*
X148360000Y-69420000I-50000J0D01*
G01*
X145860000Y-69420000D01*
G75*
G02*
X145810000Y-69370000I0J50000D01*
G01*
G37*
G36*
G01*
X145810000Y-71370000D02*
X145810000Y-70370000D01*
G75*
G02*
X145860000Y-70320000I50000J0D01*
G01*
X148360000Y-70320000D01*
G75*
G02*
X148410000Y-70370000I0J-50000D01*
G01*
X148410000Y-71370000D01*
G75*
G02*
X148360000Y-71420000I-50000J0D01*
G01*
X145860000Y-71420000D01*
G75*
G02*
X145810000Y-71370000I0J50000D01*
G01*
G37*
G36*
G01*
X145810000Y-73370000D02*
X145810000Y-72370000D01*
G75*
G02*
X145860000Y-72320000I50000J0D01*
G01*
X148360000Y-72320000D01*
G75*
G02*
X148410000Y-72370000I0J-50000D01*
G01*
X148410000Y-73370000D01*
G75*
G02*
X148360000Y-73420000I-50000J0D01*
G01*
X145860000Y-73420000D01*
G75*
G02*
X145810000Y-73370000I0J50000D01*
G01*
G37*
G36*
G01*
X145810000Y-75370000D02*
X145810000Y-74370000D01*
G75*
G02*
X145860000Y-74320000I50000J0D01*
G01*
X148360000Y-74320000D01*
G75*
G02*
X148410000Y-74370000I0J-50000D01*
G01*
X148410000Y-75370000D01*
G75*
G02*
X148360000Y-75420000I-50000J0D01*
G01*
X145860000Y-75420000D01*
G75*
G02*
X145810000Y-75370000I0J50000D01*
G01*
G37*
G36*
G01*
X145810000Y-77370000D02*
X145810000Y-76370000D01*
G75*
G02*
X145860000Y-76320000I50000J0D01*
G01*
X148360000Y-76320000D01*
G75*
G02*
X148410000Y-76370000I0J-50000D01*
G01*
X148410000Y-77370000D01*
G75*
G02*
X148360000Y-77420000I-50000J0D01*
G01*
X145860000Y-77420000D01*
G75*
G02*
X145810000Y-77370000I0J50000D01*
G01*
G37*
G36*
G01*
X143960000Y-79270000D02*
X143960000Y-77470000D01*
G75*
G02*
X144010000Y-77420000I50000J0D01*
G01*
X145010000Y-77420000D01*
G75*
G02*
X145060000Y-77470000I0J-50000D01*
G01*
X145060000Y-79270000D01*
G75*
G02*
X145010000Y-79320000I-50000J0D01*
G01*
X144010000Y-79320000D01*
G75*
G02*
X143960000Y-79270000I0J50000D01*
G01*
G37*
G36*
G01*
X141960000Y-79270000D02*
X141960000Y-77470000D01*
G75*
G02*
X142010000Y-77420000I50000J0D01*
G01*
X143010000Y-77420000D01*
G75*
G02*
X143060000Y-77470000I0J-50000D01*
G01*
X143060000Y-79270000D01*
G75*
G02*
X143010000Y-79320000I-50000J0D01*
G01*
X142010000Y-79320000D01*
G75*
G02*
X141960000Y-79270000I0J50000D01*
G01*
G37*
G36*
G01*
X139960000Y-79270000D02*
X139960000Y-77470000D01*
G75*
G02*
X140010000Y-77420000I50000J0D01*
G01*
X141010000Y-77420000D01*
G75*
G02*
X141060000Y-77470000I0J-50000D01*
G01*
X141060000Y-79270000D01*
G75*
G02*
X141010000Y-79320000I-50000J0D01*
G01*
X140010000Y-79320000D01*
G75*
G02*
X139960000Y-79270000I0J50000D01*
G01*
G37*
G36*
G01*
X137960000Y-79270000D02*
X137960000Y-77470000D01*
G75*
G02*
X138010000Y-77420000I50000J0D01*
G01*
X139010000Y-77420000D01*
G75*
G02*
X139060000Y-77470000I0J-50000D01*
G01*
X139060000Y-79270000D01*
G75*
G02*
X139010000Y-79320000I-50000J0D01*
G01*
X138010000Y-79320000D01*
G75*
G02*
X137960000Y-79270000I0J50000D01*
G01*
G37*
G36*
G01*
X135960000Y-79270000D02*
X135960000Y-77470000D01*
G75*
G02*
X136010000Y-77420000I50000J0D01*
G01*
X137010000Y-77420000D01*
G75*
G02*
X137060000Y-77470000I0J-50000D01*
G01*
X137060000Y-79270000D01*
G75*
G02*
X137010000Y-79320000I-50000J0D01*
G01*
X136010000Y-79320000D01*
G75*
G02*
X135960000Y-79270000I0J50000D01*
G01*
G37*
G36*
G01*
X133960000Y-79270000D02*
X133960000Y-77470000D01*
G75*
G02*
X134010000Y-77420000I50000J0D01*
G01*
X135010000Y-77420000D01*
G75*
G02*
X135060000Y-77470000I0J-50000D01*
G01*
X135060000Y-79270000D01*
G75*
G02*
X135010000Y-79320000I-50000J0D01*
G01*
X134010000Y-79320000D01*
G75*
G02*
X133960000Y-79270000I0J50000D01*
G01*
G37*
G36*
G01*
X130610000Y-77370000D02*
X130610000Y-76370000D01*
G75*
G02*
X130660000Y-76320000I50000J0D01*
G01*
X133160000Y-76320000D01*
G75*
G02*
X133210000Y-76370000I0J-50000D01*
G01*
X133210000Y-77370000D01*
G75*
G02*
X133160000Y-77420000I-50000J0D01*
G01*
X130660000Y-77420000D01*
G75*
G02*
X130610000Y-77370000I0J50000D01*
G01*
G37*
G36*
G01*
X130610000Y-75370000D02*
X130610000Y-74370000D01*
G75*
G02*
X130660000Y-74320000I50000J0D01*
G01*
X133160000Y-74320000D01*
G75*
G02*
X133210000Y-74370000I0J-50000D01*
G01*
X133210000Y-75370000D01*
G75*
G02*
X133160000Y-75420000I-50000J0D01*
G01*
X130660000Y-75420000D01*
G75*
G02*
X130610000Y-75370000I0J50000D01*
G01*
G37*
G36*
G01*
X130610000Y-73370000D02*
X130610000Y-72370000D01*
G75*
G02*
X130660000Y-72320000I50000J0D01*
G01*
X133160000Y-72320000D01*
G75*
G02*
X133210000Y-72370000I0J-50000D01*
G01*
X133210000Y-73370000D01*
G75*
G02*
X133160000Y-73420000I-50000J0D01*
G01*
X130660000Y-73420000D01*
G75*
G02*
X130610000Y-73370000I0J50000D01*
G01*
G37*
G36*
G01*
X130610000Y-71370000D02*
X130610000Y-70370000D01*
G75*
G02*
X130660000Y-70320000I50000J0D01*
G01*
X133160000Y-70320000D01*
G75*
G02*
X133210000Y-70370000I0J-50000D01*
G01*
X133210000Y-71370000D01*
G75*
G02*
X133160000Y-71420000I-50000J0D01*
G01*
X130660000Y-71420000D01*
G75*
G02*
X130610000Y-71370000I0J50000D01*
G01*
G37*
G36*
G01*
X130610000Y-69370000D02*
X130610000Y-68370000D01*
G75*
G02*
X130660000Y-68320000I50000J0D01*
G01*
X133160000Y-68320000D01*
G75*
G02*
X133210000Y-68370000I0J-50000D01*
G01*
X133210000Y-69370000D01*
G75*
G02*
X133160000Y-69420000I-50000J0D01*
G01*
X130660000Y-69420000D01*
G75*
G02*
X130610000Y-69370000I0J50000D01*
G01*
G37*
G36*
G01*
X130610000Y-67370000D02*
X130610000Y-66370000D01*
G75*
G02*
X130660000Y-66320000I50000J0D01*
G01*
X133160000Y-66320000D01*
G75*
G02*
X133210000Y-66370000I0J-50000D01*
G01*
X133210000Y-67370000D01*
G75*
G02*
X133160000Y-67420000I-50000J0D01*
G01*
X130660000Y-67420000D01*
G75*
G02*
X130610000Y-67370000I0J50000D01*
G01*
G37*
G36*
G01*
X130610000Y-65370000D02*
X130610000Y-64370000D01*
G75*
G02*
X130660000Y-64320000I50000J0D01*
G01*
X133160000Y-64320000D01*
G75*
G02*
X133210000Y-64370000I0J-50000D01*
G01*
X133210000Y-65370000D01*
G75*
G02*
X133160000Y-65420000I-50000J0D01*
G01*
X130660000Y-65420000D01*
G75*
G02*
X130610000Y-65370000I0J50000D01*
G01*
G37*
G36*
G01*
X130610000Y-63370000D02*
X130610000Y-62370000D01*
G75*
G02*
X130660000Y-62320000I50000J0D01*
G01*
X133160000Y-62320000D01*
G75*
G02*
X133210000Y-62370000I0J-50000D01*
G01*
X133210000Y-63370000D01*
G75*
G02*
X133160000Y-63420000I-50000J0D01*
G01*
X130660000Y-63420000D01*
G75*
G02*
X130610000Y-63370000I0J50000D01*
G01*
G37*
%TD*%
M02*
